<svg id="Layer_1" data-name="Layer 1" xmlns="http://www.w3.org/2000/svg" viewBox="0 0 1307 357"><defs><style>.cls-1{fill:#fff;}</style></defs><path class="cls-1" d="M579.5,1.4c-10.9,4-21.1,18.9-25.2,36.8-2.7,11.6-2.6,33.5.3,46.8,5.2,24.5,19,45.8,33.9,52.7,6.6,2.9,17.4,3,23.9.1,9.9-4.6,19.1-17.8,23.3-33.3,1.5-5.3,1.9-10.7,1.9-25.2,0-19.8-1.5-28.3-7.2-42.4s-17.6-29.3-27.8-34C596-.3,585.9-.9,579.5,1.4Z"/><path class="cls-1" d="M690,2c-19.6,6.5-35.3,27.9-42.7,58.3-3.1,13-3.6,37-.6,47.3,4,14.2,10.1,23.2,19.2,28.2,4.9,2.7,6.6,3.1,13.3,3.1,9.8,0,17.1-3.3,25.8-11.5,35.1-33.5,38.4-108.3,5.5-124.1C705.5.9,695.4.3,690,2Z"/><path class="cls-1" d="M506.9,81.8a44,44,0,0,0-9,6.3c-21.8,20.2-17.3,71,8.7,98.9,18.4,19.6,39.1,22.2,54.1,6.7,21-21.7,14.9-72.4-11.9-99.5-9.4-9.6-18.2-13.8-29.4-14.2C513,79.8,510.3,80.2,506.9,81.8Z"/><path class="cls-1" d="M753.2,87.1c-26.8,5.3-49.4,40.4-49.4,76.7,0,21,7.3,36,21.1,43.2,4.3,2.3,6.5,2.8,13.4,2.8,11,0,18.9-3.6,29.3-13.7,28.8-27.3,35.2-80.5,12.2-101.3A31,31,0,0,0,753.2,87.1Z"/><path class="cls-1" d="M625.8,151.2c-9.1,2.1-21.5,8.2-31.5,15.7-34.8,25.9-71.6,82.1-81.1,124-2.7,11.9-2.5,26,.5,33.7s11,15.9,20.8,20.7c19.8,9.7,40.4,8.9,82.4-3.1,22.2-6.3,24.9-6.8,31.6-5.1,3,.7,12.3,4.2,20.5,7.6,23.6,9.9,36.1,10.7,52,2.7,10.2-5,22.8-16.9,27-25.5,8.3-17,3.4-44.7-14.3-80.4-18.9-38.1-45.3-69.3-71-83.9C651.4,151.1,637.2,148.7,625.8,151.2Zm-21.3,39.7c3.3,2.9,4.9,5.2,5.4,7.7a7.8,7.8,0,0,0,9.2,6.1h.4a4.3,4.3,0,0,1,4.7,1.6l1.9,2,2.3-2.1c2.8-2.7,9-4.1,14-3.3l3.8.5-.6,5.4c-.7,7.5-2.3,12.9-3.5,12.9s-.9.7-.6,1.5a1.7,1.7,0,0,1-.4,2.1,1.1,1.1,0,0,0-.4,1.5c.7,1.2-4.5,11.3-5.8,11.3s-.9.6-.9,1.5-1.1,1.7-2.6,2-2.6,1.2-2.6,1.8,5.6,1,17.9.7l17.8-.3,4.4-4.4c4.8-4.9,9.7-5.8,12.5-2.6s5.1,9.6,3.7,9.6-.8,1-.4,2.6.4,2.6-1.5,2-2-.4-1.4.4a2.5,2.5,0,0,1-.5,2.6c-.8,1-.6,1.8,1,3.1s1.7,2.2,1.4,2.7,1,1.7,2.9,2.7,3,1.8,1.6,2.1-2.4,2.3-.5,2.3.8.3.2.8-1,5.1,1.9,9.5,2.9,9.6-.1,8.5c-1.2-.5-1.4-.3-.8.7a10.9,10.9,0,0,1,1.1,4.3c.2,2.5-.1,2.8-1.8,2.3s-1.8-.4.2,3.8,2,4.2.8,3.7-3.9,1.4-3.1,4.2.1,2.3-.8,2.3-1.1.9-.7,2.9.3,3.1-2.1,3.8a13.9,13.9,0,0,1-4,.6c-.9-.1-1.4,1-1.4,2.7,0,3.3-1.4,5.1-4.6,5.4-7.4.8-10.6-1.4-7.3-5.1s3.8-8.3,2.4-13.9c-.7-3-1.9-5.1-2.6-5s-1.2-.2-1.2-.7-.7-1-1.6-1-1.5-.4-1.5-.9-.9-.8-2.1-.4-2,.9-2,1.4-.2.8-.6.8h-.1c-2.4-.4-3.4.3-3.4,2.2s-.5,1.8-1.6,1.4-1.5.3-1.5,4.1-.4,4.7-1.2,4.7-2.9,1.9-5,4.2-4.5,4.1-7.3,4.1c-8.6,0-10.1-2.4-4.9-7.3,2.9-2.7,3-3.1,1.5-4.6s-1.7-1.5-2.2,0-.9,1.4-1.5,1.1-1.3.7-2,2-1.8,2.6-2.3,2.6-.8,1.9-.8,4.1-.4,4.1-1,4.1-.7.6-.4,1.4-14.3,6.3-18.5,5.1-3.2-1.3-3.5-5.3.2-5.1,1.7-6.7,3.9-7.8,1.8-7.8a1.7,1.7,0,0,1-1.7-1.6c0-.8-.5-1.5-1-1.5s-.8-1.1-.4-2.9.6-2.7-1-1.2-1.9,1.2-1.7-1.6c.4-6,.1-7.1-1.5-5.6s-1.6,1-1.6-.4-.4-1.7-1-1.7-.7-1.3-.3-3.1.3-2.9-1.1-2.4-1.7.1-1.7-1-.5-1.4-1.7-1-1.5.3-.8-.7.4-1.2-.9-.7-3.1-4-2.2-10.2c.4-3.1.3-4.5-.5-4.5s.2-2,1.9-4.3,2.9-4.5,2-5-.6-1.6,1.1-3.4,2.3-3.2,1.6-7.6-1.2-5.3-2.5-5.7-2.1-1.8-2.6-5.2-1.2-4.8-1.7-4.8,0-1.5,1.1-3.5c2.6-4.1,2.7-4.8.6-4.1s-1.9-.5,0-3,2-3.7-.2-3.7-.9-.9,1.8-3.3,2.9-3.4,2.2-3.7-1.7-4.3-.3-4.3.6-2.2.3-4.8c-.4-4.4-.2-4.9,4-9.2,2.5-2.5,4.7-4.5,5.2-4.5A30.6,30.6,0,0,1,604.5,190.9Z"/><path class="cls-1" d="M219.9,352.8h-94l-6.3-19.2c-2.7.9-9.2,3.8-19.8,8.8A209,209,0,0,0,77.3,357l-9.8-17.5c-1.9-3.4-4.7-8.3-8.4-14.6l-9.3,27.9H0Q11,317.1,34,235q14.1-55,23.6-104.3H160.8q4.8,22.7,26.3,105.7Q199,279.8,219.9,352.8ZM111.5,305.4c-1.9-5.1-5.4-13.4-10.3-24.9-3-6.3-7.5-15.1-13.6-26.3-2.6,5.6-6.7,14.7-12.3,27.5-3.1,7.3-6.8,17.3-11,29.9,3.4,0,11.2-.6,23.3-1.7A209.7,209.7,0,0,0,111.5,305.4Z"/><path class="cls-1" d="M461,243.5q0,52.2-38.5,82.1T310.6,356.7q-46.4,0-71.6-3.9l-4.7-107.4q-2.1-41.4-8-114.1a648.8,648.8,0,0,1,77.8-4.5q72.3,0,113.2,28.3Q460.9,185.6,461,243.5Zm-70.5,17.8c0-14.2-5.4-24.6-16.3-31.4-9.1-5.6-20.6-8.1-34.7-7.7l-2.4,90.7c14.6-.8,26.6-4.8,35.9-12C384.7,291.9,390.5,278.7,390.5,261.3Z"/><path class="cls-1" d="M1085.9,218.3q0,41.1-31.2,65.8c-20.8,16.4-48.3,24.6-82.7,24.6l-2.1,44.1H875.3l-5-107.7q-2.2-41.7-7-114.4,26.7-4.5,78.5-4.5,63,0,101,21.3Q1085.9,171.6,1085.9,218.3Zm-71.3,24.3q0-22.5-31.8-22.5a67.4,67.4,0,0,0-7.7.4l-1.7,50.6Q1014.7,269.9,1014.6,242.6Z"/><path class="cls-1" d="M1307,130.7l-5,91c-4.4-.6-11.6-1.3-21.4-2.2-6.1-.3-16-.6-29.6-.9-.7,5.7-1.9,19.4-3.6,41.2s-3.3,52.2-6.2,93h-83.1c-.9-19.4-2.7-50.1-5.2-91.8-1.1-14.5-2.3-28.6-3.6-42.4l-27.1.9-24.6,2.2-4.3-91Z"/></svg>