<svg id="ff16765c-53e7-45f4-a8d1-86e7f8981469" data-name="arrow" xmlns="http://www.w3.org/2000/svg" viewBox="0 0 372.7 210.8"><defs><style>.f29fef28-c137-4dad-bdbc-6f548af102cc{fill:#fff;}</style></defs><path class="f29fef28-c137-4dad-bdbc-6f548af102cc" d="M28.7,193.8h-.2v.2l5.7,1.9Z" transform="translate(-0.6)"/><path class="f29fef28-c137-4dad-bdbc-6f548af102cc" d="M17.7,189.3c-3.6-1.6-7.2-3.4-10.6-5.3h0a.5.5,0,0,0-.7,0v.2c-.2.3,0,.6.2.8a106.6,106.6,0,0,0,10.9,4.9.4.4,0,0,0,.5-.2c.1-.2,0-.3-.2-.4Z" transform="translate(-0.6)"/><path class="f29fef28-c137-4dad-bdbc-6f548af102cc" d="M13.1,175.6h.1a1.2,1.2,0,0,0,.9-1.1,1.1,1.1,0,0,0-1-.9l-6,.5-3,.6A8.9,8.9,0,0,0,1,175.8a.8.8,0,0,0-.3,1,.8.8,0,0,0,1.1.3h0a11.2,11.2,0,0,1,2.6-.8l2.9-.4A56.3,56.3,0,0,1,13.1,175.6Z" transform="translate(-0.6)"/><path class="f29fef28-c137-4dad-bdbc-6f548af102cc" d="M37,174.1c-4-.3-7.9-.4-11.9-.5a1.3,1.3,0,0,0-.9,1.5,1.1,1.1,0,0,0,.8.8c3.9.2,7.9.5,11.8.9h0a1.5,1.5,0,0,0,1.5-1.3,1.3,1.3,0,0,0-1.2-1.4Z" transform="translate(-0.6)"/><path class="f29fef28-c137-4dad-bdbc-6f548af102cc" d="M60.8,176l-11.9-1.1a1.5,1.5,0,0,0-1.6,1.4h0a1.5,1.5,0,0,0,1.3,1.6h0l11.9,1.4h0a1.6,1.6,0,0,0,2.1-1.1,1.7,1.7,0,0,0-1.1-2.1Z" transform="translate(-0.6)"/><path class="f29fef28-c137-4dad-bdbc-6f548af102cc" d="M84.5,178.4l-11.8-1.2a1.7,1.7,0,0,0-2,1.4h0a2,2,0,0,0,1.5,2.1h.1l11.8,1.6h0a2,2,0,0,0,2.2-1.8h0A2.1,2.1,0,0,0,84.5,178.4Z" transform="translate(-0.6)"/><path class="f29fef28-c137-4dad-bdbc-6f548af102cc" d="M108.2,181.3l-11.8-1.5a2.2,2.2,0,0,0-2.3,1.8,2.1,2.1,0,0,0,1.7,2.4h0l11.8,1.7h.1a2.2,2.2,0,0,0,2.5-1.9h0A2.4,2.4,0,0,0,108.2,181.3Z" transform="translate(-0.6)"/><path class="f29fef28-c137-4dad-bdbc-6f548af102cc" d="M131.9,184.4,120,182.9a2.3,2.3,0,0,0-2.6,1.9,2.4,2.4,0,0,0,2,2.7h0l11.7,1.8h.1a2.5,2.5,0,0,0,2.8-1.9v-.2A2.5,2.5,0,0,0,131.9,184.4Z" transform="translate(-0.6)"/><path class="f29fef28-c137-4dad-bdbc-6f548af102cc" d="M155.5,187.7l-11.8-1.6a2.6,2.6,0,0,0-1.4,5h.6l11.8,1.9h0a2.7,2.7,0,0,0,.8-5.4Z" transform="translate(-0.6)"/><path class="f29fef28-c137-4dad-bdbc-6f548af102cc" d="M179.1,191.2l-11.8-1.7a2.8,2.8,0,0,0-1.4,5.4h.5l11.8,2h0a2.9,2.9,0,0,0,3.3-2.4h0A3,3,0,0,0,179.1,191.2Z" transform="translate(-0.6)"/><path class="f29fef28-c137-4dad-bdbc-6f548af102cc" d="M202.6,194.6h0L190.8,193h0a3,3,0,0,0-.8,6h0l11.8,1.8h.1a3.1,3.1,0,0,0,3.5-2.6A3.5,3.5,0,0,0,202.6,194.6Z" transform="translate(-0.6)"/><path class="f29fef28-c137-4dad-bdbc-6f548af102cc" d="M226.2,197.8h0l-11.8-1.6h0a3.2,3.2,0,1,0-.9,6.3l11.8,1.8h.1a3.3,3.3,0,0,0,3.6-2.9,3.2,3.2,0,0,0-2.8-3.6Z" transform="translate(-0.6)"/><path class="f29fef28-c137-4dad-bdbc-6f548af102cc" d="M249.8,200.6h0L238,199.2h0a3.5,3.5,0,0,0-3.8,2.9,3.4,3.4,0,0,0,3,3.8h0l11.8,1.5h0a3.4,3.4,0,1,0,.8-6.8Z" transform="translate(-0.6)"/><path class="f29fef28-c137-4dad-bdbc-6f548af102cc" d="M273.5,202.8h-.1l-11.8-1h-.1a3.4,3.4,0,0,0-3.7,2.9v.2a3.4,3.4,0,0,0,3,3.8h.1l11.9,1.1h.1a3.5,3.5,0,0,0,3.8-3.2h0A3.6,3.6,0,0,0,273.5,202.8Z" transform="translate(-0.6)"/><path class="f29fef28-c137-4dad-bdbc-6f548af102cc" d="M296.8,203.4h-.1c-3.8.2-7.7.2-11.6.1h0a3.6,3.6,0,0,0-3.7,3.4,3.7,3.7,0,0,0,3.5,3.7c4,.2,8,.3,12.2.1h0a3.7,3.7,0,0,0-.3-7.3Z" transform="translate(-0.6)"/><path class="f29fef28-c137-4dad-bdbc-6f548af102cc" d="M311.7,197.3a16,16,0,0,0-2.5-2.7l-2.4-2.2h-.1a3.7,3.7,0,0,0-5.2.6h0a3.8,3.8,0,0,0,.6,5.3h0l2,1.7,1.6,1.7.2.3a3.8,3.8,0,0,0-.5,4.8,3.6,3.6,0,0,0,5.1.9h.1a7.3,7.3,0,0,0,2.1-2.2,6.2,6.2,0,0,0,.8-3.5,6.8,6.8,0,0,0-.7-2.8A11.8,11.8,0,0,0,311.7,197.3Z" transform="translate(-0.6)"/><path class="f29fef28-c137-4dad-bdbc-6f548af102cc" d="M282.4,186c3.5,1.9,6.9,3.8,10.2,5.9a3.8,3.8,0,1,0,4-6.4c-3.5-2.1-6.9-4.2-10.4-6.1h0a3.8,3.8,0,0,0-5.2,1.4h0A3.8,3.8,0,0,0,282.4,186Z" transform="translate(-0.6)"/><path class="f29fef28-c137-4dad-bdbc-6f548af102cc" d="M275.8,173.5l-10.5-5.7h0a3.8,3.8,0,0,0-5.2,1.3c0,.1-.1.1-.1.2a4,4,0,0,0,1.6,5.3l10.5,5.6h0a3.7,3.7,0,0,0,5.1-1.3c0-.1.1-.1.1-.2A3.9,3.9,0,0,0,275.8,173.5Z" transform="translate(-0.6)"/><path class="f29fef28-c137-4dad-bdbc-6f548af102cc" d="M255,162.1h-.1l-10.3-5.8h-.1a3.9,3.9,0,0,0-3.8,6.8l10.4,5.9a3.8,3.8,0,0,0,5.1-2,4,4,0,0,0-1.2-4.7v-.2Z" transform="translate(-0.6)"/><path class="f29fef28-c137-4dad-bdbc-6f548af102cc" d="M235.8,155.5a4.1,4.1,0,0,0-1.2-5.5c-3.3-2.1-6.5-4.2-9.6-6.5h0a3.9,3.9,0,0,0-5.5.8h0a3.9,3.9,0,0,0,.8,5.5h0c3.3,2.5,6.7,4.7,10.1,6.9A4,4,0,0,0,235.8,155.5Z" transform="translate(-0.6)"/><path class="f29fef28-c137-4dad-bdbc-6f548af102cc" d="M216.3,141.8a4.1,4.1,0,0,0,.3-5.6h-.1a22.7,22.7,0,0,1-2.9-4l-.4-.9-.4-1.3-1-2.7v-.2h0a4,4,0,0,0-7.6,2.7h0l1.1,2.9.5,1.4a14.2,14.2,0,0,0,.8,1.8,25.8,25.8,0,0,0,4.1,5.7h0A4,4,0,0,0,216.3,141.8Z" transform="translate(-0.6)"/><path class="f29fef28-c137-4dad-bdbc-6f548af102cc" d="M201.1,117.8a4,4,0,0,0,7.8-1.6h0a51.7,51.7,0,0,1-1.2-11.1h0a4.1,4.1,0,0,0-4-3.9,3.8,3.8,0,0,0-3.9,3.9h0a66.5,66.5,0,0,0,1.3,12.6Z" transform="translate(-0.6)"/><path class="f29fef28-c137-4dad-bdbc-6f548af102cc" d="M204.2,97.2a4,4,0,0,0,4.7-2.8,34.2,34.2,0,0,1,4.2-9.8,3.8,3.8,0,0,0-1.1-5.3h0a3.9,3.9,0,0,0-5.4,1.1h0a44.1,44.1,0,0,0-5.2,12h0a3.9,3.9,0,0,0,2.8,4.8Z" transform="translate(-0.6)"/><path class="f29fef28-c137-4dad-bdbc-6f548af102cc" d="M220.1,76.2a59.8,59.8,0,0,1,8.9-6.8h0a3.7,3.7,0,1,0-3.9-6.3h0A67.8,67.8,0,0,0,215,70.6h-.1a3.8,3.8,0,0,0-.1,5.4h0a3.8,3.8,0,0,0,5.3.2Z" transform="translate(-0.6)"/><path class="f29fef28-c137-4dad-bdbc-6f548af102cc" d="M239,63.8c3.5-1.7,7.1-3.3,10.7-4.8a3.5,3.5,0,1,0-2.5-6.5c-3.8,1.5-7.5,3-11.2,4.7h-.1a3.4,3.4,0,0,0-1.7,4.5c0,.1.1.1.1.2a3.4,3.4,0,0,0,4.6,1.8Z" transform="translate(-0.6)"/><path class="f29fef28-c137-4dad-bdbc-6f548af102cc" d="M260.6,54.8h.1l11.2-3.9h0a3,3,0,0,0,2-3.6v-.2a3.1,3.1,0,0,0-3.7-2.1h-.2l-11.4,3.6h-.1a3.3,3.3,0,1,0,1.7,6.3.6.6,0,0,0,.5-.2Z" transform="translate(-0.6)"/><path class="f29fef28-c137-4dad-bdbc-6f548af102cc" d="M283.1,47.1l11.3-3.8a2.7,2.7,0,0,0-1.6-5.2h0l-11.4,3.4h-.1a2.7,2.7,0,0,0-1.9,3.4v.2A2.9,2.9,0,0,0,283.1,47.1Z" transform="translate(-0.6)"/><path class="f29fef28-c137-4dad-bdbc-6f548af102cc" d="M315.4,30.8h0l-11.3,3.7H304a2.5,2.5,0,0,0-1.5,3.1,2.5,2.5,0,0,0,3.1,1.5.1.1,0,0,0,.1-.1l11.2-4.3a2.2,2.2,0,0,0,1.3-2.7A2.3,2.3,0,0,0,315.4,30.8Z" transform="translate(-0.6)"/><path class="f29fef28-c137-4dad-bdbc-6f548af102cc" d="M373.3,0c-23.7,4.8-55.2,7.6-78.1,3.9l30.3,23.8a1.5,1.5,0,0,0,0,1.6,1.9,1.9,0,0,0,1.8,1.1l8.2,38C342.2,46.3,358.5,19.1,373.3,0Z" transform="translate(-0.6)"/></svg>