<?xml version="1.0" encoding="utf-8"?>
<!-- Generator: Adobe Illustrator 26.0.1, SVG Export Plug-In . SVG Version: 6.00 Build 0)  -->
<svg version="1.1" id="Capa_1" xmlns="http://www.w3.org/2000/svg" xmlns:xlink="http://www.w3.org/1999/xlink" x="0px" y="0px"
	 viewBox="0 0 26.7 17.1" style="enable-background:new 0 0 26.7 17.1;" xml:space="preserve">
<style type="text/css">
	.st0{fill:#4291E0;}
</style>
<path class="st0" d="M26.1,17.1c-0.2,0-0.5-0.2-0.5-0.4l0,0c-0.1-0.1-1.7-3.8-7.9-4.5c-1.6-0.2-3.1-0.3-4.7-0.3v4.6
	c0,0.2-0.1,0.4-0.3,0.5h-0.6L0.3,9C0.1,8.9,0,8.7,0,8.5c0-0.2,0.1-0.3,0.3-0.4l11.8-8c0.2-0.1,0.4-0.1,0.6,0C12.9,0.2,13,0.4,13,0.6
	v4.2c2.6,0.4,13.7,2.4,13.7,11.7c0,0.3-0.2,0.6-0.5,0.6H26.1z"/>
</svg>
