<svg id="Capa_1" data-name="Capa 1" xmlns="http://www.w3.org/2000/svg" viewBox="0 0 202.9 115.7"><defs><style>.cls-1{fill:#4291e0;}</style></defs><path class="cls-1" d="M247.8,166.1l-10.9-47.2c-2.3-7-11.2-12.6-26.6-16.7S175,96,153.8,96s-41.3,2.2-56.5,6.2-24.4,9.7-26.6,16.7L59.8,166.1a11.1,11.1,0,0,0-7.4,10.4c0,12.3,11.7,21.6,34.7,27.8,17.9,4.7,41.6,7.3,66.7,7.3h0c25.1,0,48.8-2.6,66.7-7.3q34.6-9.3,34.7-27.8A11.1,11.1,0,0,0,247.8,166.1Zm-57.4,9.7a9.5,9.5,0,0,1-9.3,9.7,9.4,9.4,0,0,1-9.6-9.2H136.2a9.5,9.5,0,0,1-19-.8,9.4,9.4,0,0,1,2.6-6.1,9.4,9.4,0,0,1,13.8-12.9,9.4,9.4,0,0,1,2.6,6.1h35.3a9.5,9.5,0,0,1,9.8-9.1,9.6,9.6,0,0,1,9.1,9.9,9.1,9.1,0,0,1-2.6,6A9.2,9.2,0,0,1,190.4,175.8ZM206,130.7c-14.1,3.5-32.7,5.5-52.2,5.5s-38.1-2-52.2-5.5-18.2-7.2-19.4-8.8c1.2-1.5,5.9-5.3,19.4-8.7s32.7-5.5,52.2-5.5,38.1,2,52.2,5.5,18.2,7.2,19.3,8.7C224.2,123.5,219.4,127.3,206,130.7Z" transform="translate(-52.4 -96)"/></svg>