<svg id="Layer_1" data-name="Layer 1" xmlns="http://www.w3.org/2000/svg" viewBox="0 0 1339.4 293.3"><defs><style>.cls-1{fill:#fff;}</style></defs><path class="cls-1" d="M159,178.4a81.8,81.8,0,0,0-19.7-2c-15,0-27.1,3.3-36.4,9.9s-15.8,18-15.8,31.9c0,10.9,4.1,19.8,12.5,26.7s19.3,10.4,32.8,10.4a62.6,62.6,0,0,0,26.3-5.7c-.9,3.2-2.5,9.1-4.7,17.8-1.3,5.7-2.6,11.7-3.8,17.9-10.5,3.3-23.9,5-40.2,5-29.6,0-54.9-8.3-75.8-25.1Q0,237.9,0,194.1c0-27,9.8-48.9,29.4-65.5s49.8-26.7,86.6-26.7c17.8,0,30.6.9,38.5,2.6Z"/><path class="cls-1" d="M660,104.3c-1.3,15.9-3.1,43.5-5.5,83.1-1.4,29-2.5,62.4-3.5,100.2-12.2-8.1-30.8-20.1-55.8-36.2l-48.4-28.6-1.4,62.5H500.3q-1.2-24-5.2-90.3-3.5-53.7-7.1-90.7h70.2l52.1,41.5c0-9.5-.2-17-.6-22.4s-.8-11.2-1.6-19.1Z"/><path class="cls-1" d="M804.7,178.4a93.3,93.3,0,0,0-15.7-2,20.6,20.6,0,0,0-12,3.8c-4.4,3-6.6,7-6.6,11.9s4,11,12,21.8,12.1,20.6,12.1,29.7c0,13.1-5.9,23.8-17.8,32.2S751.5,288,734.9,288s-26.6-.9-33.9-2.7l-4.3-17.7L691.2,250c10.3,2.2,17.2,3.2,20.7,3.2,13.9,0,20.9-4.4,20.9-13.3,0-6.4-2.8-12.2-8.4-17.3l-27.5-20.4q-26.5-19.8-26.6-47c0-18.9,8.4-33.3,25.2-43Q717.6,99.5,754,99.5c13.8,0,29.3,1.7,46.5,5Z"/><path class="cls-1" d="M1005.1,104.3l-3.2,76.2q-1.4,32.7-1.4,98.8a251.8,251.8,0,0,1-73.1,10.8c-30.6,0-53.8-5.2-69.8-15.4-13.5-8.8-23.1-22.3-28.7-40.8-3.3-10.6-6.3-30-9.2-58.2-2.8-26.1-4.6-49.9-5.2-71.4h90.3c-.5,10.4-1.1,27.3-1.7,50.7-.3,13-.2,31.5.3,55.4.1,18.3,1.9,30.6,5.6,36.9s11.4,10.2,22.9,10.2a29.5,29.5,0,0,0,10.9-2.4q0-24.3-1.6-77.2c-1-17.6-2.7-42.2-5.2-73.6Z"/><path class="cls-1" d="M1161.9,249.6c-1,3.1-2.7,9-5.2,17.8a174.7,174.7,0,0,0-3.4,17.9H1026.7q-.7-27.7-3.5-91.2-1.8-32.5-6.6-89.8h97.1l-7.9,150.1c9,0,22.6-.8,40.7-2.5C1150.2,251.6,1155.4,250.8,1161.9,249.6Z"/><path class="cls-1" d="M1339.4,104.3l-4.1,74.1c-3.6-.5-9.5-1.1-17.5-1.8l-24.1-.7c-.5,4.7-1.5,15.9-2.9,33.6s-2.7,42.5-5.1,75.8H1218c-.7-15.9-2.1-40.8-4.2-74.9-.9-11.7-1.9-23.2-2.9-34.5l-22.1.7-20.1,1.8-3.5-74.1Z"/><path class="cls-1" d="M425,36.2Q386.2,0,324.3,0T222.4,36q-41.2,38.3-41.2,105.5,0,62.9,37.9,106,40.2,45.8,105.2,45.8,63,0,103.5-45.4,38.6-43.5,38.5-106.4Q466.3,74.6,425,36.2ZM404.4,193.5c-1.6-.8-1.9-.5-1,1a17.6,17.6,0,0,1,1.5,6.4c.3,3.6-.1,4.1-2.6,3.3s-2.7-.6.3,5.6,2.9,6.2,1.1,5.4-5.6,2.2-4.5,6.3.1,3.3-1.1,3.3-1.7,1.3-1.1,4.4.5,4.5-3.1,5.6a19.9,19.9,0,0,1-5.9.7c-1.2-.1-2,1.5-2,4.1,0,4.8-2.1,7.4-6.8,7.9-10.9,1.2-15.6-2-10.7-7.4s5.5-12.3,3.4-20.6c-1-4.4-2.7-7.4-3.8-7.3s-1.8-.3-1.8-1-1-1.5-2.2-1.5-2.3-.7-2.3-1.4-1.4-1.1-3-.6-3.1,1.3-3.1,2.1a1,1,0,0,1-.8,1.2h-.2c-3.5-.6-5,.5-5,3.2s-.8,2.7-2.3,2.1-2.2.5-2.2,6.1-.6,6.9-1.9,6.9-4.2,2.7-7.2,6.1-6.7,6-10.8,6c-12.7,0-14.9-3.5-7.2-10.7,4.2-4,4.4-4.6,2.3-6.8s-2.6-2.1-3.4,0-1.3,2.1-2.1,1.6-2,1.1-3,3.1-2.6,3.7-3.3,3.7-1.3,2.8-1.3,6.1-.6,6-1.5,6-1,.9-.6,2-21,9.4-27.2,7.6-4.7-2-5.1-7.9.3-7.4,2.5-9.8,5.8-11.5,2.6-11.5a2.4,2.4,0,0,1-2.4-2.3c0-1.2-.8-2.3-1.5-2.3s-1.2-1.6-.6-4.2.9-3.9-1.5-1.8-2.8,1.8-2.5-2.3c.6-8.9.2-10.4-2.2-8.3s-2.3,1.5-2.3-.6-.6-2.4-1.5-2.4-1.1-2-.5-4.6.5-4.3-1.6-3.6-2.5.2-2.5-1.5-.7-2-2.5-1.4-2.1.5-1.2-1,.6-1.8-1.2-1.1-4.7-5.9-3.4-15c.6-4.5.5-6.6-.7-6.6s.3-2.9,2.8-6.4,4.3-6.6,2.9-7.4-.9-2.2,1.7-5,3.3-4.7,2.4-11.2-1.8-7.7-3.8-8.3-3-2.7-3.8-7.7-1.8-6.9-2.5-6.9,0-2.3,1.6-5.2c3.8-6,4-7.1.9-6s-2.8-.8,0-4.6,2.9-5.4-.3-5.4-1.3-1.2,2.6-4.9,4.4-5,3.3-5.4-2.5-6.4-.4-6.4.9-3.1.4-6.9c-.6-6.5-.3-7.3,5.9-13.6,3.7-3.7,7-6.7,7.6-6.7a52.6,52.6,0,0,1,7.9,6.2c4.8,4.3,7.2,7.7,8,11.4a11.5,11.5,0,0,0,13.5,9h.5a6.3,6.3,0,0,1,7,2.3l2.7,3,3.5-3.2c4.1-3.9,13.2-6,20.6-4.8l5.6.7-.9,7.9c-1.1,11-3.4,19-5.2,19s-1.3,1.1-.9,2.3a2.2,2.2,0,0,1-.6,3,1.9,1.9,0,0,0-.6,2.3c1.1,1.7-6.5,16.6-8.5,16.6s-1.3.9-1.3,2.2-1.7,2.5-3.8,3-3.8,1.6-3.8,2.6,8.2,1.5,26.3,1l26.2-.4,6.5-6.5c7.1-7.2,14.2-8.5,18.4-3.8s7.5,14,5.5,14-1.2,1.6-.6,4,.6,3.8-2.3,2.8-2.9-.6-2.1.7a3.4,3.4,0,0,1-.6,3.7c-1.2,1.5-.9,2.8,1.4,4.7s2.5,3.2,2.1,4,1.5,2.4,4.2,3.9,4.4,2.7,2.4,3.2-3.6,3.3-.7,3.3,1.2.4.3,1.2-1.5,7.4,2.7,13.9S409,195.1,404.4,193.5Z"/></svg>