<?xml version="1.0" encoding="utf-8"?>
<!-- Generator: Adobe Illustrator 26.0.1, SVG Export Plug-In . SVG Version: 6.00 Build 0)  -->
<svg version="1.1" id="Layer_1" xmlns="http://www.w3.org/2000/svg" xmlns:xlink="http://www.w3.org/1999/xlink" x="0px" y="0px"
	 viewBox="0 0 2661.2 3143.6" style="enable-background:new 0 0 2661.2 3143.6;" xml:space="preserve">
<style type="text/css">
	.st0{opacity:0.2;fill:#000072;}
	.st1{fill:#F6A226;}
	.st2{fill:#AB5D1D;}
	.st3{fill:#FFFFFF;}
	.st4{fill:#000072;}
	.st5{fill:#CD9E77;}
	.st6{opacity:0.4;fill:#FFFFFF;}
	.st7{fill:#FAC77D;}
	.st8{fill:#B87939;}
	.st9{fill:#804632;}
	.st10{fill:#9A7B73;}
	.st11{fill:#A9989C;}
	.st12{opacity:0.251;fill:#000072;}
	.st13{fill:#BFBFDC;}
	.st14{fill:#6666AA;}
	.st15{fill:#021168;}
	.st16{fill:#5959A3;}
	.st17{fill:#C4C9D6;}
	.st18{fill:#ED435C;}
	.st19{fill:#727C93;}
	.st20{opacity:0.251;fill:#021168;}
	.st21{fill:#C0C3D9;}
	.st22{fill:#010D6B;}
	.st23{fill:#9397BD;}
	.st24{fill:#B23262;}
	.st25{fill:#555D8B;}
	.st26{fill:#B2B2D4;}
	.st27{fill:#FF0068;}
</style>
<g>
	<path class="st0" d="M1105.8,2947c-40.4,0-80.1,0.3-119.1,0.9c-9.7,30.6-46.3,86.5-184.4,91c-24.2,0.8-48,1.2-71.1,1.2
		c-130.6,0-240.6-14.3-277.3-61.3c-144.3,17.5-232.4,40.8-232.4,66.4c0,54.3,395.9,98.3,884.3,98.3c488.4,0,884.3-44,884.3-98.3
		c0-23.8-76.2-45.7-203-62.7c-2,4.9-4.3,9-6.5,12.3c-18.1,25.8-106.9,50.4-223.7,50.4c-13.7,0-27.7-0.3-42-1
		c-129.3-6.4-227.2-4.2-242.5-95.6C1218.5,2947.6,1162.8,2947,1105.8,2947"/>
	<path class="st1" d="M1761.4,1303.7c-2,1.2-3.9,2.4-5.9,3.6c-34.6,20.7-74.8,38.5-119.2,53.5c-0.7,4.4-1.4,8.2-2,11.4
		c33.4-12.7,63.9-27.1,91-43.3C1738.3,1321.2,1750.3,1312.8,1761.4,1303.7 M269.2,888.3c-3.6,1.8-6.9,3.4-9.8,4.7
		c0,1.2-0.2,2.5-0.5,3.7c-30.5,125.9-15.6,240.1,43.2,330.1c64.8,99.3,178.6,166,329.1,192.8c54.2,9.7,117.2,17.8,185.4,23.7
		c-1-6.3-2-14.1-2.9-23.3c-106.6-10.7-177.8-24.5-194.8-28c-135.7-31.1-239.1-96.2-300.1-189.8
		C262.3,1115.6,245.4,1007.5,269.2,888.3 M677.4,99.6c-0.6,0.4-1.3,0.9-1.9,1.3c-21.4,16.8-37,33.5-48.4,48.3
		c15.6-14,36.9-29.1,62.7-43.9C685.6,103.3,681.5,101.4,677.4,99.6 M894.5,955.5c-61,0-110.4-64.7-110.4-144.6
		c0-79.9,49.4-144.6,110.4-144.6c61,0,110.4,64.7,110.4,144.6C1004.9,890.8,955.5,955.5,894.5,955.5 M924.1,99.1
		C712,138.2,604.4,227,604.4,227h0c11.4,265.2-81.2,431.2-163.3,525.3c-23.4,26.8-46.8,49.1-69,67.7c6.1,35.7,60.3,321.4,236,407.5
		c61.7,30.3,131.4,59.1,208.4,82.5c10.8-72.3,42.7-157.3,124.1-223.5c175.7-143,294.3-302.3,223.2-593.2
		C1116.4,299.5,997.9,166.4,924.1,99.1 M1571,948.9c-61,0-110.4-64.7-110.4-144.6c0-79.9,49.4-144.6,110.4-144.6
		c61,0,110.4,64.7,110.4,144.6C1681.4,884.2,1632,948.9,1571,948.9 M1108.2,81.6c53.5,86.1,146.3,255.3,168.4,423.1
		c31.5,239.2,124.3,383.7,264.5,544.1c71.9,82.3,93.9,168.2,98.3,232.4c121.8-54.6,185.7-133.2,219.4-239.9
		c-0.3-3.7-0.6-7.4-0.9-11.2c-9.7-105.5-50.9-194.2-51.3-195.1c-2.8-5.8-1.9-12.7,2.2-17.6c0.1-0.1,0.2-0.2,0.3-0.3
		c-9.1-21.9-26.7-72.5-48.5-175.2c-2.3-10.9-4.7-21.9-7.3-33.1c-37-78.6-105.6-217.1-164.8-294.3
		C1508,209.4,1370.8,81.8,1108.2,81.6 M1391.5,80.9C1391.5,80.9,1391.5,80.9,1391.5,80.9c185.3,108.6,276.3,260.5,327.1,406.3
		C1667.9,341.4,1576.9,189.5,1391.5,80.9"/>
	<path class="st2" d="M594.9,178.1c-0.2,0-0.4,0-0.5,0c-3.7,0.3-6.5,3.6-6.2,7.3c23.3,285.1-72.5,460.5-156.9,557.4
		c-71.5,82-147.2,123.3-177.3,137.7c1.9,1.7,3.4,3.9,4.3,6.3c131.5-46,259.1-222.8,301.9-359.3c45.4-144.7,38.4-325.1,38.4-325.1
		s0.9-4,3.7-10.9c-0.2-2.4-0.4-4.8-0.6-7.2c0-0.9-0.3-1.8-0.8-2.6l0,0l0,0c0-0.2-0.2-0.3-0.3-0.4l0,0
		C599.4,179.3,597.2,178.1,594.9,178.1 M675.4,101c-21.2,14.6-56.6,42.6-72,75.1c-0.9,1.4-1.7,2.9-2.4,4.4c0.7-1.5,1.5-3,2.4-4.4
		c0,0,0,0,0,0c4.9-8.1,12.9-17.2,23.7-26.8C638.4,134.5,654,117.8,675.4,101 M347.3,252.5L347.3,252.5c-0.9,3.5-1.7,7.1-2.4,10.6
		c-0.9,1.9-1.7,3.2-2,3.2c-0.4,0,0.5-3.3,4.1-13.1L347.3,252.5 M588.8,77.1c-28.1,6.6-73.2,19.8-119.1,43.1
		c-72,36.6-116.8,126-120.2,133c5.9-19,12.4-37.7,19.9-56c5.6-14,11.9-28.3,18.1-41.3c4.2-8.8,8.7-17.7,13.3-26.3
		c-4.5,0-9.1,0.2-13.7,0.5c-3.1,7.2-6.2,14.5-9,21.8c-0.4,1.2-0.8,2.4-1.3,3.5c-172.7,53.7-215.4,206.1-246.2,301.1
		C103.3,540.7,66.1,598,56.7,611.9c-1.6,6.3-3.1,12.7-4.6,19c14.5,32.9,54.2,84.6,162.6,104.3c6.4,1.2,12.7,1.7,19,1.7
		c154.8,0,269.4-343.1,283.3-485.8c10.2-105.1,74.4-150.3,111.1-167.7C614.6,80.1,601.5,78.1,588.8,77.1"/>
	<path class="st3" d="M1636.3,1360.8c-26.1,8.9-53.6,16.8-82.2,23.9c-169.2,36.5-334.2,48.4-477.6,48.4
		c-100.2,0-189.8-5.8-262.7-13.1c0.9,9.2,1.9,17,2.9,23.3c75.8,6.5,158.1,10.3,242.1,10.3c205.2,0,420.5-22.4,575.6-81.4
		C1635,1369,1635.7,1365.2,1636.3,1360.8 M1196.5,995.7c-2.6-2.2-4-4.6-4.1-7.2c-0.8-15.2,44-29.9,100.2-33
		c6.9-0.4,13.6-0.6,20.1-0.6c46.7,0,82.3,9.2,83,22.5c0.2,2.8-1.3,5.7-4.1,8.4c4.1,4,7.1,8.6,8.8,13.7c3.6,11.1,2.7,21.4-2.9,31.6
		c-18.4,33.9-80.3,52.6-89.8,55.3c-11.1-1.4-92.8-12.6-116.5-46.4c-5.8-8.2-7.5-16.8-5.1-26.6C1187.6,1007,1191.2,1001,1196.5,995.7
		 M1107.5,81.6c-17.2,0-35,0.5-53.3,1.7c-47,2.9-90.4,8.5-130.1,15.8c73.8,67.3,192.3,200.4,239.7,394.2
		c71.1,290.9-47.5,450.2-223.2,593.2c-81.4,66.2-113.3,151.3-124.1,223.5c108.6,33,232,55.1,368.6,55.1c60.8,0,124.3-4.4,190.3-14.2
		c109.4-16.2,195.8-39.2,264-69.8c-4.4-64.2-26.4-150.1-98.3-232.4c-140.2-160.4-233-304.9-264.5-544.1
		c-22.1-167.8-114.9-337-168.4-423.1C1108,81.6,1107.7,81.6,1107.5,81.6"/>
	<path class="st4" d="M1391.5,985.9c-12.2,11.9-50.4,22.1-96.1,24.6c-6.9,0.4-13.6,0.6-20.1,0.6c-37.7,0-68.1-6-78.9-15.3
		c-5.3,5.4-8.9,11.3-10.5,17.8c-2.4,9.8-0.7,18.4,5.1,26.6c23.7,33.8,105.4,45,116.5,46.4c9.5-2.7,71.4-21.4,89.8-55.3
		c5.6-10.2,6.5-20.5,2.9-31.6C1398.6,994.5,1395.6,989.9,1391.5,985.9"/>
	<path class="st2" d="M1746.8,529.2c13.3,44.6,21.4,82.7,27.1,109.9l0,0l0,0C1768.2,611.9,1760.1,573.8,1746.8,529.2 M1699,153
		c9.7,12.1,19,24.5,27.8,37.2C1718,177.5,1708.7,165.1,1699,153 M1657.9,106.8c14.5,14.5,28.2,30.2,41.1,46.2
		C1686.1,137,1672.4,121.3,1657.9,106.8L1657.9,106.8 M1470.2,65.6c-31.1,0-56.9,7.3-58.2,7.3l-6.2-3.9c-1.3,0.9-2.5,1.8-3.6,2.6
		c7.5,4.4,14.8,9,22,13.6l-2.9-1.9c0,0,84.1,3.4,151.5,47.2c67.4,43.8,174.3,178.8,217.7,317.2c43.4,138.4,144.6,294.2,243.1,295.8
		c0,0,15,45.4-7.3,75.3c13-4.1,24.4-9.8,33.2-17.4c40.2-35-8.3-139.6-57.4-238c-25.7-28.5-57.9-70.6-80.8-122.5
		c-44.1-99.9-70.3-196.5-99.7-227.4c-23.7-24.9-86.6-51-109.7-60.1c16.1,22.2,30.8,45.3,44,69.3c14.4,26.4,27.6,53.5,38.3,81.6
		c5.8,13.8,10.3,28.2,15.1,42.4c4.8,14.2,8.2,28.8,12.3,43.2c-4.7-14.3-8.7-28.7-13.9-42.7c-5.2-14-10.3-28.1-16.7-41.6
		c-11.6-27.5-25.8-53.9-41-79.5c-3.6-6.1-7.4-12.1-11.2-18l14.7,24.1l1.3,2.2l-114.5-112.9c0,0-74.5-32.1-121.9-48.6
		C1502.6,67.4,1485.8,65.6,1470.2,65.6"/>
	<path class="st5" d="M387.1,130.1c-100.6,6.3-214.5,75.8-254.5,222.1c-11,40.6-23.4,80.5-35.3,119.1
		C82.5,519.2,68.1,566,56.7,611.9c9.5-13.9,46.7-71.2,73.9-155.4c30.8-95,73.5-247.4,246.2-301.1c0.5-1.1,0.9-2.3,1.3-3.5
		C381,144.6,384,137.3,387.1,130.1"/>
	<path class="st5" d="M347.3,252.5l-0.3,0.7c-3.5,9.9-4.4,13.1-4.1,13.1c0.2,0,1-1.4,2-3.2C345.6,259.6,346.4,256,347.3,252.5"/>
	<path class="st5" d="M567.8,76.3c-90.4,0-151.7,47-155.3,49.8c-2.9,2.3-6.5,3.5-10.2,3.5c0,0,0,0-0.1,0c-0.5,0-0.9,0-1.4,0
		c-4.6,8.6-9.1,17.5-13.3,26.3c-6.2,13-12.5,27.3-18.1,41.3c-7.5,18.3-14,37-19.9,56c3.4-7,48.2-96.4,120.2-133
		c45.9-23.3,91.1-36.4,119.1-43.1C581.7,76.5,574.7,76.3,567.8,76.3"/>
	<path class="st6" d="M1718.6,487.2c14.4,41.4,25.6,82.3,34.7,121.7c0,0.1,0.1,0.2,0.1,0.3C1744.2,569.7,1733,528.7,1718.6,487.2"/>
	<path class="st7" d="M1076.8,33.4c6.7,9.7,17.8,26.3,31.4,48.2c262.6,0.2,399.9,127.8,480.3,232.9
		c59.1,77.2,127.7,215.7,164.8,294.3c-9.1-39.3-20.3-80.2-34.7-121.7c-50.7-145.7-141.8-297.7-327.1-406.3c-2.8,2.1-6.3,3.2-9.7,3.2
		c-2.1,0-4.1-0.4-6.1-1.2C1374.5,82.5,1253.2,36.2,1076.8,33.4"/>
	<path class="st6" d="M602.3,191.5C602.3,191.5,602.3,191.5,602.3,191.5c0.9,12,1.5,23.8,2,35.5h0.1
		C603.9,215.4,603.2,203.5,602.3,191.5"/>
	<path class="st7" d="M874.5,57.7c-93,22.5-159.5,52.4-160.5,52.9c-2.2,1-4.5,1.5-6.9,1.5c-2.7,0-5.3-0.6-7.7-1.9
		c-3.2-1.7-6.4-3.3-9.6-4.8c-25.8,14.8-47.2,30-62.7,43.9c-13.6,17.7-21,32.8-24.8,42.3c0.9,12,1.6,23.8,2.1,35.5h0
		c0,0,107.6-88.8,319.7-127.9C903,79.9,885.6,66.1,874.5,57.7"/>
	<path class="st5" d="M627.1,149.3c-10.8,9.7-18.8,18.8-23.7,26.8c0,0,0,0,0,0c0,0,0,0,0,0l0,0l0,0l0,0l0,0l0,0l0,0
		c-0.9,1.8-1.7,3.7-2.5,5.6l0,0c0.5,0.8,0.8,1.7,0.8,2.6c0.2,2.4,0.4,4.8,0.6,7.2c0,0,0,0,0,0C606.1,182,613.5,167,627.1,149.3"/>
	<path class="st3" d="M1063.9,33.3c-67.1,0-133.1,10.9-189.4,24.5c11.1,8.4,28.5,22.2,49.6,41.4c39.7-7.3,83.1-12.9,130.1-15.8
		c18.3-1.1,36.1-1.7,53.3-1.7c0.2,0,0.5,0,0.7,0c-13.6-21.9-24.7-38.5-31.4-48.2c-2.4,0-4.7-0.1-7.1-0.1
		C1067.8,33.3,1065.8,33.3,1063.9,33.3"/>
	<path class="st6" d="M1707,146.7l4.7,6.6c0.1,0,0.1,0.1,0.2,0.1C1710.3,151.1,1708.6,148.9,1707,146.7 M1683,116.4
		c8.3,9.8,16.3,19.9,24,30.3C1699.3,136.3,1691.3,126.2,1683,116.4L1683,116.4"/>
	<path class="st5" d="M1683,116.4c8.3,9.8,16.3,19.9,24,30.3l0,0c1.6,2.2,3.3,4.4,4.9,6.7c23.1,9.1,86,35.2,109.7,60.1
		c29.4,30.9,55.6,127.5,99.7,227.4c22.8,51.9,55,94,80.8,122.5c-3.8-7.6-7.6-15.2-11.4-22.7c-16.6-33-33.7-67.1-47.6-98.5
		c-18.4-41.4-32.1-80.2-44.3-114.5c-28.3-79.8-48.8-137.4-101.9-162.9C1759.7,147,1721.9,131.5,1683,116.4"/>
	<path class="st6" d="M1726.8,190.2c4.1,5.9,8.1,11.8,12,17.9l-0.8-1.3C1734.4,201.2,1730.6,195.7,1726.8,190.2"/>
	<path class="st5" d="M1476.1,47.1c-32.8,0-56.9,12.6-70.3,21.9l6.2,3.9c1.3,0,27.2-7.3,58.2-7.3c15.5,0,32.4,1.8,48.2,7.3
		c47.4,16.5,121.9,48.6,121.9,48.6l114.5,112.9l-1.3-2.2l-14.7-24.1c-3.9-6-7.9-12-12-17.9c-8.9-12.7-18.2-25.1-27.8-37.2l0,0l0,0
		c-12.9-16-26.6-31.7-41.1-46.2c-10.6-4-21.3-8-32-12.1c-30.4-11.5-61.8-23.3-94.4-36.3C1511,50.2,1492.5,47.1,1476.1,47.1"/>
	<path class="st8" d="M677.2,99.6c-0.6,0.5-1.2,0.9-1.8,1.4c0.7-0.5,1.3-0.9,1.9-1.3C677.3,99.6,677.3,99.6,677.2,99.6"/>
	<path class="st9" d="M628.1,83.3C591.4,100.7,527.2,145.9,517,251c-13.9,142.7-128.6,485.8-283.3,485.8c-6.3,0-12.6-0.6-19-1.7
		C106.3,715.4,66.6,663.8,52.1,630.8c-11.9,51.4-19.4,101.7-18.8,151.4c0.3,25.2,9,44.8,26.5,60.1c35,30.4,95.9,36.2,137.3,36.2
		c25.2,0,43.1-2.1,43.6-2.2l2-0.1c0.1,0,0.1,0,0.2,0c4.3,0,8.1,1.6,11.1,4.3c30.2-14.3,105.9-55.7,177.3-137.7
		c84.4-96.9,180.2-272.3,156.9-557.4c-0.3-3.7,2.5-7,6.2-7.3c0.2,0,0.4,0,0.5,0c2.3,0,4.5,1.2,5.7,3.2l0,0l0,0l0,0l0,0
		c0.1-0.3,0.3-0.6,0.4-0.8c0.7-1.5,1.5-3,2.4-4.4c15.5-32.5,50.8-60.5,72-75.1c0.6-0.5,1.2-0.9,1.8-1.4
		C660.3,92.3,643.9,87,628.1,83.3"/>
	<path class="st10" d="M603.4,176.1c-0.9,1.4-1.7,2.9-2.4,4.4c-0.1,0.3-0.3,0.6-0.4,0.8c0.1,0.1,0.3,0.2,0.3,0.4l0,0
		C601.7,179.8,602.5,177.9,603.4,176.1"/>
	<path class="st11" d="M603.4,176.1C603.4,176.1,603.4,176.1,603.4,176.1c-0.9,1.8-1.7,3.7-2.5,5.6
		C601.7,179.8,602.5,177.9,603.4,176.1"/>
	<path class="st12" d="M372.1,819.7c-42.2,35.3-79.9,56.9-103.1,68.6l0.2-0.1c0,0,0,0.1,0,0.1c23.1-11.5,60.7-33,103-68.4
		C372.1,819.9,372.1,819.8,372.1,819.7"/>
	<path class="st8" d="M1858.8,1041.3c-33.7,106.7-97.6,185.3-219.4,239.9c2.3,33.8-0.3,61.6-3,79.6c44.4-15.1,84.6-32.8,119.2-53.5
		c2-1.2,3.9-2.4,5.9-3.6C1834.3,1244.1,1867,1156.1,1858.8,1041.3 M372.1,820c-42.3,35.4-79.8,56.8-103,68.4
		c-23.8,119.1-6.9,227.3,49.7,313.9c61,93.6,164.4,158.7,300.1,189.8c17,3.5,88.2,17.3,194.8,28c-2.6-27.3-3.8-66.3,2.8-110
		c-77-23.4-146.7-52.3-208.4-82.5C432.5,1141.3,378.3,855.7,372.1,820"/>
	<path class="st13" d="M1639.4,1281.2c-68.2,30.6-154.6,53.6-264,69.8c-66,9.8-129.4,14.2-190.3,14.2c-136.6,0-260-22.1-368.6-55.1
		c-6.5,43.6-5.4,82.6-2.8,110c73,7.3,162.5,13.1,262.7,13.1c143.4,0,308.4-11.9,477.6-48.4c28.7-7.1,56.2-15,82.2-23.9
		C1639.1,1342.8,1641.7,1315,1639.4,1281.2"/>
	<path class="st12" d="M1773.9,639.1c21.4,101,38.9,151,47.5,172.2h0C1812.8,790.1,1795.3,740.1,1773.9,639.1 M1424.2,85.2l4.2,2.7
		l2.7,1.9c195.2,128.3,277.2,310.8,315.7,439.4C1707.9,399,1624.4,213.7,1424.2,85.2"/>
	<path class="st9" d="M1421.3,83.3l2.9,1.9c200.2,128.5,283.7,313.8,322.6,444c13.3,44.6,21.4,82.7,27.1,109.9l0,0
		c21.4,101,38.9,151,47.5,172.2c0.1,0,0.2,0,0.2,0c1.3,0,2.7,0.2,4,0.5c26.1,6.6,78.5,16.1,128.8,16.1c25.7,0,50.9-2.5,71.8-9
		c22.3-29.9,7.3-75.3,7.3-75.3c-98.5-1.6-199.7-157.4-243.1-295.8c-43.4-138.4-150.3-273.4-217.7-317.2
		C1505.4,86.7,1421.3,83.3,1421.3,83.3"/>
	<path class="st3" d="M1312.6,955c-6.5,0-13.2,0.2-20.1,0.6c-56.1,3-101,17.8-100.2,33c0.1,2.6,1.6,5,4.1,7.2
		c19.7-20,62-31.7,101.4-33.3l9.3-0.2c33.4,0,67.7,7.2,84.3,23.7c2.8-2.7,4.3-5.6,4.1-8.4C1394.9,964.2,1359.3,955,1312.6,955"/>
	<path class="st14" d="M1307.2,962.2l-9.3,0.2c-39.5,1.6-81.7,13.2-101.4,33.3c10.7,9.3,41.2,15.3,78.9,15.3
		c6.5,0,13.2-0.2,20.1-0.6c45.6-2.5,83.8-12.7,96.1-24.6C1374.9,969.4,1340.6,962.2,1307.2,962.2"/>
	<path class="st15" d="M874.5,57.7c56.3-13.6,122.3-24.5,189.4-24.5c1.9,0,3.9,0,5.8,0c2.4,0,4.7,0.1,7.1,0.1
		c176.4,2.9,297.7,49.1,298.9,49.5c2,0.8,4,1.2,6.1,1.2c3.5,0,6.9-1.1,9.7-3.2c0,0,0,0,0,0c0.8-0.6,1.6-1.3,2.3-2
		c0.5-0.5,3.3-3.4,8.4-7.3c1.1-0.8,2.3-1.7,3.6-2.6c13.4-9.4,37.5-21.9,70.3-21.9c16.4,0,34.9,3.1,55.4,11.3
		c32.6,13,64,24.8,94.4,36.3c10.8,4.1,21.5,8.1,32,12.1l0,0c8.4,3.2,16.8,6.4,25.1,9.6h0c38.9,15.1,76.6,30.6,113.9,48.4
		c53.1,25.5,73.6,83.1,101.9,162.9c12.2,34.3,25.9,73.1,44.3,114.5c13.9,31.4,31,65.5,47.6,98.5c3.8,7.5,7.6,15.1,11.4,22.7
		c49.2,98.4,97.6,203,57.4,238c-8.8,7.7-20.2,13.4-33.2,17.4c-20.9,6.6-46.1,9-71.8,9c-50.3,0-102.7-9.5-128.8-16.1
		c-1.3-0.3-2.7-0.5-4-0.5c-0.1,0-0.2,0-0.2,0h0c-4.7,0.1-9.2,2.1-12.4,5.8c-0.1,0.1-0.2,0.2-0.3,0.3c-4.1,4.9-5,11.8-2.2,17.6
		c0.4,0.9,41.6,89.6,51.3,195.1c0.3,3.8,0.7,7.5,0.9,11.2c8.2,114.8-24.6,202.8-97.4,262.4c-11.1,9.1-23.1,17.5-36,25.2
		c-27.1,16.2-57.7,30.6-91,43.3c-155.1,59-370.4,81.4-575.6,81.4c-84,0-166.3-3.8-242.1-10.3c-68.3-5.9-131.3-14-185.4-23.7
		c-150.5-26.8-264.3-93.5-329.1-192.8c-58.8-90-73.7-204.2-43.2-330.1c0.3-1.2,0.5-2.4,0.5-3.7c0-0.2,0-0.4,0-0.5
		c0-2-0.4-3.9-1.1-5.7c-0.9-2.4-2.4-4.6-4.3-6.3c-2.9-2.7-6.8-4.3-11.1-4.3c-0.1,0-0.1,0-0.2,0l-2,0.1c-0.5,0.1-18.4,2.2-43.6,2.2
		c-41.4,0-102.3-5.8-137.3-36.2c-17.5-15.3-26.2-34.9-26.5-60.1c-0.6-49.6,7-99.9,18.8-151.4c1.5-6.3,3-12.6,4.6-19
		c11.4-45.9,25.8-92.6,40.6-140.6c11.9-38.6,24.3-78.5,35.3-119.1c40-146.3,153.9-215.8,254.5-222.1c4.6-0.3,9.1-0.4,13.7-0.5
		c0.5,0,0.9,0,1.4,0c0,0,0,0,0.1,0c3.7,0,7.3-1.2,10.2-3.5c3.6-2.9,65-49.8,155.3-49.8c6.8,0,13.9,0.3,21,0.8
		c12.6,1,25.7,3,39.3,6.2c15.9,3.7,32.3,9,49.1,16.3c0,0,0.1,0,0.2,0.1c4.1,1.8,8.3,3.7,12.4,5.7c3.2,1.5,6.4,3.2,9.6,4.8
		c2.4,1.3,5.1,1.9,7.7,1.9c2.3,0,4.7-0.5,6.9-1.5C715,110.1,781.5,80.2,874.5,57.7 M1070,0h-6.2C898.1,0,743.3,61.8,707.7,77.1
		C658,52.4,611.1,43.5,569.4,43.5c-89.3,0-154.7,40.5-172.6,52.9c-115.5,2.4-250.4,79-296.3,247c-10.9,40.1-23.1,79.7-35,118
		C31.2,572.7-1.3,677.7,0.1,782.6c0.4,34.7,13.1,63.2,37.8,84.8c43,37.4,113.1,44.4,159.7,44.4c9,0,17.1-0.3,24-0.6
		c-25.8,126.3-7.7,241.3,52.6,333.8c62.1,95.1,164.8,162.3,298.7,196.2c8-3.3,13.6-5.3,16.2-6.2l2.1,0.4c11.8,2.7,23.7,5.2,36,7.4
		l6.6,1.1c0.1,2.6,0.2,6,0.3,10.1c4.5,0.8,9.1,1.6,13.7,2.3c-0.2-3.9-0.3-7.3-0.4-10.1c25.6,4.2,52.9,8.1,81.5,11.6
		c-0.1,0-0.2-0.1-0.2-0.1c32.2,3.9,66.2,7.3,101.4,10.1c29.9,2.4,60.8,4.3,92.4,5.8l0,0l8.6,10.7c6,0.3,12,0.5,18,0.7l-8.4-10.5l0,0
		c38,1.5,76.9,2.3,116.2,2.3c32,0,64.3-0.5,96.6-1.7l0,0l0,0l-5.7,10.6c5.2-0.2,10.5-0.4,15.7-0.6l5.7-10.7c7.8-0.3,15.5-0.7,23.2-1
		c37.3-1.9,74.5-4.6,111.1-8.2v0c0,0,0,0,0,0l8,9.7c5.3-0.5,10.7-1.1,16.1-1.7l-7.9-9.6l0,0c40.3-4.3,79.8-9.7,118.1-16.3l0,0l0,0
		c0,0,0,0,0,0c0,0,0,0,0,0l0,0l0,0c-0.8,3.7-1.6,7.3-2.4,11c4.8-0.8,9.7-1.7,14.5-2.5c0.8-3.7,1.6-7.3,2.3-11l0,0
		c25.1-4.6,49.6-9.7,73.4-15.4l6.1-1.3l0,0c0,0,0,0-0.1,0.1l5.8-1.2c2.3,0.5,8.4,1.9,17.9,5.5c68.6-18.4,133.4-42.7,187.3-75.1
		c111.2-66.6,162.6-181.1,148.4-331.2c-6.9-74.3-28.1-139.4-41.8-175.4c26,4.8,64.8,10.4,104.8,10.4c47.7,0,96.9-7.9,127.5-34.7
		c62.7-54.7,2.6-174.2-61-300.8c-16.4-32.6-33.3-66.3-46.9-97c-17.8-40.2-31.4-78.4-43.4-112.1c-29.8-84-53.3-150.4-118.8-181.8
		c-56.5-27.1-113.4-48.5-173.7-71.3c-30.2-11.3-61.4-23.1-93.7-36c-25-10-47.7-13.8-67.9-13.8c-48.9,0-83,22.5-98,34.7
		C1344.7,36.9,1229.5,1.5,1070,0"/>
	<path class="st15" d="M242.8,909.4c-9.2,0-16.6-7.4-16.7-16.5c0-6.9,4.2-13.1,10.7-15.6c1-0.4,97.8-38.2,187.8-141.8
		c82.8-95.4,176.8-268.2,153.8-549.3c-0.2-2.7,0.2-5.5,1.3-8c1.4-3.2,35-78,123.6-98.9c8.9-2.1,17.9,3.5,20,12.4s-3.5,17.9-12.4,20
		c-62.9,14.9-91.9,62.8-99,76.4c22.6,290.9-76.2,470.8-163.4,570.6c-95.4,109.2-195.6,148.1-199.9,149.6
		C246.8,909,244.8,909.4,242.8,909.4z"/>
	<path class="st15" d="M416.8,121c-24,37-44.3,78-60.7,119.3c-5.6,14-10.5,28.3-15.2,42.7c3.9-30.3,9.7-60.3,17.4-89.8
		c8-30.2,17.1-59,29.3-88.2c3.6-8.5,13.4-12.4,21.9-8.8C419.2,100.1,422.7,112.5,416.8,121L416.8,121z"/>
	<path class="st15" d="M1821.5,844.5c-5.8,0-11.3-3.1-14.2-8.1c-1-1.7-24.5-42.6-56.3-192.5c-39.2-184.9-117.4-415.9-377.4-562
		c-8-4.5-10.9-14.6-6.4-22.7c4.5-8,14.6-10.9,22.7-6.3c306.4,172.2,369.8,471.4,393.6,584.1c30.2,142.4,52.3,182.2,52.5,182.6
		c4.6,7.9,1.9,18.1-6.1,22.7C1827.4,843.8,1824.5,844.5,1821.5,844.5L1821.5,844.5z"/>
	<path class="st15" d="M1653.7,70.7c79.6,82,134.4,187.1,162.5,297.3l5.4,21.9c-4.6-12.8-10-30-15.1-42.3
		c-16.2-41.6-36.6-81.5-60.8-119c-27.8-43.4-60.4-83.6-97.8-118.8c-5.1-4.8-10.9-9.9-16.1-14.1C1614.3,80.8,1636.4,55.3,1653.7,70.7
		L1653.7,70.7z"/>
	<path class="st4" d="M859.4,899.6c-15.6,0-29.2-19.5-30.5-44.2c-1.4-25.3,10.5-46.4,26.6-47.3c0.3,0,0.7,0,1,0
		c15.6,0,29.2,19.5,30.5,44.2c1.4,25.3-10.5,46.4-26.6,47.3C860.1,899.6,859.7,899.6,859.4,899.6 M894.5,666.3
		c-61,0-110.4,64.7-110.4,144.6c0,79.9,49.4,144.6,110.4,144.6c61,0,110.4-64.7,110.4-144.6C1004.9,731,955.5,666.3,894.5,666.3"/>
	<path class="st4" d="M1611.3,886.4c-14.5,0-26.3-18.5-26.3-41.4c0-22.9,11.8-41.4,26.3-41.4s26.3,18.5,26.3,41.4
		C1637.6,867.9,1625.8,886.4,1611.3,886.4 M1571,659.7c-61,0-110.4,64.7-110.4,144.6c0,79.9,49.4,144.6,110.4,144.6
		c61,0,110.4-64.7,110.4-144.6C1681.4,724.4,1632,659.7,1571,659.7"/>
	<ellipse class="st3" cx="937.2" cy="783.3" rx="30.9" ry="48.6"/>
	<path class="st16" d="M856.5,808.1c-0.3,0-0.7,0-1,0c-16,0.9-27.9,22-26.6,47.3c1.3,24.7,14.9,44.2,30.5,44.2c0.3,0,0.7,0,1,0
		c16-0.9,27.9-22,26.6-47.3C885.7,827.5,872.1,808.1,856.5,808.1"/>
	<ellipse class="st3" cx="1529.6" cy="783.7" rx="30.9" ry="48.6"/>
	<path class="st16" d="M1611.3,803.6c-14.5,0-26.3,18.5-26.3,41.4c0,22.9,11.8,41.4,26.3,41.4s26.3-18.5,26.3-41.4
		C1637.6,822.1,1625.8,803.6,1611.3,803.6"/>
	<path class="st4" d="M1308.2,1110.1h-1.8c-10.5-1.2-103.6-12.5-134.5-56.4c-9.5-13.1-12.7-29.8-8.7-45.5
		c10.7-44.5,74.8-66.8,133.7-69.1c51.6-2.1,111.8,10.8,125.6,53.3c5.6,16.6,4,34.8-4.5,50.1c-24.3,44.6-97.3,64.9-105.6,67.1
		C1311,1110,1309.6,1110.1,1308.2,1110.1z M1307.5,972l-9.2,0.2c-52.3,2.1-97.4,21.3-102.8,43.6c-1.7,6.4-0.4,13.3,3.6,18.6
		c16.3,23.2,73.4,37.9,107.8,42.1c20.6-5.9,67.9-24.2,81.9-50c4.2-7.2,4.9-15.9,2.1-23.8C1385,984.4,1350.5,972,1307.5,972z"/>
	<path class="st4" d="M1092.6,1138.1c62.3,54.8,136.2,48.9,205,10.9c8.5-5.3,15.8,0.1,23.7,3.9c8.8,4,17.8,7.4,27.1,10.1
		c38.3,12,79.8,7.1,112.2-18.3c-22.6,41.3-74.6,56-118.8,46.9c-15.3-2.6-30.2-7.4-44.1-14.3h15.8c-35.8,21.4-79.1,35.2-121.4,29.7
		S1110.4,1176,1092.6,1138.1L1092.6,1138.1z"/>
	<path class="st4" d="M1305.5,1179.7h-0.6c-9.2-0.3-16.3-8-16-17.2l0,0l2.6-69.7c-0.3-9.2,7-16.9,16.2-17.2s16.9,7,17.2,16.2
		c0,0.7,0,1.5-0.1,2.2l-2.6,69.6C1321.8,1172.6,1314.5,1179.7,1305.5,1179.7z"/>
	<path class="st1" d="M1679.5,2854.7c18.2,3.8,33.6,8.5,46.7,14c-12.5-6.8-22.7-10.5-25.3-11.4
		C1693.8,2856.2,1686.7,2855.3,1679.5,2854.7 M1341.5,2718.4c-0.2,3-8.3,108.8,11.5,175.4c59.7-22.9,145.7-47.8,236.8-47.8
		c4.7,0,9.5,0.1,14.2,0.2c11.4-1.5,22.9-2.6,34.4-3.3c8.7-0.6,17.5-0.8,26.3-0.8c10.2,0,20.4,0.4,30.6,1.1l-4.3-109.5
		c-26.4,3.6-54.1,6.4-76.1,8.4c-41.6,3.7-89.3,6.4-130.8,6.4c-34.1,0-64.1-1.8-83-6.5C1379.1,2736.5,1359,2728,1341.5,2718.4
		 M1270.8,2664.9c-12.9,10.3-26.2,20-40.1,28.9c8.3,19.7,35.9,86.9,41.3,127.4c1.4,11,0.2,25-1.1,41.2c-1.8,21.2-3.8,45.5-0.3,68.8
		c0,0,0,0,0,0c-3.5-23.3-1.5-47.6,0.3-68.8c1.3-16.2,2.5-30.2,1.1-41.2c-5.4-40.5-33-107.7-41.3-127.4
		C1244.6,2684.9,1257.9,2675.2,1270.8,2664.9C1270.8,2664.9,1270.8,2664.9,1270.8,2664.9"/>
	<path class="st1" d="M983.5,2769c2.2,0.1,4.3,0.1,6.4,0.2C987.8,2769.1,985.7,2769.1,983.5,2769 M531.9,2738.5v62.1
		c8-0.8,16.1-1.1,24.2-1.1c6.5,0,13,0.2,19.5,0.7c17.1,1.2,34,3.7,50.6,7.7c7.9,1.9,15.7,4.1,23.4,6.6
		c56.9,9.5,171.9,32.2,265.2,72.7c10.8-25.9,12.1-93.5,12.3-120.2c-150.7-6.3-357.6-21.1-393-28L531.9,2738.5"/>
	<path class="st3" d="M1589.9,2846c-91.2,0-177.1,24.9-236.8,47.8c4.8,16.2,11.3,30.1,20,39.6c24.1,26.5,131.7,48.3,231.7,48.3
		c80.3,0,155.7-14.1,179.1-51.1c4.1,12.9,5,26.5,2.6,39.8c-1.9,11.2-10,21.5-24.2,30.5c-42.5,26.9-128.7,38-215.2,38
		c-74.5,0-149.3-8.2-196.7-21.8c-55-15.7-74.2-49.6-79.7-85.9c0,0,0,0,0,0c0,0,0,0,0,0c0.3,6.2,0.9,12,1.8,17.5
		c15.2,91.4,113.1,89.1,242.5,95.6c14.4,0.7,28.4,1,42,1c116.8,0,205.6-24.7,223.7-50.4c2.3-3.3,4.6-7.4,6.5-12.3
		c11.9-29.1,13-83.1-60.9-114c-13.1-5.5-28.5-10.2-46.7-14c-13.3-2.8-28.1-5-44.5-6.6c-10.4-1-20.7-1.6-30.9-1.9
		C1599.3,2846,1594.6,2846,1589.9,2846"/>
	<path class="st3" d="M580.6,2806.7c-90.9,0-141.4,57.2-139.8,135.5c0.3,14,4.8,26.2,13.1,36.7c36.7,47,146.7,61.3,277.3,61.3
		c23.2,0,47-0.4,71.1-1.2c138.2-4.6,174.8-60.4,184.4-91c3.7-11.7,3.5-19.7,3.5-19.7c-2-1.4-4-2.8-6-4.1
		c-3.2,16.9-7.8,32.1-14.1,43.8c-30.3,56.6-126.1,64.8-238.7,69.1c-9.5,0.4-19.1,0.5-28.8,0.5c-118.3,0-240.8-27.6-253.4-92.3
		c-5.8-29.6,5.2-56.2,20.8-77.6c4.2,26.5,30.7,79.8,171.8,97.3c27.1,3.4,51.8,4.9,74.2,4.9c134.9,0,187.2-54.5,198.8-82.6
		c0,0,0,0,0,0c-93.3-40.5-208.3-63.2-265.2-72.7c-22-3.7-35.2-5.4-35.2-5.4C602.6,2807.5,591.3,2806.7,580.6,2806.7"/>
	<path class="st17" d="M940.6,1474.5l8.4,10.5l119.2,148.4l61.2-113.8c-11.2,0.4-22.3,0.5-33.5,0.5c-41.6,0-83.3-2.5-124.6-7.4
		L940.6,1474.5L940.6,1474.5"/>
	<path class="st3" d="M871.7,1639.6L871.7,1639.6c30.3,0,53,5.9,56,28.6c4.5,33.2-3.3,65.2-8.9,88.6c5.6-23.4,13.4-55.4,8.9-88.6
		C924.6,1645.5,902,1639.6,871.7,1639.6 M674.2,1600C674.2,1600,674.2,1600,674.2,1600c7.5,16.7,17,30.1,29.2,36.9
		c13.4,7.5,32.9,9.9,54.3,9.9h0c-21.5,0-40.9-2.4-54.3-9.9C691.2,1630.1,681.7,1616.7,674.2,1600C674.2,1600,674.2,1600,674.2,1600
		 M673.9,1599.1C673.9,1599.1,673.9,1599.1,673.9,1599.1C673.9,1599.1,673.9,1599.1,673.9,1599.1 M673.4,1598
		c0.1,0.2,0.2,0.4,0.2,0.5c0.1,0.2,0.2,0.4,0.3,0.6c-0.1-0.2-0.2-0.4-0.3-0.6C673.5,1598.3,673.4,1598.1,673.4,1598 M830.1,1467.8
		c29.9,2.4,60.8,4.3,92.4,5.8C890.9,1472.1,860.1,1470.2,830.1,1467.8 M647.4,1446.2c0.1,2.8,0.2,6.1,0.4,10.1
		c0.6,13.5,1.9,33.3,4.7,55c-2-15.7-3.2-30.3-3.9-42.4l6.9,2.6c0,0,49,117.2,84.1,123.2c5.2,0.9,12.4,1.2,20.8,1.2
		c9.8,0,21.4-0.4,34.1-0.8c12.6-0.4,26.3-0.8,40.1-0.8c40.6,0,82.8,3.6,106.1,21.4c46,35.1,18,106.1,35.5,142.9
		c16.3,34.2,227.6,95.9,258.7,104.1L1064,1649.9l-132.9-165.6l-8.6-10.7l29.4,36.7c-101.8-13.8-182.7-38.5-223-52.5
		C700.3,1454.3,673,1450.4,647.4,1446.2"/>
	<path class="st18" d="M1327.7,1495c-32.5,6.1-69.8,12-112.8,17.7c-23.5,3.1-46.8,5.1-69.7,6.2l-22.2,41.3l51.6,61.3h127.7
		l64.4-78.8L1327.7,1495 M1303.4,1465.3c-36.6,3.6-73.8,6.3-111.1,8.2C1229.6,1471.6,1266.8,1468.9,1303.4,1465.3L1303.4,1465.3"/>
	<path class="st19" d="M696.8,1648.7c-9-5-16.6-12.8-23.2-22.5l-4.3,107.7h54.6v-76.1C713.8,1656,704.6,1653.1,696.8,1648.7z"/>
	<path class="st19" d="M740.6,1824l-0.8-1.3l-70.2,4.5l6.5,71.5c1.5,2.9,10.6,16.5,46,12.5s42.9-32.2,44.5-40.2l-25.9-46.7
		L740.6,1824z"/>
	<path class="st17" d="M723.7,1924.7c-50.5,5.8-60.3-21-60.7-22.1c-0.2-0.5-0.3-1.1-0.3-1.6l-6.3-69c-14.5,9.6-42.1,33.6-41.5,77.1
		c0.3,22.7,12.6,43.4,34.5,58.5c32.4,22.3,77.5,27,117.6,12.3c37.7-13.9,48.1-50.6,45.6-77.8s-17.6-58.2-52.4-70.7l19.4,35.1
		c0.7,1.2,1,2.7,0.8,4.1C780.4,1871.1,774,1918.9,723.7,1924.7z"/>
	<polygon class="st19" points="669,1747.5 669,1813.7 735.7,1809.4 725,1747.5 	"/>
	<path class="st3" d="M589.1,1435c-2.6,0.9-8.2,2.9-16.2,6.2c-44.9,18.5-165.7,78.6-257.7,217.6c-7.6,46.2-37.9,187.4-19,270.6
		c22.3,98.4,282.1,369.5,283.2,370.6c-55.2,24.5-101.8,34.3-113.9,36.6c-5.1-4.4-18-15.8-35.2-33.1c17.3,17.3,30.2,28.8,35.3,33.2
		c26.5-5.1,220-46.4,305.4-200.9c-14.3-19.7-91.5-122.7-220.7-230.1c-2.1-1.7-2.9-4.6-2.1-7.2l56-187.5c0.9-2.9,3.6-4.8,6.6-4.8
		c0.6,0,1.3,0.1,1.9,0.3c3.5,1.1,5.6,4.8,4.5,8.3l0,0.1L562.5,1898c15.5,13.1,30.3,26.1,44.4,38.8c-3.5-8.8-5.4-18.1-5.6-27.6
		c-0.8-57.4,40.9-85.1,54.1-92.4v-76.1h0.1v-0.2l5.5-137.6c-20.9-48.6-25.7-118-26.9-149c-0.2-4.1-0.2-7.4-0.3-10.1l-6.6-1.1
		c-12.3-2.2-24.2-4.7-36-7.4L589.1,1435"/>
	<path class="st1" d="M450.7,2608.4c0.2,5.2,0.4,10.1,0.6,14.9C451.1,2618.5,450.9,2613.5,450.7,2608.4 M125.7,2501.1
		c0.1,0.1,0.1,0.2,0.2,0.3c67.3,108.6,172.7,130.3,246.3,130.3c38.1,0,67.7-5.8,79.1-8.4l0,0c-11.4,2.6-41,8.4-79.1,8.4
		c-73.6,0-179-21.8-246.3-130.3C125.8,2501.3,125.8,2501.2,125.7,2501.1 M125.5,2500.7c0.1,0.1,0.1,0.2,0.2,0.3
		C125.6,2500.9,125.5,2500.8,125.5,2500.7 M125.3,2500.4c0,0,0.1,0.1,0.1,0.1C125.4,2500.5,125.3,2500.5,125.3,2500.4 M124.9,2499.8
		L124.9,2499.8C124.9,2499.8,124.9,2499.8,124.9,2499.8 M132.7,2221.1c-5.7,5.8-13.8,15.1-22,27.7c-0.1,4.6-1.5,142.2,78.6,241.3
		c59.6,73.7,174.9,83.5,232.6,83.5c12.2,0,21.9-0.4,27.9-0.8c-1-49.3-0.8-105.3-0.5-144.2c-24.8-6.8-122.2-37.6-176-117.1v32.2
		c0,2.5-1.4,4.9-3.6,6c-1,0.5-2.1,0.8-3.2,0.8c-1.3,0-2.7-0.4-3.8-1.2c-2.4-1.6-50.5-34.8-73.1-68.6l-4.2,14.1
		c-0.7,2.5-2.9,4.4-5.5,4.8c-0.4,0.1-0.7,0.1-1.1,0.1c-2.2,0-4.3-1.1-5.6-3C171.8,2294.7,144.7,2253.5,132.7,2221.1"/>
	<path class="st18" d="M1333.9,1719.3l-33-84.2h-124.6l-32.9,92l106.5,132.7C1262.6,1841.3,1297,1789.3,1333.9,1719.3z"/>
	<path class="st17" d="M1437.7,1447.4L1437.7,1447.4c-1.7,7.8-3.5,15.6-5.5,23.4c-23.9,6.9-53.3,14.1-89.4,21.3l-23.2-28.4l0,0
		l7.9,9.6l75.5,92.5c12.9-35,24.1-71.1,32.3-107.4C1436.1,1454.7,1436.9,1451.1,1437.7,1447.4"/>
	<path class="st17" d="M1397.5,1580.5l-22.1-27l-62.1,76.1l28.9,73.7C1362.8,1663.4,1381.2,1622.4,1397.5,1580.5z"/>
	<polygon class="st17" points="1077.4,1644.9 1133.4,1714.7 1163.8,1629.8 1116.1,1573.1 	"/>
	<path class="st3" d="M1479.9,1867.7c-16.2,21.2-11.9,249.4-6.2,268c1.9,5.7,13.9,8.6,24,9.2l4.4-28.3c0.3-3.3,3.1-5.7,6.4-5.7
		c0.2,0,0.4,0,0.5,0l31.7,1.1l27.2-2c0.1,0,0.3,0,0.4,0c3.1,0,5.8,2.1,6.7,5.1l7.7,30.3c0.6,0.1,1.4,0.1,2.1,0.1
		c5.4,0,14.4-2,23.9-13.7c10.8-13.2,3.6-137.7-8.7-253.5c0.1,1.1,0.2,2.2,0.3,3.3c-8.2-2.3-22.9-5.5-40.8-5.5
		c-7.3,0-15.1,0.5-23.1,1.9c-33.2,5.7-57.9,34.4-65.5,43.8C1472.7,1894.2,1475.6,1873.4,1479.9,1867.7 M1540.7,1845.7L1540.7,1845.7
		c1.5,0,3,0,4.5,0.1c17,0.7,40.1,6.2,54.3,27.7c-14.2-21.5-37.3-27-54.3-27.7C1543.7,1845.7,1542.2,1845.7,1540.7,1845.7"/>
	<path class="st3" d="M1462.7,1674.5l54.6,90.9c-47.1,4.1-73.8,25.7-88.8,47.5l-1.4,1.9l-0.9,1.5c-1.3,1.9-2.5,4-3.6,6
		c-0.1,0.2-0.2,0.5-0.4,0.7l-2,3.8c-0.7,1.6-1.5,3.2-2.1,4.7l-0.3,0.6c-3.6,8.4-6.3,17.2-8,26.2l-130.7,37.8l0,0l130.7-37.8
		c1.7-9,4.4-17.8,8-26.2l0.3-0.6c0.6-1.5,1.4-3.1,2.1-4.7l2-3.8c0.2-0.2,0.3-0.5,0.4-0.7c1.1-2,2.3-4.1,3.6-6l0.9-1.5l1.4-1.9
		c15-21.8,41.7-43.4,88.8-47.5L1462.7,1674.5 M1650.9,1651.3c-7.3,1.9-25.7,3.9-50.1,5.8h-0.2c-16.8,1.3-36.4,2.6-57.2,3.7h-0.4
		c-24.2,1.3-49.9,2.5-74.8,3.4c-2.4,0.1-4.6,1.5-5.7,3.6c-1.1,2-1.1,4.4,0,6.4c-1.1-2-1.1-4.4,0-6.4c1.1-2.1,3.3-3.5,5.7-3.6
		c24.9-0.9,50.6-2.1,74.8-3.4h0.4c20.8-1.1,40.4-2.4,57.2-3.7h0.2C1625.2,1655.2,1643.6,1653.2,1650.9,1651.3L1650.9,1651.3
		 M1452.1,1444.8c-0.7,3.7-1.5,7.3-2.3,11c-0.2,0.9-0.4,1.9-0.6,2.8C1450.2,1454,1451.2,1449.4,1452.1,1444.8 M1537.3,1427l-5.8,1.2
		c-1.2,1.2-18.5,17.7-84.1,38.1c-9.1,39.1-21.5,77.9-35.8,115.2c-0.1,0.4-0.2,0.8-0.4,1.2c-19.3,50.4-41.7,97.8-63.4,139.3
		c-0.2,0.6-0.5,1.2-0.9,1.8c-40.2,76.4-77.6,131.9-88.1,147.1l20.3,25.2l-9.3-11.6c0.5-0.9,1-1.8,1.6-2.7
		c0,0,184.7-108.2,188.6-129.9c3.9-21.7,0-80.7,0-80.7l-2-9.7c0,0-8.6-22.9,37.4-26.3c39.5-3,124.5-20.8,147.8-25.8
		c4.1,19.8,6.9,35.1,7.7,41.9c-2.3-21.1-25.3-124.5-40.6-190.8c-23.8-14.8-42.5-23.3-55.1-28
		C1545.7,1428.9,1539.6,1427.5,1537.3,1427"/>
	<path class="st3" d="M818.6,2099.4l-34.1,39.7c-86.1,160-282.6,204.2-315.2,210.5l-5.6,29.1l4.1-21.3c0,0,1,0,2.9,0
		c14.6,0,82.3-1.8,152.1-33.2c0,0,23.9,28.5,41.9,39.3c-50.4,29.3-97.8,50.8-129.2,63.8c81.8-34,273.3-125.7,339.1-262.2
		C868.3,2155.7,847.8,2126.4,818.6,2099.4"/>
	<path class="st3" d="M1787.9,2215.3c-22.6,27.8-42.2,49.8-53.3,61.9c0,0,0,0,0,0C1745.7,2265.1,1765.3,2243.1,1787.9,2215.3
		 M1719.5,2159c5.1,39.2,10.2,78.8,15.1,117.8C1729.7,2237.7,1724.6,2198.2,1719.5,2159 M1927,1952.3c0,0.1,0,0.1,0,0.2
		C1927,1952.4,1927,1952.3,1927,1952.3 M1927,1951.8c0,0.1,0,0.2,0,0.4C1927,1952.1,1927,1951.9,1927,1951.8 M1680.3,1849.1
		c-1.2,0-2.4,0-3.7,0.1c0,0,0,0,0,0C1677.8,1849.2,1679,1849.1,1680.3,1849.1L1680.3,1849.1 M1642,1723.6
		c4.4,21.7,9.8,53.2,15.9,91.8C1651.8,1776.8,1646.4,1745.3,1642,1723.6 M1648.2,1713.1c-0.5,0-1,0.1-1.5,0.2l-0.1,0
		c-3.1,0.7-5.3,3.5-5.3,6.5c0-3.1,2.1-5.9,5.3-6.5l0.1,0C1647.2,1713.2,1647.7,1713.1,1648.2,1713.1c3.1,0,5.9,2.2,6.6,5.3l0,0
		c0.4,2,0.8,4.1,1.3,6.4c-0.4-2.2-0.9-4.3-1.3-6.4l0,0C1654.1,1715.3,1651.3,1713.1,1648.2,1713.1 M1626.7,1471.1
		c19.3,84.1,40,178.2,37.5,186.2c0.6-1.7,0-7.6-1.4-16.6c0,0,74.5,125,95.5,159.1c21,34.2,20.4,82,20.4,82l-11.3-4.7
		c4.7,3,9.3,6.2,13.7,9.5c5.3,3.7,10.1,8.2,15.1,12.2c5,4,9.3,9,14,13.4c-5-4-10-8.2-15.1-12c-5.1-3.8-10.4-7.6-15.9-10.8
		c-10.8-6.7-22.2-12.5-34.1-17.1c-11.8-4.4-24-7.6-36.5-9.5c-6.1-0.9-12.2-1.3-18.4-1.3c-3.9,0-7.8,0.2-11.7,0.5
		c11.9,79.7,25.7,180,39.2,283.5c1.6-1.5,116.7-108.6,159.5-187c27.8-50.8,31.8-96.8,31.1-123.1c13,39.2,20.1,78.6,18.7,116.4
		c5.1-141.8-108-305.2-206.5-402.3C1684.8,1514.3,1653.2,1489.1,1626.7,1471.1"/>
	<path class="st3" d="M1480.3,1677.4C1480.2,1677.4,1480.2,1677.4,1480.3,1677.4l53.8,89.5h2.3h-2.3L1480.3,1677.4"/>
	<path class="st3" d="M553.7,2434.7c-29,12.3-48.4,19.1-51.4,20.2c-0.7,0.2-1.4,0.3-2.1,0.3c0,0,0,0-0.1,0c-2.3,0-4.4-1.2-5.7-3.1
		c1.3,1.9,3.4,3.1,5.7,3.1c0,0,0,0,0.1,0c0.7,0,1.4-0.1,2.1-0.3C505.3,2453.9,524.8,2447,553.7,2434.7 M463.1,2425
		c0,0.3-0.2,0.5-0.3,0.8c-0.2,18.3-0.3,38.1-0.3,58.2c0-20.1,0.1-39.9,0.3-58.2C462.9,2425.5,463.1,2425.3,463.1,2425 M463.2,2423.7
		c0,0.4,0,0.8-0.1,1.2C463.2,2424.5,463.2,2424.1,463.2,2423.7 M463,2402.9c0,5.9-0.1,12-0.2,18.4l0,0
		C462.9,2414.9,463,2408.8,463,2402.9l31.4,49.2L463,2402.9 M905.5,1753.6c-0.8,3.1-1.5,6.1-2.2,9
		C904,1759.8,904.7,1756.8,905.5,1753.6 M909.8,1661.4c2.4,2.3,3.9,5.1,4.4,8.6c0.8,6.4,1.2,12.7,1.2,18.8c0-6.2-0.4-12.5-1.2-18.8
		C913.7,1666.5,912.2,1663.7,909.8,1661.4 M819.6,1656.5c-21,1.9-42.4,3.9-62.2,3.9c-6.8,0-13.5-0.2-19.9-0.8v80.5l12.7,73.2
		l0.8,1.5c41.8,8.6,71.1,42,75.1,86.1c3.9,42.1-17.5,78.1-54.4,91.7c-16.7,6.2-34.3,9.3-52.1,9.3c-0.1,0-0.1,0-0.2,0
		c-0.2,0-0.4,0-0.6,0c-19.2,0-38.2-3.9-55.9-11.5c63.2,63.8,103.1,115.6,116.5,133.8l33.4-39c1.2-1.4,2.9-2.2,4.7-2.3
		c0.2,0,0.4,0,0.6,0c1.6,0,3.2,0.6,4.3,1.7c39.8,35,64.7,74.7,65.7,76.4c1.2,1.9,1.4,4.3,0.4,6.4c-52.4,113-184.1,195-279.2,241.8
		c-0.2,1.3-26.4,201,27.3,236.4c36.8,24.2,142.5,39.8,253.2,39.8c51.6,0,104.4-3.4,151.6-10.9c132.5-21.1,217.6-66.3,234.3-75.8l0,0
		l0,0c-3,18.5-6.5,36.3-10.4,53.2l0,0l0,0c57.7-245.7,11.3-687,5.2-741.6c-118.6-7.4-365.2-91.2-370.3-119.1
		c-1.2-6.7,0.2-15.5,2.6-26.2c-0.2-1.3-12.8-68.9-20.5-78.4c-1.3-1.6-6.3-2.3-13.7-2.3c-35.5,0-126.1,15.9-126.1,15.9
		c-2.2-0.6-3.8-5.1-5-11.2v-29.4c6.4,0.5,13,0.8,19.8,0.8C777.2,1660.4,798.6,1658.4,819.6,1656.5 M819.8,1656.5c-0.1,0-0.2,0-0.2,0
		C819.7,1656.5,819.8,1656.5,819.8,1656.5 M822,1656.3c-0.5,0-1,0.1-1.6,0.1C821,1656.4,821.5,1656.3,822,1656.3 M872.5,1653.1
		c-14.9,0-32.4,1.5-50.4,3.2C840.1,1654.6,857.6,1653.1,872.5,1653.1c9.9,0,18.5,0.7,25.4,2.5C891,1653.8,882.3,1653.1,872.5,1653.1
		"/>
	<path class="st3" d="M1585.7,2730.8c0,0-0.1,0-0.1,0C1585.6,2730.8,1585.6,2730.8,1585.7,2730.8 M1767.2,2703L1767.2,2703
		c-6.2,4.9-33,10.7-69.8,16h-0.4c-0.1,0-0.2,0-0.4,0.1c0.1,0,0.2,0,0.4-0.1h0.4C1734.2,2713.7,1761,2707.9,1767.2,2703L1767.2,2703
		 M1278.8,2653.6L1278.8,2653.6c10.8,11.4,59.5,58.8,125.6,75.2c17.6,4.4,45.9,6.2,79.1,6.2c31.1,0,66.6-1.6,101.7-4.2
		c-35.1,2.6-70.6,4.2-101.7,4.2c-33.2,0-61.5-1.8-79.1-6.2C1338.3,2712.4,1289.6,2665,1278.8,2653.6 M1408.8,1872.7l-124.8,36.1
		c6.2,55.4,52.5,496.9-5.2,744.8c4.5-19.3,8.4-39.9,11.7-61.3c0,0,63.7,52.4,143.8,63.3c10.9,1.5,25.1,2.1,41.4,2.1
		c93.3,0,256.5-21.3,286.6-25.4c2.8,28.7,4.6,50.2,5,61.9c-1.4-42.6-20.5-212.3-44-400.5c-0.1-0.6-0.2-1.1-0.2-1.7
		c-17-135.9-36.2-281.1-52.8-394.9c6.9,89.3,16.5,236.7,7,263.9c-12.2,34.9-65.9,59-82,65.5v26c0.1,3.7-2.9,6.7-6.6,6.8h-0.2h-80.6
		c-3.8,0-6.8-3-6.8-6.8v-23c-20.1-3.4-83.3-17.7-91.9-66.5C1400.6,2114.3,1407.2,1918.7,1408.8,1872.7"/>
	<path class="st19" d="M1623.1,2131.1c-1.1,4.2-2.4,7.3-3.9,9.2c-12.4,15.4-25.2,18.8-34,18.8l0,0c8.7,0,21.5-3.3,34-18.8
		C1620.8,2138.4,1622.1,2135.2,1623.1,2131.1 M1547.7,2125.1L1547.7,2125.1l2.2,120.7h31.8h-31.8L1547.7,2125.1 M1594.2,1671.2
		c-12.4,1-27,2-44.2,2.9v100.1c0,2-0.8,3.8-2.3,5.1c-1.3,1.1-2.9,1.7-4.5,1.7c-0.3,0-0.5,0-0.8,0c-0.9-0.1-5.9-0.7-13.3-0.7
		c-28.6,0-94,8.5-106.4,84c-0.4,11.5-8.9,246.2-0.1,296.5c8.2,46.9,85.3,56.1,86.1,56.1c3.4,0.4,6,3.3,6,6.8c0-3.4-2.6-6.4-6-6.8
		c-0.8,0-77.9-9.2-86.1-56.1c-2.7-15.8-3.8-49.5-3.9-88.8l39.3,37.3c0.6,11.4,1.3,20.3,2,25.6c-1.2-10.5-2.7-35.1-3.6-65.5
		c0.1,2.2,0.1,4.4,0.2,6.5l-37.7-43.4c0.1-8.2,0.1-16.5,0.3-24.8l36.8,46.8c-1.9-75.9-0.4-177.1,13.2-195
		c12.3-16,42.3-27.4,71.5-27.4c1.8,0,3.6,0,5.3,0.1c29,1.3,52.4,13.9,65.9,35.3c0.6,0.9,0.9,1.9,1,2.9c4,35.9,20.7,198.5,11.7,253.7
		c0.4-2.7,0.8-5.6,1.2-8.8c7.4,4.1,32.8,18.1,41.4,23c-0.5,8.4-1.4,14.7-2.6,18.3c-11.9,34.2-77.6,58.7-78.3,59l0,0l0,0
		c0.7-0.3,66.4-24.8,78.3-59c10.3-29.6-6-244-13.3-325.5c-9-19.4-27.4-32.7-48.6-35.2c-3.3-0.4-5.9-3.2-6-6.6l-1.7-85.1
		c-1.1,0.2-31.1,5.2-44.9,6.7v-36.8C1567.2,1673.2,1581.8,1672.2,1594.2,1671.2L1594.2,1671.2L1594.2,1671.2"/>
	<path class="st12" d="M449.8,2572.8C449.8,2572.8,449.8,2572.8,449.8,2572.8c0.2,12.4,0.5,24.4,0.9,35.6
		C450.3,2597.2,450,2585.2,449.8,2572.8 M125.6,2501c0,0,0,0.1,0.1,0.1C125.7,2501.1,125.7,2501,125.6,2501 M125.4,2500.6
		c0,0.1,0.1,0.1,0.1,0.2C125.5,2500.7,125.4,2500.6,125.4,2500.6 M124.9,2499.8c0.1,0.2,0.3,0.4,0.4,0.6
		C125.2,2500.2,125.1,2500,124.9,2499.8 M110.7,2248.7c-29.2,44.6-59.6,130.7,14.2,251.1c-73.8-120.3-43.4-206.4-14.2-251
		C110.7,2248.7,110.7,2248.7,110.7,2248.7"/>
	<path class="st8" d="M110.7,2248.8c-29.2,44.6-59.6,130.7,14.2,251c0,0,0,0,0,0c0.1,0.2,0.3,0.4,0.4,0.6c0,0,0.1,0.1,0.1,0.1
		c0,0,0.1,0.1,0.1,0.2c0.1,0.1,0.1,0.2,0.2,0.3c0,0,0,0.1,0.1,0.1c0.1,0.1,0.1,0.2,0.2,0.3c67.3,108.6,172.7,130.3,246.3,130.3
		c38.1,0,67.7-5.8,79.1-8.4l0,0c-0.2-4.8-0.4-9.7-0.6-14.9c-0.4-11.2-0.7-23.2-1-35.6c-6,0.4-15.6,0.8-27.9,0.8
		c-57.7,0-173-9.8-232.6-83.5C109.2,2391,110.6,2253.4,110.7,2248.8"/>
	<path class="st12" d="M315.3,1658.4c-27,40.8-49.2,84.6-66.2,130.5c-81.9,218.9,99.2,432.5,181.2,514.5
		c-82-82-263-295.6-181.1-514.4c18.6-49.6,41.3-92.8,66-130.3C315.3,1658.6,315.3,1658.5,315.3,1658.4"/>
	<path class="st13" d="M315.2,1658.7c-24.8,37.4-47.5,80.6-66,130.3c-81.9,218.8,99.1,432.4,181.1,514.4
		c17.3,17.3,30.1,28.7,35.2,33.1c12.1-2.3,58.7-12.1,113.9-36.6c-1.1-1.1-260.9-272.2-283.2-370.6
		C277.3,1846.1,307.6,1704.9,315.2,1658.7"/>
	<path class="st12" d="M535.5,2427.3c-15.1,6.3-26.5,10.6-32.6,12.9C509,2438,520.4,2433.6,535.5,2427.3"/>
	<path class="st13" d="M622.8,2324.2c-69.8,31.4-137.5,33.2-152.1,33.2c-1.9,0-2.9,0-2.9,0l-4.1,21.3l39.2,61.5l0,0
		c6.1-2.3,17.5-6.6,32.6-12.9c31.3-13,78.8-34.6,129.2-63.8C646.7,2352.7,622.8,2324.2,622.8,2324.2"/>
	<path class="st12" d="M462.5,2484c0,81.9,1.6,169.3,7.1,188.6c9.2,32.1,25.5,45,67.1,53c41.6,8,313.4,26.7,459.7,30.1
		c2.1,0,4.2,0.1,6.3,0.1c131.3,0,247.4-91.4,262.6-103.9c-15.3,12.5-131.4,103.9-262.6,103.9c-2.1,0-4.2,0-6.3-0.1
		c-146.3-3.4-418.1-22.1-459.7-30.1c-41.6-8-57.9-20.9-67.1-53C464.1,2653.3,462.5,2565.9,462.5,2484 M462.8,2421.3
		C462.8,2421.3,462.8,2421.3,462.8,2421.3c0.3,0.8,0.4,1.6,0.4,2.4C463.2,2422.9,463.1,2422.1,462.8,2421.3 M609.3,2409.2
		c-20.6,10.2-39.6,18.7-55.6,25.5C569.7,2427.9,588.7,2419.4,609.3,2409.2C609.3,2409.2,609.3,2409.2,609.3,2409.2"/>
	<path class="st13" d="M463,2402.9c0,5.9-0.1,12-0.2,18.4c0.3,0.8,0.4,1.6,0.4,2.4c0,0.4,0,0.8-0.1,1.2c0,0,0,0.1,0,0.1l0,0
		c0,0.3-0.2,0.5-0.3,0.8c-0.2,18.3-0.3,38.1-0.3,58.2c0,81.9,1.6,169.3,7.1,188.6c9.2,32.1,25.5,45,67.1,53
		c41.6,8,313.4,26.7,459.7,30.1c2.1,0,4.2,0.1,6.3,0.1c131.3,0,247.4-91.4,262.6-103.9l0,0c3.9-16.9,7.4-34.7,10.4-53.2
		c-16.7,9.5-101.8,54.7-234.3,75.8c-47.2,7.5-100,10.9-151.6,10.9c-110.7,0-216.4-15.6-253.2-39.8c-53.7-35.4-27.5-235.1-27.3-236.4
		c-20.6,10.2-39.6,18.7-55.6,25.5c-28.9,12.3-48.4,19.2-51.4,20.2c-0.7,0.2-1.4,0.3-2.1,0.3c0,0,0,0-0.1,0c-2.3,0-4.4-1.2-5.7-3.1
		l0,0L463,2402.9"/>
	<path class="st12" d="M927.1,2767C927.1,2767,927.1,2767,927.1,2767c20,0.8,38.9,1.5,56.4,2C966,2768.5,947,2767.8,927.1,2767"/>
	<path class="st8" d="M927.1,2767c-0.2,26.7-1.5,94.2-12.3,120.2c25.2,11,48.9,23.2,69.3,36.9c5.9-30.9,7.5-67.3,7.5-97.7
		c0-25.8-1.2-47.2-1.8-57.2l0,0c-2.1-0.1-4.2-0.1-6.4-0.2C966,2768.5,947.1,2767.8,927.1,2767"/>
	<path class="st13" d="M470,2867.6c-15.6,21.4-26.6,48-20.8,77.6c12.7,64.7,135.1,92.3,253.4,92.3c9.6,0,19.3-0.2,28.8-0.5
		c112.6-4.3,208.4-12.5,238.7-69.1c6.3-11.7,10.8-27,14.1-43.8c-20.5-13.7-44.1-25.9-69.3-36.9c0,0,0,0,0,0
		c-11.6,28-63.9,82.6-198.8,82.6c-22.4,0-47-1.5-74.2-4.9C500.7,2947.4,474.2,2894.1,470,2867.6"/>
	<path class="st20" d="M903.3,1762.6c-0.2,0.8-0.4,1.6-0.5,2.4c0,0,0,0,0,0C903,1764.2,903.2,1763.4,903.3,1762.6 M915.4,1688.8
		c0,23.7-5.4,46-9.9,64.8c0,0,0,0,0,0c0,0,0,0,0,0C910,1734.9,915.4,1712.6,915.4,1688.8 M820.4,1656.4c-0.2,0-0.4,0-0.6,0.1
		C820,1656.5,820.2,1656.4,820.4,1656.4 M822.1,1656.3C822,1656.3,822,1656.3,822.1,1656.3C822,1656.3,822,1656.3,822.1,1656.3
		 M897.9,1655.5c5.1,1.3,9.1,3.2,12,5.9C907,1658.8,902.9,1656.9,897.9,1655.5"/>
	<path class="st21" d="M872.5,1653.1c-14.9,0-32.4,1.5-50.4,3.2c0,0,0,0-0.1,0c-0.5,0-1,0.1-1.6,0.1c-0.2,0-0.4,0-0.6,0.1
		c-0.1,0-0.2,0-0.2,0l0,0l0,0c-21,1.9-42.4,3.9-62.2,3.9c-6.8,0-13.5-0.2-19.8-0.8v29.4c1.2,6.1,2.8,10.6,5,11.2
		c0,0,90.6-15.9,126.1-15.9c7.3,0,12.3,0.7,13.7,2.3c7.7,9.5,20.3,77.1,20.5,78.4c0.2-0.8,0.4-1.6,0.5-2.4c0.7-2.9,1.4-5.9,2.2-9
		c0,0,0,0,0,0c4.5-18.7,9.9-41,9.9-64.8c0-6.2-0.4-12.5-1.2-18.8c-0.5-3.5-2-6.3-4.4-8.6c-2.8-2.7-6.9-4.6-12-5.9
		C891,1653.8,882.3,1653.1,872.5,1653.1"/>
	<path class="st20" d="M1585.5,2730.8c-0.1,0-0.2,0-0.3,0C1585.3,2730.8,1585.4,2730.8,1585.5,2730.8 M1696.6,2719.1
		c-31.9,4.6-71.2,8.8-111,11.7C1625.4,2727.8,1664.7,2723.6,1696.6,2719.1 M1767.3,2694.3c0.1,4.1,0.1,7.1-0.1,8.7
		C1767.4,2701.4,1767.4,2698.4,1767.3,2694.3"/>
	<path class="st21" d="M1290.5,2592.3c-3.3,21.4-7.2,42-11.7,61.3l0,0c10.8,11.4,59.5,58.8,125.6,75.2c17.6,4.4,45.9,6.2,79.1,6.2
		c31.1,0,66.6-1.6,101.7-4.2c0.1,0,0.2,0,0.3,0c0,0,0.1,0,0.1,0c39.8-2.9,79.1-7.1,111-11.7c0.1,0,0.2,0,0.4-0.1h0.4
		c36.8-5.3,63.6-11.1,69.8-16l0,0c0.2-1.6,0.2-4.6,0.1-8.7c-0.4-11.7-2.2-33.2-5-61.9c-30.1,4.1-193.3,25.4-286.6,25.4
		c-16.3,0-30.4-0.6-41.4-2.1C1354.2,2644.7,1290.5,2592.3,1290.5,2592.3"/>
	<path class="st15" d="M1531.6,1428.1l-6.1,1.3c-23.8,5.7-48.3,10.8-73.4,15.4l0,0l0,0c25.1-4.6,49.6-9.7,73.4-15.4L1531.6,1428.1
		C1531.6,1428.1,1531.6,1428.1,1531.6,1428.1"/>
	<path class="st20" d="M1449.2,1458.6c-0.6,2.6-1.2,5.1-1.8,7.7c0,0,0,0,0,0C1448,1463.7,1448.6,1461.2,1449.2,1458.6"/>
	<path class="st21" d="M1531.5,1428.2l-6,1.2c-23.8,5.7-48.3,10.8-73.4,15.4l0,0c-0.9,4.6-1.9,9.2-2.9,13.8
		c-0.6,2.6-1.2,5.1-1.8,7.7C1513,1445.9,1530.3,1429.4,1531.5,1428.2"/>
	<path class="st22" d="M1437.7,1447.4c-38.3,6.6-77.8,12-118.1,16.3l0,0C1359.9,1459.4,1399.4,1454,1437.7,1447.4
		C1437.7,1447.4,1437.7,1447.4,1437.7,1447.4"/>
	<path class="st23" d="M1437.7,1447.4c-38.3,6.6-77.8,12-118.1,16.3l23.2,28.4c36.1-7.2,65.5-14.4,89.4-21.3
		C1434.2,1463,1436,1455.2,1437.7,1447.4"/>
	<path class="st22" d="M728.7,1457.7c0.1,0,0.2,0.1,0.2,0.1c32.1,3.9,66,7.3,101.2,10.1C794.9,1465,760.9,1461.6,728.7,1457.7"/>
	<path class="st13" d="M728.9,1457.8c40.3,14,121.2,38.7,223,52.5l-29.4-36.7l0,0c-31.6-1.4-62.4-3.4-92.4-5.8
		C794.9,1465,761.1,1461.7,728.9,1457.8"/>
	<path class="st12" d="M1147.7,1485.7C1147.7,1485.7,1147.7,1485.7,1147.7,1485.7l-18.3,33.9c0,0,0,0,0.1,0L1147.7,1485.7"/>
	<path class="st22" d="M1153.4,1475.1l-5.7,10.6c0,0,0,0,0,0L1153.4,1475.1"/>
	<path class="st23" d="M940.6,1474.5l30.7,38.2c41.4,5,83,7.4,124.6,7.4c11.2,0,22.3-0.2,33.5-0.5l18.2-33.9l5.7-10.6
		c-32.3,1.2-64.6,1.7-96.6,1.7C1017.5,1476.8,978.6,1476,940.6,1474.5"/>
	<path class="st12" d="M1163.4,1485.2C1163.4,1485.2,1163.4,1485.2,1163.4,1485.2l-18.2,33.7c0,0,0,0,0,0L1163.4,1485.2
		 M1311.4,1475L1311.4,1475l16.3,20c0,0,0,0,0,0L1311.4,1475"/>
	<path class="st22" d="M1192.3,1473.5c-7.7,0.4-15.5,0.7-23.2,1l-5.7,10.7c0,0,0,0,0,0l5.7-10.7
		C1176.9,1474.2,1184.6,1473.8,1192.3,1473.5 M1303.4,1465.3L1303.4,1465.3l8,9.7l0,0L1303.4,1465.3"/>
	<path class="st24" d="M1303.4,1465.3c-36.6,3.6-73.8,6.3-111.1,8.2c-7.7,0.4-15.5,0.7-23.2,1l-5.7,10.7l-18.2,33.7
		c22.9-1.1,46.2-3.1,69.7-6.2c43-5.7,80.3-11.6,112.8-17.7l-16.3-20L1303.4,1465.3"/>
	<path class="st12" d="M1234.8,1862.6l26.9,33.5l0,0L1234.8,1862.6L1234.8,1862.6 M871.6,1639.6c-16.2,0-34.5,1.7-53.3,3.4
		c-19.9,1.8-41.1,3.8-60.7,3.8h0c19.5,0,40.7-1.9,60.7-3.8C837.1,1641.3,855.5,1639.6,871.6,1639.6L871.6,1639.6 M673.9,1599.1
		c0.1,0.3,0.2,0.5,0.3,0.8C674.1,1599.7,674,1599.4,673.9,1599.1 M673.9,1599.1C673.9,1599.1,673.9,1599.1,673.9,1599.1
		C673.9,1599.1,673.9,1599.1,673.9,1599.1 M652.4,1511.3c3.7,29,10,61.4,20.9,86.7C662.5,1572.7,656.1,1540.3,652.4,1511.3"/>
	<path class="st13" d="M648.5,1468.9c0.7,12,1.9,26.7,3.9,42.4c3.7,29,10.1,61.4,20.9,86.7c0.1,0.2,0.2,0.4,0.2,0.5
		c0.1,0.2,0.2,0.4,0.3,0.6c0,0,0,0,0,0c0,0,0,0,0,0c0.1,0.3,0.2,0.5,0.3,0.8c0,0,0,0,0,0c7.5,16.7,17,30.1,29.2,36.9
		c13.4,7.5,32.9,9.9,54.3,9.9c19.5,0,40.7-1.9,60.7-3.8c18.7-1.7,37.1-3.4,53.3-3.4h0h0c30.3,0,53,5.9,56,28.6
		c4.5,33.2-3.3,65.2-8.9,88.6l0,0c-2.8,11.7-5.4,22.1-5.4,28.7c0,0.9,0.1,1.8,0.2,2.6c14.1,19.1,224.7,97.2,348.2,108l-26.9-33.5
		c-31.1-8.2-242.4-69.9-258.7-104.1c-17.5-36.8,10.5-107.8-35.5-142.9c-23.3-17.8-65.5-21.4-106.1-21.4c-13.8,0-27.5,0.4-40.1,0.8
		c-12.6,0.4-24.3,0.8-34.1,0.8c-8.5,0-15.6-0.3-20.8-1.2c-35.1-6-84.1-123.2-84.1-123.2L648.5,1468.9"/>
	<path class="st20" d="M1536.4,1674.7c-16.5,0.9-35.1,1.7-56.2,2.6l0.1,0.1C1501.3,1676.5,1519.9,1675.7,1536.4,1674.7v92.2V1674.7"
		/>
	<path class="st21" d="M1536.4,1674.8c-16.5,0.9-35.1,1.7-56.1,2.6l53.8,89.5h2.3V1674.8"/>
	<path class="st13" d="M1643.2,1609.4c-23.3,5-108.3,22.8-147.8,25.8c-46,3.4-37.4,26.3-37.4,26.3l2,9.7c0,0,3.9,59,0,80.7
		c-3.9,21.7-188.6,129.9-188.6,129.9c-0.6,0.9-1.1,1.8-1.6,2.7l9.3,11.6l0,0l130.7-37.8c1.7-9,4.4-17.8,8-26.2l0.3-0.6
		c0.6-1.5,1.4-3.1,2.1-4.7l2-3.8c0.2-0.2,0.3-0.5,0.4-0.7c1.1-2,2.3-4.1,3.6-6l0.9-1.5l1.4-1.9c15-21.8,41.7-43.4,88.8-47.5
		l-54.6-90.9c-0.1-0.1-0.1-0.2-0.2-0.3c-1.1-2-1.1-4.4,0-6.4c1.1-2.1,3.3-3.5,5.7-3.6c24.9-0.9,50.6-2.1,74.8-3.4h0.4
		c20.8-1.1,40.4-2.4,57.2-3.7h0.2c24.4-1.9,42.8-3.9,50.1-5.8l0,0C1650.1,1644.5,1647.3,1629.2,1643.2,1609.4"/>
	<path class="st20" d="M1599.5,1873.5L1599.5,1873.5c0.2,1.6,0.3,3.2,0.5,4.8C1599.9,1876.7,1599.7,1875.1,1599.5,1873.5
		L1599.5,1873.5 M1540.7,1845.7c-27.3,0-52.4,11-60.8,22l0,0l0,0C1488.3,1856.7,1513.4,1845.7,1540.7,1845.7L1540.7,1845.7"/>
	<path class="st21" d="M1540.7,1845.7c-27.3,0-52.4,11-60.8,22l0,0c-4.3,5.7-7.2,26.5-9,54.1c7.6-9.4,32.3-38.1,65.5-43.8
		c8.1-1.4,15.9-1.9,23.1-1.9c17.8,0,32.6,3.2,40.8,5.5c-0.1-1.1-0.2-2.2-0.3-3.3c-0.2-1.6-0.3-3.2-0.5-4.8l0,0
		c-14.2-21.5-37.3-27-54.3-27.7C1543.7,1845.7,1542.2,1845.7,1540.7,1845.7"/>
	<path class="st12" d="M1747.8,1866c6.6,3.4,13.1,7.1,19.3,11l0.3,0.1C1761,1873.1,1754.5,1869.4,1747.8,1866 M1710.4,1852.8
		c12.5,3,24.7,7.2,36.3,12.7C1735.1,1860,1722.9,1855.8,1710.4,1852.8 M1680.3,1849.1L1680.3,1849.1c9,0,17.5,1.1,26,2.8
		C1697.8,1850.3,1689.3,1849.1,1680.3,1849.1 M1656.1,1724.9c5.3,27,12.4,70.5,20.5,124.3l0,0
		C1668.5,1795.3,1661.4,1751.9,1656.1,1724.9 M1664.2,1657.3L1664.2,1657.3c-1,3.5-2.5,8-56.5,12.8l2.4,113.2
		c19.2,3.7,36,14.8,47,30.9c-11-16.1-27.9-27.2-47-30.9l-2.4-113.2C1661.7,1665.3,1663.2,1660.8,1664.2,1657.3L1664.2,1657.3"/>
	<path class="st13" d="M1662.8,1640.7c1.4,9,2,14.9,1.4,16.6l0,0c-1,3.5-2.5,8-56.5,12.8l2.4,113.2c19.2,3.7,36,14.8,47,30.9
		c0.3,0.4,0.5,0.8,0.8,1.2l0,0c-6.1-38.6-11.5-70.1-15.9-91.8c-0.2-0.8-0.3-1.6-0.5-2.3c-0.1-0.5-0.2-1-0.2-1.4
		c0-3.1,2.1-5.9,5.3-6.5l0.1,0c0.5-0.1,1-0.2,1.5-0.2c3.1,0,5.9,2.2,6.6,5.3l0,0c0.4,2,0.8,4.1,1.3,6.4c5.3,27,12.4,70.5,20.5,124.3
		c1.2,0,2.4-0.1,3.7-0.1h0h0c9,0,17.5,1.1,26,2.8c1.4,0.3,2.8,0.6,4.2,0.9l0,0c12.5,3,24.7,7.2,36.3,12.7c0.4,0.2,0.7,0.4,1.1,0.5
		l0,0c6.7,3.4,13.2,7.1,19.6,11.1l11.3,4.7c0,0,0.6-47.8-20.4-82C1737.3,1765.7,1662.8,1640.7,1662.8,1640.7"/>
	<path class="st12" d="M1734.5,2276.7c0,0.2,0,0.3,0.1,0.5l0,0C1734.6,2277,1734.6,2276.9,1734.5,2276.7 M1717.7,2145.5
		C1717.7,2145.5,1717.7,2145.5,1717.7,2145.5c0.6,4.5,1.2,9,1.8,13.5C1718.9,2154.5,1718.3,2150,1717.7,2145.5 M1927,1952.5
		c0,0.1,0,0.2,0,0.2c-3.2,80.9-81,191.1-139.1,262.6c58.1-71.5,135.9-181.8,139.1-262.6C1927,1952.6,1927,1952.5,1927,1952.5
		 M1927,1952.2C1927,1952.2,1927,1952.2,1927,1952.2C1927,1952.2,1927,1952.2,1927,1952.2 M1927,1951.8
		C1927,1951.8,1927,1951.8,1927,1951.8C1927,1951.8,1927,1951.8,1927,1951.8"/>
	<path class="st13" d="M1908.3,1835.4c0.7,26.3-3.3,72.3-31.1,123.1c-42.8,78.3-157.9,185.5-159.5,187c0.6,4.5,1.2,9,1.8,13.5
		c5.2,39.2,10.2,78.8,15.1,117.8c0,0.2,0,0.3,0.1,0.5c11.1-12.1,30.7-34.1,53.3-61.9c58.1-71.5,135.9-181.8,139.1-262.6
		c0-0.1,0-0.2,0-0.2c0-0.1,0-0.1,0-0.2c0,0,0-0.1,0-0.1c0-0.1,0-0.2,0-0.4c0,0,0,0,0,0C1928.4,1914,1921.3,1874.6,1908.3,1835.4"/>
	<path class="st12" d="M1586.2,2215.6c-2.7,1-4.5,3.5-4.5,6.3C1581.7,2219.1,1583.5,2216.6,1586.2,2215.6 M1624.5,2124.1
		c-0.4,2.6-0.9,4.9-1.4,7C1623.7,2129,1624.1,2126.7,1624.5,2124.1 M1563.2,2124l-15.5,1.1L1563.2,2124l7.4,28.7
		c0.5,2,1.9,3.7,3.9,4.5c0.4,0.2,4.5,1.9,10.7,1.9l0,0c-6.2,0-10.4-1.7-10.7-1.9c-2-0.8-3.4-2.5-3.9-4.5L1563.2,2124"/>
	<path class="st25" d="M1625.7,2115.3c-0.3,3.2-0.7,6.1-1.2,8.8c-0.4,2.6-0.9,4.9-1.4,7c-1.1,4.2-2.3,7.3-3.9,9.2
		c-12.4,15.4-25.2,18.8-34,18.8l0,0l0,0c-6.2,0-10.4-1.7-10.7-1.9c-2-0.8-3.4-2.5-3.9-4.5l-7.4-28.7l-15.5,1.1l2.2,120.7h31.8v-23.9
		l0,0l0,0c0-2.8,1.8-5.3,4.5-6.3l0,0c0.7-0.3,66.4-24.8,78.3-59c1.2-3.6,2.1-9.9,2.6-18.3
		C1658.5,2133.4,1633.1,2119.4,1625.7,2115.3"/>
	<path class="st12" d="M1514.6,2124.7l-4.3,28.2c-0.6,3.2-3.3,5.6-6.6,5.7c-0.4,0-1.1,0-2.1,0c-8.3,0-35.2-1.6-40.8-18.7
		c-0.3-0.8-0.5-2.5-0.8-5c0.3,2.5,0.6,4.2,0.8,5c5.6,17.2,32.5,18.7,40.8,18.7c1,0,1.7,0,2.1,0c3.3-0.1,6-2.5,6.6-5.7L1514.6,2124.7
		l17.8,0.6l3.8,120.5l-3.8-120.5L1514.6,2124.7"/>
	<path class="st25" d="M1418.7,2072c0.1,39.3,1.2,73,3.9,88.8c8.2,46.9,85.3,56.1,86.1,56.1c3.4,0.4,6,3.3,6,6.8c0,0,0,0,0,0v22.1
		h21.5l-3.8-120.5l-17.8-0.6l-4.3,28.2c-0.6,3.2-3.3,5.6-6.6,5.7c-0.4,0-1.1,0-2.1,0c-8.3,0-35.2-1.6-40.8-18.7
		c-0.3-0.8-0.5-2.5-0.8-5c-0.6-5.3-1.3-14.2-2-25.6L1418.7,2072"/>
	<path class="st12" d="M1455.9,2054.5c0.1,5.1,0.3,10.1,0.4,14.9C1456.2,2064.5,1456,2059.6,1455.9,2054.5L1455.9,2054.5"/>
	<path class="st25" d="M1419.1,2007.7c-0.2,8.3-0.2,16.6-0.3,24.8l37.7,43.4c-0.1-2.2-0.1-4.3-0.2-6.5c-0.2-4.8-0.3-9.8-0.4-14.9
		L1419.1,2007.7"/>
	<path class="st12" d="M1594.2,1671.2l0.7,33c0,0,0,0,0,0L1594.2,1671.2"/>
	<path class="st25" d="M1594.2,1671.2c-12.4,1-27,2-44.2,2.9v36.8c13.8-1.5,43.8-6.5,44.9-6.7L1594.2,1671.2L1594.2,1671.2"/>
	<path class="st12" d="M1270.8,2664.9L1270.8,2664.9c9.8,10.1,34.9,33.9,70.7,53.5c0,0,0-0.1,0-0.1
		C1315.5,2704,1291.7,2686,1270.8,2664.9"/>
	<path class="st8" d="M1270.8,2664.9c-12.9,10.3-26.2,20-40.1,28.9c8.3,19.7,35.9,86.9,41.3,127.4c1.4,11,0.2,25-1.1,41.2
		c-1.8,21.2-3.8,45.5-0.3,68.8c0.6-0.4,32.3-18.2,82.4-37.4c-19.8-66.6-11.8-172.5-11.5-175.4
		C1305.7,2698.8,1280.6,2675,1270.8,2664.9"/>
	<path class="st13" d="M1353,2893.8c-50.1,19.2-81.8,37-82.4,37.4c5.5,36.3,24.7,70.2,79.7,85.9c47.5,13.6,122.2,21.8,196.7,21.8
		c86.5,0,172.7-11.1,215.2-38c14.2-9,22.3-19.3,24.2-30.5c2.4-13.3,1.5-26.9-2.6-39.8c-23.4,37-98.8,51.1-179.1,51.1
		c-100,0-207.6-21.8-231.7-48.3C1364.3,2923.9,1357.9,2910,1353,2893.8"/>
	<path class="st4" d="M463.5,2360.4c-3.9,0-7.6-1.4-10.6-3.9c-3.4-2.8-84.6-70.6-153.7-175.1c-92.8-140.2-117.7-278.8-72-400.7
		c108.5-290,346.5-365.7,356.6-368.8c2.7-0.8,5.6-0.9,8.4-0.3c4.5,1,457.1,98.3,941.4-7.9c2-0.4,4.1-0.5,6.1-0.2
		c3.1,0.5,79,13,197.2,129.3c107.1,105.5,219.4,271.4,213.5,420.8c-5.5,137.9-200.3,341.7-208.6,350.3c-6.9,6.2-17.4,5.6-23.6-1.3
		c-5.5-6.2-5.7-15.5-0.4-21.8c2-2,194.4-203.2,199.3-328.5c4.5-114.2-75.4-269.6-203.5-395.8c-97.3-95.8-162.8-116.2-176.4-119.6
		c-463.8,100.9-898.1,18.2-947.5,8.1c-30.6,10.9-236.1,92.8-331.4,347.3c-93.7,250.5,167.3,495.7,210.1,533.6
		c37.7-7.8,210-50.2,290.9-189.5c-20.9-28.2-95.7-123.8-215.3-223.2c-5.1-4.3-7.2-11.2-5.3-17.6l56.1-187.5
		c3.3-8.6,12.9-12.9,21.6-9.7c7.8,3,12.2,11.2,10.3,19.3l-53,177c140.1,118.2,215.7,226.4,218.9,231c3.6,5.1,4,11.9,1,17.4
		c-95.7,178.7-318.1,215.6-327.5,217.1L463.5,2360.4z"/>
	<path class="st4" d="M500.1,2462.3c-4.7,0-9.1-2.4-11.6-6.4l-43.7-68.4c-1.9-3-2.6-6.5-1.9-10l7-36.4c1.5-7.5,8.8-12.5,16.3-11
		c7.5,1.5,12.5,8.8,11,16.3l-6,30.9l34.6,54.3c51.7-19.6,284.8-114.7,360.6-266c-14-20.1-29.8-38.9-47.3-56l-29.6,34.6
		c-5.4,5.5-14.2,5.6-19.7,0.2c-5-4.9-5.6-12.6-1.4-18.2l39-45.6c2.4-2.8,5.9-4.5,9.6-4.8c3.7-0.3,7.4,1,10.1,3.5
		c40.5,35.7,65.9,76.2,67,77.9c2.5,4,2.8,9,0.8,13.2C809.3,2355,517,2457.3,504.6,2461.5C503.2,2462,501.6,2462.3,500.1,2462.3z"/>
	<path class="st4" d="M1003.2,2779.3h-7.3c-147.2-3.5-422.1-22.5-463.7-30.6s-71.8-22.9-85.1-69.5c-10.9-38.1-7.6-272.6-7.2-299.3
		c0.2-9.1,7.5-16.3,16.6-16.3h0.3c9.2,0.1,16.5,7.6,16.4,16.8v0c-1.5,98.7-1.3,264.5,5.9,289.6c8,28.1,21.9,38.8,59.4,46.1
		c40.6,7.8,312.2,26.4,458.1,29.9h6.5c136.2,0,256.2-101.9,257.4-103c6.9-5.9,17.3-5.2,23.3,1.6c0.5,0.6,51.2,56.9,123,74.6
		s309-7.3,350.4-22.4c-2.6-80-89.3-800.4-125.4-973.5c-1.2-9.1,5.3-17.5,14.4-18.7c8.2-1.1,15.9,4,18.2,11.9
		c18.6,89.5,53,342.8,79,550.1c14.1,113,26.6,219.1,35.2,298.9c14.6,135.7,12.4,141.3,10.3,146.7c-3.3,8.2-10.1,25.2-173,39.7
		c-76.7,6.8-174,10.3-217.1-0.4c-61.7-15.2-108.4-54-128.7-73.5C1234.6,2705.3,1127.1,2779.3,1003.2,2779.3z"/>
	<path class="st4" d="M1276.6,1917.8h-0.6c-78.9-3.3-189.9-37.7-234-52.3c-37.5-12.5-72.7-25.9-99-37.6
		c-43.6-19.4-48.3-27.5-49.8-35.3c-1.9-10.5,1.4-23.7,5.4-40.5c5.6-23,12.5-51.7,8.6-81.1c-2.1-15.2-49.1-10.8-86.9-7.4
		c-47.1,4.3-95.8,8.8-127-8.6c-64.8-36.2-66.7-198.4-66.7-216.8c0-7.6,6.2-13.8,13.8-13.8l0.1,0c7.6,0,13.8,6.2,13.8,13.8v0
		c0.1,45.4,9.6,168.6,52.6,192.6c23.6,13.2,70,9,110.8,5.2c57.3-5.2,111.4-10.2,116.9,31.3c4.6,34.6-3.3,67.4-9,91.3
		c-2.4,9.7-5,20.5-5.2,26.4c24.7,20.2,207.1,87.2,325.1,102.3L915.4,1476c-4.8-6-3.8-14.7,2.1-19.5c6-4.8,14.7-3.8,19.5,2.2
		l350.4,436.5c4.8,6,3.8,14.7-2.1,19.5C1282.8,1916.7,1279.7,1917.8,1276.6,1917.8L1276.6,1917.8z"/>
	<path class="st4" d="M1250.3,1885c-2.9,0-5.7-0.9-8-2.6c-6.2-4.3-7.7-12.9-3.4-19.1l0.2-0.2c1.5-2.1,152.3-214.5,193.6-426.2
		c1.5-7.5,8.7-12.4,16.2-11c7.5,1.5,12.4,8.8,11,16.3c-42.5,217.7-192,428.2-198.3,437C1259,1882.9,1254.8,1885,1250.3,1885z"/>
	<path class="st4" d="M1271.4,2669.5c-1.1,0-2.2-0.1-3.2-0.4c-7.4-1.7-12.1-9.1-10.3-16.6l0-0.1c61.8-259.1,5.5-742,5-746.9
		c-0.8-6.7,3.4-13,9.9-14.9l131-37.9c5.1-23.5,25.4-81.5,101.8-93l-49-81.5c-2.5-4.2-2.6-9.5-0.3-13.8c2.4-4.3,6.8-7,11.7-7.2
		c70.7-2.7,148.8-7.5,174.9-11.7c-4.5-28-22.8-111.5-40.1-186.4c-1.7-7.4,2.9-14.8,10.3-16.6l0,0c7.5-1.7,14.9,2.9,16.7,10.4
		c44.9,194.3,42.5,202.2,41.2,206.5c-3.2,10.4-5.3,17.4-178.6,24.5l48.4,80.6c2.6,4.2,2.7,9.5,0.3,13.8c-2.4,4.3-6.9,7-11.8,7.2
		c-92.1,2.2-99.3,76-99.5,79.2c-0.5,5.7-4.5,10.6-10,12.2l-128.1,37.1c8.6,77.4,51.4,500.5-6.8,744.9
		C1283.3,2665.1,1277.8,2669.4,1271.4,2669.5z M1644,1654.1L1644,1654.1z"/>
	<path class="st4" d="M730.7,1751.8h-68.5c-6.1,0-11.1-5-11.1-11.1c0-0.1,0-0.3,0-0.4l5.6-139c0.3-6.1,5.4-10.8,11.5-10.6
		c6.1,0.2,10.8,5.3,10.6,11.4l0,0.1l-5.1,127.4h45.9V1652c0-6.1,5-11.1,11.1-11.1c6.1,0,11.1,5,11.1,11.1v88.7
		C741.8,1746.8,736.8,1751.8,730.7,1751.8L730.7,1751.8z"/>
	<path class="st4" d="M662.2,1832c-6.1,0-11.1-5-11.1-11.1v-80.2c0-6.1,5-11.1,11.1-11.1c6.1,0,11.1,5,11.1,11.1v68.4l57.4-3.7
		l-10.9-62.8c-1-6,3-11.8,9-12.9c6-1,11.8,3,12.9,9.1l12.9,74.9c0.5,3.1-0.3,6.3-2.2,8.8c-1.9,2.5-4.9,4-8,4.2l-81.5,5.2L662.2,1832
		z"/>
	<path class="st4" d="M719.4,2006.2c-29,0-57.2-8.1-80.1-23.8c-26.9-18.5-41.9-44.4-42.3-73.1c-0.9-69.5,58.1-97.3,60.6-98.5
		c3.3-1.5,7.1-1.3,10.2,0.5c3.1,1.8,5.1,5,5.4,8.6l7.1,77.5c1.8,2.6,11,13,41.3,9.5s38.3-26.6,40.4-35.3l-28-50.6
		c-3.3-5.2-1.8-12,3.4-15.3c5.2-3.3,12-1.8,15.3,3.4c0.3,0.4,0.5,0.8,0.7,1.2l0.4,0.7c48.2,10.8,73.2,52.2,76.6,89.5
		c4.1,44.1-18.4,81.9-57.2,96.2C756,2003,737.8,2006.2,719.4,2006.2z M652.8,1839.9c-14.2,11.1-34.1,33.1-33.6,69.1
		c0.3,21.3,11.9,40.8,32.6,55.1c31.3,21.5,74.9,26,113.7,11.7c35.4-13,45.2-47.6,42.8-73.3c-1.9-21.6-13.2-47.6-38-61.7l13.1,23.6
		c1.1,2,1.6,4.4,1.3,6.7c-2.2,17.9-17.6,52.9-60.5,57.8c-53.8,6.2-64.8-23.6-65.2-24.9c-0.3-0.8-0.5-1.7-0.6-2.6L652.8,1839.9z"/>
	<path class="st4" d="M1135.8,1739.5c-1.3,0-2.6-0.2-3.8-0.6c-5.7-2.1-8.7-8.4-6.7-14.2l35.7-100.1c1.6-4.4,5.8-7.4,10.5-7.4h134
		c4.6,0,8.7,2.8,10.4,7.1l35.9,91.6c2.1,5.8-1,12.1-6.7,14.2c-5.6,2-11.7-0.7-14-6.2l-33.1-84.5h-118.7l-33.1,92.7
		C1144.7,1736.5,1140.5,1739.5,1135.8,1739.5z"/>
	<path class="st4" d="M1069.3,1656.8c-1.8,0-3.6-0.5-5.2-1.4c-5.4-2.9-7.4-9.6-4.5-15l94.2-175.2c2.9-5.4,9.6-7.4,15.1-4.6
		c5.4,2.9,7.4,9.6,4.5,15.1l-94.3,175.2C1077.2,1654.5,1073.4,1656.8,1069.3,1656.8z"/>
	<path class="st4" d="M1405.3,1590.4c-3.3,0-6.5-1.4-8.6-4l-98.4-120.6c-4.3-4.4-4.3-11.4,0.1-15.7s11.4-4.3,15.7,0.1
		c0.5,0.5,0.9,1,1.3,1.6l98.5,120.5c3.9,4.7,3.2,11.6-1.5,15.5l-0.1,0.1C1410.3,1589.5,1407.9,1590.4,1405.3,1590.4z"/>
	<path class="st4" d="M1171.5,1639.4c-3.3,0-6.4-1.4-8.5-3.9l-56.6-67.3c-4-4.6-3.4-11.6,1.2-15.5l0.1-0.1
		c4.7-3.9,11.6-3.3,15.6,1.3l56.7,67.3c3.9,4.7,3.3,11.7-1.4,15.6C1176.6,1638.5,1174.1,1639.4,1171.5,1639.4z"/>
	<path class="st4" d="M1305.5,1639.4c-6.1,0.1-11-4.8-11.1-10.9c0-2.6,0.9-5.2,2.6-7.2l69.8-85.6c3.9-4.7,10.8-5.4,15.6-1.6
		c4.7,3.8,5.5,10.7,1.7,15.5l-0.1,0.1l-69.9,85.6C1312,1637.9,1308.8,1639.4,1305.5,1639.4z"/>
	<path class="st4" d="M1588.5,2263.7h-80.6c-6.1,0-11.1-5-11.1-11.1l0,0v-19.4c-23.9-4.5-83.2-20.6-91.8-69.4
		c-9.3-53.1-0.5-290.5-0.1-300.6c0-0.5,0-0.9,0.1-1.4c14.5-89.9,94.1-99.2,126.2-99.2h0.9v-95.1c0-6.1,4.9-11.1,11.1-11.1
		c6.1,0,11.1,4.9,11.1,11.1v0v106.7c-0.1,6.2-5.1,11.1-11.3,11.1c-0.4,0-0.8,0-1.2-0.1c-4-0.5-99.7-11.2-114.8,79.5
		c-0.5,14.4-8.8,245.8-0.1,295.3c7.6,43.9,81.5,52.6,82.3,52.7c5.6,0.6,9.8,5.4,9.8,11v17.8h12.8l-3.6-112.1l-9.9-0.3l-3.8,24.4
		c-0.8,5.3-5.3,9.3-10.6,9.4c-6.7,0.2-40.1,0-47.2-21.6c-3.9-12-14.5-253.6,9-284.4c13.7-18,48.2-30.4,80.4-29
		c30.5,1.4,55.1,14.7,69.4,37.4c0.8,1.4,1.4,3,1.6,4.7c8,74.1,24.7,249.3,5.5,273c-23.4,29-48.8,18.6-49.8,18.2
		c-3.2-1.4-5.5-4.1-6.4-7.5l-6.5-25.2l-7.8,0.6l2,112.4h23.4v-19.6c0-4.6,2.9-8.8,7.2-10.4c17.9-6.6,66.4-29.5,75.7-56.3
		c9.3-26.8-3-206.7-13.4-323c-8.5-17.7-25.5-29.8-45-32.1c-5.4-0.7-9.5-5.3-9.6-10.7l-2.7-125.4c-0.1-6.1,4.8-11.2,10.9-11.3h0h0.2
		c6,0,10.9,4.8,11.1,10.8l2.4,116.4c39.9,9.6,53.3,44,53.9,45.6c0.4,0.9,0.6,1.9,0.7,2.9c2.7,30.1,26,295.3,12.5,334.1
		c-12.3,35.1-62.2,58.8-81.8,67v23.1C1599.6,2258.7,1594.6,2263.7,1588.5,2263.7z M1568.4,2105.7c5.1,0,9.5,3.5,10.7,8.4l7,27.1
		c4.4-0.2,11.5-2.5,19.2-12.1c9.2-15.1,2.2-140.6-10-254.1c-13.2-19.3-34.5-24.2-50.2-24.9c-26.8-1.2-53.5,9.4-61.8,20.2
		c-15.5,21.2-10.8,243.6-5.5,264.3c0.8,2.3,8.1,4.7,16.3,5.7l3.8-24.3c0.7-5.6,5.7-9.7,11.3-9.4l31.4,1.1l27-2H1568.4z"/>
	<path class="st4" d="M1668,1839.8c56-1.8,106.9,31.5,142.2,72.4c-29.9-22.4-65.4-39.6-103-42.1c-10.9-0.7-22.7-0.6-33.2,2.4
		C1652.3,1875.8,1646.5,1844.4,1668,1839.8L1668,1839.8z"/>
	<path class="st4" d="M701.5,3061c-123.2,0-259.1-28.5-275.3-111.3c-15.1-77.2,57.2-133.6,82.3-150.7v-68.9
		c0-9.2,7.4-16.6,16.6-16.6c9.2,0,16.6,7.4,16.6,16.6v0.1v78c0,5.9-3.1,11.3-8.2,14.3c-0.8,0.5-88,53-74.7,120.9
		c12.1,61.5,146.1,88.7,272.2,83.9c109.6-4.2,202.5-12,230.4-64c24.7-46,21.6-159.5,18.3-199.3c-0.7-9.1,6.1-17.2,15.2-17.9
		c9.1-0.7,17.2,6.1,17.9,15.2c0.5,6.2,12.3,153.7-22,217.7c-36.3,67.7-134.3,76.7-258.5,81.5C722.2,3060.8,711.9,3061,701.5,3061z"
		/>
	<path class="st4" d="M521.7,2791.8c69.8-5.7,140.4,16,198,54.9c-30.3-13.9-62.8-23.6-95.8-27.3s-64.5-2.9-95.4,5
		C504.8,2830.8,497.4,2795.4,521.7,2791.8L521.7,2791.8z"/>
	<path class="st4" d="M1545.6,3062.3c-76.1,0-152.1-8.5-201.7-22.7c-108.8-31.1-101-123.8-96.4-179.2c1.2-14.2,2.4-27.7,1.2-36.1
		c-5.7-43.6-41.5-125.8-41.9-126.6c-3.7-8.4,0.2-18.2,8.6-21.9c8.4-3.7,18.2,0.2,21.9,8.6c1.6,3.5,38.1,87.3,44.4,135.5
		c1.6,12.1,0.4,26.5-1,43.3c-5.8,68.5-4.1,122.6,72.3,144.4c98.6,28.2,328.2,32.8,403.9-15c11.8-7.5,18.4-15.5,19.8-23.8
		c12-71.8-78.5-102.1-79.4-102.4c-6.6-2.2-11.2-8.2-11.5-15.2l-4.9-124.8c-1-9.2,5.7-17.4,14.8-18.4c9.2-1,17.4,5.7,18.4,14.8
		c0.1,0.7,0.1,1.5,0.1,2.2l4.4,113.8c42,17.3,103.1,62.3,90.9,135.3c-3,18.1-14.7,33.8-34.8,46.5
		C1728.1,3050.1,1636.8,3062.3,1545.6,3062.3z"/>
	<path class="st4" d="M1699.8,2867c-45.4-8.7-92.9-8.7-138.9-2.4c-15.7,2.1-31.2,5.1-46.5,9.1c-20.6,4.9-40.5,12.3-60.4,20.3
		c56-32.9,119.6-52.3,184.2-58.5c22.4-2,44.2-3,66.8-1.3S1723.1,2871.5,1699.8,2867L1699.8,2867z"/>
	<path class="st4" d="M371.6,2655.5c-13.6,0-27.2-0.8-40.8-2.2c-97-10.5-174.8-58.8-224.9-139.6c-121.8-196.6,17.9-316.5,19.3-317.7
		c7-5.9,17.5-4.9,23.4,2.1c1.6,1.9,2.7,4.1,3.3,6.4c3.7,13.6,13.1,32.4,22.3,48.7c3-4,7.6-6.4,12.5-6.7c7.1-0.4,13.7,3.8,16.3,10.4
		c6.8,16.9,28,37.5,46.8,53.2v-23.3c-0.1-9.2,7.2-16.7,16.4-16.8c6.3-0.1,12.1,3.5,15,9.1c50,96.9,177.8,127.9,179.1,128.2
		c8.9,2.1,14.5,11,12.4,19.9c-2.1,8.9-11,14.5-19.9,12.5c-5-1.2-104.6-25.1-169.8-99.5v3.5c0,6.2-3.4,11.8-8.8,14.7
		c-5.5,2.9-12.1,2.5-17.2-0.9c-5.1-3.5-39.5-27.6-64-56c-4.7,7.9-14.9,10.4-22.8,5.7c-2.1-1.3-4-3-5.3-5.1
		c-1.1-1.7-21.5-32.7-35.2-62.7c-28.9,36-77.1,125,4.5,256.8c107.5,173.5,311,118.8,319.6,116.4c8.8-2.5,18,2.7,20.5,11.5
		c2.5,8.8-2.7,18-11.5,20.5C460.9,2645.1,423.7,2655.5,371.6,2655.5z"/>
	<path class="st3" d="M2430.7,247c-65.3,0-124.8,30.7-163.2,79.4c-11.1,20.9-18.4,44.3-21,69.3c-4.4,41.2,5,82.7,26.7,118
		c2.7,4.4,3.4,9.7,2,14.7l-1.8,6c41.6,29.4,90,43.8,138.1,43.8c68.1,0,135.7-28.8,183.2-84.8c9.3-11,17.6-22.8,24.8-35.2
		c1.8-7.8,3.1-15.7,4-23.8c2.6-25.1,0.1-49.5-6.6-72.3c-30.7-61.5-91.3-106.4-164.7-114C2445.1,247.4,2437.9,247,2430.7,247"/>
	<path class="st3" d="M2435,225.5c-71.3,0-135.2,40.2-167.4,100.9c38.4-48.8,97.9-79.4,163.2-79.4c7.1,0,14.3,0.4,21.6,1.1
		c73.4,7.5,134,52.4,164.7,114c-21-71.8-83.7-127.4-162.5-135.6C2447.9,225.8,2441.4,225.5,2435,225.5"/>
	<path class="st4" d="M2267.6,326.4c32.2-60.7,96.1-100.9,167.4-100.9c6.5,0,13,0.3,19.5,1c78.8,8.1,141.5,63.8,162.5,135.6
		c6.7,22.8,9.2,47.3,6.6,72.3c-0.8,8.1-2.2,16.1-4,23.8c9.8-17,17.6-35.2,23-54.2c0.6,10.7,0.3,21.5-0.8,32.2
		c-11,106.9-101.1,186.6-206.3,186.6c-7.1,0-14.3-0.4-21.6-1.1c-30.7-3.1-60.3-13-86.7-29l-96.1,21.5l26.6-90.9
		c-0.4-0.7-0.7-1.4-1.1-2c5.5,4.7,11.2,9,16.9,13.1l1.8-6c1.4-5,0.7-10.3-2-14.7c-21.7-35.3-31.1-76.8-26.7-118
		C2249.1,370.7,2256.5,347.4,2267.6,326.4 M2435,188.9c-114.4,0-212.9,86.8-224.8,203c-4.9,46.4,4.8,93.2,27.8,133.8l-24.5,83.4
		c-0.9,3-1,6.2-0.3,9.2c1.9,8.5,9.5,14.3,17.8,14.3c1.3,0,2.7-0.1,4.1-0.5l89.1-20c27,15.3,56.9,24.7,87.8,27.8
		c7.7,0.8,15.5,1.2,23.3,1.2c114.4,0,212.8-86.8,224.7-203c12.7-124-77.8-235.3-201.8-248C2450.4,189.3,2442.7,188.9,2435,188.9"/>
	<path class="st26" d="M2619.6,458.2c-7.2,12.4-15.4,24.2-24.8,35.2c-47.5,56-115.1,84.8-183.2,84.8c-48.2,0-96.5-14.4-138.1-43.8
		l-16.2,55.2l65.9-14.8c1.2-0.3,2.5-0.4,3.8-0.4c0.1,0,0.1,0,0.2,0c3.3,0,6.6,0.9,9.5,2.6c24,14.7,51,23.8,79,26.6
		c6.5,0.7,13,1,19.4,1C2523.1,604.6,2599.8,543.4,2619.6,458.2"/>
	<path class="st4" d="M2642.6,404c-5.4,19-13.1,37.2-23,54.2c-19.8,85.2-96.6,146.4-184.5,146.4c-6.4,0-12.9-0.3-19.4-1
		c-28-2.9-55-11.9-79-26.6c-2.9-1.7-6.2-2.6-9.5-2.6c-0.1,0-0.1,0-0.2,0c-1.3,0-2.5,0.1-3.8,0.4l-65.9,14.8l16.2-55.2
		c-5.8-4.1-11.4-8.5-16.9-13.1c0.4,0.6,0.7,1.3,1.1,2l-26.6,90.9l96.1-21.5c26.4,16,56,25.9,86.7,29c7.3,0.7,14.5,1.1,21.6,1.1
		c105.2,0,195.3-79.7,206.3-186.6C2642.9,425.5,2643.2,414.7,2642.6,404"/>
	<path class="st27" d="M2368.7,356.7L2368.7,356.7c17.9-18,47.1-14.8,65.1,3.2l2.8,2.8l2.8-2.8c18-18,47.1-21.2,65.1-3.2
		c18,18,18,47.1,0,65.1l0,0l-2.8,2.8l-56.5,56.5c-4.7,4.7-12.4,4.8-17.1,0.1l-0.1-0.1l-56.5-56.5l-2.8-2.8
		C2350.7,403.8,2350.7,374.7,2368.7,356.7L2368.7,356.7z"/>
</g>
</svg>
