<svg id="Layer_1" data-name="Layer 1" xmlns="http://www.w3.org/2000/svg" xmlns:xlink="http://www.w3.org/1999/xlink" viewBox="0 0 2914.7 2360.6"><defs><style>.cls-1{fill:#fff;}.cls-14,.cls-2{fill:none;}.cls-3{fill:#0bcbff;}.cls-4{fill:#d3670d;}.cls-5{opacity:0.5;}.cls-6{opacity:0.3;}.cls-7{fill:#000072;}.cls-8{fill:#fafbfb;}.cls-9{fill:#452735;}.cls-10{clip-path:url(#clip-path);}.cls-11{fill:#93411d;}.cls-12{clip-path:url(#clip-path-2);}.cls-13{opacity:0.35;}.cls-14{stroke:#000072;stroke-miterlimit:10;stroke-width:5px;}.cls-15{fill:#ed2a84;}.cls-16{fill:#ff002b;}.cls-17{fill:#ffc200;}.cls-18{opacity:0.2;}</style><clipPath id="clip-path" transform="translate(-545.7 -795)"><path class="cls-1" d="M1935,2124.2s319.1,534.5-319.8,748.9c0,0-289.9,385.1-565,157.7-230.9-190.8-78.1-572.9,134.3-681,69-35.1,114.7-103.7,118.5-181.1h0Z"/></clipPath><clipPath id="clip-path-2" transform="translate(-545.7 -795)"><path class="cls-2" d="M1615.2,1433.1s112.2-4.3,176.8,70.3c0,0,178.3-19.7,178.3,368.5,0,0,278.3,434.6-350.8,434.6h-2.7c-629.1,0-350.7-434.6-350.7-434.6,0-388.2,178.2-368.5,178.2-368.5,64.6-74.6,176.8-70.3,176.8-70.3"/></clipPath></defs><path class="cls-3" d="M3270.6,2082.5c0-711.1-576.5-1287.5-1287.5-1287.5S695.6,1371.4,695.6,2082.5c0,433.1,213.8,816.3,541.7,1049.7H2728.8C3056.7,2898.8,3270.6,2515.6,3270.6,2082.5Z" transform="translate(-545.7 -795)"/><path class="cls-4" d="M759.3,2679.3c12.2,65.1,58.1,185.8,229.8,185.8V2991s-342.2-9.9-248.4-312.7C743.6,2668.8,757.4,2669.5,759.3,2679.3Z" transform="translate(-545.7 -795)"/><g class="cls-5"><path class="cls-1" d="M765.1,2709.7a311,311,0,0,1-7.5-30.4c-1.8-9.8-15.6-10.5-18.5-1C645.3,2981.1,987.5,2991,987.5,2991v-3.4C906.9,2976.1,716.5,2925.7,765.1,2709.7Z" transform="translate(-545.7 -795)"/></g><g class="cls-6"><path class="cls-7" d="M965.8,2870.5c-57.9-10.2-97.2-36.6-123.8-67.8-6.3,96.7,42,153.2,99,186.1,44.3,11.2,79,12.2,79,12.2V2896.6A202.2,202.2,0,0,1,965.8,2870.5Z" transform="translate(-545.7 -795)"/></g><path class="cls-7" d="M989.1,3009.8h-.5c-6.9-.2-170.1-6.1-245.9-112.1-41.5-58.1-48.2-133.7-19.9-224.9a28.4,28.4,0,0,1,28.7-20,27.9,27.9,0,0,1,26.2,23h0c12,63.7,55.5,170.5,211.4,170.5a18.8,18.8,0,0,1,18.8,18.8V2991a19.1,19.1,0,0,1-5.7,13.5A18.8,18.8,0,0,1,989.1,3009.8Zm-239.4-292c-13.6,64-5.7,117,23.5,157.9,50.8,71.3,154.2,90.1,197.1,94.9v-87.2C825.5,2876,770.5,2782.7,749.7,2717.8Zm-8.9-35Z" transform="translate(-545.7 -795)"/><path class="cls-8" d="M1957.5,2991.2c-1.9-156.9,14.9-391.8,14.9-391.8L1678,2739.1c0,186,103.2,391.8,103.2,391.8h234.3a94.9,94.9,0,0,0,10.2-42.3C2025.7,3047.3,1998.4,3011.2,1957.5,2991.2Z" transform="translate(-545.7 -795)"/><g class="cls-6"><path class="cls-7" d="M1891.4,3004.6c-1.9-156.9,66-406.1,66-406.1l-339.1,139.8c0,185.9,103.2,391.7,103.2,391.7h234.3a94.5,94.5,0,0,0,10.1-42.3C1965.9,3046.5,1932.3,3024.6,1891.4,3004.6Z" transform="translate(-545.7 -795)"/></g><path class="cls-7" d="M2015.5,3149.7H1781.2a19,19,0,0,1-16.8-10.4c-4.3-8.6-105.2-212-105.2-400.2a18.7,18.7,0,0,1,10.8-16.9l294.4-139.8a18.8,18.8,0,0,1,26.7,18.3c-.1,2.3-15.9,225.1-14.9,379.2,43,24.8,68.2,64.7,68.2,108.7a111.5,111.5,0,0,1-12.1,50.6A18.6,18.6,0,0,1,2015.5,3149.7ZM1793,3112.1h210a72.8,72.8,0,0,0,3.9-23.5c0-32.8-21.5-62.9-57.6-80.6a18.6,18.6,0,0,1-10.5-16.6c-1.5-121.6,8.3-291.4,12.8-361.4l-254.7,120.9C1700.6,2903.8,1773.2,3069.6,1793,3112.1Z" transform="translate(-545.7 -795)"/><path class="cls-9" d="M1468.4,2160.6s-67,2.7-154.4,28.1c-10.1,73.7-56.2,137.8-123.3,171.9-206.6,105.2-359.9,455.6-193,668a333.7,333.7,0,0,0,51,52.1,374.2,374.2,0,0,0,42.2,30.4c-22.8-32.6-40.1-70.8-42-104.9-2.2-38.4,15.1-71.4,66-84.7,155.2-40.6,29.6-289.5,75.5-416s132.7-127.8,232-148.4S1468.4,2160.6,1468.4,2160.6Z" transform="translate(-545.7 -795)"/><path class="cls-7" d="M1099.9,3119.6l-10.3-6.4a366.6,366.6,0,0,1-42.5-30.6,343,343,0,0,1-51.3-52.4c-65.7-83.7-87.1-197-60.1-319.1,33.2-150.5,135.2-292.3,253.8-352.7,66.4-33.8,112.1-97.4,122.1-170l.2-1.6,1.5-.5c86.7-25.2,154.3-28.2,155-28.2h1.9l.6,1.8c1.3,4.5,32.6,109.8-1.2,166.8-10.4,17.6-26.2,28.7-46.7,32.9-11.3,2.4-22.4,4.5-33.3,6.5-84.1,15.8-156.6,29.5-196.9,140.3-17.2,47.6-9.8,113.9-2.7,178,11.7,105.2,23.8,213.9-74.5,239.6-44.3,11.6-66.5,40-64.1,82.1,1.7,30.7,16.9,68.4,41.5,103.6Zm216.4-928.9c-10.7,73.6-57.1,137.9-124.5,172.2-117.4,59.7-218.4,200.1-251.3,349.3-26.6,120.6-5.5,232.5,59.2,314.9a338.4,338.4,0,0,0,50.6,51.7,389.8,389.8,0,0,0,31.8,23.6c-21.5-33.2-34.1-67-35.7-96.1-1.8-31.2,8.6-71.7,67.8-87.2,94.2-24.6,82.9-126.4,70.9-234.2-7.3-64.7-14.7-131.6,2.9-180.3,41.2-113.5,115.1-127.4,200.7-143.5,10.9-2,21.9-4.1,33.2-6.5,19.1-3.9,33.7-14.2,43.4-30.6,30.3-51,5.3-146.3,1.2-160.8C1454.9,2163.9,1393.4,2168.4,1316.3,2190.7Z" transform="translate(-545.7 -795)"/><path class="cls-1" d="M1935,2124.2s319.1,534.5-319.8,748.9c0,0-289.9,385.1-565,157.7-230.9-190.8-78.1-572.9,134.3-681,69-35.1,114.7-103.7,118.5-181.1h0Z" transform="translate(-545.7 -795)"/><g class="cls-10"><path class="cls-4" d="M1598.2,2061.8s-95.1,116,109.7,256.4,144.6,334,51.5,353.4c0,0,5.5-109.6-199.5-128.8s-39.3,467.4-39.3,467.4l-50.3,3.5s-33.1-27.3-78.6-33.5c0,0,92.3-117.1-75.1-139s-189.4,117-345.4,148.5-307.4-420.5-41.7-730.4S1598.2,2061.8,1598.2,2061.8Z" transform="translate(-545.7 -795)"/></g><path class="cls-11" d="M1193,2366.5c-109.1,55.5-204.2,191.3-231.3,330.2v.4c-18.2,84.2-17.8,158.7,1,222.9,7.4-24.3,29.3-41,79.4-38.9,172.6,7.1,72-238.6,75.1-348.2s117.4-89.1,165.9-139.2c27.3-28.2,15.1-72.8-.7-106.3A237.4,237.4,0,0,1,1193,2366.5Z" transform="translate(-545.7 -795)"/><g class="cls-5"><path class="cls-1" d="M1210.8,2381.5c69-35.2,114.7-103.7,118.5-181.1l614.7-43.3c-11.2-24.1-19.4-37.9-19.4-37.9l-632,44.5h0c-3.8,77.4-49.5,146-118.5,181.1-211.1,107.5-363.2,485.5-138.4,677.4C866.1,2822.3,1012.4,2482.5,1210.8,2381.5Z" transform="translate(-545.7 -795)"/></g><path class="cls-7" d="M1437,3055.3a18.8,18.8,0,0,1-10.1-34.6c102-65,172.6-157.9,173.3-158.9a19.2,19.2,0,0,1,9.1-6.5c191.4-64.2,313.2-163.7,362.2-295.8,66.9-180.4-23.4-370.7-47.2-415.7l-604,42.5c-9.4,76.4-57.1,144.5-127.3,180.2-109.1,55.5-204.2,191.3-231.3,330.2a18.8,18.8,0,0,1-36.9-7.2c29.7-151.8,130.6-295.1,251.1-356.4,63.4-32.3,104.9-95.6,108.3-165.3a18.9,18.9,0,0,1,17.5-17.8l632-44.5a18.7,18.7,0,0,1,17.4,9.1c5.7,9.5,138,235.2,55.7,457.7-52.5,142.1-180.5,248.6-380.2,316.8-16.2,20.5-83.8,102.2-179.5,163.3A19,19,0,0,1,1437,3055.3Z" transform="translate(-545.7 -795)"/><g class="cls-6"><path class="cls-7" d="M1935,2124.2l-632,44.5h0c-.1,1.8-.3,3.5-.5,5.3-.9,26.5,9.8,147.3,276.2,209.3,300.4,69.8,56.3,543.6-262.8,347.4-160.7-98.8-294.2-33.3-378.8,3.6-27.9,126.4-10.3,248.4,98.7,338.5,275.2,227.3,579.4-199.7,579.4-199.7C2254.1,2658.7,1935,2124.2,1935,2124.2Z" transform="translate(-545.7 -795)"/></g><path class="cls-1" d="M1385.3,2980.1c15.3-37.2,22.9-82.6,25.7-102.6a60.5,60.5,0,0,0,1.3-10.3h0c.7-22.8-13.4-47.2-51.2-72.2-124.3-82-154.8,82.7-319.1,86.2-112.5,2.3-98.8-188-98.8-188-75,346.2,182.6,437.8,182.6,437.8h366.1C1512.2,3017.5,1451.7,2984.5,1385.3,2980.1Z" transform="translate(-545.7 -795)"/><path class="cls-7" d="M943.2,2711.9a15.3,15.3,0,0,1-3.6-.4,18.6,18.6,0,0,1-14.8-22c29.7-151.8,130.6-295.1,251.1-356.4,63.4-32.3,104.9-95.6,108.3-165.3a18.8,18.8,0,1,1,37.5,1.9c-4.1,83-53.4,158.5-128.7,196.8-109.1,55.5-204.2,191.3-231.3,330.2A18.9,18.9,0,0,1,943.2,2711.9Z" transform="translate(-545.7 -795)"/><path class="cls-7" d="M1241.3,2995a387.7,387.7,0,0,1,88.7-26.5c30.7-5.1,62.9-7.1,95.8.5,16.3,3.9,33,10.7,47.5,21.9a104.2,104.2,0,0,1,32.6,43.7,74.5,74.5,0,0,1,4.2,12.6c1.2,4.3,2.6,8.6,3.1,12.8l1.9,12.9.5,12.6.2,6.3-.3,6.2-.7,12.3c-.8,8.2-2.2,16.1-3.3,24.1a19.1,19.1,0,0,1-19,16.4h-.6l-91.6-.8-91.5-.4H1125.5a17.3,17.3,0,0,1-6-1.1c-3.5-1.3-5.9-2.3-8.7-3.5l-8-3.7c-5.2-2.5-10.3-5.2-15.3-8a336.4,336.4,0,0,1-29-18.3,348.6,348.6,0,0,1-51.7-44.6,342.8,342.8,0,0,1-71.9-115.5,422.6,422.6,0,0,1-17.7-65.7l-2.4-16.8-1.2-8.4-.7-8.4-1.4-16.9-.4-16.8c-.9-44.9,4.4-89.5,13.8-132.7h0a18.8,18.8,0,0,1,36.7,8h0c-9,41-13.9,82.7-13.1,124.1l.4,15.5,1.3,15.4.7,7.7,1,7.6,2.3,15.3a375.9,375.9,0,0,0,15.8,59.1,305.4,305.4,0,0,0,64,102.7,312.9,312.9,0,0,0,46.1,39.9,298.4,298.4,0,0,0,25.7,16.1c4.4,2.5,8.9,4.9,13.3,7,2.3,1.1,4.5,2.2,6.8,3.1s4.6,2,6.2,2.6l-6.3-1.1h183l91.5-.4,91.6-.7-19.6,16.4c.8-6.9,1.9-13.9,2.6-20.7l.6-10.2.4-5.1-.2-5-.4-10-1.3-9.5c-.2-3.3-1.2-6.2-1.9-9.2s-1.4-6.1-2.8-8.7a66.3,66.3,0,0,0-19.6-28.8c-9-7.8-20.4-13.6-33.1-17.5-25.5-7.8-54.7-9.1-83.6-7.6s-58.7,5.8-87.6,11.8h-.3a6.3,6.3,0,0,1-3.8-11.9Z" transform="translate(-545.7 -795)"/><path class="cls-7" d="M1417.2,3043.2c5.9,4,10.1,10.4,13.4,17a88.4,88.4,0,0,1,6.9,21.3,141.1,141.1,0,0,1,2.7,22.5c0,3.7.1,7.5.1,11.3l-.5,11.2a15.5,15.5,0,1,1-31-1.2,14.3,14.3,0,0,1,1.2-5.5l.2-.4,3.9-9.1c1.2-3,2.2-6.1,3.4-9.2a136.8,136.8,0,0,0,4.8-19.1,76.2,76.2,0,0,0,.9-19.7C1422.6,3055.8,1421.2,3049,1417.2,3043.2Z" transform="translate(-545.7 -795)"/><path class="cls-7" d="M1345,3053.4a92.4,92.4,0,0,1,10.4,16.1,108.6,108.6,0,0,1,7.5,18.2,110.3,110.3,0,0,1,4.4,19.9,114.7,114.7,0,0,1,.8,21.2h0a15.6,15.6,0,0,1-31.2-1.1,18.2,18.2,0,0,1,1.5-6.2,93.8,93.8,0,0,0,6.1-15.3,90.9,90.9,0,0,0,3.3-16.8,97.1,97.1,0,0,0,.2-17.9A87.6,87.6,0,0,0,1345,3053.4Z" transform="translate(-545.7 -795)"/><path class="cls-7" d="M1309,2772c11.4,0,22.7,2.1,33.9,5.3a141.4,141.4,0,0,1,32.4,13.9,125.6,125.6,0,0,1,28.6,23.2,109.7,109.7,0,0,1,20.2,32.5,111,111,0,0,1,7.6,37.6,173.1,173.1,0,0,1-4.1,36.9c-4.9,23.8-13.6,45.9-24.4,66.4a16.9,16.9,0,0,1-30.3-14.9v-.2c8.8-19,16.6-38.4,19.8-58,1.9-9.8,2-19.5,1.8-29a155.3,155.3,0,0,0-4.3-27.3c-4.2-17.8-14.2-34.7-28.7-49.2S1329.1,2782.2,1309,2772Z" transform="translate(-545.7 -795)"/><path class="cls-8" d="M1615.2,1433.1s112.2-4.3,176.8,70.3c0,0,178.3-19.7,178.3,368.5,0,0,278.3,434.6-350.8,434.6h-2.7c-629.1,0-350.7-434.6-350.7-434.6,0-388.2,178.2-368.5,178.2-368.5,64.6-74.6,176.8-70.3,176.8-70.3" transform="translate(-545.7 -795)"/><path class="cls-7" d="M1619.5,2309h-2.7c-208.2,0-339.7-47.5-390.9-141.1-67.2-122.9,30.6-285.2,37.7-296.7.1-207.2,51.8-297.1,95.2-335.9,39.3-35.2,76.8-35,84.4-34.5,56.4-64,148.4-69.8,172.2-70.2h5.5c23.8.4,115.9,6.2,172.2,70.2,7.6-.5,45.2-.7,84.4,34.5,43.4,38.8,95.2,128.7,95.3,335.9,7.1,11.5,104.9,173.8,37.6,296.7C1959.2,2261.5,1827.7,2309,1619.5,2309Zm-179.2-803.3c-10.9,0-44.2,2.8-78.3,33.4-42.6,38.3-93.4,127.1-93.4,332.8v.8l-.4.6c-1.1,1.6-105.9,168-37.9,292.2,50.3,91.9,180.3,138.5,386.5,138.5h2.7c206.2,0,336.3-46.6,386.5-138.5,68-124.2-36.8-290.6-37.8-292.2l-.4-.6v-.8c0-205.7-50.8-294.5-93.4-332.8s-81.7-33.3-82.1-33.2H1791l-.8-1c-54.9-63.3-145.7-69-169.2-69.4h-5.7c-23.5.4-114.3,6.1-169.1,69.4l-.9,1H1444A31,31,0,0,0,1440.3,1505.7Z" transform="translate(-545.7 -795)"/><g class="cls-12"><path class="cls-4" d="M1653.4,1396.7s-121.7,410.3,197.5,510.4c0,0,174.4,21.8,202.5,191.6S2381.8,1359.1,1653.4,1396.7Z" transform="translate(-545.7 -795)"/><path class="cls-4" d="M1591,1396.7s121.7,410.3-197.5,510.4c0,0-174.4,21.8-202.5,191.6S862.7,1359.1,1591,1396.7Z" transform="translate(-545.7 -795)"/><g class="cls-6"><path class="cls-7" d="M1974.1,1871.9c0-342.5-138.7-367.5-171.4-368.6,34.4,52,63,142.1,63,297.7,0,0,278.4,434.6-350.7,434.6h-2.7c-113.1,0-196.9-14-258.3-37.1,53.5,62,162.1,108,366.7,108h2.6C2252.5,2306.5,1974.1,1871.9,1974.1,1871.9Z" transform="translate(-545.7 -795)"/></g></g><path class="cls-7" d="M1619.5,2325.3h-2.7c-214.6,0-350.9-50.3-405.2-149.6-74-135.2,34-306.7,38.6-313.9a18.8,18.8,0,0,1,31.7,20.2c-1,1.6-100.6,160.2-37.3,275.8,47.3,86.2,172.5,129.9,372.2,129.9h2.7c199.7,0,325-43.7,372.2-129.9,63.4-115.6-36.2-274.2-37.2-275.8a18.8,18.8,0,0,1,31.6-20.2c4.6,7.2,112.6,178.7,38.6,313.9C1970.4,2275,1834.1,2325.3,1619.5,2325.3Z" transform="translate(-545.7 -795)"/><path class="cls-7" d="M1792.1,1522.2a18.6,18.6,0,0,1-14.2-6.5c-50.1-57.8-134.3-63.4-156.5-63.8h-6.5c-22.2.4-106.4,6-156.4,63.8a18.8,18.8,0,1,1-28.4-24.6c63.7-73.6,167.1-76.7,188.1-76.8s124.3,3.2,188,76.8a18.8,18.8,0,0,1-14.1,31.1Z" transform="translate(-545.7 -795)"/><path class="cls-4" d="M1444.3,1503.4s-110.8-102.3-323.8-10.7-302.4,535.4-132.1,615.7c149.1,70.3,279.1-104.4,300.4-311s70.3-176.9,70.3-176.9" transform="translate(-545.7 -795)"/><g class="cls-5"><path class="cls-1" d="M1048.1,2108.4c-170.3-80.3-81-524.1,132.1-615.7,51.3-22,96.6-32.8,135.9-36.5-51.1-5.2-117.7,1.5-199.2,36.5-213.1,91.6-302.4,535.4-132.1,615.7,34.2,16.1,67.4,19.3,98.5,12.2A169.5,169.5,0,0,1,1048.1,2108.4Z" transform="translate(-545.7 -795)"/></g><g class="cls-6"><g class="cls-13"><path class="cls-7" d="M1227.4,1799.2c-28.9,207.1-115.3,293.1-216.7,320.2,136.2,35.3,250.4-129.5,270.2-322,19.5-189,62.1-180.2,69.3-177.3C1338.7,1614.9,1248.5,1647.8,1227.4,1799.2Z" transform="translate(-545.7 -795)"/></g></g><path class="cls-7" d="M1431.7,1517l-.7-.5-1.1-.9-2.2-1.8-4.9-3.5c-3.5-2.2-6.9-4.5-10.6-6.6a239.9,239.9,0,0,0-22.7-11.3l-11.9-4.6c-4-1.5-8.2-2.5-12.3-3.8-8.1-2.8-16.7-4.2-25-6.2s-17.2-2.4-25.7-3.6-17.4-.9-26.1-1.1l-26.2,1-26.1,3.3c-4.4.3-8.7,1.6-13,2.4l-13,2.7c-4.3,1.1-8.6,1.6-12.9,3l-12.7,3.8-12.8,3.8-6.4,1.9-6.2,2.4-25,9.6-6.3,2.4-5.8,2.7c-3.8,1.7-7.5,3.8-11.3,5.7a233.4,233.4,0,0,0-21.8,13.6,280.3,280.3,0,0,0-39.3,33.9c-24.3,25.1-45,54.2-62.1,85.3a547.4,547.4,0,0,0-42.2,98.3,569.1,569.1,0,0,0-22.7,104.6c-4.2,35.3-4.8,71-.3,105.5s14.7,67.9,33.1,94.2a109.5,109.5,0,0,0,15.3,17.8,93.5,93.5,0,0,0,18.3,13.8,49.1,49.1,0,0,0,5,2.8,37.1,37.1,0,0,0,5.3,2.5c3.7,1.6,7.5,3.3,11.3,4.7l11.5,3.7,11.6,2.6c31.3,5.8,63.4-1.8,91.1-19.3s51.8-42.9,71-71.8,34.7-61.1,46.6-94.5a541.8,541.8,0,0,0,25.5-103.7l3.6-27.1c1.3-9.3,2.6-18.6,4.2-27.9s3.7-18.6,5.6-27.8,4.8-18.4,7.4-27.6c6-18.2,12.3-36.3,22.7-53.3,2.6-4.2,5.8-8.2,8.6-12.2l5.1-5.6a34.5,34.5,0,0,1,2.6-2.8l3.1-2.4,3-2.4a37.2,37.2,0,0,1,3.4-1.9l3.5-1.7,3.8-1.1c5.1-1.2,10.8-.5,14.5,2.5a15.5,15.5,0,0,0-12.4,2.7l-2.5,1.7-2.2,2.3c-.6.8-1.4,1.4-2,2.3l-1.7,2.7c-2.5,3.2-4,7.6-5.9,11.2s-3,8.2-4.3,12.3c-5.2,16.7-7.6,34.7-10.7,52.2-1,9-2.4,17.9-3.4,26.8s-1.8,18.1-3,27c-1.6,18.3-3.3,35.7-5.5,55.1a584.3,584.3,0,0,1-25,111.8c-6.2,18.1-13,36.2-21.3,53.6a446.3,446.3,0,0,1-28.5,50.9,311.1,311.1,0,0,1-36.6,46.4,236,236,0,0,1-46.7,38.5c-17.5,10.8-37,19.3-57.8,23.7a162,162,0,0,1-63.2,1l-15.4-3.5-14.8-4.8c-4.9-1.8-9.5-3.9-14.3-5.9a79.2,79.2,0,0,1-7.2-3.5c-2.4-1.2-4.8-2.5-7.1-3.9a141.5,141.5,0,0,1-25.8-19.6,157.1,157.1,0,0,1-20.6-24.2,202.4,202.4,0,0,1-26.9-55.1,303.5,303.5,0,0,1-12.5-58c-4.6-38.9-3.4-77.7,1.5-115.6a613.2,613.2,0,0,1,25.5-111.5,591.7,591.7,0,0,1,45.7-104.9c18.8-33.4,41.3-65.1,68.6-92.9a303.8,303.8,0,0,1,44.9-38,249.3,249.3,0,0,1,25.3-15.7c4.4-2.2,8.8-4.7,13.4-6.6l6.8-3.1,6.7-2.6,26.7-10.4,6.7-2.5,6.9-2.1,13.7-4.2,13.8-4.1c4.6-1.5,9.4-2.1,14.1-3.3l14.2-3c4.7-.9,9.3-2.2,14.2-2.6l28.8-3.7,29.2-1.2c9.8.2,19.6.8,29.3,1.2s19.6,2.3,29.2,4.1,19.4,3.8,28.8,7c4.7,1.5,9.5,2.6,14.2,4.4l13.9,5.4a258.2,258.2,0,0,1,26.9,13.3c4.4,2.4,8.7,5.3,13,8.1a148.3,148.3,0,0,1,13.1,10,18.6,18.6,0,0,1-24.4,28.1Z" transform="translate(-545.7 -795)"/><path class="cls-4" d="M1798.6,1503.4s110.7-102.3,323.8-10.7,302.4,535.4,132,615.7c-149.1,70.3-279-104.4-300.3-311s-70.3-176.9-70.3-176.9" transform="translate(-545.7 -795)"/><g class="cls-5"><path class="cls-1" d="M2122.4,1492.7c-181.6-78.1-288.9-15.3-316.6,4.9,50.2-22.6,144.8-43.7,281.6,15.1,201.9,86.9,292.7,490,156.6,600.2l10.4-4.5C2424.8,2028.1,2335.4,1584.3,2122.4,1492.7Z" transform="translate(-545.7 -795)"/></g><path class="cls-7" d="M1786,1489.7a123.8,123.8,0,0,1,13.1-10c4.3-2.8,8.5-5.7,12.9-8.1a259.7,259.7,0,0,1,27-13.3l13.9-5.4c4.6-1.8,9.4-2.9,14.1-4.4,9.4-3.2,19.2-4.8,28.8-7s19.5-2.7,29.2-4.1,19.6-1,29.3-1.2l29.2,1.2,28.9,3.7c4.8.4,9.5,1.7,14.2,2.6l14.1,3c4.7,1.2,9.6,1.8,14.1,3.3l13.8,4.1,13.8,4.2,6.9,2.1,6.7,2.5,26.7,10.4,6.7,2.6,6.8,3.1c4.6,1.9,8.9,4.4,13.4,6.6a273.6,273.6,0,0,1,25.3,15.7,308.2,308.2,0,0,1,44.8,38c27.3,27.8,49.9,59.5,68.6,92.9a584.9,584.9,0,0,1,45.8,104.9,621.6,621.6,0,0,1,25.5,111.5c4.9,37.9,6.1,76.7,1.5,115.6-2.5,19.4-6.2,38.9-12.5,58a208.4,208.4,0,0,1-26.9,55.1,157.8,157.8,0,0,1-20.7,24.2,137.5,137.5,0,0,1-25.7,19.6c-2.3,1.4-4.7,2.7-7.1,3.9s-4.9,2.6-7.2,3.5c-4.8,2-9.5,4.1-14.3,5.9s-9.9,3.3-14.9,4.8l-15.4,3.5a162,162,0,0,1-63.2-1,182.1,182.1,0,0,1-57.7-23.7c-17.6-10.8-33-24.1-46.8-38.5a317.7,317.7,0,0,1-36.6-46.4,430.8,430.8,0,0,1-28.4-50.9,481.9,481.9,0,0,1-21.3-53.6,584.5,584.5,0,0,1-25.1-111.8c-2.1-19.4-3.9-36.8-5.5-55.1-1.1-8.9-1.9-17.9-2.9-27s-2.4-17.8-3.5-26.8c-3-17.5-5.4-35.5-10.7-52.2-1.3-4.1-2.8-8.1-4.2-12.3s-3.5-8-6-11.2l-1.7-2.7a22,22,0,0,0-2-2.3l-2.1-2.3-2.5-1.7a15.7,15.7,0,0,0-12.4-2.7c3.7-3,9.3-3.7,14.4-2.5l3.8,1.1,3.5,1.7a37.2,37.2,0,0,1,3.4,1.9l3.1,2.4,3.1,2.4,2.6,2.8,5.1,5.6c2.8,4,6,8,8.5,12.2,10.4,17,16.7,35.1,22.8,53.3,2.5,9.2,5,18.4,7.3,27.6s3.9,18.5,5.7,27.8,2.9,18.6,4.1,27.9l3.7,27.1a541.6,541.6,0,0,0,25.4,103.7c12,33.4,27.3,65.5,46.6,94.5s43.2,54.4,71,71.8,59.8,25.1,91.1,19.3l11.7-2.6,11.5-3.7c3.8-1.4,7.5-3.1,11.3-4.7a37.1,37.1,0,0,0,5.3-2.5,49.1,49.1,0,0,0,5-2.8,93.5,93.5,0,0,0,18.3-13.8,109.5,109.5,0,0,0,15.3-17.8c18.4-26.3,28.4-59.9,33-94.2s3.9-70.2-.3-105.5a569.1,569.1,0,0,0-22.7-104.6,554.2,554.2,0,0,0-42.1-98.3c-17.2-31.1-37.8-60.2-62.1-85.3a281.1,281.1,0,0,0-39.4-33.9,245.7,245.7,0,0,0-21.7-13.6c-3.8-1.9-7.5-4-11.4-5.7l-5.8-2.7-6.2-2.4-25-9.6-6.3-2.4-6.3-1.9-12.8-3.8-12.8-3.8c-4.2-1.4-8.6-1.9-12.9-3l-13-2.7c-4.3-.8-8.6-2.1-12.9-2.4l-26.2-3.3-26.2-1c-8.7.2-17.3.8-26,1.1s-17.2,2.1-25.7,3.6-17,3.4-25.1,6.2c-4,1.3-8.2,2.3-12.2,3.8l-12,4.6c-7.7,3.5-15.4,7.1-22.7,11.3-3.6,2.1-7,4.4-10.5,6.6l-4.9,3.5-2.3,1.8-1.1.9-.6.5-.9.8a18.6,18.6,0,0,1-24.3-28.1Z" transform="translate(-545.7 -795)"/><path class="cls-1" d="M1616.8,1433.1" transform="translate(-545.7 -795)"/><path class="cls-14" d="M1616.8,1433.1" transform="translate(-545.7 -795)"/><ellipse class="cls-1" cx="1071.1" cy="1407.7" rx="190.3" ry="273.1"/><path class="cls-7" d="M1616.8,2478.3c-106.2,0-192.7-123.6-192.7-275.6s86.5-275.6,192.7-275.6,192.8,123.7,192.8,275.6S1723.1,2478.3,1616.8,2478.3Zm0-546.2c-103.5,0-187.7,121.4-187.7,270.6s84.2,270.6,187.7,270.6,187.8-121.3,187.8-270.6S1720.4,1932.1,1616.8,1932.1Z" transform="translate(-545.7 -795)"/><path class="cls-7" d="M1616.8,2494.6c-115.2,0-209-130.9-209-291.9s93.8-291.8,209-291.8,209.1,130.9,209.1,291.8S1732.1,2494.6,1616.8,2494.6Zm0-546.2c-94.5,0-171.4,114.1-171.4,254.3s76.9,254.4,171.4,254.4,171.5-114.1,171.5-254.4S1711.4,1948.4,1616.8,1948.4Z" transform="translate(-545.7 -795)"/><circle class="cls-7" cx="1615.2" cy="2273.8" r="133.5" transform="translate(-1680.5 1013.1) rotate(-45)"/><path class="cls-15" d="M1615.2,2654.8c95.4,0,151.8-73.5,128.4-221.6a358.1,358.1,0,0,0-13.4-55.3c-36.6-110.4-193.4-110.4-229.9,0a347,347,0,0,0-13.4,55.3C1463.5,2581.3,1519.9,2654.8,1615.2,2654.8Z" transform="translate(-545.7 -795)"/><path class="cls-7" d="M1615.2,2657.3c-42.1,0-76.7-14.5-100.1-41.9-32.9-38.4-43.5-101.6-30.7-182.5a354.9,354.9,0,0,1,13.5-55.8c17-51.4,63.1-84.5,117.3-84.5h0c54.3,0,100.4,33.1,117.3,84.5a355.1,355.1,0,0,1,13.6,55.8c12.8,80.9,2.2,144.1-30.7,182.5C1692,2642.8,1657.4,2657.3,1615.2,2657.3Zm0-359.7c-52,0-96.2,31.8-112.5,81a336.8,336.8,0,0,0-13.3,55c-12.6,79.5-2.4,141.3,29.5,178.6,22.4,26.2,55.7,40.1,96.3,40.1s74-13.9,96.4-40.1c31.9-37.3,42.1-99.1,29.5-178.6a352.8,352.8,0,0,0-13.3-55C1711.5,2329.4,1667.3,2297.6,1615.2,2297.6Z" transform="translate(-545.7 -795)"/><g class="cls-5"><path class="cls-1" d="M1684.5,2631.8c-132.4,0-210.8-86.9-178.3-261.9.6-2.7,1.2-5.3,1.7-8a121.4,121.4,0,0,0-6.5,16,336.5,336.5,0,0,0-13.4,55.3c-23.5,148.1,33,221.6,128.3,221.6,30.9,0,57.6-7.8,78.9-23.2Z" transform="translate(-545.7 -795)"/></g><g class="cls-6"><path class="cls-7" d="M1480,2521.5a362.3,362.3,0,0,1,13.4-55.4c36.6-110.4,193.4-110.4,229.9,0a340.3,340.3,0,0,1,13.4,55.4c.9,5.4,1.6,10.6,2.2,15.8,4.6-29.2,4.2-63.9-2.2-104.1-3.1-19.9-12.3-50.2-17.9-67.2-36.6-110.4-188.8-98.5-225.4,11.9a358.1,358.1,0,0,0-13.4,55.3c-6.3,40.2-6.8,74.9-2.2,104.1C1478.5,2532.1,1479.2,2526.9,1480,2521.5Z" transform="translate(-545.7 -795)"/></g><path class="cls-7" d="M1634,2217c.2,21.6-.4,43.2-1.3,64.7s-2.1,43.2-3.6,64.7-3.3,43.2-5.5,64.7-4.8,43.2-8.4,64.7c-3.5-21.5-6.1-43.1-8.3-64.7s-4.1-43.1-5.6-64.7-2.7-43.1-3.6-64.7-1.5-43.1-1.2-64.7a18.8,18.8,0,0,1,37.5,0Z" transform="translate(-545.7 -795)"/><path class="cls-7" d="M1615.2,2673.6c-47,0-85.9-16.5-112.5-47.6-36.1-42.2-47.9-109.9-34.4-195.7,24.5-154.5,132.1-226.1,136.7-229a18.6,18.6,0,0,1,20.5,0c4.5,2.9,112.2,74.5,136.6,229,13.6,85.8,1.7,153.5-34.3,195.7C1701.2,2657.1,1662.3,2673.6,1615.2,2673.6Zm0-433.1c-25.7,21.1-92.3,85-109.8,195.7-11.8,74.6-2.8,131.8,25.9,165.4,19.5,22.8,47.7,34.4,83.9,34.4s64.5-11.6,84-34.4c28.7-33.6,37.7-90.8,25.8-165.4C1707.5,2325.5,1641,2261.6,1615.2,2240.5Z" transform="translate(-545.7 -795)"/><path class="cls-1" d="M1615.2,1838.5c133,0,319.8,64,319.8,197s-186.8,249.7-319.8,249.7-319.7-116.7-319.7-249.7S1482.2,1838.5,1615.2,1838.5Z" transform="translate(-545.7 -795)"/><path class="cls-7" d="M1615.2,2287.7c-127.2,0-322.2-113-322.2-252.2,0-136.1,192.3-199.5,322.2-199.5s322.3,63.4,322.3,199.5C1937.5,2174.7,1742.5,2287.7,1615.2,2287.7Zm0-446.7c-127.9,0-317.2,61.8-317.2,194.5,0,127.3,178.7,247.2,317.2,247.2s317.3-119.9,317.3-247.2C1932.5,1902.8,1743.2,1841,1615.2,1841Z" transform="translate(-545.7 -795)"/><g class="cls-6"><path class="cls-7" d="M1859.3,1911c15.7,22.7,24.9,48.8,24.9,78.2,0,133-186.7,249.7-319.7,249.7-73.1,0-162.5-35.3-228.2-89.2,63.7,79.1,182,135.5,274.5,135.5,133,0,319.7-116.7,319.7-249.7C1930.5,1983.6,1902,1942.2,1859.3,1911Z" transform="translate(-545.7 -795)"/></g><path class="cls-7" d="M1615.2,2302.7c-68.9,0-153.2-30-220-78.3-74.5-53.9-117.2-122.7-117.2-188.9s41.3-123.6,119.5-163.9c61.4-31.7,142.8-50.6,217.7-50.6s156.3,18.9,217.8,50.6c78.2,40.3,119.5,96.9,119.5,163.9s-42.8,135-117.3,188.9C1768.5,2272.7,1684.2,2302.7,1615.2,2302.7Zm0-446.7c-121.9,0-302.2,57-302.2,179.5,0,117.4,173.1,232.2,302.2,232.2s302.3-114.8,302.3-232.2C1917.5,1913,1737.1,1856,1615.2,1856Z" transform="translate(-545.7 -795)"/><path class="cls-7" d="M1621.1,1908.7s-174-4.7-134,90.1a201.1,201.1,0,0,0,61.8,80.6,116.8,116.8,0,0,0,144.4,0,201.1,201.1,0,0,0,61.8-80.6C1795.1,1904,1621.1,1908.7,1621.1,1908.7Z" transform="translate(-545.7 -795)"/><path class="cls-7" d="M1621.1,2123.3a135.3,135.3,0,0,1-83.8-29.1c-30.2-23.8-52.9-53.4-67.5-88.1-13.7-32.6-5.8-55.2,3.2-68.5,33.3-48.7,134.2-48,148.1-47.7s114.8-1,148.1,47.7c9,13.3,16.9,35.9,3.2,68.5-14.6,34.7-37.3,64.3-67.5,88.1A135.3,135.3,0,0,1,1621.1,2123.3Zm-6.4-195.9c-36.8,0-94.8,8.1-110.7,31.4-2,3-8.3,12.2.4,32.7a182.5,182.5,0,0,0,56.1,73.2,97.7,97.7,0,0,0,121.2,0,182.5,182.5,0,0,0,56.1-73.2c8.7-20.5,2.4-29.7.4-32.7-16.8-24.6-80.4-32.3-116.6-31.3h-6.9Z" transform="translate(-545.7 -795)"/><ellipse class="cls-1" cx="1126.6" cy="1156" rx="62.7" ry="35.3"/><path class="cls-7" d="M1672.3,1988.6c-35.8,0-65-16.9-65-37.6s29.2-37.7,65-37.7,65.1,16.9,65.1,37.7S1708.2,1988.6,1672.3,1988.6Zm0-70.6c-33.2,0-60.3,14.8-60.3,33s27.1,32.9,60.3,32.9,60.3-14.8,60.3-32.9S1705.6,1918,1672.3,1918Z" transform="translate(-545.7 -795)"/><circle class="cls-1" cx="1148.1" cy="1221.6" r="15.7"/><path class="cls-7" d="M1693.8,2034.6a18,18,0,1,1,18.1-18A18.1,18.1,0,0,1,1693.8,2034.6Zm0-31.3a13.3,13.3,0,1,0,13.3,13.3A13.4,13.4,0,0,0,1693.8,2003.3Z" transform="translate(-545.7 -795)"/><g class="cls-6"><path class="cls-7" d="M1985.7,1625.5c2.1-86.9,45.9-122.1,100.6-146.9-189.3-65.9-287.5,24.8-287.5,24.8l85.2,117.1s49-29.8,70.3,176.9,151.2,381.3,300.3,311c57.8-27.3,85.6-96.3,89-179.2C2201.3,2039.5,1976.1,2032.3,1985.7,1625.5Z" transform="translate(-545.7 -795)"/></g><path class="cls-8" d="M1746.6,2991.2c-1.9-156.9,11.1-298.1,11.1-298.1l-282.9,140c0,185.9,95.5,297.8,95.5,297.8h234.3a94.8,94.8,0,0,0,10.1-42.3C1814.7,3047.3,1787.5,3011.2,1746.6,2991.2Z" transform="translate(-545.7 -795)"/><path class="cls-7" d="M1477.4,2832.7c12.8,24.3,20.7,48.8,29.1,73.2l5.8,18.5c1.9,6.1,3.6,12.3,5.6,18.4,3.9,12.3,7.8,24.5,12.2,36.6,8.3,24.4,17.5,48.5,26.9,72.4s19.7,47.9,30.5,70.5l-17.2-10.7,117.1,1.3c39.1.4,78.1.5,117.2.5l-15.7,9.7a75.4,75.4,0,0,0,1.1-66.6c-4.8-10.7-12.1-20.3-20.8-28.7a125.8,125.8,0,0,0-30.3-20.9h-.3a17.3,17.3,0,0,1-9.5-15.4l-.4-85.3c.1-28.4.9-56.8,3.2-85.1s5.6-56.5,9.7-84.6,9.3-56.1,16.7-83.9a2.7,2.7,0,0,1,3.3-1.9,2.7,2.7,0,0,1,2,2.4c2.6,28.5,3.5,56.8,4.2,85.1s.7,56.4.4,84.6-1.4,56.1-2.7,84.2-1.7,56.1-1.4,84.1l-9.8-15.5a159.7,159.7,0,0,1,39,26.9c11.6,11.2,21.7,24.3,28.5,39.5a110.7,110.7,0,0,1,10.4,48.6,112.8,112.8,0,0,1-11.9,48.2h-.1a17.4,17.4,0,0,1-15.6,9.7c-39.1,0-78.1,0-117.2.4l-117.1,1.3a18.9,18.9,0,0,1-17.2-10.5h0c-12.1-24.5-22.7-48.4-32.4-73.2s-18.4-49.8-26.4-75.2c-3.9-12.7-7.4-25.5-10.9-38.3s-6.8-25.7-8.9-38.9q-1.8-9.9-3-19.8c-.7-6.6-1.1-13.3-1.4-20a205.5,205.5,0,0,1,2-40.6,2.9,2.9,0,0,1,3.2-2.4,3,3,0,0,1,2.1,1.5Z" transform="translate(-545.7 -795)"/><g class="cls-6"><path class="cls-7" d="M1604.4,3088.5c-49.3-42.4-21.2-275.5,93.8-274.9,20.5.1,37.3,4.5,51.2,11.7,3.4-78.2,8.3-132.2,8.3-132.2l-282.9,140c0,185.9,95.5,297.8,95.5,297.8h234.3a94.8,94.8,0,0,0,10.1-42.3,97.1,97.1,0,0,0-1.6-17.1C1793,3114,1648.5,3126.5,1604.4,3088.5Z" transform="translate(-545.7 -795)"/></g><g class="cls-6"><path class="cls-7" d="M1289,3036.5c-26.2-10.3-20.8-29.1-7.8-46-.7.2-41.3-138,18-172.8,65.8-38.7,98,13.6,98,13.6l6.7,64.2c16.8-30.3,11.2-64.9-42.8-100.6-124.3-82-154.8,82.7-319.1,86.2-112.5,2.3-98.8-188-98.8-188-75,346.2,182.6,437.8,182.6,437.8h263.8C1379.2,3070.4,1335.8,3054.9,1289,3036.5Z" transform="translate(-545.7 -795)"/></g><ellipse class="cls-7" cx="1761.5" cy="1743.4" rx="60.7" ry="78.7" transform="translate(-821.7 -462.6) rotate(-10)"/><path class="cls-7" d="M1767,1822.7a52.7,52.7,0,0,1-15.1-2.3c-18.7-5.9-34.9-21.7-44.4-43.5-17.1-39.5-7-86.7,22.7-105.2a48.9,48.9,0,0,1,41-5.2c18.7,5.8,34.9,21.7,44.4,43.5,17.1,39.5,7,86.7-22.7,105.2A48.4,48.4,0,0,1,1767,1822.7Zm-11-156.5a46.1,46.1,0,0,0-24.7,7.2c-28.8,18-38.6,64.1-21.9,102.7h0c9.3,21.2,24.9,36.7,43.1,42.3a46.1,46.1,0,0,0,39.3-4.9c28.8-18,38.6-64.1,21.9-102.7-9.3-21.2-25-36.7-43.1-42.3A49.9,49.9,0,0,0,1756,1666.2Z" transform="translate(-545.7 -795)"/><ellipse class="cls-1" cx="1738.1" cy="1731.3" rx="16.3" ry="27.2" transform="translate(-789.1 -510.2) rotate(-8.8)"/><path class="cls-1" d="M1785.9,1761.7c1.8,7.3,6.8,12.2,11.1,10.9s6.4-8.2,4.6-15.5-6.7-12.1-11.1-10.9S1784.2,1754.4,1785.9,1761.7Z" transform="translate(-545.7 -795)"/><ellipse class="cls-7" cx="1481.5" cy="1743.4" rx="78.7" ry="60.7" transform="translate(-1038.4 2104.7) rotate(-80)"/><path class="cls-7" d="M1476.1,1822.7a48.4,48.4,0,0,1-25.9-7.5c-29.7-18.5-39.8-65.7-22.7-105.2,9.5-21.8,25.7-37.7,44.4-43.5a48.9,48.9,0,0,1,41,5.2c29.7,18.5,39.8,65.7,22.7,105.2h0c-9.5,21.8-25.7,37.7-44.4,43.5A52.7,52.7,0,0,1,1476.1,1822.7Zm11-156.5a49.9,49.9,0,0,0-14.6,2.3c-18.2,5.6-33.8,21.1-43.1,42.3-16.7,38.6-6.9,84.7,21.9,102.7a46.1,46.1,0,0,0,39.3,4.9c18.1-5.6,33.8-21.1,43.1-42.3h0c16.7-38.6,6.9-84.7-21.9-102.7A46.3,46.3,0,0,0,1487.1,1666.2Z" transform="translate(-545.7 -795)"/><ellipse class="cls-1" cx="1505" cy="1731.3" rx="27.2" ry="16.3" transform="translate(-981 2160.2) rotate(-81.2)"/><ellipse class="cls-1" cx="1449.3" cy="1759.4" rx="13.6" ry="8.1" transform="translate(-1124.2 2005.6) rotate(-77.7)"/><path class="cls-7" d="M1744.1,3047.2c5.9,4,10.2,10.4,13.4,17a88.7,88.7,0,0,1,7,21.3,153.7,153.7,0,0,1,2.6,22.4c.1,3.8.2,7.6.1,11.3l-.4,11.3a15.6,15.6,0,1,1-31.1-1.3,16.3,16.3,0,0,1,1.2-5.4l.2-.5,3.9-9c1.2-3.1,2.3-6.1,3.4-9.3a122.9,122.9,0,0,0,4.8-19,72.3,72.3,0,0,0,1-19.7C1749.6,3059.8,1748.1,3052.9,1744.1,3047.2Z" transform="translate(-545.7 -795)"/><path class="cls-7" d="M1676.9,3052.4a91.6,91.6,0,0,1,10.4,16,113.7,113.7,0,0,1,7.6,18.3,106.6,106.6,0,0,1,4.4,19.9,114.8,114.8,0,0,1,.7,21.2h0a15.6,15.6,0,1,1-31.1-1.1,16.1,16.1,0,0,1,1.5-6.2,93.5,93.5,0,0,0,9.3-32.1,97.2,97.2,0,0,0,.3-17.9A94.9,94.9,0,0,0,1676.9,3052.4Z" transform="translate(-545.7 -795)"/><path class="cls-7" d="M1959.1,3047.2c5.9,4,10.2,10.4,13.4,17a88.7,88.7,0,0,1,7,21.3,153.7,153.7,0,0,1,2.6,22.4c.1,3.8.2,7.6.1,11.3l-.4,11.3a15.6,15.6,0,1,1-31.1-1.3,16.3,16.3,0,0,1,1.2-5.4l.2-.5,3.9-9c1.2-3.1,2.3-6.1,3.4-9.3a122.9,122.9,0,0,0,4.8-19,72.3,72.3,0,0,0,1-19.7C1964.6,3059.8,1963.1,3052.9,1959.1,3047.2Z" transform="translate(-545.7 -795)"/><path class="cls-7" d="M1901.9,3052.4a91.6,91.6,0,0,1,10.4,16,113.7,113.7,0,0,1,7.6,18.3,106.6,106.6,0,0,1,4.4,19.9,114.8,114.8,0,0,1,.7,21.2h0a15.6,15.6,0,1,1-31.1-1.1,16.1,16.1,0,0,1,1.5-6.2,93.5,93.5,0,0,0,9.3-32.1,97.2,97.2,0,0,0,.3-17.9A94.9,94.9,0,0,0,1901.9,3052.4Z" transform="translate(-545.7 -795)"/><path class="cls-8" d="M3265.1,2779.4c-9.1-22.9-21.1-39.1-45.1-24.1-39.1,24.2-3.6,93.4,4.7,124.5,13.2,49.7,24,104.5-11,148.9-58.7,74.2-180.7,50.1-241.4-8.5-24.5-23.7-44.8-57.6-41.7-93,1.5-17.9,5.7-40.2,27.6-40,32.8.4,19.7,27.2,25.9,45.8,16.6,50.3,114.5,102.1,157,54.7,27.5-30.7-9-87-20-116.4-24.8-65.7-34-135.9,15.7-191.4,65.1-72.8,167.4-62.3,226.1,13.5,18.1,23.3,33.3,49.8,22.2,80.5C3365.9,2826.8,3289.1,2830.6,3265.1,2779.4Z" transform="translate(-545.7 -795)"/><path class="cls-7" d="M3109.9,3077.5c-50.1,0-103.7-21.1-139.3-55.5-29.7-28.8-45.2-63.4-42.5-95.1,1.6-19.6,6.6-42.2,29.8-42.2h.4c25.5.3,25.9,16.4,26.2,30.6.1,5.8.3,11.8,1.9,16.9,10,30.1,50.4,61.3,90.1,69.6,26.4,5.5,48.7-.1,62.8-15.8,20.9-23.3,2.1-63.7-11.6-93.3-3.5-7.5-6.8-14.6-9-20.5-31.3-83.3-26-146.8,16.2-193.9,30.2-33.8,70.2-51.6,112.3-50.1,44.6,1.6,87.5,24.8,117.7,63.7,17.7,22.8,34.3,50.5,22.6,82.9-9.3,25.5-32.5,42.1-60.6,43.4s-52.6-13.2-64.1-37.8h0c-6.6-16.5-12.9-24.9-20.7-27.5-5.9-1.9-12.7-.4-20.8,4.6-29.9,18.6-13.3,65.8-1.2,100.2,2.9,8.4,5.4,15.6,7,21.6,13.2,49.4,24.2,105.9-11.5,151.1-22.1,28-54.7,44.2-94.2,46.8C3117.6,3077.4,3113.7,3077.5,3109.9,3077.5Zm-152-187.8c-19.1,0-23.3,19-24.8,37.7-3.7,42.8,27.4,77.9,41,91,36.8,35.5,95.9,57.1,147,53.7,38-2.5,69.4-18.1,90.6-44.9,34.3-43.4,24-96.3,10.6-146.7-1.5-5.9-4-13-6.9-21.2-12-34.1-30-85.5,3.3-106.2,9.4-5.8,17.6-7.5,24.9-5,12,3.9,19,18.2,23.8,30.3,10.6,22.6,33.4,36,59.3,34.8s47.5-16.6,56.1-40.1c10.8-30.1-5-56.4-21.8-78.1-29.3-37.8-70.8-60.3-114-61.8-40.6-1.5-79.1,15.7-108.4,48.4-40.8,45.6-45.8,107.4-15.2,188.8,2.2,5.8,5.4,12.8,8.9,20.2,14.2,30.8,33.8,73,10.7,98.7-15.3,17.1-39.3,23.3-67.6,17.4-41.2-8.7-83.3-41.4-93.7-72.9-1.9-5.9-2.1-12.2-2.2-18.4-.3-14.8-.6-25.5-21.3-25.7Z" transform="translate(-545.7 -795)"/><g class="cls-6"><path class="cls-7" d="M3362.9,2693.4l-3.4-4.1c-.7,14.7-7.6,29-26.8,38.5-48.5,23.8-93.2-50.5-148.2-9.1-19.9,15-31.1,39-31.5,63.9-2.1,123.2,101,204.6-16,209.2-44.4,40-136.8-10.1-152.9-58.8-6.2-18.6,6.9-45.4-25.9-45.8-21.9-.2-26.1,22.1-27.6,40-3.1,35.4,17.3,69.3,41.7,93,60.7,58.6,182.7,82.7,241.4,8.5,35-44.4,24.2-99.2,11-148.9-8.3-31.1-43.8-100.3-4.7-124.5,24-15,36,1.2,45.1,24.1,24,51.2,100.8,47.4,120-5.5C3396.2,2743.2,3381,2716.7,3362.9,2693.4Z" transform="translate(-545.7 -795)"/></g><path class="cls-7" d="M3110,3094.1c-54.3,0-112.4-22.9-150.9-60.2-33.4-32.2-50.7-71.7-47.6-108.4,4.1-47.8,28-57.5,46.9-57.4,41.7.5,42.4,34.1,42.7,46.8.1,4.6.2,9.3,1.1,12.1,8,24.2,44.3,51.5,77.7,58.5,14.4,3,34.3,3.6,47-10.6s-3.2-51.3-14.2-75.2c-3.7-7.8-7.1-15.1-9.5-21.7-33.7-89.6-27.4-158.6,19.3-210.8,33.6-37.5,78.1-57.3,125.3-55.6,49.5,1.7,97,27.3,130.2,70.1,19.3,24.9,39.6,58.6,25.1,98.7-11.6,32-40.5,52.8-75.4,54.4s-65.5-16.6-79.9-47.3l-.5-1.1c-6.3-15.8-10.2-17.7-10.5-17.8s-2,0-6.7,2.9c-18.6,11.5-4,53.1,5.6,80.6,3,8.3,5.7,16.2,7.5,22.8,14.2,53.3,25.9,114.4-14.6,165.6-25.1,31.8-61.8,50.2-106.1,53.2C3118.4,3094,3114.2,3094.1,3110,3094.1Zm-152.1-187.8c-1.9,0-6.4.6-8.3,22.5-3,35.7,24.2,66.2,36,77.6,33.6,32.5,87.6,52.3,134.4,49.2,23.2-1.6,55.6-9.6,78.7-38.7,29.5-37.4,19.9-85.8,7.6-132.1-1.4-5.3-3.9-12.4-6.6-20-12.9-36.7-34.4-98,10.2-125.8,13.7-8.5,26.8-10.7,38.9-6.7,18.3,6,27.7,24.1,33.8,39.4,9.3,19.4,28.5,25.6,43.3,24.9s33.8-8.7,41.2-29.2c6.7-18.3,1.3-35.8-19.2-62.2-26.3-33.9-63.3-54.1-101.5-55.4-35.6-1.3-69.5,13.9-95.4,42.9-36.8,41.1-40.7,95.8-12.1,171.9,2,5.2,5.1,11.9,8.4,19,15.3,33,38.5,82.9,8.1,116.8-19.5,21.7-49.1,29.7-83.4,22.5-47.2-9.9-93.8-46.7-106.1-83.9-2.7-8.2-2.8-16.2-3-23.3-.1-2.8-.2-6.7-.5-9a20.4,20.4,0,0,0-4.4-.4Zm5.7.7Z" transform="translate(-545.7 -795)"/><path class="cls-8" d="M2232.2,2738.8l61.7,302c-26.4,10.3-48.8,34.5-43.1,88.1H2433l73.6-390.1Z" transform="translate(-545.7 -795)"/><path class="cls-7" d="M2435.1,3131.4H2248.5l-.2-2.3c-4.8-45.7,9.5-75.9,42.7-89.9l-61.8-302.9h280.4l-.6,2.9Zm-182.1-5h177.9l72.7-385.1H2235.3l61.5,301-2,.8C2263.1,3055.5,2249.1,3083.5,2253,3126.4Z" transform="translate(-545.7 -795)"/><g class="cls-6"><path class="cls-7" d="M2227.5,2752.5l125,305c-26.4,10.4-64.6,19.7-59,73.4l57.4-2H2472l73.6-390.1Z" transform="translate(-545.7 -795)"/></g><path class="cls-7" d="M2433,3148H2250.8a19.1,19.1,0,0,1-19-17.1c-6.2-58.5,18.3-87,40.4-100.6l-58.7-287.7a19.1,19.1,0,0,1,37.4-7.7l61.7,302a19.2,19.2,0,0,1-11.7,21.7c-13.8,5.3-31,16.5-31.9,51.2h148.2l50-265.3a19.1,19.1,0,1,1,37.5,7l-52.9,280.9A19.1,19.1,0,0,1,2433,3148Z" transform="translate(-545.7 -795)"/><path class="cls-8" d="M2644,2415.8s29.8,124.8,148.2,150.9,302,130.9,226.2,401.8-482.7-41.2-482.7-41.2-255.7,56.4-347.2-151.7S2341.1,2218.6,2644,2415.8Z" transform="translate(-545.7 -795)"/><g class="cls-6"><ellipse class="cls-7" cx="1922.9" cy="1680.5" rx="247.6" ry="204.7"/></g><g class="cls-6"><path class="cls-7" d="M2741.1,2849.8c-22.9,15.8-50.6,69-50.6,69s-25.6-27.5-293.1-59.7c-152.5-18.4-207.9-95-227.4-157.5a235.4,235.4,0,0,0,18.5,74c91.5,208.1,347.2,151.7,347.2,151.7s138.9,106.5,269.5,141.1C2651.9,2963.8,2762.5,2835.1,2741.1,2849.8Z" transform="translate(-545.7 -795)"/></g><circle class="cls-16" cx="2463.3" cy="2357.4" r="257.9" transform="translate(-1491.2 1637.3) rotate(-45)"/><path class="cls-7" d="M2879.4,3098.1c-136.9,0-311.1-122.9-348.4-150.4-20.7,3.5-75.2,10.5-137.6.7-105.3-16.7-182.3-73.8-222.4-165.1-51.8-117.7-6.4-278.2,105.7-373.3,108.5-92.2,246.1-95.8,377.7-10.2a18.9,18.9,0,0,1,8.1,11.6c1.3,5,29.1,113.6,133.9,136.7,45.1,9.9,156.8,44.2,218.6,147.1,45.1,75.2,52.5,168.9,21.8,278.5-16.9,60.3-50.6,99.3-100,115.8C2918.8,3095.4,2899.5,3098.1,2879.4,3098.1Zm-343.7-189.9a19.3,19.3,0,0,1,11.7,4c2.4,1.8,244,185.4,377.3,141,37.2-12.4,61.8-41.8,75.3-89.8,27.7-99.1,21.7-182.7-17.8-248.6-54.1-90.1-153.7-120.5-194.1-129.4-112.3-24.8-151.5-127.9-160.5-157.4-114.6-71.8-233.1-67.9-326.2,11.1-98,83.2-139.9,227.6-95.4,328.8,35,79.6,99.7,127.6,192.3,142.5,71.1,11.5,132.7-1.6,133.3-1.7A19.9,19.9,0,0,1,2535.7,2908.2Z" transform="translate(-545.7 -795)"/><path class="cls-7" d="M2463.2,2630.4a273.2,273.2,0,0,1-67.7-8.6c-145.7-37.3-234-186.3-196.6-332.1s186.3-234,332.1-196.6,234,186.3,196.6,332.1h0C2696.1,2548.3,2584.9,2630.4,2463.2,2630.4Zm.1-515.9c-108.3,0-207.3,73-235.4,182.7-33.2,129.7,45.3,262.3,175.1,295.5s262.3-45.2,295.6-175-45.3-262.3-175.1-295.6A244.7,244.7,0,0,0,2463.3,2114.5Zm249.8,306.9h0Z" transform="translate(-545.7 -795)"/><g class="cls-6"><path class="cls-7" d="M2531.6,2107.6c-113.2-29-228.1,21.9-285.2,117.3,48,20.6,91.8,46.8,125.6,91.5,63.7,84,74,193.4,72.5,297.9,123.9,11.3,241.1-68.5,273-192.9C2752.8,2283.5,2669.6,2142.9,2531.6,2107.6Z" transform="translate(-545.7 -795)"/></g><circle class="cls-17" cx="2405.3" cy="2583.7" r="63.9" transform="translate(-1526.5 791) rotate(-30.6)"/><path class="cls-7" d="M2405.3,2650.1a67.3,67.3,0,0,1-16.5-2.1,66.4,66.4,0,1,1,16.5,2.1Zm0-127.9a61.5,61.5,0,1,0,59.5,76.7h0a61.5,61.5,0,0,0-44.2-74.8A62.2,62.2,0,0,0,2405.3,2522.2Z" transform="translate(-545.7 -795)"/><g class="cls-6"><path class="cls-7" d="M2445.4,2536.4a59.1,59.1,0,0,0-6.6-4.5,63.3,63.3,0,0,1-12.8,47.9,64,64,0,0,1-83.2,15.6,63.9,63.9,0,1,0,102.6-59Z" transform="translate(-545.7 -795)"/></g><path class="cls-7" d="M2405.3,2666.7a81.4,81.4,0,0,1-20.6-2.6,83.1,83.1,0,1,1,101-59.8h0A83.2,83.2,0,0,1,2405.3,2666.7Zm0-127.9a44.8,44.8,0,1,0,43.4,56h0a44.8,44.8,0,0,0-32.3-54.6A46.9,46.9,0,0,0,2405.3,2538.8Z" transform="translate(-545.7 -795)"/><path class="cls-7" d="M2389.4,2653.1l-1.8-.2a7.6,7.6,0,0,1-5.4-9.2l15.8-61.9a7.6,7.6,0,0,1,9.2-5.4,7.5,7.5,0,0,1,5.4,9.1l-15.9,62A7.6,7.6,0,0,1,2389.4,2653.1Z" transform="translate(-545.7 -795)"/><path class="cls-8" d="M2842.1,2009.1l-203.9,20.5a296.7,296.7,0,0,0-209.9-49.6h.1l-178.3-122.5a32.1,32.1,0,0,0-48.5,16.1c-18.3,53.2-43.5,153.1-20,252.2h.2c-24.2,32-42,66.9-51.1,102.7-38.8,151.1,90.7,258.8,272.5,305.4s347.1,14.3,385.8-136.8c11-43,10.6-91.1.1-138.9,56.4-72.6,79-160.7,87.8-211.4C2880.5,2025.6,2863.2,2006.9,2842.1,2009.1Z" transform="translate(-545.7 -795)"/><path class="cls-4" d="M2842.1,2009.1l-203.9,20.5a308.3,308.3,0,0,0-53.6-29.2,217.1,217.1,0,0,0-84.6,172.1c0,120.1,97.4,217.5,217.5,217.5a216.2,216.2,0,0,0,75.7-13.6c6.4-37.5,4.7-78-4.1-118.4,56.4-72.6,79-160.7,87.8-211.4C2880.5,2025.6,2863.2,2006.9,2842.1,2009.1Z" transform="translate(-545.7 -795)"/><path class="cls-15" d="M2277.9,1945.7a16.7,16.7,0,0,0-25.3,8.4c-9,26.2-21.2,74.4-11.9,123.4.5,2.5,1,5,1.6,7.5h.1a112.6,112.6,0,0,1,11.8-14.6c17.5-18.8,54.9-50.4,116.2-61h.1Z" transform="translate(-545.7 -795)"/><path class="cls-7" d="M2240.5,2087.8l-.7-2.2c-.6-2.5-1.1-5.1-1.6-7.6-9.5-50.2,3.5-99.7,12.1-124.7a18.9,18.9,0,0,1,12.1-12.1,19.4,19.4,0,0,1,16.9,2.4l95.7,65.8-4.2,2.4c-60.9,10.6-98,42.3-114.7,60.3-7.8,8.4-11.6,14.2-11.6,14.3l-.7.9Zm28-142.5a14.1,14.1,0,0,0-13.5,9.6c-8.4,24.6-21.2,73.1-11.8,122.1a15.5,15.5,0,0,0,.4,2.1c2-2.6,4.9-6.2,8.8-10.4,16.6-17.9,52.8-48.9,111.7-60.7l-87.6-60.2A13.8,13.8,0,0,0,2268.5,1945.3Z" transform="translate(-545.7 -795)"/><g class="cls-18"><path class="cls-7" d="M2308.9,1965.4a11.1,11.1,0,0,0-17.3,4.1c-7.6,16.9-18.6,48.3-15.3,81.5a44.3,44.3,0,0,0,.6,5.1h0a71,71,0,0,1,8.8-9c12.8-11.6,39.6-30.4,81-33.8h.1Z" transform="translate(-545.7 -795)"/></g><path class="cls-7" d="M2242.4,2095a10.2,10.2,0,0,1-9.9-7.7c-.6-2.6-1.1-5.3-1.6-7.9-9.9-51.9,3.5-102.8,12.3-128.6a26.7,26.7,0,0,1,16.9-16.7,26.3,26.3,0,0,1,23.4,3.4l92.6,63.6a9.9,9.9,0,0,1-.3,16.7,9.8,9.8,0,0,1-3.7,1.4c-58.8,10.2-94.5,40.7-110.5,58a120.1,120.1,0,0,0-10.8,13.2,9.7,9.7,0,0,1-7.1,4.5Zm26.1-142.2a5.8,5.8,0,0,0-2.1.3,6.7,6.7,0,0,0-4.3,4.2c-7.4,21.6-18.2,62.1-13.6,104.6,16.1-16.9,47.9-43.6,97.4-57.3l-73.7-50.7h0A6.3,6.3,0,0,0,2268.5,1952.8Z" transform="translate(-545.7 -795)"/><path class="cls-15" d="M2788.9,2068a16.6,16.6,0,0,1,18,19.5c-4.8,27.4-17.4,75.5-49.2,113.8-1.6,2-3.3,4-5,5.9h-.1a122.1,122.1,0,0,0-3.3-18.5c-6.2-25-23.7-70.7-72.2-109.6h0Z" transform="translate(-545.7 -795)"/><path class="cls-7" d="M2753,2210.5l-2.7-2-.2-1.2a117.3,117.3,0,0,0-3.2-18.1c-5.9-23.8-23.1-69.5-71.4-108.2l-.5-.6-2.2-3.5,4-.4,111.9-11a19.2,19.2,0,0,1,20.7,22.5c-4.6,26-17.1,75.6-49.8,114.9l-5,6Zm-69.7-129.7c45.9,38.8,62.5,83.5,68.4,107.2a116.4,116.4,0,0,1,2.7,13.4l1.4-1.7c31.9-38.4,44.2-87,48.7-112.6a14.3,14.3,0,0,0-15.4-16.6Z" transform="translate(-545.7 -795)"/><g class="cls-18"><path class="cls-7" d="M2755.1,2067.4a12,12,0,0,1,14.2,12.7c-1.6,19.8-7.3,55-27.4,84.4a50.9,50.9,0,0,1-3.1,4.5h-.1a84,84,0,0,0-3.6-13c-6.1-17.3-21.7-48.7-58.9-73.2h0Z" transform="translate(-545.7 -795)"/></g><path class="cls-7" d="M2752.7,2217.2a10,10,0,0,1-5.9-2,10.1,10.1,0,0,1-4.2-7.4,99.9,99.9,0,0,0-3-16.8c-5.7-22.9-22.2-66.9-68.7-104.2a10,10,0,0,1,5.2-17.8l111.8-11h0a26.8,26.8,0,0,1,28.9,31.3c-4.7,26.8-17.7,77.8-51.4,118.4-1.7,2.1-3.5,4.2-5.3,6.2A10,10,0,0,1,2752.7,2217.2Zm-51.9-130.5c36.8,35.9,51.7,74.6,57.6,97.2,24.6-35,34.7-75.7,38.7-98.1a6.6,6.6,0,0,0-1.7-5.7,6.2,6.2,0,0,0-5.5-2.1Z" transform="translate(-545.7 -795)"/><path class="cls-7" d="M2547.5,2571c-45.3,0-95.1-6.6-148.7-20.3-213.5-54.7-322.7-179.9-285.1-326.8,9-34.9,25.5-69.2,49.1-102-21.5-101.5,4.5-202.3,22.2-254a49.7,49.7,0,0,1,75.1-24.9L2433,1961.8a314.2,314.2,0,0,1,209.7,49.8l197.6-20h0a49.8,49.8,0,0,1,53.9,57.9c-8.3,47.5-30.3,137.1-86.3,212.8,9.5,48.7,8.9,96.6-1.9,139C2777.8,2511.3,2683.1,2571,2547.5,2571Zm-349.3-451.4a17.7,17.7,0,0,1-2.4,16.6c-23.6,31.1-39.8,63.5-48.2,96.4-16.8,65.6-.3,124.6,49.2,175.4,46.4,47.7,119.3,85.3,210.7,108.8s173.5,25.4,237.1,5.9c67.8-20.8,110.7-64.6,127.5-130.1,10-39.4,10-84.6-.1-130.8a17.5,17.5,0,0,1,3.3-14.5c55-70.9,76.5-158.1,84.4-203.7a14.6,14.6,0,0,0-3.8-12.6,14.4,14.4,0,0,0-12.1-4.5L2640,2047a17.6,17.6,0,0,1-11.6-2.9,281.7,281.7,0,0,0-89.4-40.7c-34.7-8.9-71.2-10.9-108.4-6a17.7,17.7,0,0,1-13.9-4.3l-176.5-121.3a14.5,14.5,0,0,0-12.8-1.8,14.7,14.7,0,0,0-9.3,9.2C2201.2,1928.4,2176.4,2024.7,2198.2,2119.6Z" transform="translate(-545.7 -795)"/><path class="cls-7" d="M2385,2357.8a125.9,125.9,0,0,0-5.6,16.7c-12,46.9,5.4,91.8,38.8,100.4s70.4-22.4,82.4-69.3a118.7,118.7,0,0,0,3.1-17.3Z" transform="translate(-545.7 -795)"/><ellipse class="cls-15" cx="2433.4" cy="2425.4" rx="22.6" ry="33.5" transform="translate(-1065.7 3385.7) rotate(-75.6)"/><path class="cls-7" d="M2439.5,2451.3a48.9,48.9,0,0,1-12.3-1.6c-9.2-2.4-17.2-7-22.6-13.1s-7.8-13.5-6.1-20.2c3.4-13.4,21.9-20.2,41.1-15.3s32.1,19.8,28.7,33.2h0C2465.6,2444.8,2453.8,2451.3,2439.5,2451.3Zm-12.5-46.8c-11.9,0-21.6,5-23.7,13.2-1.2,5,.5,10.5,5,15.6s11.9,9.4,20.1,11.5c16.5,4.3,32.3-1,35-11.7s-8.5-22.9-25-27.2A46.1,46.1,0,0,0,2427,2404.5Z" transform="translate(-545.7 -795)"/><path class="cls-7" d="M2510.7,2319.8c-5.3,17.1-41.9,31.9-59.1,26.6s-35.4-37.1-30.1-54.2,32.2-13.1,49.4-7.8S2516,2302.7,2510.7,2319.8Z" transform="translate(-545.7 -795)"/><path class="cls-1" d="M2492.3,2311.5c-1,3-7.9,3.6-15.5,1.3s-13-6.8-12-9.8,7.8-3.7,15.4-1.3S2493.2,2308.4,2492.3,2311.5Z" transform="translate(-545.7 -795)"/><path class="cls-7" d="M2485.5,2314.7a30.1,30.1,0,0,1-8.8-1.5,28.5,28.5,0,0,1-9.4-4.7c-2.4-2-3.5-4-3-5.7s2.5-2.7,5.7-3a31.5,31.5,0,0,1,10.4,1.4c7.9,2.5,13.4,7.1,12.3,10.4h0C2492.1,2313.6,2489.3,2314.7,2485.5,2314.7Zm-14-14H2470c-2.6.3-4.4,1.1-4.8,2.4s.6,3,2.7,4.7a27.1,27.1,0,0,0,9,4.5c7.3,2.3,14.1,1.8,14.9-1h0c.9-2.7-4.5-7-11.7-9.2A30.8,30.8,0,0,0,2471.5,2300.7Z" transform="translate(-545.7 -795)"/><path class="cls-8" d="M2532.5,2366.6c-3.4,13.4-24.4,34.4-48.1,28.3s-40.1-21.8-36.6-35.3c-3.5,13.5-25.4,19.4-49.1,13.4s-32-34.6-28.6-48" transform="translate(-545.7 -795)"/><path class="cls-7" d="M2532.5,2366.6c0,5.1-1.8,10.2-4.3,14.8a52.8,52.8,0,0,1-10.1,12.6,43.8,43.8,0,0,1-14.6,8.8,40.8,40.8,0,0,1-18.1,2.3,62.1,62.1,0,0,1-8.5-1.5,73.6,73.6,0,0,1-8-2.4,65,65,0,0,1-15.3-7.8,47.7,47.7,0,0,1-13.5-13.4,34.7,34.7,0,0,1-4.5-10.5,30,30,0,0,1,.1-13,12.5,12.5,0,0,1,24.4,5.5l-.2.6h0a28.5,28.5,0,0,1-6.2,11.5,36,36,0,0,1-9,7,50,50,0,0,1-18.2,5.3,65.6,65.6,0,0,1-17.2-.5l-8.2-1.7c-2.6-.9-5.2-1.6-8.2-2.9a41.8,41.8,0,0,1-14.8-10.6,45.1,45.1,0,0,1-8.5-14.8,46.4,46.4,0,0,1-2.8-15.9,32.1,32.1,0,0,1,3.3-15.1c.8,10,5.1,18.4,10.3,25.3s12,11.3,18.9,12.5c1.5.4,3.7.6,5.8.9l6.3.3a56.4,56.4,0,0,0,11.8-1,27.2,27.2,0,0,0,9.4-3.3c2.4-1.4,2.9-2.7,3.1-3.2l24.2,6.2c-.1.5-.3,1.9,1.2,4.3a27.5,27.5,0,0,0,6.6,7.4,55,55,0,0,0,9.9,6.6c1.8,1,3.7,1.8,5.6,2.7a50.8,50.8,0,0,0,5.6,2.1c6.6,2.2,14.6,1.5,22.5-1.9A48,48,0,0,0,2532.5,2366.6Z" transform="translate(-545.7 -795)"/><line class="cls-8" x1="1705" y1="1499.4" x2="1645.5" y2="1484.2"/><path class="cls-7" d="M2248.9,2301.3l-57.7-22.1,61.3,8.3a7.2,7.2,0,0,1,6.2,8.1,7.3,7.3,0,0,1-8.1,6.2Z" transform="translate(-545.7 -795)"/><line class="cls-8" x1="1703.2" y1="1534.6" x2="1643" y2="1546.6"/><path class="cls-7" d="M2250.4,2336.6l-61.7,5,58.9-19a7,7,0,0,1,9,4.6,7.1,7.1,0,0,1-4.6,9.1A4.5,4.5,0,0,1,2250.4,2336.6Z" transform="translate(-545.7 -795)"/><line class="cls-8" x1="1716.8" y1="1567.1" x2="1667.7" y2="1603.9"/><path class="cls-7" d="M2266.9,2367.8l-53.5,31.1,44.9-42.5a7.2,7.2,0,0,1,10.2.2,7.2,7.2,0,0,1-.3,10.2Z" transform="translate(-545.7 -795)"/><line class="cls-8" x1="2111.1" y1="1603.4" x2="2170.5" y2="1618.7"/><path class="cls-7" d="M2658.6,2391.5l57.7,22.2-61.3-8.3a7.3,7.3,0,0,1-6.2-8.1,7.2,7.2,0,0,1,8.1-6.2Z" transform="translate(-545.7 -795)"/><line class="cls-8" x1="2095.7" y1="1635.1" x2="2142.7" y2="1674.6"/><path class="cls-7" d="M2646,2424.6l42.5,45-51.7-34a7.3,7.3,0,0,1-2.1-10,7.2,7.2,0,0,1,10-2Z" transform="translate(-545.7 -795)"/><line class="cls-8" x1="2068.1" y1="1657.1" x2="2093.5" y2="1713"/><path class="cls-7" d="M2620.4,2449.1l18.8,58.9-31.9-53a7.2,7.2,0,0,1,12.4-7.4A10.1,10.1,0,0,1,2620.4,2449.1Z" transform="translate(-545.7 -795)"/><path class="cls-7" d="M2742.7,2852a214.3,214.3,0,0,0-34,50.3c-8.6,17.8-13.3,36.4-13.3,54.3-.2,9,1.4,17.7,3.5,26.3a123,123,0,0,0,9.5,24.8c7.9,16.2,18.9,31.5,30.9,47v.2a19.2,19.2,0,0,1-27.9,26,162.4,162.4,0,0,1-40.8-55.9,66.5,66.5,0,0,1-3.3-8.4c-1-2.9-2.1-5.7-2.9-8.6-1.4-6-3-11.8-3.7-17.9a124,124,0,0,1,.3-36.5c3.7-24,14.4-45.7,28.3-63.4s30.8-32.2,50.1-42.6a2.8,2.8,0,0,1,3.7,1.1,2.7,2.7,0,0,1-.3,3.1Z" transform="translate(-545.7 -795)"/><path class="cls-8" d="M2385.6,2795.2l50.1,245.6c-26.4,10.3-48.8,34.5-43.1,88.1h182.2l53-280.9Z" transform="translate(-545.7 -795)"/><path class="cls-7" d="M2388.4,2794.6c8,19.7,14.6,39.7,21,59.7s11.9,40.2,17.2,60.4,10.1,40.6,14.8,61,8.9,40.8,12.9,61.3v.2a18.8,18.8,0,0,1-11.7,21.2,54.6,54.6,0,0,0-16.6,9.9,45.9,45.9,0,0,0-10.9,15.3,70.3,70.3,0,0,0-5.1,20.3,137.5,137.5,0,0,0,.2,23.1l-17.6-15.8c15.2.1,30.4.3,45.5.1l45.6-.4,91.1-1.1-18.7,15.6c4.2-23.5,8.5-46.9,13.1-70.3l7.1-35,7.6-34.9c5-23.3,10.6-46.5,17.3-69.5s14.1-45.8,23.7-68.2a3,3,0,0,1,4-1.6,3.1,3.1,0,0,1,1.8,2.6c.8,24.4-.6,48.4-2.8,72.2s-5.3,47.5-9.1,71l-5.7,35.3-6.2,35.2q-6.3,35.3-13.4,70.2v.4a18.7,18.7,0,0,1-18.6,15.1l-91.1-1.1-45.6-.3c-15.1-.2-30.3,0-45.5.1a17.5,17.5,0,0,1-17.6-15.9,165.8,165.8,0,0,1-.7-30,108,108,0,0,1,7.1-31.3,82.1,82.1,0,0,1,19-28.3,90.4,90.4,0,0,1,28.4-18l-11.7,21.5c-4.3-20.5-8.4-41-12.1-61.5s-7.2-41.2-10.3-61.9-5.7-41.4-7.9-62.3-3.7-41.9-4.1-63.1a3,3,0,0,1,2.9-3A2.9,2.9,0,0,1,2388.4,2794.6Z" transform="translate(-545.7 -795)"/><path class="cls-8" d="M3014.5,2978.3s-42.7,133.2-94.7,150.6H2629.7s-51.1-197,206.1-84.3" transform="translate(-545.7 -795)"/><path class="cls-7" d="M3027.4,2996.4c-4.8,14.4-10,27.6-15.9,41.1a426.9,426.9,0,0,1-19.5,39.6c-7.3,12.9-15.4,25.7-25.6,37.7a135.5,135.5,0,0,1-17.4,17.3,77.6,77.6,0,0,1-23.7,13.4,17,17,0,0,1-5.4.9H2642.3a17.4,17.4,0,0,1-16.8-13.3,78.5,78.5,0,0,1-1.8-8.3c-.5-2.6-.9-5.2-1.3-7.8-.7-5.3-1.3-10.6-1.5-15.9a136.5,136.5,0,0,1,2.1-32.9,85.9,85.9,0,0,1,13.8-33,70.7,70.7,0,0,1,29-23.6,87.3,87.3,0,0,1,33.9-7.5,135.6,135.6,0,0,1,31.6,3.2,191.9,191.9,0,0,1,55.6,22.1,5.9,5.9,0,0,1,2.1,8.1,5.8,5.8,0,0,1-5.8,2.9h-.1c-19-2.2-37.5-4.8-55.2-5s-34.6,2-46.4,8.4a41.1,41.1,0,0,0-14.2,12.9,57.2,57.2,0,0,0-8,19.3,97.4,97.4,0,0,0-2.4,23.9c0,4.2.3,8.4.7,12.6.3,2.1.5,4.2.9,6.3s.7,4.3,1,5.6l-17-13.2h277.3l-5.6.9c8.2-2.7,17.6-10.6,25.5-20.1s15.3-20.7,21.8-32.3a397.1,397.1,0,0,0,18-36.4c5.3-12.4,10.5-25.5,14.6-37.9l.2-.3a17.5,17.5,0,1,1,33.1,11.1Z" transform="translate(-545.7 -795)"/><g class="cls-6"><path class="cls-7" d="M2675.7,3014.4c-67.8,22-43.8,114.5-43.8,114.5H2922c38.5-12.8,71.8-89,86.6-127.8a203.3,203.3,0,0,0,12-32.6c9.5-33.8,14.9-65.1,16.9-93.9C2920,3040,2951.4,3074.9,2675.7,3014.4Z" transform="translate(-545.7 -795)"/></g><g class="cls-13"><path class="cls-7" d="M2435.7,3040.8c-26.4,10.3-48.8,34.5-43.1,88.1h182.2l33.1-175.2C2575.1,3002.9,2522,3044.2,2435.7,3040.8Z" transform="translate(-545.7 -795)"/></g><path class="cls-7" d="M2470.9,3060.6c-3.9,4.6-5.7,10.2-6.9,15.8a67.5,67.5,0,0,0-.8,16.8,118.6,118.6,0,0,0,2.4,16.6l2.1,8.1,2.5,8,.2.4a13.3,13.3,0,0,1-25.4,7.9,12.7,12.7,0,0,1-.6-4.7l.6-9.6c.3-3.3.7-6.5,1.1-9.6a122.7,122.7,0,0,1,4.2-18.9,73.9,73.9,0,0,1,7.7-17.5C2461.3,3068.6,2465.5,3063.5,2470.9,3060.6Z" transform="translate(-545.7 -795)"/><path class="cls-7" d="M2518.2,3066a88.8,88.8,0,0,0-5.8,32.2,79.1,79.1,0,0,0,1.4,15.5,85.2,85.2,0,0,0,4.1,14.4,14.2,14.2,0,0,1-8.6,18.1,14.1,14.1,0,0,1-18-8.6,12,12,0,0,1-.8-5.6v-.2a108.6,108.6,0,0,1,2.6-19,103.7,103.7,0,0,1,5.8-17.6A95.2,95.2,0,0,1,2518.2,3066Z" transform="translate(-545.7 -795)"/><path class="cls-7" d="M2308.9,3069.1c-3.4,4-4.9,8.9-5.9,13.7a55.8,55.8,0,0,0-.7,14.7,87.4,87.4,0,0,0,2.1,14.5l1.9,7.2,2.2,7v.3a11.6,11.6,0,0,1-7.6,14.5,11.4,11.4,0,0,1-14.5-7.5,12.2,12.2,0,0,1-.6-4.2l.5-8.4c.3-2.8.7-5.6,1-8.4a102.1,102.1,0,0,1,3.6-16.4,65.9,65.9,0,0,1,6.7-15.4C2300.6,3076.1,2304.3,3071.6,2308.9,3069.1Z" transform="translate(-545.7 -795)"/><path class="cls-7" d="M2354,3069.9a80.4,80.4,0,0,0-5.4,30.2,77.4,77.4,0,0,0,1.3,14.5,85.8,85.8,0,0,0,3.8,13.4,13.2,13.2,0,1,1-24.8,9,14.3,14.3,0,0,1-.8-5.3v-.2a93.2,93.2,0,0,1,2.5-17.7,88.4,88.4,0,0,1,5.3-16.5A89.6,89.6,0,0,1,2354,3069.9Z" transform="translate(-545.7 -795)"/><g class="cls-18"><path class="cls-7" d="M2840.1,2009.1l-203.8,20.5a301.6,301.6,0,0,0-94.8-43.2c-2.7-.7-43.2-7-45.9-7.6,118.9,61.6,232.4,176.3,235.8,300.4,4.7,170.7-63.2,209.8-161.6,273.5,107.5-6.1,191.2-53.9,217.3-155.8,11-43,10.5-91.1.1-138.9,56.4-72.6,79-160.7,87.8-211.4A32.1,32.1,0,0,0,2840.1,2009.1Z" transform="translate(-545.7 -795)"/></g><path class="cls-7" d="M2282.9,2197.3c8.4-10.6,20.7-17,34.2-19.7a64.7,64.7,0,0,1,21.1-.5,63.8,63.8,0,0,1,20.6,7.1c3.4,1.7,5.9,3.8,8.8,5.8a73.6,73.6,0,0,1,7.9,6.9c4.8,5.3,9.3,11,12.1,17.7,5.8,13.2,6.2,29.1-1.8,40.3a74.8,74.8,0,0,0-18.1-27.6,107.4,107.4,0,0,0-11.1-9.1c-2.1-1.3-3.9-2.9-6.1-4s-4.2-2.9-6.2-3.7l-2.9-1.7-3.1-1.3c-2-1.2-4.3-1.6-6.4-2.7a139.9,139.9,0,0,0-14.2-3.7C2307.4,2199.1,2296.2,2198.1,2282.9,2197.3Z" transform="translate(-545.7 -795)"/><path class="cls-7" d="M2690.6,2288.1c-12-5.7-22.3-10.3-32.2-13.5a119.7,119.7,0,0,0-14.3-3.6c-2.3-.1-4.5-.8-6.8-.8s-2.3-.2-3.4-.3h-3.4c-2.1-.3-4.8.1-7.2.2s-4.8.5-7.3.6a112.8,112.8,0,0,0-14.1,2.6,75.1,75.1,0,0,0-29.1,15.4c-1.6-13.7,6.4-27.4,17.8-36.1,5.7-4.6,12.4-7.4,19.1-9.7,3.4-.8,6.9-1.8,10.3-2.3s6.7-.9,10.5-.7a62.3,62.3,0,0,1,21.5,3.7,69,69,0,0,1,18.3,10.6C2680.7,2263.2,2688.4,2274.7,2690.6,2288.1Z" transform="translate(-545.7 -795)"/><path class="cls-7" d="M2447.8,2372.1a13.9,13.9,0,0,1-4-.6,12.6,12.6,0,0,1-7.9-15.9l11.8-34.6a12.5,12.5,0,0,1,23.6,8l-11.7,34.6A12.4,12.4,0,0,1,2447.8,2372.1Z" transform="translate(-545.7 -795)"/><path class="cls-7" d="M2701.9,3058.2c-3.7,4.3-5.4,9.6-6.4,14.8a65.4,65.4,0,0,0-.9,15.9,117.3,117.3,0,0,0,2.3,15.6l2,7.7,2.4,7.6v.3a12.5,12.5,0,0,1-23.9,7.5,11.6,11.6,0,0,1-.5-4.5l.5-9.1c.3-3,.7-6,1-9a120.5,120.5,0,0,1,4-17.8,67.5,67.5,0,0,1,7.3-16.5C2692.9,3065.7,2696.8,3060.9,2701.9,3058.2Z" transform="translate(-545.7 -795)"/><path class="cls-7" d="M2746.5,3063.2a85.8,85.8,0,0,0-5.5,30.4,87.3,87.3,0,0,0,1.4,14.7,84,84,0,0,0,3.8,13.5,13.3,13.3,0,0,1-25.1,9,12,12,0,0,1-.7-5.3v-.2a96.5,96.5,0,0,1,2.5-17.9,84.8,84.8,0,0,1,5.4-16.6A90.8,90.8,0,0,1,2746.5,3063.2Z" transform="translate(-545.7 -795)"/><path class="cls-7" d="M3456.9,3134.6c-121.1,8-242.3,12.3-363.4,15.4s-242.3,4.7-363.5,5.2-242.3-.1-363.5-.9l-181.7-.7-90.9-.2-90.8.2-363.5,1.4q-90.9.5-181.7.4c-60.6,0-121.2.4-181.8,0s-121.1-.6-181.7-1.3l-90.9-1-90.8-1.5c-121.2-2.9-242.4-7.4-363.5-17a3.7,3.7,0,0,1-3.5-4,3.9,3.9,0,0,1,3.5-3.5c121.1-9.6,242.3-14,363.5-16.9l90.8-1.6,90.9-1c60.6-.7,121.1-1,181.7-1.3s121.2,0,181.8,0,121.1.1,181.7.5l363.5,1.3,90.8.3,90.9-.3,181.7-.6q181.8-1.2,363.5-.9t363.5,5.1c121.1,3.2,242.3,7.4,363.4,15.4a3.8,3.8,0,0,1,3.5,4A3.7,3.7,0,0,1,3456.9,3134.6Z" transform="translate(-545.7 -795)"/></svg>