<svg id="Layer_1" data-name="Layer 1" xmlns="http://www.w3.org/2000/svg" viewBox="0 0 401.8 350.7"><defs><style>.cls-1{fill:#4290e0;}</style></defs><path class="cls-1" d="M127.1,303.9c-7.5-2.5-14.9-4-21.2-7.4C83.8,285,74.5,264,80,239.3c3.7-16.6,11.7-31.2,21.2-45.1,13-18.9,27.3-36.7,46-50.3,14-10.1,29.4-16.3,47-13.8,4.5.7,8.8,2.7,13.3,3.9,1.5.3,3.6.4,4.8-.4,38.4-23.5,78.4-24.3,119.4-8,5.1,2,9.6,5.4,14.5,8,1.2.6,3.2,1.1,4.3.6,19.6-8.8,37.8-4.5,55.1,6s28.8,24,40.6,38.8,23,32.3,29.9,51.2c8.9,24.4,3.2,46.9-15.7,61.6-7.2,5.6-15.4,8.6-24.1,10.3l-4.6.7c1.2,7.8,2.8,15.2,3.7,22.7,2.4,22.9,2.1,45.6-6.2,67.6-10.7,28.1-31.2,46.3-58.6,57.6-24,9.9-49.2,13.2-74.9,14.1-27.4,1-54.8.2-81.7-5.9-20.9-4.8-40.5-12.6-57.1-26.6-21.3-18.1-31.7-41.8-34.3-69.2A175.7,175.7,0,0,1,127.1,303.9ZM266,438.7c0-16.4.1-31.4-.1-46.5,0-1.2-1.9-2.8-3.3-3.5a72.1,72.1,0,0,1-28.1-26.4c-14.1-22.7-4.7-46.2,20.6-50.7a131.4,131.4,0,0,1,50,.3c21.3,4.3,31,23.6,22.3,43.5-6.3,14.6-16.9,25.4-31,32.8-2.9,1.6-4.1,3.2-4,6.5.2,12.9.1,25.7.1,38.5,0,1.6.2,3.2.3,5.1,26.6-1.2,52.4-4,76.1-16.1,21.7-11.1,34.9-28.6,39.2-52.6a135.9,135.9,0,0,0-4.3-65.5c-7.7-24.1-16.3-48-25.2-71.7a426.4,426.4,0,0,0-19.1-43.8c-11.9-22.7-29.6-39-55.4-44.6a118.1,118.1,0,0,0-45.5-.8,76,76,0,0,0-44.5,24c-12.6,13.8-20.9,30.2-27.5,47.4-8.9,23.1-16.9,46.5-25.6,69.7s-13.8,46.9-12.3,71.8c1.8,30.7,15.2,53.9,43.5,67.4,13.5,6.5,27.8,10.2,42.5,12.1C244.9,436.9,255.1,437.7,266,438.7ZM187.8,156.1c-1.9.1-3.6-.1-5,.5-6.8,2.9-14.2,5-20.1,9.2-16.8,11.9-29.1,28.2-40.5,45.1-7.1,10.5-13.3,21.6-16.2,34.1-1.6,6.9-1.7,13.5,2.8,19.7,6.1,8.5,14.6,11.4,24.4,11.7,1.1.1,2.8-1.5,3.2-2.7,4.2-10.8,8.4-21.7,12.2-32.7,7.3-21,14.1-42.2,24.9-61.7C177.8,171.5,182.8,164.1,187.8,156.1Zm182.8,0c.7,1.2,1,2,1.5,2.7,11.5,15.5,19.9,32.6,26.5,50.5,7.6,20.5,14.8,41,22.2,61.4,2.4,6.4,2.5,6.4,9.3,5.5,14.5-2,27.5-13.6,22.3-31.9-.6-2-1.1-4-1.8-6-6.8-18.6-18.2-34.5-30.8-49.5-9-10.6-18.4-20.8-30.9-27.6A38.5,38.5,0,0,0,370.6,156.1ZM279.4,335.8c-6.6.6-13.4,1-20,2.1-5.1.8-5.9,2.8-3.6,7.5a40,40,0,0,0,19.1,19.4,11.6,11.6,0,0,0,8.4.2,39.4,39.4,0,0,0,19.6-20c2.1-4.5,1.2-6.4-3.8-7.2S286.1,336.4,279.4,335.8Z" transform="translate(-78.4 -114.5)"/><path class="cls-1" d="M337.2,262.2a17.3,17.3,0,1,1-34.6-.3,17.3,17.3,0,1,1,34.6.3Z" transform="translate(-78.4 -114.5)"/><path class="cls-1" d="M255.6,262.1c-.1,9.8-7.8,17.5-17.4,17.2a17.3,17.3,0,0,1,.7-34.6A17.1,17.1,0,0,1,255.6,262.1Z" transform="translate(-78.4 -114.5)"/></svg>