<svg id="Layer_1" data-name="Layer 1" xmlns="http://www.w3.org/2000/svg" viewBox="0 0 323.5 308"><defs><style>.cls-1{fill:#fff;}</style></defs><path class="cls-1" d="M314.9,132.7c-13.1-14.3-27.7-27.4-41.5-41L208,27.4,193.3,12.9a45.3,45.3,0,0,0-54.6-6.7c-4.1,2.4-7.5,5.7-10.9,9L73.9,68.3,29.7,111.8c-7,6.9-14.5,13.6-21.1,20.9-11,12-11.9,30.5,0,42.4,7.2,7.2,18.2,10.1,28,8.1v88.3A36.4,36.4,0,0,0,73.1,308h177a36.4,36.4,0,0,0,36.5-36.5V183.2a31.4,31.4,0,0,0,28.1-8.1C326.8,163.2,325.9,144.8,314.9,132.7ZM212.6,300h-101V233.5a50.5,50.5,0,0,1,101,0Zm2.7-143a2.2,2.2,0,0,1-.1.8,14.1,14.1,0,0,1,4.5,10.4,14.5,14.5,0,0,1-29,.8H132.3a14.5,14.5,0,1,1-23.4-12.2A14.5,14.5,0,1,1,132.3,145h58.4a14.5,14.5,0,0,1,29,.4,14.1,14.1,0,0,1-4.5,10.4A4.9,4.9,0,0,1,215.3,157Z"/></svg>