<?xml version="1.0" encoding="utf-8"?>
<!-- Generator: Adobe Illustrator 26.0.1, SVG Export Plug-In . SVG Version: 6.00 Build 0)  -->
<svg version="1.1" id="Layer_1" xmlns="http://www.w3.org/2000/svg" xmlns:xlink="http://www.w3.org/1999/xlink" x="0px" y="0px"
	 viewBox="0 0 933.9 332" style="enable-background:new 0 0 933.9 332;" xml:space="preserve">
<style type="text/css">
	.st0{fill:#4290E0;}
</style>
<g>
	<path class="st0" d="M714.9,322.7c9.2-8.5,17.3-15.5,24.8-23c29.3-29.1,58.6-58.4,87.6-87.8c25.5-25.7,30-61.4,11.9-91.5
		s-53.1-43.1-86.8-31c-12,4.3-23.3,13-32.7,22c-34.2,32.8-67.4,66.5-101,99.8c-2.5,2.6-5.2,4.9-8,7.6
		c-22.5-51.4-7.9-140.3,60.1-188.8c63.3-45.1,154.9-39.1,212.5,16.1s67.4,146.1,22.4,212.9S776.9,346,714.9,322.7z"/>
	<path class="st0" d="M209.1,156.6c-4.2,0.7-6.5,0.8-8.6,1.5c-6.4,2-11.6,0.7-13.9-5.8s-0.1-12.7,6.8-15.5c7.4-3,14.9-5.6,22.6-7.7
		c6.2-1.8,8.6-5.2,10.3-11.6c3.6-13.8,8.9-27,13.7-40.4c3.5-10,11.9-15.4,21-18c4.8-1.4,12.4,0.6,16.1,4s6,11.1,4.6,15.5
		c-4,12.3-10.3,23.8-15.6,35.6c-0.8,2.1-1.5,4.3-2.1,6.5c27.1-1.5,27.9-1.1,30.2,15.1c9.1-3,18.3-5.4,26.8-9.3
		c2.6-1.3,3.5-6.6,4.8-10.2c4.6-13.1,9.2-26.2,13.7-39.4c3.4-10.3,12.2-15.1,21.1-17.9c4.7-1.5,12.3,0.8,16.2,4.1
		c3.9,3.3,5.7,10.3,4.5,14.5c-3.2,10.8-8.6,20.9-13.2,31.2l-5,11.2c6.8,0,12.9-1.1,18.3,0.4s11.1,5.8,10.9,8.5
		c-0.4,4.4-4.6,10-8.7,12.3c-5.9,3.1-12.4,4.9-19.1,5.1c-8.6,0.3-11.2,5.1-13.4,12c-9.2,27.7-18.3,55.5-28.3,83
		c-4.4,12.2-10.5,14-21.9,9.2c-6.5-2.8-9.9-6.6-8.1-14.7c5.3-24,9.8-48.1,14.6-72.2c0.2-1.9,0.3-3.8,0.3-5.7c-21-1-21-1-23.6-15.4
		c-8.4,1.6-17,2.6-25.1,5.2c-2.9,1-5.3,5.6-6.5,9.1c-8,23.3-15.5,46.7-23.2,70c-1.7,5.1-3.9,9.9-5.9,14.9c-3.1,7.8-7.4,13-17.4,10.3
		s-14.4-7.4-12.3-17.8c4.4-21.8,8.5-43.7,12.8-65.5C207.2,165.2,208,161.7,209.1,156.6z"/>
	<path class="st0" d="M44.2,212.3c10.4-2.4,18-4.3,25.7-5.8c10.9-2.1,18.2,3.1,22.8,15.8c2.6,7.1-1.6,16.3-10.2,20.4
		c-4.8,2.3-10,3.6-15.3,4c-15.6,0.5-31.3,0.1-47,0.3c-7.3,0-11.4-3.6-14.6-9.9C-1,224.6-1.9,212.3,3.7,199
		c15.5-36.8,30.2-73.8,45.7-110.5c5.8-13.7,28.9-22.1,42.9-17.4c7.9,2.7,10.6,8.5,8.9,15.6c-2.3,9.6-4.9,19.4-9.2,28.3
		c-13.3,27.8-27.6,55.3-41.4,82.9C48.7,201.7,47.1,205.6,44.2,212.3z"/>
	<path class="st0" d="M489.5,215.7c4.6,0.4,9.3,1.6,13.9,1.1s8.7-3,13.2-4.2c8.6-2.2,22.5,4.3,24.2,12.4c0.7,3.4-1.8,10-4.7,11.4
		c-22.9,11-46.7,15.1-71.1,4.6c-9.3-4-13.3-12.4-14.9-22.1c-5.1-30.7,24.3-85.4,68-88.7c21.9-1.7,34.1,7.7,33.3,29.4
		c-1.1,28.2-16.1,43.7-47.8,49.2c-4.5,0.8-9,1.8-13.5,2.7L489.5,215.7z M513.5,169.6c-12.4-1.7-20,6.1-21.1,21
		C503.6,190.3,510.9,183.2,513.5,169.6z"/>
	<path class="st0" d="M379.4,231.5c3.8-14.5,7.9-31.2,12.6-47.8c9.9-35.3,22.5-69.5,40.3-101.6c1.9-3.5,3.9-7,6.1-10.3
		c5.8-8.6,15.1-13.2,20.6-10.3c7.1,3.5,11.5,18.3,8.8,26.6c-14.5,44.5-29,88.9-43,133.5c-4,12.9-10.2,22.9-23.4,27.6
		C392.7,252.2,379.4,243,379.4,231.5z"/>
	<path class="st0" d="M158.3,131.7c15.3-0.1,19.2,5.3,15.2,19.6c-7.2,26.5-14,53.2-21.1,79.7c-2.2,8.1-4.3,16.4-15.3,16.9
		c-2,0.1-3.8,3.1-5.9,3.4c-5.5,0.9-12.2,3-16.5,0.8s-8.6-9.2-8.5-13.9c0.4-10.3,2.3-20.5,5.6-30.2c7.3-21.2,15.5-42.2,23.9-63.1
		C139.6,135.1,148.1,131.6,158.3,131.7z"/>
	<path class="st0" d="M712.2,180.7c-0.1-12.7,3.4-24.2,15-30.6s23-2.5,32.6,4.9c7.7,5.8,14.5,12.7,20.4,20.3
		c7.1,9.3,11,20.3,4.9,31.7s-18.8,15.6-31.5,15.7C729.7,222.7,712.4,204.7,712.2,180.7z"/>
	<path class="st0" d="M830.3,185.2c0,9.6-6.7,16.1-16.3,15.9s-16.1-6.6-15.9-16.3s7.5-16.6,16.2-16.5S830.4,176,830.3,185.2z"/>
	<path class="st0" d="M767.4,121.7c-0.3,8.8-8.1,16-17.2,15.7c-8.8-0.2-15.9-7.5-15.7-16.3s7.5-15.9,16.3-15.7
		C759.8,105.4,767.6,113.1,767.4,121.7z"/>
	<path class="st0" d="M776.4,141.1c-0.1-8.8,6.6-15.6,15.5-15.9c8.8-0.5,16.4,6.2,16.9,15c0.5,8.3-5.4,15.6-13.6,16.8h-2.4
		C783.3,157.2,776.5,150.7,776.4,141.1z"/>
	<path class="st0" d="M176.2,81.3c10.1,0.2,14.9,4.1,14.7,12.2s-9.8,15.3-20.2,15.3c-8.9,0-16.8-5.6-17.1-12.1
		S164.8,81.1,176.2,81.3z"/>
</g>
</svg>
