<svg id="Layer_1" data-name="Layer 1" xmlns="http://www.w3.org/2000/svg" viewBox="0 0 934 332"><defs><style>.cls-1{fill:#fff;}</style></defs><path class="cls-1" d="M783.7,347.2c9.2-8.5,17.3-15.5,24.8-23,29.3-29.1,58.6-58.4,87.6-87.8,25.5-25.7,30-61.4,11.9-91.5s-53.1-43.1-86.8-31c-12,4.3-23.3,13-32.7,22-34.2,32.8-67.4,66.5-101,99.8-2.5,2.6-5.2,4.9-8,7.6C657,191.9,671.6,103,739.6,54.5,802.9,9.4,894.5,15.4,952.1,70.6s67.4,146.1,22.4,212.9S845.7,370.5,783.7,347.2Z" transform="translate(-68.9 -24.5)"/><path class="cls-1" d="M277.9,181.1c-4.2.7-6.5.8-8.6,1.5-6.4,2-11.6.7-13.9-5.8s-.1-12.7,6.8-15.5a200.5,200.5,0,0,1,22.6-7.7c6.2-1.8,8.6-5.2,10.3-11.6,3.6-13.8,8.9-27,13.7-40.4,3.5-10,11.9-15.4,21-18,4.8-1.4,12.4.6,16.1,4s6,11.1,4.6,15.5c-4,12.3-10.3,23.8-15.6,35.6a55.1,55.1,0,0,0-2.1,6.5c27.1-1.5,27.9-1.1,30.2,15.1,9.1-3,18.3-5.4,26.8-9.3,2.6-1.3,3.5-6.6,4.8-10.2,4.6-13.1,9.2-26.2,13.7-39.4,3.4-10.3,12.2-15.1,21.1-17.9,4.7-1.5,12.3.8,16.2,4.1s5.7,10.3,4.5,14.5c-3.2,10.8-8.6,20.9-13.2,31.2l-5,11.2c6.8,0,12.9-1.1,18.3.4s11.1,5.8,10.9,8.5c-.4,4.4-4.6,10-8.7,12.3a43.5,43.5,0,0,1-19.1,5.1c-8.6.3-11.2,5.1-13.4,12-9.2,27.7-18.3,55.5-28.3,83-4.4,12.2-10.5,14-21.9,9.2-6.5-2.8-9.9-6.6-8.1-14.7,5.3-24,9.8-48.1,14.6-72.2a36.3,36.3,0,0,0,.3-5.7c-21-1-21-1-23.6-15.4-8.4,1.6-17,2.6-25.1,5.2-2.9,1-5.3,5.6-6.5,9.1-8,23.3-15.5,46.7-23.2,70-1.7,5.1-3.9,9.9-5.9,14.9-3.1,7.8-7.4,13-17.4,10.3s-14.4-7.4-12.3-17.8c4.4-21.8,8.5-43.7,12.8-65.5C276,189.7,276.8,186.2,277.9,181.1Z" transform="translate(-68.9 -24.5)"/><path class="cls-1" d="M113,236.8c10.4-2.4,18-4.3,25.7-5.8,10.9-2.1,18.2,3.1,22.8,15.8,2.6,7.1-1.6,16.3-10.2,20.4a42.8,42.8,0,0,1-15.3,4c-15.6.5-31.3.1-47,.3-7.3,0-11.4-3.6-14.6-9.9-6.6-12.5-7.5-24.8-1.9-38.1C88,186.7,102.7,149.7,118.2,113c5.8-13.7,28.9-22.1,42.9-17.4,7.9,2.7,10.6,8.5,8.9,15.6-2.3,9.6-4.9,19.4-9.2,28.3-13.3,27.8-27.6,55.3-41.4,82.9C117.5,226.2,115.9,230.1,113,236.8Z" transform="translate(-68.9 -24.5)"/><path class="cls-1" d="M558.3,240.2c4.6.4,9.3,1.6,13.9,1.1s8.7-3,13.2-4.2c8.6-2.2,22.5,4.3,24.2,12.4.7,3.4-1.8,10-4.7,11.4-22.9,11-46.7,15.1-71.1,4.6-9.3-4-13.3-12.4-14.9-22.1-5.1-30.7,24.3-85.4,68-88.7,21.9-1.7,34.1,7.7,33.3,29.4-1.1,28.2-16.1,43.7-47.8,49.2-4.5.8-9,1.8-13.5,2.7Zm24-46.1c-12.4-1.7-20,6.1-21.1,21C572.4,214.8,579.7,207.7,582.3,194.1Z" transform="translate(-68.9 -24.5)"/><path class="cls-1" d="M448.2,256c3.8-14.5,7.9-31.2,12.6-47.8,9.9-35.3,22.5-69.5,40.3-101.6,1.9-3.5,3.9-7,6.1-10.3,5.8-8.6,15.1-13.2,20.6-10.3,7.1,3.5,11.5,18.3,8.8,26.6-14.5,44.5-29,88.9-43,133.5-4,12.9-10.2,22.9-23.4,27.6C461.5,276.7,448.2,267.5,448.2,256Z" transform="translate(-68.9 -24.5)"/><path class="cls-1" d="M227.1,156.2c15.3-.1,19.2,5.3,15.2,19.6-7.2,26.5-14,53.2-21.1,79.7-2.2,8.1-4.3,16.4-15.3,16.9-2,.1-3.8,3.1-5.9,3.4-5.5.9-12.2,3-16.5.8s-8.6-9.2-8.5-13.9a104.6,104.6,0,0,1,5.6-30.2c7.3-21.2,15.5-42.2,23.9-63.1C208.4,159.6,216.9,156.1,227.1,156.2Z" transform="translate(-68.9 -24.5)"/><path class="cls-1" d="M781,205.2c-.1-12.7,3.4-24.2,15-30.6s23-2.5,32.6,4.9A108.9,108.9,0,0,1,849,199.8c7.1,9.3,11,20.3,4.9,31.7s-18.8,15.6-31.5,15.7C798.5,247.2,781.2,229.2,781,205.2Z" transform="translate(-68.9 -24.5)"/><path class="cls-1" d="M899.1,209.7c0,9.6-6.7,16.1-16.3,15.9s-16.1-6.6-15.9-16.3,7.5-16.6,16.2-16.5S899.2,200.5,899.1,209.7Z" transform="translate(-68.9 -24.5)"/><path class="cls-1" d="M836.2,146.2c-.3,8.8-8.1,16-17.2,15.7a16,16,0,1,1,.6-32C828.6,129.9,836.4,137.6,836.2,146.2Z" transform="translate(-68.9 -24.5)"/><path class="cls-1" d="M845.2,165.6c-.1-8.8,6.6-15.6,15.5-15.9a16,16,0,1,1,.9,31.9C852.1,181.7,845.3,175.2,845.2,165.6Z" transform="translate(-68.9 -24.5)"/><path class="cls-1" d="M245,105.8c10.1.2,14.9,4.1,14.7,12.2s-9.8,15.3-20.2,15.3c-8.9,0-16.8-5.6-17.1-12.1S233.6,105.6,245,105.8Z" transform="translate(-68.9 -24.5)"/><path class="cls-1" d="M582.3,194.1c-2.6,13.6-9.9,20.7-21.1,21C562.3,200.2,569.9,192.4,582.3,194.1Z" transform="translate(-68.9 -24.5)"/></svg>