<svg id="Layer_1" data-name="Layer 1" xmlns="http://www.w3.org/2000/svg" viewBox="0 0 117.6 138.2"><defs><style>.cls-1{fill:#4291e0;}</style></defs><path class="cls-1" d="M154,84.7a5.7,5.7,0,0,0,1.8.3c26,.6,48.6,19,55,44.3a58.9,58.9,0,0,1-32.9,68.1,20.5,20.5,0,0,0-9.4,7.5c-3.4,5-6.6,10-10,14.9s-6.7,4.1-9.5,0l-9.9-14.7a19.4,19.4,0,0,0-8.5-7.3,59.3,59.3,0,0,1-29.8-28.4A56.2,56.2,0,0,1,95.1,147a57.4,57.4,0,0,1,13-40.4,56.7,56.7,0,0,1,35-20.7c2.8-.5,5.8-.6,8.6-.9a11.3,11.3,0,0,0,1.8-.3Zm-.2,89.1A29.9,29.9,0,0,0,183.9,144c.1-16.5-13.3-30.4-29.9-30.4a30.1,30.1,0,0,0-.5,60.2Zm-4-85.4a16.3,16.3,0,0,0-3.1-.3,76,76,0,0,0-9.5,1.9,54.7,54.7,0,0,0-27,18.3,49.6,49.6,0,0,0-11.9,28.3,16.3,16.3,0,0,0,.3,3.1Z" transform="translate(-95 -84.7)"/></svg>