<svg id="Layer_1" data-name="Layer 1" xmlns="http://www.w3.org/2000/svg" viewBox="0 0 236.2 228.7"><defs><style>.cls-1{fill:#fff;}</style></defs><path class="cls-1" d="M169.5,126.6v-14a15,15,0,0,0-6.1-12L83.2,41.3A15,15,0,0,0,59.3,53.4V70.5a14.9,14.9,0,0,0,6.2,12.2L83.2,95.4H15a15,15,0,0,0-15,15v16.2a15,15,0,0,0,15,15H86.3L65.5,156.5a14.9,14.9,0,0,0-6.2,12.2v17.2a14.9,14.9,0,0,0,8.2,13.3,15.2,15.2,0,0,0,6.8,1.7,14.7,14.7,0,0,0,8.9-3l80.2-59.3A15,15,0,0,0,169.5,126.6Z"/><path class="cls-1" d="M221.2,0H175.6a15,15,0,0,0-15,15V28.7a15,15,0,0,0,15,15h13.7V185H175.6a15,15,0,0,0-15,15v13.7a15,15,0,0,0,15,15h45.6a15,15,0,0,0,15-15V15A15,15,0,0,0,221.2,0Z"/></svg>