<?xml version="1.0" encoding="utf-8"?>
<!-- Generator: Adobe Illustrator 26.0.1, SVG Export Plug-In . SVG Version: 6.00 Build 0)  -->
<svg version="1.1" id="Layer_1" xmlns="http://www.w3.org/2000/svg" xmlns:xlink="http://www.w3.org/1999/xlink" x="0px" y="0px"
	 viewBox="0 0 109.6 139.2" style="enable-background:new 0 0 109.6 139.2;" xml:space="preserve">
<style type="text/css">
	.st0{fill:#4290E0;}
	.st1{fill:#FFFFFF;}
</style>
<path class="st0" d="M66.4,22.3H49.8c-1.6,0-3,1.3-3,3V29H47l2.4-0.4h0.8c2,0,3.8,1.5,4.2,3.5l3.2,17.3h4.8l0.2-0.5L65.7,34
	c0.3-1.6,1.7-2.7,3.3-2.7h0.3v-6C69.3,23.6,68.1,22.3,66.4,22.3C66.5,22.3,66.4,22.3,66.4,22.3"/>
<path class="st1" d="M62.8,49.9h-5.3v-0.5h-0.4l-3.2-17.3C53.5,30.3,52,29,50.1,29h-0.7l-2.6,0.5l-0.5-0.3v-3.9
	c0-1.9,1.6-3.4,3.5-3.4h16.6c1.8,0,3.3,1.4,3.4,3.2c0,0.1,0,0.2,0,0.3v6.1l-0.3,0.3H69c-1.4,0-2.6,1-2.8,2.4l-3.1,14.8L62.8,49.9z
	 M58,48.9H62v-0.2L65.1,34c0.3-1.8,1.8-3.1,3.6-3.2v-5.6c0-0.6-0.2-1.3-0.6-1.7c-0.5-0.5-1.1-0.8-1.8-0.8H49.8
	c-1.4,0-2.5,1.1-2.5,2.5v3.3l2-0.3h0.9c2.3,0,4.2,1.6,4.7,3.8L58,48.9z"/>
<path class="st0" d="M57.4,49.3L54.3,32c-0.4-2-2.2-3.5-4.3-3.5h-0.8L46.8,29H47l-15.5,2.9c-2.3,0.5-3.8,2.6-3.4,4.9l2.4,12.4
	L57.4,49.3L57.4,49.3z"/>
<path class="st1" d="M58,49.9H30.1l-2.5-12.8c-0.5-2.6,1.3-5.1,3.8-5.6l14-2.6h-0.1l3.9-0.8H50c2.3,0,4.3,1.6,4.7,3.9l3.2,17
	l1.9,0.9H58V49.9z M30.8,48.9h26l-3.1-16.8C53.4,30.3,51.8,29,50,29h-0.7l-1,0.2h0.1l-16.9,3.2c-1,0.2-1.8,0.8-2.4,1.6
	c-0.5,0.8-0.8,1.8-0.6,2.8L30.8,48.9z"/>
<path class="st0" d="M77.5,32.9L77.5,32.9l-7.8-1.6H69c-1.6,0-3,1.2-3.4,2.7l-3.1,15l-0.1,0.6h15.1l2.6-12.5
	c0.5-1.8-0.7-3.7-2.5-4.2C77.5,32.9,77.5,32.9,77.5,32.9z"/>
<path class="st1" d="M77.9,50H61.8l0.2-1.2l3.1-14.9c0.4-1.8,2-3.1,3.8-3.2h0.8l7.8,1.6c1,0.2,1.9,0.8,2.4,1.7
	c0.6,0.9,0.8,2,0.5,3.1L77.9,50z M63,49.1h14.1L79.6,37c0.2-0.8,0.1-1.7-0.4-2.3c-0.4-0.6-1-1.1-1.8-1.2l-8-1.6H69
	c-1.4,0.1-2.6,1-2.9,2.4L63,49.1z"/>
<path class="st0" d="M88.3,54.1c-0.1-2.6-2.4-4.7-5-4.7H26.4c-2.7,0-4.9,2-5.1,4.7l-4.1,58c-0.2,2.7,1.8,5.1,4.5,5.3
	c0.1,0,0.1,0,0.2,0h65.5c2.8,0,5-2.2,5-5c0,0,0,0,0-0.1V112L88.3,54.1z M55.9,69.4c0.8-3.6,2.7-6.2,5.1-7c0.8-0.2,1.7-0.1,2.5,0.1
	c4,1.9,3.6,10.9-0.6,15c-0.8,0.9-2,1.3-3.2,1.3c-0.5,0.1-1.1-0.1-1.5-0.3c-1.1-0.6-1.9-2.1-2.3-3.4C55.5,73.2,55.5,71.3,55.9,69.4
	L55.9,69.4z M44.6,66.7c0.5-2.1,1.7-3.9,3-4.4c1-0.3,2-0.2,2.9,0.2c1.2,0.5,2.7,2.4,3.4,4.1c0.6,1.6,0.9,3.3,0.8,5.1
	c0,1-0.1,2-0.3,3c-0.5,1.9-1.6,3.4-2.8,4c-0.9,0.3-1.9,0.3-2.8,0c-1.8-0.9-3.5-3.4-4.1-6.4C44.4,70.5,44.4,68.6,44.6,66.7L44.6,66.7
	z M37.8,72.7l1.1-0.7c0.5-0.2,1-0.3,1.4-0.2c1.4,0,2.4,0.5,3.6,1.7c3.2,3.2,4,9.3,1.4,11.9c-2.5,2.6-4.3,1.5-6.5-0.8
	C36.6,82.3,35.3,75.2,37.8,72.7L37.8,72.7z M67.9,100.8c-0.8,1.3-1.9,2.4-3.2,3.1c-2,1-3.5,0.9-6.2-0.3l-2.5-0.9
	c-0.8-0.2-1.1-0.1-3.8,0.6c-5,1.4-7.5,1.6-9.9,0.4c-1.1-0.5-1.9-1.4-2.4-2.5c-0.4-1.3-0.4-2.8-0.1-4.1c1.1-5,5.5-11.7,9.7-14.8
	c1.1-0.9,2.5-1.5,3.8-1.9c1.5-0.3,3.1-0.1,4.4,0.8c3.1,1.7,6.5,5.8,8.6,10S69,98.8,67.9,100.8L67.9,100.8z M70.3,85.7
	c-1.2,1.3-2.2,1.7-3.5,1.7c-0.6,0.1-1.1-0.1-1.6-0.3c-1.6-0.9-2.5-2.7-2.5-5.2c0-4.3,2.7-8.6,5.9-9.2c1.1-0.3,2.4,0.1,3.2,1
	C74.5,76.1,73.8,82.4,70.3,85.7z"/>
<path class="st1" d="M70.2,61.4c-0.7-0.2-1.2-0.9-1.2-1.6V44.1c0.4-7.8-5.6-14.4-13.4-14.8c-7.8-0.4-14.4,5.6-14.8,13.4l0,0
	c-0.1,0.5-0.1,1,0,1.4v15.5c0,0.8-0.6,1.5-1.5,1.5c-0.8,0-1.5-0.6-1.5-1.5V44.3c0-9.4,7.6-17.1,17-17.2s17.1,7.6,17.2,17l0,0v15.7
	c0,0.8-0.6,1.5-1.4,1.6c0,0,0,0-0.1,0C70.5,61.4,70.4,61.4,70.2,61.4z"/>
</svg>
