<svg id="Layer_1" data-name="Layer 1" xmlns="http://www.w3.org/2000/svg" viewBox="0 0 1549.8 335.5"><defs><style>.cls-1{fill:#fff;}</style></defs><path class="cls-1" d="M458.3,211.5c0,14.4-4.9,27.2-14.5,38.4a72,72,0,0,1-31.9,21c2.7,3.5,9.4,10.9,20,22.2,5.4,5.2,13.5,12,24.4,20.5-4.4,1.4-14.1,4.7-29,10.2-10.4,4-20.3,7.9-29.5,11.7-2.7-2.8-8.7-10.1-18.1-21.9-4.3-5.9-10.6-16-18.9-30.1h-.2l-1.4,41.2H280.4c-1.1-17.1-2.5-45.4-4.4-84.7q-1.2-34.8-5.7-96.3c25.6-2.2,49.1-3.4,70.2-3.4Q458.3,140.3,458.3,211.5Zm-63.6,25.4c0-7.4-3.7-12.8-11.2-16-5.5-2.4-12.4-3.4-20.7-3.1l-.8,40.3a47.6,47.6,0,0,0,20.7-4.3C390.7,250,394.7,244.4,394.7,236.9Z"/><path class="cls-1" d="M654.1,235.2q0,41.6-25.5,70.3c-17.8,20-40.7,30-68.5,30s-51.8-10.1-69.5-30.2-25.1-42.4-25.1-70.1c0-29.7,9.1-52.9,27.3-69.8s39.6-23.8,67.3-23.8,49.5,8,66.7,23.9S654.1,205.7,654.1,235.2Zm-67.4,20.7c0-21.8-8.7-32.8-26.3-32.8s-25.6,11-25.6,33a48.4,48.4,0,0,0,6.7,24.6q7.7,12.9,18.6,12.9c7.2,0,13.6-4.4,19.1-13.1A45.4,45.4,0,0,0,586.7,255.9Z"/><path class="cls-1" d="M855.9,243.3q0,42.4-31.4,66.9t-91.1,25.3q-37.8,0-58.3-3.1l-3.8-87.6q-1.8-33.6-6.6-92.9a517.3,517.3,0,0,1,63.4-3.7q58.9,0,92.2,23.1Q855.9,196.1,855.9,243.3Zm-57.4,14.5c0-11.6-4.4-20.1-13.3-25.6s-16.8-6.6-28.3-6.2L755,299.8c11.9-.6,21.7-3.9,29.2-9.7C793.7,282.8,798.5,272,798.5,257.8Z"/><path class="cls-1" d="M1056,149.7l-3.2,76.3q-1.3,32.5-1.4,98.7a251.6,251.6,0,0,1-73,10.8c-30.7,0-53.9-5.1-69.9-15.4q-20.2-13.1-28.7-40.8-4.8-15.9-9.2-58.2-4.2-39-5.2-71.4h90.3c-.5,10.4-1.1,27.3-1.7,50.7q-.4,19.5.3,55.5c.1,18.2,1.9,30.5,5.6,36.9s11.5,10.1,22.9,10.1a29.5,29.5,0,0,0,10.9-2.4c0-16.1-.5-41.9-1.6-77.1-1-17.7-2.7-42.2-5.2-73.7Z"/><path class="cls-1" d="M1225.7,223.6a82.7,82.7,0,0,0-19.8-2c-14.9,0-27,3.3-36.4,9.9s-15.8,18-15.8,31.9a33.2,33.2,0,0,0,12.5,26.7c8.4,7,19.3,10.4,32.9,10.4a62.6,62.6,0,0,0,26.3-5.7c-1,3.2-2.5,9.1-4.8,17.8-1.3,5.7-2.5,11.7-3.8,17.9-10.4,3.3-23.8,5-40.1,5-29.6,0-54.9-8.3-75.9-25.1-22.8-18.2-34.1-41.9-34.1-71.1,0-27,9.8-48.9,29.4-65.5s49.7-26.7,86.6-26.7c17.7,0,30.6.9,38.5,2.6Z"/><path class="cls-1" d="M1549.8,226a83.9,83.9,0,0,0-15.6-2,21,21,0,0,0-12.1,3.7c-4.4,3.1-6.6,7.1-6.6,11.9s4.1,11.1,12.1,21.8,12,20.7,12,29.7c0,13.1-5.9,23.9-17.8,32.3s-25.2,12.1-41.8,12.1-26.6-.9-33.9-2.7c-.8-3.6-2.3-9.5-4.3-17.6-1.3-4.4-3.1-10.3-5.5-17.6,10.3,2.1,17.2,3.2,20.7,3.2,13.9,0,20.9-4.5,20.9-13.3,0-6.5-2.8-12.2-8.4-17.4-9.2-6.7-18.3-13.5-27.4-20.3-17.8-13.2-26.6-28.9-26.6-47s8.4-33.3,25.2-43q21.9-12.7,58.5-12.8c13.8,0,29.3,1.7,46.4,5.1Z"/><path class="cls-1" d="M253.2,177.3q0,46.6-35.5,74.7t-94,28.1l-2.4,50.1H13.7L8,207.7Q5.4,160.3,0,77.6q30.5-5.1,89.3-5.1,71.7,0,114.9,24.2Q253.3,124.2,253.2,177.3Zm-81.1,27.6q0-25.7-36.1-25.6a65.8,65.8,0,0,0-8.8.5l-2,57.5Q172.2,236,172.1,204.9Z"/><path class="cls-1" d="M1376,102.2a54.9,54.9,0,0,1,3.9,7.1c4.4,11.5,2.4,22-5.8,31.2-4,4.4-8.2,8.6-12.2,13a6,6,0,0,0-1.2,3.2q-.2,54,0,108a6.7,6.7,0,0,0,1.3,3.4c4.8,5.3,10,10.3,14.4,15.8,8.9,11.3,7.3,28-3.1,38.1s-26.9,11-38,2.1c-1.5-1.2-3-2.4-4.4-3.7s-1.9-1-3.1,0c-3.2,2.4-6.2,5.2-9.7,6.9-12.2,6-27.7,2.3-35.3-8.2-8.9-12.1-8.2-27.4,1.7-38l11.9-12.7a4.9,4.9,0,0,0,1.7-4.1V157.1a5.1,5.1,0,0,0-1.6-4c-4.7-5-9.7-9.9-14-15.3-8-10-7.9-24.2-.4-34.5l.6-1.1,4.8-4.9c.3-.1.6-.1.8-.3,12.3-8.4,26.2-7.6,37.4,2.2,3.6,3.2,3.6,3.2,7.3,0,10.1-8.8,23.2-10.4,34.4-4.2l3.8,2.3Z"/><path class="cls-1" d="M1437.9,99.6c-2.4,1.3-4.6,2.9-7.1,3.8-11.5,4.4-22,2.4-31.2-5.8-4.4-4-8.6-8.2-13-12.2a5.3,5.3,0,0,0-3.2-1.2q-54-.2-108,0a6.2,6.2,0,0,0-3.4,1.3c-5.3,4.8-10.3,10-15.9,14.4-11.2,8.9-27.9,7.3-38-3.1a28.9,28.9,0,0,1-2.1-38c1.2-1.5,2.4-3,3.7-4.4s.9-1.9,0-3.1c-2.4-3.2-5.2-6.2-6.9-9.7-6.1-12.2-2.3-27.7,8.1-35.3,12.2-8.9,27.5-8.2,38.1,1.7,4.2,4,8.5,7.9,12.6,11.9a5.2,5.2,0,0,0,4.2,1.7H1383a4.8,4.8,0,0,0,3.9-1.6c5.1-4.7,10-9.7,15.4-14,10-8,24.1-7.9,34.5-.4l1.1.6,4.8,4.8a2,2,0,0,0,.4.8c8.4,12.3,7.6,26.2-2.2,37.4-3.2,3.7-3.2,3.7,0,7.3,8.8,10.1,10.4,23.3,4.2,34.4l-2.4,3.8Z"/></svg>