<svg id="b9366db0-4e36-45d8-8e41-ed4f7ebffb51" data-name="nasjdk" xmlns="http://www.w3.org/2000/svg" viewBox="0 0 222.6 77.5"><defs><style>.bb5b1d56-43c8-4a23-ad02-ed3151e7a63c{fill:#e2001a;}</style></defs><path class="bb5b1d56-43c8-4a23-ad02-ed3151e7a63c" d="M140.4,23.2a5.4,5.4,0,0,0,7.5-1.9,5.6,5.6,0,0,0,.6-4.3,5.2,5.2,0,0,0-2.5-3.3,5.4,5.4,0,0,0-7.5,2,6.1,6.1,0,0,0-.6,4.2A5.2,5.2,0,0,0,140.4,23.2Z" transform="translate(-1.3 -3.4)"/><path class="bb5b1d56-43c8-4a23-ad02-ed3151e7a63c" d="M131.1,31.5a5.2,5.2,0,0,0,2.5,3.3,5.4,5.4,0,0,0,7.5-2,6.1,6.1,0,0,0,.6-4.2,8.3,8.3,0,0,0-2.7-3.2,5.2,5.2,0,0,0-2.7-.7,5.4,5.4,0,0,0-5.4,5.4A7.8,7.8,0,0,0,131.1,31.5Z" transform="translate(-1.3 -3.4)"/><path class="bb5b1d56-43c8-4a23-ad02-ed3151e7a63c" d="M124.8,16.5l1.5.2a5.4,5.4,0,0,0,5.4-5.4,5.4,5.4,0,0,0-4-5.2l-1.5-.2a5.5,5.5,0,0,0-5.4,5.5A5.6,5.6,0,0,0,124.8,16.5Z" transform="translate(-1.3 -3.4)"/><path class="bb5b1d56-43c8-4a23-ad02-ed3151e7a63c" d="M121.2,29.7l1.5.2a5.4,5.4,0,0,0,5.4-5.4,5.4,5.4,0,0,0-4-5.2l-1.5-.2a5.5,5.5,0,0,0-5.4,5.5A5.2,5.2,0,0,0,121.2,29.7Z" transform="translate(-1.3 -3.4)"/><path class="bb5b1d56-43c8-4a23-ad02-ed3151e7a63c" d="M108.1,14.3a5.4,5.4,0,0,0,5.4-5.4,5.5,5.5,0,0,0-5.4-5.5,5.4,5.4,0,0,0-5.4,5.4A5.3,5.3,0,0,0,108.1,14.3Z" transform="translate(-1.3 -3.4)"/><circle class="bb5b1d56-43c8-4a23-ad02-ed3151e7a63c" cx="108.1" cy="22.7" r="5.4" transform="translate(14.3 79.7) rotate(-45)"/><path class="bb5b1d56-43c8-4a23-ad02-ed3151e7a63c" d="M92.1,19.2A5.5,5.5,0,0,0,93.5,30h.1l1.4-.2a5.6,5.6,0,0,0,3.9-6.7A5.5,5.5,0,0,0,93.6,19Z" transform="translate(-1.3 -3.4)"/><path class="bb5b1d56-43c8-4a23-ad02-ed3151e7a63c" d="M90,16.7l1.5-.2a5.6,5.6,0,0,0,3.9-6.7,5.3,5.3,0,0,0-5.2-4L88.7,6a5.6,5.6,0,0,0-3.9,6.7A5.4,5.4,0,0,0,90,16.7Z" transform="translate(-1.3 -3.4)"/><path class="bb5b1d56-43c8-4a23-ad02-ed3151e7a63c" d="M74.6,28.6a5.2,5.2,0,0,0,.6,4.2,5.4,5.4,0,0,0,4.7,2.7,5.5,5.5,0,0,0,2.8-.7,5.1,5.1,0,0,0,2.6-3.3,5.5,5.5,0,0,0-4-6.7l-1.4-.2a7.2,7.2,0,0,0-2.8.7A5.1,5.1,0,0,0,74.6,28.6Z" transform="translate(-1.3 -3.4)"/><path class="bb5b1d56-43c8-4a23-ad02-ed3151e7a63c" d="M72.9,23.6a5.1,5.1,0,0,0,5.4-3.9,5.6,5.6,0,0,0-4-6.7l-1.4-.2a5.4,5.4,0,0,0,0,10.8Z" transform="translate(-1.3 -3.4)"/><path class="bb5b1d56-43c8-4a23-ad02-ed3151e7a63c" d="M15.3,69.5a8,8,0,0,0,3.9-6.9h0a9,9,0,0,0-8.8-9.1,8.4,8.4,0,0,0-6.6,2.3,9.2,9.2,0,0,0-2.5,6.9l.4,15.1a2.9,2.9,0,0,0,5.8,0V70.5a.3.3,0,0,1,.3-.3h.2l7.1,9.7a2.5,2.5,0,0,0,1.9.7A3,3,0,0,0,20,77.8a3.5,3.5,0,0,0-.3-1.3Zm-5.1-4.2H9.7a2.9,2.9,0,1,1,.4-5.8h.5a2.9,2.9,0,0,1,2.7,3.1C13.2,64.2,11.7,65.7,10.2,65.3Z" transform="translate(-1.3 -3.4)"/><path class="bb5b1d56-43c8-4a23-ad02-ed3151e7a63c" d="M33.7,53.4A13.6,13.6,0,1,0,47.3,66.9,13.6,13.6,0,0,0,33.7,53.4Zm0,20.8A7.3,7.3,0,1,1,41,66.9,7.2,7.2,0,0,1,33.7,74.2Z" transform="translate(-1.3 -3.4)"/><path class="bb5b1d56-43c8-4a23-ad02-ed3151e7a63c" d="M68.8,56.4A2.9,2.9,0,0,0,66,53.5a3,3,0,0,0-2.1.8l-6.8,7.1h-.3c-.1,0-.2,0-.2-.1l-6.8-7.1a3.1,3.1,0,0,0-2.1-.9,2.8,2.8,0,0,0-2.8,2.8,3.5,3.5,0,0,0,.7,2l8.3,9.5v10a2.9,2.9,0,1,0,5.8,0l.2-9.9,8.1-9.5A3,3,0,0,0,68.8,56.4Z" transform="translate(-1.3 -3.4)"/><path class="bb5b1d56-43c8-4a23-ad02-ed3151e7a63c" d="M77.6,54.3l-16,21.6a2.8,2.8,0,0,0-.6,1.8,2.7,2.7,0,0,0,1.3,2.4,3.1,3.1,0,0,0,4.1-.6l3.1-4.2H77v2.4a3,3,0,0,0,3.1,2.9A2.9,2.9,0,0,0,83,77.7V56.3A3.1,3.1,0,0,0,82,54,3,3,0,0,0,77.6,54.3Zm-.7,14.9H74.1a.2.2,0,0,1-.2-.2l3-4.1Z" transform="translate(-1.3 -3.4)"/><path class="bb5b1d56-43c8-4a23-ad02-ed3151e7a63c" d="M99.3,74.8h-6a.3.3,0,0,1-.3-.3V56.4a1.7,1.7,0,0,0,0-1,3.1,3.1,0,1,0-6.2,1V79a1.8,1.8,0,0,0,1.7,1.8H99.6a2.9,2.9,0,0,0,2.7-3.1A2.7,2.7,0,0,0,99.3,74.8Z" transform="translate(-1.3 -3.4)"/><path class="bb5b1d56-43c8-4a23-ad02-ed3151e7a63c" d="M131.5,46.5a1.6,1.6,0,0,0-.2-2.3c-5.4-4.4-14.1-7.2-23.2-7.2s-17.9,2.7-23.3,7.2h-.1a1.8,1.8,0,0,0-.2,2.3,1.5,1.5,0,0,0,1.3.6,1.3,1.3,0,0,0,1-.4c4.8-4,12.8-6.5,21.2-6.5s16.3,2.4,21.2,6.5A1.6,1.6,0,0,0,131.5,46.5Z" transform="translate(-1.3 -3.4)"/><path class="bb5b1d56-43c8-4a23-ad02-ed3151e7a63c" d="M123.4,59.6a7.7,7.7,0,0,1,3.9,1.1l2.3,1.6a3,3,0,0,0,4.3-2.6,2.8,2.8,0,0,0-.7-1.9,12.3,12.3,0,0,0-9.4-4.3,13.6,13.6,0,0,0-.8,27.2,14.1,14.1,0,0,0,10.2-4.4,2.4,2.4,0,0,0,.6-1.9,2.6,2.6,0,0,0-2.7-2.9l-1.4.3-2.4,1.6a7.4,7.4,0,0,1-3.9,1.1,7.5,7.5,0,0,1,0-14.9Z" transform="translate(-1.3 -3.4)"/><path class="bb5b1d56-43c8-4a23-ad02-ed3151e7a63c" d="M134,38.8c-6.4-4.7-16-7.5-25.9-7.5s-19.6,2.8-25.9,7.5a2.2,2.2,0,0,0-.9,1.9,2.3,2.3,0,0,0,2.4,2.4,3,3,0,0,0,1.5-.5c4.3-3.2,12.6-6.6,23.1-6.6s18.7,3.4,23,6.6h.1a2.4,2.4,0,0,0,3.3-.6A2.5,2.5,0,0,0,134,38.8Z" transform="translate(-1.3 -3.4)"/><path class="bb5b1d56-43c8-4a23-ad02-ed3151e7a63c" d="M141.2,54.2a3.5,3.5,0,0,0-2.4-1c-1.8,0-3.1.8-3.1,2.6V77.7a2.9,2.9,0,0,0,3,2.9,3.2,3.2,0,0,0,3.1-2.9V75.3h7.5l3.1,4.2a3,3,0,0,0,2.4,1.1,2.9,2.9,0,0,0,2.9-2.9,3,3,0,0,0-.6-1.8ZM144.8,69l-.2.2h-2.8V64.7l3,4.2C144.9,68.9,144.9,68.9,144.8,69Z" transform="translate(-1.3 -3.4)"/><path class="bb5b1d56-43c8-4a23-ad02-ed3151e7a63c" d="M177.2,52.8a2.8,2.8,0,0,0-2.7,2.7V68.2l-.2.2c-.1,0-.1,0-.1-.1l-7.4-13.1a4,4,0,0,0-5.6-1.4,4.5,4.5,0,0,0-2,3.3V77.9a3,3,0,0,0,5.9,0V65.2a.2.2,0,0,1,.2-.2h.1L173,78.5a3.9,3.9,0,0,0,5.3,1.5,3.8,3.8,0,0,0,2-3.3V55.6A2.9,2.9,0,0,0,177.2,52.8Z" transform="translate(-1.3 -3.4)"/><path class="bb5b1d56-43c8-4a23-ad02-ed3151e7a63c" d="M186.7,52.7a3.1,3.1,0,0,0-3.1,3.1V77.7a3.1,3.1,0,1,0,6.2,0V55.8A3.1,3.1,0,0,0,186.7,52.7Z" transform="translate(-1.3 -3.4)"/><path class="bb5b1d56-43c8-4a23-ad02-ed3151e7a63c" d="M211.2,52.8a2.8,2.8,0,0,0-2.7,2.7V68.2l-.2.2h-.2l-7.3-13.1a4,4,0,0,0-5.6-1.4,4.5,4.5,0,0,0-2,3.3V77.9a3,3,0,0,0,3,3,3.1,3.1,0,0,0,3-3V65.2a.2.2,0,0,1,.2-.2h.1l7.6,13.4a3.9,3.9,0,0,0,5.3,1.5,3.8,3.8,0,0,0,2-3.3V55.6A3.2,3.2,0,0,0,211.2,52.8Z" transform="translate(-1.3 -3.4)"/><path class="bb5b1d56-43c8-4a23-ad02-ed3151e7a63c" d="M220.7,52.6a3.2,3.2,0,0,0-3.2,3.2,3.2,3.2,0,0,0,6.4,0A3.4,3.4,0,0,0,220.7,52.6Zm0,5.6a2.4,2.4,0,1,1,2.4-2.4A2.4,2.4,0,0,1,220.7,58.2Z" transform="translate(-1.3 -3.4)"/><path class="bb5b1d56-43c8-4a23-ad02-ed3151e7a63c" d="M220.7,54.1h-.9c-.3,0-.4.2-.4.3v2.7c0,.3.1.4.4.4a.4.4,0,0,0,.4-.4v-1h.2l.5,1c.1.2.2.4.5.4s.4-.1.4-.3V57l-.6-.9c.4.1.8-.4.8-.8v-.2C222,54.3,221.4,54.1,220.7,54.1Zm.1,1.4h-.6v-.8h.6c.3,0,.5.1.5.4S221.1,55.5,220.8,55.5Z" transform="translate(-1.3 -3.4)"/></svg>