<svg id="Layer_1" data-name="Layer 1" xmlns="http://www.w3.org/2000/svg" viewBox="0 0 3067 2570.5"><defs><style>.cls-1{opacity:0.2;}.cls-2{fill:#650000;}.cls-3{fill:#ff761a;}.cls-4{fill:#fff;}.cls-5{opacity:0.3;}.cls-6{opacity:0.7;}.cls-7{fill:#d0cfe5;}</style></defs><g class="cls-1"><ellipse class="cls-2" cx="2006.1" cy="3216.1" rx="1406.1" ry="134.1" transform="translate(-621.2 -734.3) rotate(-1.4)"/></g><path class="cls-3" d="M2907.3,3078.6c76.6,61,200.1,118.8,323.1,4.4,127.8-118.7,159.7-277.7,166.1-376.6a474.7,474.7,0,0,1,9.3-68. 4,458.7,458.7,0,0,1,62.1-152.6c35.5-55.6,80.7-115.4,127.1-148.8,0,0-247.3-64.7-482.8,163.3-90.4,87.5-179,218.2-251.2,412.2A147.4,147.4,0,0,0,2907.3,3078.6Z" transform="translate(-543.8 -783.9)"/><path class="cls-4" d="M3118.5,2558.3a143,143,0,0,1,12.3-11.3c6.5-5.4,15.8,1.5,12.6,9.2a197.5,197.5,0,0,0-14.9,72c-.1,7.8,10,11,14.6,4.7a182,182,0,0,1,33.3-35.2c6.6-5.4,15.9,1.9,12.3,9.6-27.3,59-25,106.5-19.9,132.6a8.1,8.1,0,0,0,15.2,1.9,392.8,392.8,0,0,1,71.3-103.6c5.5-5.7,15-.8,13.7,7a262.6,262.6,0,0,0-3.6,58c.4,8.2,11.4,10.5,15.2,3.3,10.6-20.1,25.9-42.4,37.7-58.7,4.6-6.4,14.9-2.9,14.5,5.1a384.3,384.3,0,0,0,2.8,58.9,8.1,8.1,0,0,0,15.1,2.9c15.9-28.8,36.4-55.2,53.8-75.2a7.6,7.6,0,0,0,1.7-3.5,458.7,458.7,0,0,1,61.7-150.6c32-50.1,71.8-103.6,113.3-138.1a8,8,0,0,0-3.9-14.1c-60.3-9.7-265.7-25-463.3,165a7.7,7.7,0,0,0-2.3,4.1,332.4,332.4,0,0,0-7,49.9A8,8,0,0,0,3118.5,2558.3Z" transform="translate(-543.8 -783.9)"/><g class="cls-5"><path class="cls-2" d="M3111.1,3015.7c144.2-98.2,199.5-250.7,220.7-347.5a475.5,475.5,0,0,1,19.5-66.3,459,459,0,0,1,84.3-141.4c42.7-48.8,95.3-100.3,145.5-126.7,9,1.6,13.9,2.8,13.9,2.8-46.4,33.4-91.6,93.2-127.1,148.8a458.7,458.7,0,0,0-62.1,152.6,474.7,474.7,0,0,0-9.3,68.4c-6.4,98.9-38.3,257.9-166.1,376.6-123,114.4-246.5,56.6-323.1-4.4a147,147,0,0,1-42.4-54.5C2929.7,3064.8,3014.2,3081.7,3111.1,3015.7Z" transform="translate(-543.8 -783.9)"/></g><path class="cls-2" d="M3079,3164.1c-58.9,0-120.4-24.4-181.6-73.1a162.8,162.8,0,0,1-51.3-184.4h0c60.1-161.5,136.8-292.8,227.8-390.3,73.4-78.6,156.2-135.5,246.2-169.1,153.9-57.5,273.9-27.2,278.9-25.9a15.7,15.7,0,0,1,11.6,12.4,16.1,16.1,0,0,1-6.3,15.8c-37.1,26.7-79.7,76.6-123.1,144.5-40.1,62.8-64,136.6-68.9,213.4-7.2,110.8-42.6,268-171.1,387.3C3191.4,3141,3136.4,3164.1,3079,3164.1Zm-203.2-246.4a131.1,131.1,0,0,0,41.4,148.5c75.7,60.3,189.5,110.1,302.4,5.2,120.8-112.2,154.2-261,161-366,5.3-82.2,30.9-161.2,73.9-228.5,35.9-56.2,70.6-99.8,103.5-130.2-44.6-4.9-129.8-6.5-228.6,30.9-192.3,72.7-349.1,259.4-453.6,540.1Z" transform="translate(-543.8 -783.9)"/><path class="cls-3" d="M2147.8,2238.5a25,25,0,0,0-35.8-2.7c-43.6,38.7-151.9,130-221.4,161.6-87.1,39.6-249.2,106.8-210.7,237.5s272,146.4,341.3,21.7c43.1-77.6,143-149.8,212.2-193.3,36.7-23,43.2-73.9,13.6-105.6Z" transform="translate(-543.8 -783.9)"/><g class="cls-5"><path class="cls-2" d="M2247,2357.7l-12.2-14.6a68.3,68.3,0,0,1-31.9,54c-69.3,43.5-169.1,115.8-212.2,193.4-59.7,107.4-241.3,110.4-315,25.6a136,136,0,0,0,4.2,18.8c38.5,130.6,272,146.4,341.3,21.7,43.1-77.6,143-149.8,212.2-193.3C2270.1,2440.3,2276.6,2389.4,2247,2357.7Z" transform="translate(-543.8 -783.9)"/></g><g class="cls-6"><path class="cls-4" d="M1715.5,2650.1c-38.4-130.6,123.6-197.9,210.7-237.5,69.5-31.5,177.8-122.8,221.4-161.5a23.7,23.7,0,0,1,7.1-4.3l-6.9-8.3a25,25,0,0,0-35.8-2.7c-43.6,38.7-151.9,130-221.4,161.6-87.1,39.6-249.2,106.8-210.7,237.5,14.2,48.1,54.9,80.6,104,96.2C1751.4,2713.1,1726.1,2686,1715.5,2650.1Z" transform="translate(-543.8 -783.9)"/></g><path class="cls-2" d="M1869.6,2745.2a96.3,96.3,0,0,1-6-17,144.2,144.2,0,0,1-3.1-17.2,138.4,138.4,0,0,1,.6-35.2,116.9,116.9,0,0,1,10.8-34.1,75.3,75.3,0,0,1,22.9-26.7,2.4,2.4,0,0,1,3.4.6,2,2,0,0,1,.3,2.1v.2c-3.4,10.6-5.8,20.3-6.8,30.1a191.2,191.2,0,0,0-.2,29.3q1.4,14.5,3.6,29.1c.4,2.4.7,4.8,1.2,7.3s.7,4.8,1.2,7.2c.7,4.8,1.7,10,2.1,14.2l.2,1.8a15.9,15.9,0,0,1-14.3,17.4A15.8,15.8,0,0,1,1869.6,2745.2Z" transform="translate(-543.8 -783.9)"/><path class="cls-2" d="M1721.4,2709a88.8,88.8,0,0,1-2.1-17.9,128,128,0,0,1,.6-17.5,141.5,141.5,0,0,1,8.1-34.3,116.5,116.5,0,0,1,17.9-30.9,76.1,76.1,0,0,1,28.1-21.2,2.4,2.4,0,0,1,3.2,1.3,2.6,2.6,0,0,1-.1,2.1v.2a153.4,153.4,0,0,0-13.2,28,205.2,205.2,0,0,0-6.4,28.5c-1.2,9.7-2.1,19.4-2.7,29.2-.2,2.5-.4,4.9-.4,7.4s-.3,4.9-.4,7.4c-.4,4.8-.4,10.1-.9,14.3l-.3,1.8a15.9,15.9,0,0,1-17.7,13.9A16.2,16.2,0,0,1,1721.4,2709Z" transform="translate(-543.8 -783.9)"/><path class="cls-2" d="M1856,2758a268,268,0,0,1-29.5-1.7c-81.2-9-143.2-53.8-161.8-116.9-40.9-138.9,121.6-212.3,208.9-251.8l10.4-4.7c58.1-26.3,153.4-102.1,217.4-159a41.1,41.1,0,0,1,58.6,4.5l98.9,118.8a85,85,0,0,1-17,129.6c-71.9,45.1-166.1,114.2-206.8,187.5C2002.5,2722.9,1934.1,2758,1856,2758Zm272.5-512.6a9,9,0,0,0-6,2.3c-23.8,21.1-146.4,128.2-225.3,164.1l-10.5,4.7c-113.7,51.4-222.1,110.2-191.6,213.9,17.9,60.6,81.4,88.5,134.9,94.4,63.4,7,142.8-13.7,177.4-75.9,44-79.2,142.6-151.9,217.6-199a52.6,52.6,0,0,0,24.3-38,53.2,53.2,0,0,0-13.9-43.4l-.6-.7-99.2-119.1h0a9,9,0,0,0-6.4-3.3Z" transform="translate(-543.8 -783.9)"/><path class="cls-3" d="M2499.1,2740.1c-22.1,465.6-390,459.1-556.6,431.8-78.6-12.8-142.2-72.3-157-150.6-1-5.3-1.9-10.6-2.5-15.9-12.4-104.1,46.1-202.7,123.4-200.7,81.8,2,115.1,65.2,115.1,65.2,21.7-29,43.2-52.2,64.3-70.5,172-148.9,318.7,26.3,318.7,26.3l41-103.7,50.1-126.5C2500.1,2648.1,2501.1,2696.2,2499.1,2740.1Z" transform="translate(-543.8 -783.9)"/><path class="cls-2" d="M2035.2,2861.8c1.3,2.3,2.1,3.8,3,5.7l2.4,5.3c1.6,3.5,2.7,7.1,4,10.7a188.6,188.6,0,0,1,5.9,21.7,244.1,244.1,0,0,1,4.9,44.1,252.9,252.9,0,0,1-2.8,43.6c-1.9,14.4-5.7,28.3-9.8,41.9a2.5,2.5,0,0,1-3.1,1.7,2.5,2.5,0,0,1-1.7-2.5v-.2c.3-7,1-13.9,1.1-20.9s.4-13.8-.2-20.7l-.5-10.3-1.1-10.2c-.3-3.4-.9-6.8-1.4-10.1s-.9-6.7-1.7-10.1c-2.5-13.3-6.5-26.1-10.8-38.6-2.2-6.3-4.9-12.3-7.4-18.4-1.3-2.9-2.7-5.9-4.1-8.7a32.9,32.9,0,0,0-2.1-4.2l-1.9-3.6-.5-.9a15.9,15.9,0,0,1,27.8-15.3Z" transform="translate(-543.8 -783.9)"/><ellipse class="cls-4" cx="1903" cy="3036.6" rx="61.6" ry="43.1" transform="translate(-1711.8 4099.8) rotate(-88.9)"/><ellipse class="cls-4" cx="1859.1" cy="2923.8" rx="34.3" ry="24" transform="translate(-1642.1 3945.1) rotate(-88.9)"/><ellipse class="cls-4" cx="1975.2" cy="2946.3" rx="34.3" ry="24" transform="translate(-1550.7 4083.3) rotate(-88.9)"/><ellipse class="cls-4" cx="1919.8" cy="2899.5" rx="34.3" ry="24" transform="matrix(0.02, -1, 1, 0.02, -1558.22, 3981.87)"/><g class="cls-5"><path class="cls-2" d="M2499.1,2740.1c-22.1,465.6-390,459.1-556.6,431.8-78.6-12.8-142.2-72.3-157-150.6-1-5.3-1.9-10.6-2.5-15.9,13.7,19.6,136.8,181,257.6,35.9,0,0,188.8,124.4,45.2-241.9,172-148.9,318.7,26.3,318.7,26.3l41-103.7C2465.9,2728.6,2484.2,2734.8,2499.1,2740.1Z" transform="translate(-543.8 -783.9)"/></g><path class="cls-2" d="M2402.4,2827.4c-29.2-23.7-60.7-43.9-93.9-57.7-16.7-6.8-33.9-11.9-51.4-14.2a175.5,175.5,0,0,0-52.2,1c-17.2,3-33.8,8.7-49.8,16.1l-11.7,6.2c-1.9,1.1-3.9,2-5.8,3.2l-5.6,3.6c-3.7,2.5-7.5,4.8-11.1,7.4l-10.7,8.1c-1.8,1.3-3.7,2.6-5.4,4l-5.1,4.5-10.2,8.9c-6.6,6.1-13,12.6-19.5,19s-12.3,13.5-18.3,20.5-11.6,14.2-17.4,21.4l-.4.4a16,16,0,0,1-22.4,2.3,18,18,0,0,1-4-4.8h0a38.2,38.2,0,0,0-2.5-4l-3.1-4.5c-2.2-2.9-4.6-5.7-7.1-8.5a138.7,138.7,0,0,0-16.5-15.1,119.1,119.1,0,0,0-39.7-19.7,69.1,69.1,0,0,0-10.9-2.6c-3.8-.5-7.4-1.6-11.2-1.6s-7.6-.7-11.2-.8h-5.2l-5.2.5a80.3,80.3,0,0,0-38.5,16.4c-23.4,17.6-39.9,45.6-49.3,75.1s-12,62-8,93.2a172.5,172.5,0,0,0,34.6,84.7,179.1,179.1,0,0,0,73.3,55.1l10.9,4c3.7,1.2,7.5,2.1,11.2,3.2s7.6,1.6,11.3,2.5,7.8,1.5,11.9,2.1c16.3,2.6,32.8,4.4,49.2,6a678,678,0,0,0,98.7,1.8c65.4-3.6,130.6-18.1,187.5-48.7s104.4-77.1,134.8-134.3l5.9-10.6c1.8-3.6,3.4-7.3,5.2-11,3.2-7.4,7-14.6,9.9-22.2l8.5-23,2.1-5.7,1.7-5.9,3.4-11.8,3.4-11.7,1.7-5.9,1.3-6,5.2-24.1c1.9-8,2.8-16.2,4.1-24.3l3.7-24.4c7.6-65.6,6.7-132.4,1.2-198.7h0a15.9,15.9,0,0,1,31.6-2.6c5.6,67.9,6.6,136.7-1.3,205.1l-3.8,25.6c-1.4,8.5-2.3,17.1-4.4,25.5l-5.5,25.4-1.3,6.3-1.8,6.3-3.6,12.5-3.7,12.5-1.8,6.2-2.2,6.1-9.1,24.6c-3.1,8.1-7.1,15.9-10.7,23.9-1.8,3.9-3.6,7.9-5.5,11.9l-6.4,11.4c-33,62-85.5,114-147.6,147s-131.9,48.5-200.7,52.4a726.4,726.4,0,0,1-103.3-1.9c-17.1-1.7-34.2-3.6-51.2-6.3-4.2-.6-8.5-1.2-13-2.2s-9-1.6-13.4-3-8.7-2.4-13.1-3.8l-12.8-4.7a210.5,210.5,0,0,1-86.5-65,204.6,204.6,0,0,1-41-100.2,247.4,247.4,0,0,1,9.2-106.7,211.9,211.9,0,0,1,22.8-49.6c10-15.4,22.3-29.9,37.6-41.4a112.5,112.5,0,0,1,53.6-22.4l7.4-.8h7.4c4.8.1,9.3.6,14,.9s9.2,1.4,13.9,2,9.1,2.1,13.6,3.2a155,155,0,0,1,50.3,25,178.2,178.2,0,0,1,20.8,19c3.1,3.5,6.1,7.1,9,10.9,1.4,1.9,2.8,3.9,4.1,5.9s2.6,3.9,4.2,6.8h0l-26.8-2.1c6-7.8,11.8-15.6,17.9-23.3s12.9-14.8,19.3-22.2,13.9-14.1,21-20.9l11.3-9.8,5.7-4.8,6-4.5,12.1-9c4.1-2.8,8.5-5.3,12.8-8l6.4-4c2.1-1.3,4.5-2.3,6.7-3.5,4.5-2.3,9-4.7,13.6-6.9a217.9,217.9,0,0,1,58.8-16.9c40.8-5.9,82.7,3,118.3,20.7a234.1,234.1,0,0,1,49.1,32.9c14.8,13,28.1,27.3,38.7,43.8a2.8,2.8,0,0,1-.8,3.7,2.7,2.7,0,0,1-3.1-.2Z" transform="translate(-543.8 -783.9)"/><path class="cls-3" d="M3035.5,2594.1c.1,1.6.2,3.2.2,4.8,23.7,591.9-396.7,578.8-396.7,578.8-160.1,0-276.2-29.3-359.5-76.5h-.1a404.3,404.3,0,0,1-58.1-40.1c-89.5-74.3-125.7-175.4-135.6-276.1a8.8,8.8,0,0,1-.2-1.6c-1.7-17.9-2.6-35.9-2.8-53.6-1.7-142.1,40.1-273.1,47.1-314.6,18.9-111.3,0-183.3,0-183.3,155.1,77,421.2,51.8,654.2-6.9,189.3-47.8,356.8-117.9,424.6-173.2,69.7-56.8,126.9-70.7,168.3-69.2s78.6,29.5,93.1,68.3a105.9,105.9,0,0,1,5.7,21.8C3512,2315.9,3035.5,2594.1,3035.5,2594.1Z" transform="translate(-543.8 -783.9)"/><path class="cls-4" d="M2857.3,2517.8c0,281.9-181.6,510.5-405.6,510.5-163.9,0-305.1-122.4-369-298.5-1.7-142.1,40.1-273.1,47.1-314.6,18.9-111.3,0-183.3,0-183.3,155.1,77,421.2,51.8,654.2-6.9C2830.2,2307.8,2857.3,2408.8,2857.3,2517.8Z" transform="translate(-543.8 -783.9)"/><path class="cls-2" d="M3043.1,2608a135.1,135.1,0,0,1-20.4,6.6c-3.6.8-7.2,1.6-10.8,2.2s-7.4,1.2-11.3,1.5a5,5,0,0,1-5.3-4.7,4.9,4.9,0,0,1,1-3.4,103.2,103.2,0,0,1,7.3-8.6c2.5-2.8,5.1-5.3,7.7-7.8a126.6,126.6,0,0,1,16.7-13.7,15.9,15.9,0,0,1,17.5,26.6Z" transform="translate(-543.8 -783.9)"/><g class="cls-5"><path class="cls-2" d="M3035.5,2594.1c.1,1.6.2,3.2.2,4.8-16.5,3.5-27.9,7.8-33.1,13.1,0,0-120.3,69.3-54.3,263.5,0,0-156.7,407.7-668.8,225.7h-.1c-1.9-1-26.7-12.7-58.1-40.1-50.8-44.2-118.9-129.5-135.6-276.1a8.8,8.8,0,0,1-.2-1.7h0c4.6,5.9,274.5,348.9,629.3,15.8,0,0,138.9-143.6,89.1-487.5,0,0,89.7-30.6,156.3-94.5,0,0,12.3,34.3,27.2,84.9,33.3,112.3,170.8,155.2,260.8,80.2,93.6-78,189.5-188.9,221.8-331.4a105.9,105.9,0,0,1,5.7,21.8C3512,2315.9,3035.5,2594.1,3035.5,2594.1Z" transform="translate(-543.8 -783.9)"/></g><ellipse class="cls-4" cx="3306.3" cy="2189" rx="61.6" ry="43.1" transform="translate(-870.2 2994.8) rotate(-57.1)"/><ellipse class="cls-4" cx="3328.5" cy="2070" rx="34.3" ry="24" transform="translate(-760.1 2959) rotate(-57.1)"/><ellipse class="cls-4" cx="3415.2" cy="2150.3" rx="34.3" ry="24" transform="translate(-787.9 3068.6) rotate(-57.1)"/><ellipse class="cls-4" cx="3392.8" cy="2081.3" rx="34.3" ry="24" transform="translate(-740.1 3018.2) rotate(-57.1)"/><g class="cls-5"><path class="cls-2" d="M2136.6,2277.9s90,165.1,420,142.2S3009.7,2189,3009.7,2189,2631.8,2509.3,2136.6,2277.9Z" transform="translate(-543.8 -783.9)"/></g><path class="cls-2" d="M2641.7,3193.6h-3.2c-227.5.1-389.9-59.3-482.1-176.2-143.2-181.8-78.6-450.7-51-565.5,4.1-17.1,7.3-30.6,8.8-39.3,17.9-106.1.5-175.9.3-176.6a15.9,15.9,0,0,1,22.4-18.2c162.3,80.6,431.6,39.1,577.7,7.3,203-44.3,406.6-122.3,484-185.5,61.8-50.4,122-74.8,178.9-72.7s105.3,45.7,113.9,103.6c35.2,235.8-373.8,492.7-439.6,532.5,7.7,211.7-39.8,371.2-141.4,474C2800.2,3188.6,2664.9,3193.6,2641.7,3193.6Zm-491.1-935.2c4,32.1,7,87.8-5.1,159.4-1.7,9.8-5,23.7-9.3,41.4-26.5,110.3-88.6,368.8,45.1,538.4,85.9,109,239.9,164.2,457.7,164.2,1.8,0,140.8,2.6,249.3-107.6,96.3-97.9,140.5-252.4,131.4-459.4a15.8,15.8,0,0,1,7.8-14.4c4.7-2.8,466.8-275.5,432.5-505.3-6.4-42.8-41.6-75.1-83.7-76.6-49.1-1.8-102,20.2-157.6,65.6-82.2,67-286.7,145.9-497.4,191.9C2579.1,2287,2322.5,2326.6,2150.6,2258.4Z" transform="translate(-543.8 -783.9)"/><path class="cls-3" d="M2359.3,1181.3s-324.8,50.6-512,453.5c0,0-15.3-63.1-22.3-163.5-10.7-150.9-2.8-385.9,103.4-617.7a92.8,92.8,0,0,1,120.8-46.5C2151.2,850.6,2315.9,954.6,2359.3,1181.3Z" transform="translate(-543.8 -783.9)"/><g class="cls-5"><path class="cls-2" d="M2359.3,1181.3s-324.8,50.6-512,453.5c0,0-15.3-63.1-22.3-163.5,51.2-88.9,153.8-234.6,315.2-328.3,62.5-36.2,83-117.3,42.7-177.3-39.1-58.3-100.4-123-193.5-163.1a92.4,92.4,0,0,1,59.8,4.5C2151.2,850.6,2315.9,954.6,2359.3,1181.3Z" transform="translate(-543.8 -783.9)"/></g><g class="cls-6"><path class="cls-4" d="M1861.2,1471.3c-10.6-150.9-2.7-385.9,103.5-617.7a92.5,92.5,0,0,1,61-51l5.2-1.1a92.6,92.6,0,0,0-102.5,52.1c-106.2,231.8-114.1,466.8-103.4,617.7,7,100.4,22.3,163.5,22.3,163.5,8.5-18.3,17.3-35.8,26.4-52.7C1869.3,1554.4,1864.4,1516.6,1861.2,1471.3Z" transform="translate(-543.8 -783.9)"/></g><path class="cls-2" d="M1847.4,1650.7h-1.6a15.9,15.9,0,0,1-13.9-12c-1-4.1-24.4-102.3-26.2-249.4-1.7-135.8,15.7-340.1,108.3-542.2,24.3-53,87.7-77.4,141.4-54.5,99.9,42.6,274.3,149.5,319.5,385.8a15.8,15.8,0,0,1-2.6,12.1,16.3,16.3,0,0,1-10.5,6.6c-.8.1-80.5,13.3-181.5,74.4-93.1,56.4-223.9,166.4-318.6,370.1A15.7,15.7,0,0,1,1847.4,1650.7Zm165.7-835.1c-29.3,0-57.5,16.7-70.3,44.6-137.9,301-107.1,610.8-88.7,725,96.1-184.5,220.7-287.3,311.2-341.8,79.7-48,145.9-67.5,175.3-74.4-46.9-211.3-205.7-308.1-297.7-347.3A74.6,74.6,0,0,0,2013.1,815.6Z" transform="translate(-543.8 -783.9)"/><path class="cls-4" d="M1928.8,1491.4s-24.9-474.2,101.3-561.6c0,0,108.7,52.1,199,297C2229.1,1226.8,2076,1289.8,1928.8,1491.4Z" transform="translate(-543.8 -783.9)"/><g class="cls-5"><path class="cls-2" d="M2073.6,1028c32.7,27.8,87.5,87.6,140.6,205.8,9.6-4.8,14.9-7,14.9-7-90.3-244.9-199-297-199-297-126.2,87.4-101.3,561.6-101.3,561.6,3.8-5.3,7.7-10.4,11.6-15.5-.1-126.5,9.7-348,75.4-440.5A39.5,39.5,0,0,1,2073.6,1028Z" transform="translate(-543.8 -783.9)"/></g><path class="cls-2" d="M1928.8,1507.3a17.7,17.7,0,0,1-4.6-.7,16,16,0,0,1-11.3-14.4c-1-19.7-23.8-484.1,108.2-575.4a15.7,15.7,0,0,1,15.9-1.3c4.7,2.2,115.5,57.8,207,305.8a15.7,15.7,0,0,1-8.8,20.1c-1.5.7-151.2,64.2-293.6,259.4A16.2,16.2,0,0,1,1928.8,1507.3ZM2031.4,949c-80.9,72.2-91.8,350.6-88.4,497.6,115.1-144.9,227.4-208.8,266.1-228C2137.4,1031.5,2056.8,965.9,2031.4,949Z" transform="translate(-543.8 -783.9)"/><path class="cls-2" d="M2021.2,942.9a68.9,68.9,0,0,1-6.6-5.7c-2.2-2.2-4.3-4.3-6.4-6.7a79,79,0,0,1-11.8-16h0a4.6,4.6,0,0,1,1.8-6.2,4.4,4.4,0,0,1,1.5-.5c7.6-1.1,14.5,0,20.9,1.6,3.3.9,6.4,1.9,9.5,3a57.5,57.5,0,0,1,9,4.4,15.9,15.9,0,0,1-17.1,26.8l-.7-.5Z" transform="translate(-543.8 -783.9)"/><path class="cls-3" d="M2653.9,1181.3s324.7,50.6,511.9,453.5c0,0,15.3-63.1,22.4-163.5,10.7-150.9,2.7-385.9-103.4-617.7A92.8,92.8,0,0,0,2964,807.1C2862,850.6,2697.2,954.6,2653.9,1181.3Z" transform="translate(-543.8 -783.9)"/><g class="cls-5"><path class="cls-2" d="M2653.9,1181.3s324.7,50.6,511.9,453.5c0,0,15.3-63.1,22.4-163.5-51.3-88.9-153.8-234.6-315.3-328.3-62.5-36.2-82.9-117.3-42.6-177.3,39.1-58.3,100.4-123,193.5-163.1a92.4,92.4,0,0,0-59.8,4.5C2862,850.6,2697.2,954.6,2653.9,1181.3Z" transform="translate(-543.8 -783.9)"/></g><g class="cls-6"><path class="cls-4" d="M3152,1471.3c10.6-150.9,2.7-385.9-103.5-617.7a92.5,92.5,0,0,0-61-51l-5.2-1.1a92.6,92.6,0,0,1,102.5,52.1c106.1,231.8,114.1,466.8,103.4,617.7-7.1,100.4-22.4,163.5-22.4,163.5-8.5-18.3-17.3-35.8-26.3-52.7C3143.9,1554.4,3148.8,1516.6,3152,1471.3Z" transform="translate(-543.8 -783.9)"/></g><path class="cls-2" d="M3165.8,1650.7a15.9,15.9,0,0,1-14.4-9.2c-94.6-203.7-225.5-313.7-318.5-370.1-101-61.1-180.7-74.3-181.5-74.4a16.3,16.3,0,0,1-10.5-6.6,15.8,15.8,0,0,1-2.6-12.1c45.2-236.3,219.6-343.2,319.5-385.8,53.7-22.9,117.1,1.5,141.4,54.5,92.6,202.1,110,406.4,108.3,542.2-1.9,147.1-25.3,245.3-26.3,249.4a15.6,15.6,0,0,1-13.8,12ZM2672.6,1169c29.4,6.9,95.5,26.4,175.2,74.4,90.6,54.5,215.1,157.3,311.3,341.8,18.3-114.4,49-424.3-88.8-725-17.1-37.5-62-54.8-100.1-38.5C2878.3,860.9,2719.5,957.7,2672.6,1169Z" transform="translate(-543.8 -783.9)"/><path class="cls-4" d="M3084.4,1491.4s24.9-474.2-101.4-561.6c0,0-108.6,52.1-199,297C2784,1226.8,2937.2,1289.8,3084.4,1491.4Z" transform="translate(-543.8 -783.9)"/><g class="cls-5"><path class="cls-2" d="M2939.6,1028c-32.7,27.8-87.5,87.6-140.6,205.8-9.6-4.8-15-7-15-7,90.4-244.9,199-297,199-297,126.3,87.4,101.4,561.6,101.4,561.6-3.8-5.3-7.7-10.4-11.6-15.5.1-126.5-9.8-348-75.4-440.5A39.5,39.5,0,0,0,2939.6,1028Z" transform="translate(-543.8 -783.9)"/></g><path class="cls-2" d="M3084.4,1507.3a15.9,15.9,0,0,1-12.8-6.5c-142.5-195.2-292.1-258.7-293.6-259.4a15.7,15.7,0,0,1-8.8-20.1c91.5-248,202.3-303.6,207-305.8a15.7,15.7,0,0,1,15.9,1.3c132,91.3,109.2,555.7,108.2,575.4a15.9,15.9,0,0,1-11.4,14.4A17.6,17.6,0,0,1,3084.4,1507.3Zm-280.3-288.7c38.7,19.2,151,83.1,266.1,228,3.4-146.9-7.5-425.2-88.3-497.5C2956.4,966.3,2875.3,1032.8,2804.1,1218.6Z" transform="translate(-543.8 -783.9)"/><path class="cls-2" d="M2974.1,916.7a61.2,61.2,0,0,1,8.9-4.4c3.1-1.1,6.3-2.1,9.5-3,6.5-1.6,13.3-2.7,20.9-1.6a4.6,4.6,0,0,1,3.9,5.2,8.8,8.8,0,0,1-.5,1.5h-.1a75.2,75.2,0,0,1-11.7,16c-2.1,2.4-4.2,4.5-6.4,6.7a83.8,83.8,0,0,1-6.6,5.7h-.1a15.9,15.9,0,0,1-18.6-25.7Z" transform="translate(-543.8 -783.9)"/><path class="cls-3" d="M3254,1983.4c-93.2,176.7-274.8,214.6-274.8,214.6-157.4,172.8-472.6,167-472.6,167s-315.3,5.8-472.6-167c0,0-181.6-37.9-274.8-214.6,0,0,5.5-26.5,47-40.7,0,0-48.4-37.5-51.3-126.3,0,0,47.6-10.6,68.5-79.7,1-3.4,1.9-6.9,2.8-10.6,19-78.7,96.5-617.6,680.4-617.6s661.4,538.9,680.3,617.6,71.4,90.3,71.4,90.3c-2.9,88.8-51.3,126.3-51.3,126.3C3248.5,1956.9,3254,1983.4,3254,1983.4Z" transform="translate(-543.8 -783.9)"/><path class="cls-4" d="M3254,1983.4c-93.2,176.7-274.8,214.6-274.8,214.6-157.4,172.8-472.6,167-472.6,167s-315.3,5.8-472.6-167c0,0-181.6-37.9-274.8-214.6,0,0,5.5-26.5,47-40.7,0,0-48.4-37.5-51.3-126.3a51,51,0,0,0,7.5-2.7c14.3-6.1,45.2-24.9,61-77,4.5-2.1,151.5-70.5,344.6,76.7C2364.2,1963,2416,1963,2506.6,1963s142.4,0,338.5-149.6c193.2-147.2,340.2-78.8,344.7-76.7,20.9,69.1,68.5,79.7,68.5,79.7-2.9,88.8-51.3,126.3-51.3,126.3C3248.5,1956.9,3254,1983.4,3254,1983.4Z" transform="translate(-543.8 -783.9)"/><path class="cls-4" d="M2247.4,1684.7c-17.6-10.5-43-24.1-66.8-31.1a29.2,29.2,0,0,1-21.3-28.3c.2-18.2,6.6-40.4,35.9-42.6,42.9-3.3,79.5,34,78.8,87C2273.8,1683.3,2259,1691.7,2247.4,1684.7Z" transform="translate(-543.8 -783.9)"/><path class="cls-4" d="M2765.8,1684.7c17.6-10.5,43-24.1,66.8-31.1a29.2,29.2,0,0,0,21.3-28.3c-.2-18.2-6.7-40.4-35.9-42.6-42.9-3.3-79.5,34-78.8,87A17.6,17.6,0,0,0,2765.8,1684.7Z" transform="translate(-543.8 -783.9)"/><g class="cls-6"><path class="cls-4" d="M3186.9,1726.1c-18.9-78.7-96.4-617.6-680.3-617.6s-661.4,538.9-680.4,617.6c-.9,3.7-1.8,7.2-2.8,10.6-20.9,69.1-68.5,79.7-68.5,79.7a218.6,218.6,0,0,0,4.6,39.3c12.5-4.7,46.9-22.2,63.9-78.2,1-3.4,1.9-6.9,2.8-10.7,15.9-66,73.2-456.7,437.1-580.2,10.8,13.5,55.2,17.7,106.3,9.1,53.3-9,95.1-28.7,98-45.5,12.8-.6,25.7-1,39-1,583.9,0,661.4,539,680.3,617.6,15.6,64.5,53.6,83.9,66.8,88.9a228,228,0,0,0,4.6-39.3S3205.9,1804.7,3186.9,1726.1Z" transform="translate(-543.8 -783.9)"/></g><g class="cls-5"><path class="cls-2" d="M2506.3,2074.2s-51.6,75-135.3,0c0,0,23.1,99,135.3,61.1,112.3,37.9,135.4-61.1,135.4-61.1C2558,2149.2,2506.3,2074.2,2506.3,2074.2Z" transform="translate(-543.8 -783.9)"/></g><g class="cls-5"><path class="cls-2" d="M3207,1942.7s48.4-37.5,51.3-126.3a51,51,0,0,1-7.5-2.7c-23.8,38.4-42.9,99-130.4,123.5,0,0,20.3,36.4,72.4,53.9,0,0-52.6,52.1-114.1,36.7-13.4-3.3-27.4,1.3-35.6,12.4-44.2,60-199.5,230.5-536.5,230.5s-492.3-170.5-536.6-230.5c-8.1-11.1-22.2-15.7-35.5-12.4-61.5,15.4-114.1-36.7-114.1-36.7,52-17.5,72.3-53.9,72.3-53.9-87.4-24.5-106.6-85.1-130.3-123.5a51,51,0,0,1-7.5,2.7c2.9,88.8,51.3,126.3,51.3,126.3-41.5,14.2-47,40.7-47,40.7C1852.4,2160.1,2034,2198,2034,2198c157.3,172.8,472.6,167,472.6,167s315.2,5.8,472.6-167c0,0,181.6-37.9,274.8-214.6C3254,1983.4,3248.5,1956.9,3207,1942.7Z" transform="translate(-543.8 -783.9)"/></g><path class="cls-2" d="M3053.1,1774.3a12.5,12.5,0,0,0-6.4-10.1c-22.3-12.2-45.7-20.5-67.5-26.1a267.5,267.5,0,0,1-40.7-14.8c-148.1-65.7-259.8-16.2-313.5,19.4a31.1,31.1,0,0,1-31.3,1.8c-62.3-31.4-130.2-18.1-168.5-5.8a31.1,31.1,0,0,1-27.6-4.2c-47.9-33.7-162.5-92.3-315.7-25.4-18.8,8.3-37.9,16-57.5,22a287.5,287.5,0,0,0-59.4,25.2,12.7,12.7,0,0,0-6.2,10.1l-2.6,40.5a12.7,12.7,0,0,0,8.6,12.8c9.8,3.2,26.9,10.8,47.8,28.1,1.2,37.4,9.4,79.4,33.5,116,32.5,49.2,86.5,78.2,160.7,86.3,4.8.5,9.5,1,14.2,1.2,63.8,4.1,114.4-12.8,150.6-50.4,58.4-60.8,61.5-158.5,59-206.7,27.4-10.4,97.1-30.6,151.8,6.4-2.6,43.2-1.8,151.4,62.3,215.7,36.9,36.9,87.8,52.9,151.5,47.7l14.2-1.5c74-9.5,127.5-39.5,159-89.3,23.4-37,30.9-79.2,31.5-116.6,20.5-17.7,37.4-25.6,47.2-29a12.5,12.5,0,0,0,8.3-12.9Zm-710.9,198.5c-29.6,30.7-73.7,43.2-131,36.9-61.6-6.7-105.7-29.7-131.1-68.3-35.8-54.3-28.1-127.1-21.2-162.9a30.7,30.7,0,0,1,16-21.1c156.2-80.7,266.9-15.3,304.6,13.8a25.6,25.6,0,0,1,10,18.7C2392.1,1828.8,2392.3,1920.8,2342.2,1972.8Zm592.9-21.4c-24.7,39.1-68.4,62.9-129.8,70.7-57.2,7.4-101.5-4.3-131.7-34.5-51-51-52.6-143-50.7-181.9a25.9,25.9,0,0,1,9.6-18.9c37.2-29.8,146.7-97.3,304.3-19.4a30.1,30.1,0,0,1,16.4,20.8C2960.8,1823.8,2969.9,1896.5,2935.1,1951.4Z" transform="translate(-543.8 -783.9)"/><path class="cls-2" d="M2511.8,2380.9h-5.2c-16.8.2-320.7,2.7-480.9-168.6-31.4-7.7-192.6-54.8-280.5-221.5a15.6,15.6,0,0,1-1.5-10.6c.6-3,6.2-25.6,35.7-42.8-16.2-20.5-38.4-59.4-40.4-120.5a15.8,15.8,0,0,1,12.4-16c1.6-.4,43.2-11.5,59.4-78.6,1.1-4.5,2.4-10.6,3.9-18,13.6-64,45.3-214,144.5-351.2,124.8-172.9,308.9-260.5,547.4-260.5s422.6,87.6,547.4,260.5c99.1,137.2,130.9,287.2,144.4,351.2,1.6,7.4,2.9,13.5,4,18,16.1,67.1,57.8,78.2,59.6,78.6a16.2,16.2,0,0,1,12.2,16c-2,61.1-24.2,100-40.4,120.5,29.5,17.2,35.1,39.8,35.7,42.8a16.3,16.3,0,0,1-1.5,10.6c-87.9,166.7-249.1,213.8-280.5,221.5C2836,2374.3,2555.8,2380.9,2511.8,2380.9Zm-5.2-31.8h2.7c29.2,0,314.7-4.2,458.1-161.8a16,16,0,0,1,8.5-4.9c1.7-.3,171.2-37.8,260.6-200-3.5-6-12.5-17.1-34.6-24.7a15.8,15.8,0,0,1-4.6-27.5c1.6-1.3,38.7-31.7,44.5-103.1-19.4-9.1-55-34-70.3-97.3-1.1-4.8-2.5-11.2-4.1-18.9-82.4-389.2-304.7-586.6-660.8-586.6s-578.4,197.4-660.8,586.5c-1.7,7.8-3,14.2-4.2,19-15.2,63.3-50.9,88.2-70.3,97.3,5.9,71.4,43,101.8,44.7,103.1a16.1,16.1,0,0,1,5.8,15.2,15.9,15.9,0,0,1-10.5,12.3c-22,7.5-31.1,18.5-34.6,24.7,89.4,162.3,258.8,199.7,260.6,200a15.7,15.7,0,0,1,8.4,4.9c150.6,165.4,457.5,162,460.6,161.8Z" transform="translate(-543.8 -783.9)"/><path class="cls-2" d="M2023.4,2209.8a174.6,174.6,0,0,1-21.2-23.1,228.9,228.9,0,0,1-17.2-25.6,190.5,190.5,0,0,1-13.3-27.7,127.9,127.9,0,0,1-7.6-29.8,2.3,2.3,0,0,1,1.9-2.6,1.9,1.9,0,0,1,1.9.8h.1c6.9,7.6,12.8,15.3,19.2,22.6,3,3.7,6.4,7.2,9.3,10.9s6.2,7.3,9.4,10.7c6.4,7.1,12.8,14,19.4,20.7s13.3,13.5,19.3,19.5l.5.5a15.9,15.9,0,0,1-21.7,23.1Z" transform="translate(-543.8 -783.9)"/><path class="cls-2" d="M2968.6,2186.2c5.9-6,12.9-12.9,19.3-19.5s13-13.6,19.3-20.7c3.3-3.4,6.2-7.1,9.5-10.7s6.3-7.2,9.2-10.9c6.5-7.3,12.4-15,19.3-22.6h0a2.2,2.2,0,0,1,3.2-.2,2.5,2.5,0,0,1,.7,2,133.1,133.1,0,0,1-7.6,29.8,181.2,181.2,0,0,1-13.4,27.7,228.1,228.1,0,0,1-17.1,25.6,174.6,174.6,0,0,1-21.2,23.1,15.9,15.9,0,0,1-21.8-23.1Z" transform="translate(-543.8 -783.9)"/><path class="cls-2" d="M2506.6,1946.5s-34-.4-56,8a15,15,0,0,0-9.4,16.7c3.5,20.1,16.7,60.2,65.4,60.2s61.8-40.1,65.4-60.2a15.1,15.1,0,0,0-9.5-16.7C2540.5,1946.1,2506.6,1946.5,2506.6,1946.5Z" transform="translate(-543.8 -783.9)"/><path class="cls-2" d="M2518.8,2064l2.3,2.5,2.9,2.8c1.9,1.8,4,3.6,6.1,5.3a107.6,107.6,0,0,0,13.2,9.2,73.1,73.1,0,0,0,29.4,9.8,72,72,0,0,0,31.9-4.9c10.7-4,21.4-10,31.8-17.1h0a3.7,3.7,0,0,1,5.1,1,3.6,3.6,0,0,1,.1,4.1,103.9,103.9,0,0,1-28.2,28.7,79.5,79.5,0,0,1-19.1,9.6,74.1,74.1,0,0,1-21.6,4.4,88.2,88.2,0,0,1-43.3-8.7,109.3,109.3,0,0,1-18.6-11.2q-4.4-3.3-8.4-6.9l-3.9-3.8c-1.4-1.4-2.4-2.5-4.1-4.5a15.7,15.7,0,0,1,1.9-22.3,15.9,15.9,0,0,1,22,1.4Z" transform="translate(-543.8 -783.9)"/><path class="cls-2" d="M2518.8,2084.3c-1.7,2-2.7,3.1-4.1,4.5s-2.6,2.6-4,3.8-5.5,4.7-8.3,6.9a109.3,109.3,0,0,1-18.6,11.2,88.2,88.2,0,0,1-43.3,8.7,75.5,75.5,0,0,1-21.7-4.4,78.9,78.9,0,0,1-19-9.6,103.9,103.9,0,0,1-28.2-28.7,3.7,3.7,0,0,1,1-5.1,3.8,3.8,0,0,1,4.2,0h0c10.4,7.1,21,13.1,31.8,17.1a72,72,0,0,0,31.9,4.9,73.1,73.1,0,0,0,29.4-9.8,115.8,115.8,0,0,0,13.2-9.2c2.1-1.7,4.2-3.5,6.1-5.3l2.8-2.8,2.4-2.5.5-.5a15.8,15.8,0,0,1,23.9,20.8Z" transform="translate(-543.8 -783.9)"/><path class="cls-2" d="M2340.8,1935.5c-19.1-11.7-37.7-23.2-56-34s-36.6-21.3-54.8-30.8c-9-5-18.4-9.3-27.4-14s-18.3-8.8-27.6-12.6c-18.3-8.6-37-15.3-55.3-23.6l-1.9-.8a34,34,0,0,1,22.2-64,271.4,271.4,0,0,1,66,25.6c10.5,5.3,20.3,11.8,30.2,18.2,4.8,3.3,9.5,6.8,14.1,10.3,2.4,1.7,4.8,3.4,7,5.3l6.7,5.6a315.8,315.8,0,0,1,48.4,49.7c14.2,18.2,26.7,37.7,35.2,59.8a4.5,4.5,0,0,1-2.5,5.8,4.7,4.7,0,0,1-4-.3Z" transform="translate(-543.8 -783.9)"/><path class="cls-2" d="M2665.5,1930.2c8.6-22.1,21-41.6,35.2-59.8a321,321,0,0,1,48.5-49.7l6.7-5.6c2.2-1.9,4.6-3.6,6.9-5.3,4.7-3.5,9.4-7,14.2-10.3,9.9-6.4,19.7-12.9,30.2-18.2a271.4,271.4,0,0,1,66-25.6,34,34,0,0,1,22.2,64l-1.9.8c-18.4,8.3-37.1,15-55.3,23.6-9.4,3.8-18.3,8.5-27.6,12.6s-18.4,9-27.4,14c-18.3,9.5-36.4,19.9-54.8,30.8s-36.9,22.3-56,34h-.3a4.5,4.5,0,0,1-6.2-1.4A4.8,4.8,0,0,1,2665.5,1930.2Z" transform="translate(-543.8 -783.9)"/><path class="cls-3" d="M3016.6,2840.4c-40,417.9-372.2,408.7-533,382.4-69.3-11.3-127-58.9-149.7-123.7a172,172,0,0,1-7.3-26.9c-20.8-109.7,39.7-218.7,120.9-216.6s115.2,65.2,115.2,65.2c197.9-265.1,382.8-44.2,382.8-44.2l70.4-227.5C3022.1,2721.1,3022,2784.6,3016.6,2840.4Z" transform="translate(-543.8 -783.9)"/><g class="cls-5"><path class="cls-2" d="M2581.5,3085.2s72.2-53.7,15.5-213c0,0-15.3,27.3-40.4,44.8C2556.6,2917,2595.4,2964.4,2581.5,3085.2Z" transform="translate(-543.8 -783.9)"/></g><g class="cls-5"><path class="cls-2" d="M3016.6,2840.4c-40,417.9-372.2,408.7-533,382.4-69.3-11.3-127-58.9-149.7-123.7,12.5,19.6,85.4,118.6,233.2,30.3a60.1,60.1,0,0,1,43.2-7.5C2686.4,3137.9,2933.8,3163,3016.6,2840.4Z" transform="translate(-543.8 -783.9)"/></g><path class="cls-2" d="M2576.3,2912.7a51.4,51.4,0,0,1,2.9,5.7c.9,1.8,1.7,3.6,2.4,5.3,1.7,3.6,2.8,7.2,4.1,10.7a166.8,166.8,0,0,1,5.8,21.8,235.5,235.5,0,0,1,5,44,252.9,252.9,0,0,1-2.8,43.6c-2,14.4-5.7,28.3-9.8,41.9a2.5,2.5,0,0,1-3.1,1.7,2.7,2.7,0,0,1-1.8-2.5v-.2c.4-7,1.1-13.9,1.2-20.9s.3-13.8-.2-20.7l-.5-10.3-1.1-10.2c-.3-3.4-.9-6.8-1.4-10.1s-1-6.7-1.7-10c-2.5-13.4-6.5-26.2-10.8-38.7-2.2-6.3-4.9-12.3-7.4-18.3-1.3-3-2.7-6-4.1-8.8a32.9,32.9,0,0,0-2.1-4.2l-1.9-3.6-.5-.9a15.9,15.9,0,0,1,27.8-15.3Z" transform="translate(-543.8 -783.9)"/><ellipse class="cls-4" cx="2444.1" cy="3087.5" rx="61.6" ry="43.1" transform="translate(-1231.5 4690.7) rotate(-88.9)"/><ellipse class="cls-4" cx="2400.2" cy="2974.7" rx="34.3" ry="24" transform="translate(-1161.8 4536.1) rotate(-88.9)"/><ellipse class="cls-4" cx="2516.3" cy="2997.2" rx="34.3" ry="24" transform="translate(-1070.4 4674.3) rotate(-88.9)"/><ellipse class="cls-4" cx="2460.9" cy="2950.4" rx="34.3" ry="24" transform="translate(-1077.9 4572.8) rotate(-88.9)"/><path class="cls-2" d="M2943.5,2878.3c-29.2-23.7-60.7-43.9-94-57.7-16.6-6.8-33.8-11.9-51.3-14.2a175.5,175.5,0,0,0-52.2,1c-17.2,3-33.8,8.7-49.8,16.1l-11.7,6.2c-1.9,1.1-3.9,2-5.8,3.2l-5.6,3.7c-3.7,2.4-7.5,4.7-11.1,7.3l-10.8,8.1c-1.7,1.3-3.6,2.6-5.3,4l-5.1,4.5-10.2,8.9c-6.6,6.2-13,12.6-19.5,19s-12.3,13.6-18.3,20.5-11.6,14.2-17.5,21.4l-.3.4a16,16,0,0,1-22.4,2.3,18,18,0,0,1-4-4.8h0c-.4-.8-1.6-2.6-2.5-4s-2-3-3.1-4.4c-2.2-3-4.7-5.8-7.1-8.6a138.7,138.7,0,0,0-16.5-15.1,119.1,119.1,0,0,0-39.7-19.7,86.1,86.1,0,0,0-10.9-2.6c-3.8-.5-7.4-1.6-11.2-1.6s-7.6-.7-11.2-.8h-5.2l-5.2.5a81.3,81.3,0,0,0-38.5,16.4c-23.4,17.6-39.9,45.6-49.3,75.2s-12,61.9-8,93.1a172.5,172.5,0,0,0,34.6,84.7,179.1,179.1,0,0,0,73.3,55.1l10.9,4c3.7,1.2,7.5,2.1,11.2,3.2s7.5,1.6,11.3,2.5,7.8,1.5,11.9,2.1c16.3,2.6,32.7,4.4,49.2,6a678,678,0,0,0,98.7,1.8c65.4-3.6,130.6-18.1,187.5-48.7a327.9,327.9,0,0,0,134.8-134.3l5.9-10.6c1.8-3.6,3.4-7.3,5.2-11,3.2-7.4,7-14.6,9.9-22.2l8.4-23,2.2-5.7,1.7-5.9,3.4-11.7,3.4-11.8,1.7-5.9,1.3-6,5.2-24.1c1.9-8,2.8-16.2,4.1-24.3l3.7-24.4c7.5-65.6,6.7-132.4,1.2-198.7h0a15.9,15.9,0,0,1,31.6-2.6c5.6,67.9,6.6,136.7-1.3,205.1l-3.8,25.6c-1.4,8.5-2.4,17.1-4.4,25.5l-5.5,25.4-1.4,6.3-1.7,6.3-3.7,12.5-3.6,12.5-1.8,6.2-2.3,6.2-9,24.5c-3.1,8.1-7.2,15.9-10.7,23.9-1.8,3.9-3.6,7.9-5.5,11.9l-6.5,11.4c-32.9,62-85.5,114-147.5,147s-131.9,48.5-200.7,52.4a726.1,726.1,0,0,1-103.3-1.9c-17.2-1.7-34.3-3.6-51.2-6.3-4.2-.6-8.5-1.2-13-2.2s-9-1.6-13.4-3-8.8-2.4-13.1-3.8l-12.8-4.7a210.5,210.5,0,0,1-86.5-65,204.8,204.8,0,0,1-41.1-100.2A247.5,247.5,0,0,1,2318,2954a209.3,209.3,0,0,1,22.8-49.5c10-15.5,22.3-30,37.6-41.5a112.5,112.5,0,0,1,53.6-22.4l7.4-.8h7.4c4.8.2,9.3.6,14,.9s9.2,1.4,13.8,2a124.3,124.3,0,0,1,13.7,3.3,151.1,151.1,0,0,1,50.3,25,161.2,161.2,0,0,1,20.7,18.9c3.2,3.6,6.2,7.1,9.1,10.9,1.4,1.9,2.8,3.9,4.1,5.9s2.6,3.9,4.2,6.8h0l-26.8-2.1c6-7.8,11.8-15.6,17.9-23.3s12.9-14.8,19.3-22.2,13.8-14.1,21-20.9l11.3-9.7,5.7-4.9c1.9-1.6,4-3,6-4.5l12.1-8.9c4.1-2.9,8.5-5.4,12.7-8.1l6.5-4c2.1-1.3,4.5-2.3,6.7-3.5,4.5-2.3,9-4.7,13.6-6.9a216.8,216.8,0,0,1,58.8-16.9c40.8-5.9,82.7,3,118.2,20.7a236.1,236.1,0,0,1,49.2,32.9c14.7,13,28.1,27.3,38.7,43.8a2.8,2.8,0,0,1-.8,3.7,2.7,2.7,0,0,1-3.1-.2Z" transform="translate(-543.8 -783.9)"/><path class="cls-7" d="M1946.3,3177.3,1779.2,2402a107.7,107.7,0,0,0-105.3-85H630.8c-46,0-79.9,43-69.1,87.7l186.1,772.6Z" transform="translate(-543.8 -783.9)"/><path class="cls-2" d="M1193.5,2789.4c-66.8-4.9-178.7,147.8,7.8,139.2S1281.3,2795.9,1193.5,2789.4Z" transform="translate(-543.8 -783.9)"/><circle class="cls-2" cx="1077.3" cy="2768.4" r="42.4" transform="translate(-2371.8 2604.5) rotate(-80.8)"/><circle class="cls-2" cx="755.2" cy="1978.6" r="42.4"/><circle class="cls-2" cx="1178.2" cy="2700.6" r="54.3" transform="translate(-2264.7 2442.9) rotate(-76.7)"/><g class="cls-5"><path class="cls-2" d="M1723.2,2340.9a94,94,0,0,0-4.1-14h0a107.1,107.1,0,0,0-45.2-9.9h-21.6c163.6,641.2-.6,773.7-624.8,773.7H727l6.1,25.5H1890.3Z" transform="translate(-543.8 -783.9)"/></g><g class="cls-6"><path class="cls-4" d="M1763.5,2364.9a107.8,107.8,0,0,0-89.6-47.9H630.8c-46,0-79.9,43-69.1,87.7l186.1,772.6h41.1l-186.2-773a37.8,37.8,0,0,1,36.7-46.6h59.7c10.7,0,21,3.6,29.9,9.4,17.1,11,51.5,18.6,91.2,18.6s74.2-7.6,91.3-18.6c8.9-5.8,19.1-9.4,29.8-9.4h783.6A108.4,108.4,0,0,1,1763.5,2364.9Z" transform="translate(-543.8 -783.9)"/></g><path class="cls-2" d="M1946.3,3193.1H747.8a15.8,15.8,0,0,1-15.4-12.1L546.3,2408.4a86.9,86.9,0,0,1,84.5-107.3H1673.9c57.9,0,108.7,41,120.8,97.5l167.1,775.3a15.8,15.8,0,0,1-15.5,19.2Zm-1186-31.7H1926.7l-163-756.1c-9-42-46.8-72.5-89.8-72.5H630.8a55.2,55.2,0,0,0-53.7,68.1Z" transform="translate(-543.8 -783.9)"/><path class="cls-7" d="M2551.8,3236.5H751.5a41.4,41.4,0,0,1-41.4-41.4h0a41.4,41.4,0,0,1,41.4-41.4H2551.8a41.4,41.4,0,0,1,41.4,41.4h0A41.4,41.4,0,0,1,2551.8,3236.5Z" transform="translate(-543.8 -783.9)"/><g class="cls-5"><path class="cls-2" d="M2540.2,3200.8H763.1c-21.1,0-39.2-9.6-47.8-23.5a33.9,33.9,0,0,0-5.2,17.8c0,22.8,23.7,41.4,53,41.4H2540.2c29.3,0,53-18.6,53-41.4a33.9,33.9,0,0,0-5.2-17.8C2579.5,3191.2,2561.3,3200.8,2540.2,3200.8Z" transform="translate(-543.8 -783.9)"/></g><path class="cls-2" d="M2551.8,3252.3H751.5a57.3,57.3,0,0,1,0-114.5H2551.8a57.3,57.3,0,1,1,0,114.5ZM751.5,3169.6a25.5,25.5,0,0,0,0,51H2551.8a25.5,25.5,0,1,0,0-51Z" transform="translate(-543.8 -783.9)"/><path class="cls-2" d="M1946.3,3252.3a15.8,15.8,0,0,1-9.8-3.4c-19.5-15.3-29.4-32.9-29.4-52.3,0-31.3,26.4-53,29.4-55.4a15.9,15.9,0,0,1,19.7,24.9c-4.9,3.9-17.5,17-17.4,30.6.1,9.1,5.9,18.3,17.3,27.3a15.8,15.8,0,0,1-9.8,28.3Z" transform="translate(-543.8 -783.9)"/></svg>