<svg id="Layer_1" data-name="Layer 1" xmlns="http://www.w3.org/2000/svg" viewBox="0 0 245.7 245.7"><defs><style>.cls-1{fill:#4290e0;}</style></defs><path class="cls-1" d="M150.1,206c-16.9,5.3-35.6.6-45.6-18.9-2.4-4.7-3.1-8.6-.3-13.9,7.7-14.4,11.3-30.2,14.9-46,2.7-12.1,5-24.3,7.4-36.6a3.5,3.5,0,0,1,2.8-3.3,68.7,68.7,0,0,1,49.7.6c2.3.9,2,2.7,2.4,4.3,3.2,15.3,6.1,30.6,9.7,45.8s7.5,27.3,14.3,39.9a3.5,3.5,0,0,1,.3,2.5c-3.2,8.5-7.8,16.1-15.5,21.4-10.2,7.1-21.4,7.3-33.3,4.5,0-2.2-.1-4.3.1-6.3s1-1.6,1.7-2.1c2.8-1.9,5.8-3.6,8.5-5.6a23.2,23.2,0,0,0,4-4.3c2.3-3.3,1.6-7-1.9-9.1a19.8,19.8,0,0,0-7.2-2.7,44,44,0,0,0-20.1.7c-6.3,1.8-8.1,6.9-4,11.9,2.2,2.7,4.8,5.4,7.8,6.9C150.5,198.1,151,201.6,150.1,206Zm33.8-58.8a10.2,10.2,0,0,0-5.5-9.7,11.4,11.4,0,0,0-12.5.3c-3.3,2.2-5.1,5.1-4.8,9.2,4.7.7,4.7.7,7.7-2.7a4.5,4.5,0,0,1,6.4-.8l.7.7a14.9,14.9,0,0,1,1.8,3Zm-38-.1c-.3-6.7-5.4-11.5-11.8-11.2s-11.2,5.1-10.9,11.3H129c.6-1,1-1.9,1.6-2.7,1.9-2.6,5.8-3,7.3-.2S142.9,147.3,145.9,147.1Z" transform="translate(-31 -31)"/><path class="cls-1" d="M119.9,90.8c-1.2,6.5-2.3,13-3.7,19.5-3.6,16.7-7.1,33.4-13.3,49.3a93.5,93.5,0,0,1-8.2,17.2c-5,7.9-8.5,7.6-13.8.4-9.4-12.8-10.9-27.4-7.7-42.5,5-24.1,23-38.7,45.8-44.1C119.1,90.5,119.3,90.6,119.9,90.8Z" transform="translate(-31 -31)"/><path class="cls-1" d="M187.9,90.3c19.9,4.8,35.2,14.9,43.2,33.9a56.7,56.7,0,0,1,.8,43.9c-2,4.9-4.6,9.3-8.7,12.7-2.3,1.8-4.6,2-6.5,0a42.9,42.9,0,0,1-6.8-9.2c-6.2-11.8-9.8-24.5-12.8-37.3s-5.9-27.4-8.9-41.1C188.1,92.4,188.1,91.6,187.9,90.3Z" transform="translate(-31 -31)"/><path class="cls-1" d="M123.7,213.3l17.1,1.1a11.8,11.8,0,0,0,2.6-.2c6.1-1.2,12-2.2,18.4-.5s14.8,1,22.4-1.2C170.1,227,141.2,230.1,123.7,213.3Z" transform="translate(-31 -31)"/><path class="cls-1" d="M142.9,183.3a42,42,0,0,1,23.3.7c-3.3,4.3-7.6,6.4-11.7,8.8a2.2,2.2,0,0,1-1.4-.2l-10.8-8Z" transform="translate(-31 -31)"/><path class="cls-1" d="M153.8,276.7C86.1,276.7,31,221.6,31,153.8A123,123,0,0,1,153.8,31c67.8,0,122.9,55.1,122.9,122.8A123.1,123.1,0,0,1,153.8,276.7Zm0-230.7A108,108,0,0,0,46,153.8c0,59.5,48.4,107.9,107.8,107.9A108.1,108.1,0,0,0,261.7,153.8C261.7,94.4,213.3,46,153.8,46Z" transform="translate(-31 -31)"/></svg>