<svg id="Layer_1" data-name="Layer 1" xmlns="http://www.w3.org/2000/svg" viewBox="0 0 2741.1 2675.7"><defs><style>.cls-1{opacity:0.2;}.cls-2{fill:#000072;}.cls-3{fill:#8e8fb3;}.cls-4{opacity:0.15;}.cls-5{opacity:0.5;}.cls-6{fill:#fff;}.cls-7{fill:#f27e80;}.cls-8{fill:#ff5c64;}.cls-9{fill:#e8e8e8;}.cls-10{fill:#686868;}.cls-11{fill:#00bdff;}.cls-12{opacity:0.4;}.cls-13{fill:#61619b;}.cls-14{opacity:0.35;}.cls-15{fill:#ff9499;}.cls-16{fill:#ff0068;}</style></defs><g class="cls-1"><ellipse class="cls-2" cx="1328.3" cy="2584.5" rx="973.9" ry="91.2"/></g><path class="cls-3" d="M1530.7,3080.3c-242.4,138.9-472.6,12.1-507.5-179.8-6.9-37.7-6.1-77.9,3.5-119.1a339.3,339.3,0,0,1,26.4-73.3c10.7-21.7,21.6-43.5,32.2-65.3,37-76.2,70.2-152.1,76-223,2.8-33.7-.5-66.2-12.6-97.1a108.3,108.3,0,0,0-29.5-41.5,116.6,116.6,0,0,0-52.3-26.4,100.4,100.4,0,0,0-25.5-2.2c-54.6,2.3-104.1,51.7-84.2,174.8,28.1,173-160.1,227.2-229.2,78.8-3-6.6-5.8-13.5-8.4-20.8-.8-2.5-1.7-5.1-2.5-7.7-43.1-138.1,9.1-377.3,222.6-427.5,9.7-2.3,19.9-4.2,30.4-5.7a390.9,390.9,0,0,1,42.5-3.6,340.2,340.2,0,0,1,74.2,6.1c173.3,33.9,282.5,204.6,227.8,418.7-29.4,114.8-148.2,331.5-97.9,436.1,15.9,33.2,64.8,58.9,122.7,56.2l4.5-.2h.1c41.7-3,87.9-20.9,129.4-61.4Z" transform="translate(-685.4 -742.9)"/><g class="cls-4"><path class="cls-2" d="M1530.6,3080.4c-242.4,138.8-472.6,12-507.4-179.9,29.3,96.9,187.7,159.5,316.2,57.5l4.5-.2h.1c41.7-3,87.8-20.9,129.3-61.4Z" transform="translate(-685.4 -742.9)"/></g><path class="cls-3" d="M2854,1851.3c-37.9,378.3-488,426.5-700.1,468.7H1886.2c-137.1-27.3-373.6-57-534-176.9-38.7-28.9-73-63.1-100.4-103.7a385.1,385.1,0,0,1-47.1-97.3,433,433,0,0,1-17.2-78.6q-2.1-15.9-3-32.7c-2-32.7-.9-67.9,3.5-105.6,3.8-32.6,28.8-144.3,62.9-253.8,11.5-37.2,24.2-74.2,37.4-107.8-48.4-214.8-68.1-485.4,4.6-578.7,47.3-60.6,175.4.2,369.4,166.5,138.6-61,328.6-64.6,357.7-64.5s219.2,3.5,357.7,64.5c194.1-166.3,322.1-227.1,369.4-166.5,72.7,93.3,53,363.9,4.7,578.7,52,132,95.2,317.9,100.3,361.6C2857.5,1770.9,2857.9,1812.8,2854,1851.3Z" transform="translate(-685.4 -742.9)"/><g class="cls-5"><path class="cls-6" d="M2794.7,1036.2c-2.4-85.9-16.6-157.6-47.6-197.3-47.3-60.6-175.3.2-369.4,166.5-138.5-61-328.5-64.6-357.7-64.5s-219.1,3.5-357.7,64.5c-194-166.3-322.1-227.1-369.4-166.5-30.9,39.7-45.1,111.4-47.5,197.3-2.7-109.4,10.3-203.5,47.5-251.3,47.3-60.6,175.4.2,369.4,166.5,138.6-61,328.6-64.6,357.7-64.5s219.2,3.5,357.7,64.5c194.1-166.3,322.1-227.1,369.4-166.5C2784.4,832.7,2797.4,926.8,2794.7,1036.2Z" transform="translate(-685.4 -742.9)"/></g><path class="cls-6" d="M2854,1851.3c-37.9,378.3-488,426.5-700.1,468.7H1886.2c-137.1-27.3-373.6-57-534-176.9-38.7-28.9-73-63.1-100.4-103.7a385.1,385.1,0,0,1-47.1-97.3,433,433,0,0,1-17.2-78.6c327.7,281.5,564.3,155.2,670-59.8,40.9-83,121.3-90.9,156.2-90.9s115.3,7.9,156.1,90.9C2277.1,2021.8,2519,2148.6,2854,1851.3Z" transform="translate(-685.4 -742.9)"/><g class="cls-4"><path class="cls-2" d="M2816.9,1988.9c-119.6,253.8-479.9,294.7-663,331.1H1886.2c-137.1-27.3-373.6-57-534-176.9-38.7-28.9-73-63.1-100.4-103.7a385.2,385.2,0,0,1-28.6-50.3,526.4,526.4,0,0,0,55.5,47.7c122.1,91.2,546.6,137.1,741.3,137.1S2691.9,2113.3,2816.9,1988.9Z" transform="translate(-685.4 -742.9)"/></g><path class="cls-2" d="M1530.9,1329.6c-9.8-15.4,55.4-152.5,178.2-112,44.3,14.6,48.5,57.7,14.2,67-32.7,8.7-47.5,1.7-98.1,19.5C1596.5,1314.2,1540.7,1344.9,1530.9,1329.6Z" transform="translate(-685.4 -742.9)"/><path class="cls-2" d="M2509.2,1329.6c9.8-15.4-55.4-152.5-178.3-112-44.2,14.6-48.4,57.7-14.1,67,32.7,8.7,47.4,1.7,98.1,19.5C2443.6,1314.2,2499.3,1344.9,2509.2,1329.6Z" transform="translate(-685.4 -742.9)"/><path class="cls-7" d="M1462.3,1113.5c-59.6,63.7-97.2,152.7-102.5,142.3a20.4,20.4,0,0,1-1.6-3.6c-11.3-29.2-30-144.8-29.7-247.8.1-16.6.5-31.2,1.4-44.2,2.3-34.9,7.3-57.2,13.4-71.5,7.6-17.5,24.6-22.9,39.6-17,40,15.8,153.4,90.6,190.3,138.5C1579.8,1018.7,1522.1,1049.9,1462.3,1113.5Z" transform="translate(-685.4 -742.9)"/><path class="cls-8" d="M1462.3,1113.5c-59.6,63.7-97.2,152.7-102.5,142.3a20.4,20.4,0,0,1-1.6-3.6c13.4-54,50-128.6,78.2-182.6,38.4-73.7-14.3-132.4-60-149.9-15.7-6.1-34.4,19.7-46.5,40.5,2.3-34.9,7.3-57.2,13.4-71.5,7.6-17.5,24.6-22.9,39.6-17,40,15.8,153.4,90.6,190.3,138.5C1579.8,1018.7,1522.1,1049.9,1462.3,1113.5Z" transform="translate(-685.4 -742.9)"/><path class="cls-2" d="M1361.2,1276.4h-1a21.1,21.1,0,0,1-18.1-11.6c-13.4-26.3-33.7-153.4-33.4-260.4h0c.1-57.7,5.5-98.1,16.4-123.5s38.7-37.9,65.1-27.6c42.2,16.6,158.4,92.5,198.7,144.8,4.9,6.3,10.3,19.4-7.5,36.6-5.6,5.4-13.8,11.9-24,20.1-21.4,17-50.6,40.3-80.6,72.3-33,35.2-59.3,79.1-76.7,108.2S1375.4,1276.4,1361.2,1276.4Zm16.2-29.6h0Zm-29.1-242.3c-.2,77,10.5,160.2,19.8,207,18.3-30.5,45.2-74.6,79.8-111.5,32-34.1,63.7-59.5,84.8-76.2,5.2-4.2,10.9-8.7,15.4-12.5-42.1-45-139.4-108.1-172.4-121.1-3.7-1.4-10.3-2.5-14.2,6.3-5.9,13.8-13,43.8-13.2,108Z" transform="translate(-685.4 -742.9)"/><path class="cls-7" d="M2579.8,1113.5c59.7,63.7,97.3,152.7,102.6,142.3a32.8,32.8,0,0,0,1.5-3.6c11.3-29.2,30-144.8,29.8-247.8-.1-16.6-.6-31.2-1.5-44.2-2.3-34.9-7.3-57.2-13.4-71.5-7.6-17.5-24.6-22.9-39.6-17-39.9,15.8-153.3,90.6-190.2,138.5C2462.4,1018.7,2520.1,1049.9,2579.8,1113.5Z" transform="translate(-685.4 -742.9)"/><path class="cls-8" d="M2579.8,1113.5c59.7,63.7,97.3,152.7,102.6,142.3a32.8,32.8,0,0,0,1.5-3.6c-13.3-54-50-128.6-78.1-182.6-38.4-73.7,14.2-132.4,60-149.9,15.7-6.1,34.3,19.7,46.4,40.5-2.3-34.9-7.3-57.2-13.4-71.5-7.6-17.5-24.6-22.9-39.6-17-39.9,15.8-153.3,90.6-190.2,138.5C2462.4,1018.7,2520.1,1049.9,2579.8,1113.5Z" transform="translate(-685.4 -742.9)"/><path class="cls-2" d="M2680.9,1276.4c-14.1,0-20.6-10.7-38.8-41.1s-43.8-73-76.8-108.2c-30-32-59.2-55.3-80.5-72.3-10.3-8.2-18.4-14.7-24.1-20.1-17.8-17.2-12.3-30.3-7.5-36.6,40.4-52.3,156.5-128.2,198.8-144.8,26.3-10.3,53.6,1.2,65,27.5s16.3,65.9,16.5,123.6h0c.2,107-20.1,234.1-33.5,260.4a20.9,20.9,0,0,1-18,11.6Zm-186.8-265.1c4.4,3.8,10.1,8.3,15.4,12.5,21,16.7,52.8,42.1,84.7,76.2,34.6,36.9,61.6,81,79.9,111.5,9.2-46.8,19.9-130,19.7-207h0c-.2-64.2-7.3-94.2-13.2-108-3.8-8.8-10.5-7.7-14.1-6.3C2633.4,903.2,2536.2,966.3,2494.1,1011.3Z" transform="translate(-685.4 -742.9)"/><path class="cls-2" d="M2152.2,2311.7c57.4-15.5,115.2-26.9,172.1-40.7s113.6-28.1,168.3-47.3c13.7-4.9,27.3-9.8,40.6-15.4s26.6-11.4,39.8-17.3c6.6-2.9,12.9-6.4,19.3-9.5s13-6.4,19.1-10.1l18.8-10.6c6.1-3.7,12.1-7.6,18.1-11.4l9.1-5.8,8.7-6.2,17.3-12.6,16.4-13.6c2.7-2.3,5.6-4.4,8.2-6.8l7.7-7.3c21.1-19,39.1-41,55.4-63.9l11.5-17.7c1-1.5,2-3,2.9-4.5l2.4-4.6,5-9.4,4.9-9.3c.9-1.5,1.7-3.1,2.5-4.6l2-4.9,8.3-19.5,2.1-4.8,1.6-5,3.3-10.1c2-6.8,4.6-13.3,6.2-20.2l4.8-20.7,2.4-10.3,1.5-10.5,3-21.1c.3-1.8.6-3.5.8-5.3l.3-5.3.7-10.7,1.3-21.3c.1-7.1-.2-14.3-.2-21.4l-.3-21.5-1.9-21.4-1.8-21.5-1.4-10.2-1.9-10.5c-5.4-28.3-12-57-18.9-85.4s-14.5-56.7-22.5-84.9c-16-56.3-33.7-112.2-54.9-166.3l-2-5.2,1.2-5.5c18.3-82.4,31.6-166.3,38.3-250.4,3.2-42,4.9-84.1,3.7-125.9s-5-83.5-15.1-122.6c-5-19.5-12.1-38.1-21.7-54a57.9,57.9,0,0,0-3.8-5.8l-2-2.7a13.5,13.5,0,0,0-1.9-2.5,35.1,35.1,0,0,0-3.7-4l-2-1.8-2.2-1.5q-8.7-6-21-7.2a89.5,89.5,0,0,0-26.4,1.8,185.6,185.6,0,0,0-27.9,7.9c-18.7,6.8-37.1,15.9-55.1,25.9-36.1,20.2-70.7,44.3-104.3,69.5s-66.4,52.2-98.6,79.8l-9.1,7.8-11.2-4.8c-26.9-11.6-55-20.9-83.7-28.7s-58-13.6-87.5-18.5-59.3-8.5-89.2-11-60-4.2-89.6-4.3-59.7,1.7-89.6,4.3-59.7,6.2-89.2,11.1-58.8,10.7-87.5,18.5-56.7,17.1-83.6,28.7l-11.2,4.8-9.2-7.9c-32.2-27.5-64.9-54.3-98.6-79.7s-68.2-49.3-104.3-69.4c-18-10-36.4-19.2-55.1-25.9a174.5,174.5,0,0,0-27.9-7.9,88.6,88.6,0,0,0-26.3-1.8,42.1,42.1,0,0,0-20.9,7.2c-.7.5-1.5.9-2.2,1.5l-2,1.8a27.5,27.5,0,0,0-3.7,3.9,13.5,13.5,0,0,0-1.9,2.5l-2,2.7a57.9,57.9,0,0,0-3.8,5.8c-9.6,15.8-16.6,34.5-21.7,54-10,39.1-13.9,80.8-15,122.5s.5,83.9,3.7,125.9c6.8,84.1,20,167.9,38.4,250.4l1.2,5.5-2.1,5.3c-21.2,54-38.8,110-54.8,166.3q-12,42.3-22.5,84.9c-6.9,28.4-13.6,57.1-18.9,85.4-1.3,7.1-2.5,14.1-3.3,20.7s-1.6,14.3-2.2,21.4q-1.8,21.5-2.1,42.9a493,493,0,0,0,5.9,85.1c8.9,55.9,29.4,109.6,61.5,155.9s74.7,85.2,122.8,116.1,101.1,54.7,155.7,74,111.3,33.8,168.3,46.9l21.4,5.1,21.5,4.8,43,9.9c28.7,6.7,57.5,13.6,86,21.9a8.5,8.5,0,0,1-3.2,16.6h-.1c-58.6-6.1-117.3-13.8-175.7-25.4s-116.2-26.8-172.8-46.6-112.1-44.6-163.4-77.5-97.7-74.6-132.9-125.5-57.9-110-67.6-170.5a517.1,517.1,0,0,1-6.6-91.2c.1-15.3.9-30.4,2.1-45.5.7-7.6,1.4-15.1,2.3-22.6s2.3-15.7,3.6-23.1c5.6-29.6,12.2-58.5,19.2-87.4s14.6-57.7,22.7-86.3c16.1-57.2,33.9-114,55.7-169.9l-.8,10.9c-18.9-84.1-32.5-169.4-39.6-255.5-3.4-43.1-5.3-86.4-4.1-129.9s5-87.4,16.1-131.1c5.6-21.8,13.5-43.7,26-64.4a71,71,0,0,1,5-7.6l2.6-3.7a45.6,45.6,0,0,1,3-3.9,87.8,87.8,0,0,1,7.3-7.7l3.9-3.5,4.4-3.2a82.1,82.1,0,0,1,38.8-13.8c13.1-1.3,25.6,0,37.3,2.3a225.8,225.8,0,0,1,33.7,9.4c21.5,7.8,41.4,17.7,60.7,28.3,38.6,21.5,74.2,46.3,108.9,72.2s67.9,53.2,100.6,81.1l-20.4-3.1a690.4,690.4,0,0,1,89.1-30.8c30.2-8.2,60.7-14.3,91.3-19.5s61.3-8.8,92.2-11.5,61.5-4.5,92.9-4.6,62.1,1.9,93,4.6,61.6,6.5,92.2,11.6,61.1,11.3,91.2,19.5a685.2,685.2,0,0,1,89.1,30.8l-20.3,3.1c32.7-27.9,66.1-55.2,100.7-81.1s70.3-50.7,108.8-72.1c19.3-10.7,39.2-20.6,60.7-28.3a229.4,229.4,0,0,1,33.7-9.5c11.7-2.2,24.1-3.5,37.2-2.2a82.1,82.1,0,0,1,38.8,13.8l4.3,3.1,4,3.6a73.6,73.6,0,0,1,7.2,7.6,45.6,45.6,0,0,1,3,3.9l2.6,3.7a71,71,0,0,1,5,7.6c12.5,20.7,20.4,42.5,26,64.3,11.1,43.7,14.8,87.6,16,131.1s-.7,86.8-4.1,129.9c-7.1,86.1-20.7,171.3-39.6,255.4l-.8-10.6c21.7,55.9,39.6,112.6,55.7,169.8,8,28.6,15.5,57.4,22.6,86.2s13.6,57.8,19.2,87.5l1.9,11.2,1.7,11.8,1.9,22.6,1.8,22.7.3,22.8c.1,7.6.3,15.2.2,22.8l-1.5,22.8-.7,11.4-.4,5.7c-.2,1.9-.5,3.8-.8,5.7l-3.3,22.7-1.7,11.4-2.6,11.2-5.2,22.5c-1.8,7.4-4.6,14.6-6.9,22l-3.6,11-1.8,5.4-2.3,5.4-9,21.2-2.3,5.3c-.8,1.8-1.8,3.5-2.7,5.2l-5.4,10.2-5.5,10.2-2.7,5.1c-1,1.6-2.1,3.2-3.2,4.8l-12.6,19.4c-17.9,25-37.6,48.9-60.4,69.4l-8.4,7.9c-2.8,2.6-5.9,4.9-8.8,7.4l-17.7,14.5-18.5,13.4c-3.1,2.2-6.2,4.5-9.3,6.6l-9.6,6.1c-6.5,4.1-12.8,8.3-19.3,12.2l-19.8,11.1c-6.6,3.8-13.4,7.1-20.1,10.5s-13.5,6.9-20.3,10c-13.8,6.1-27.5,12.5-41.5,17.9s-28.1,10.8-42.2,15.9c-28.3,9.7-56.9,18.8-85.8,26.2-14.4,3.9-28.9,7.2-43.4,10.7s-29.1,6.4-43.7,9.1c-58.4,11.4-117,19.3-175.5,26.4h0a8.5,8.5,0,0,1-3.3-16.6Z" transform="translate(-685.4 -742.9)"/><path class="cls-9" d="M2165.1,1863.8s0,88.4-79.1,83.8c-56-3.3-67.6-49.5-68.5-53.2-.8,3.7-12.5,49.9-68.5,53.2-79.1,4.6-79.1-83.8-79.1-83.8l146.9-114.6h1.4Z" transform="translate(-685.4 -742.9)"/><path class="cls-6" d="M2164.3,1864.4s-25.8,67.3-85.9,51.6c-68.3-17.8-59.9-99.4-59.9-99.4h-2.6s8.1,81.6-60.3,99.2c-60.2,15.4-85.7-52-85.7-52s-16.8-151.1,146.9-151.1S2164.3,1864.4,2164.3,1864.4Z" transform="translate(-685.4 -742.9)"/><path class="cls-9" d="M2156.6,1879.4c-11.6,18.8-36.8,47.4-78.1,36.6-68.4-17.8-60.1-99.4-60.1-99.4h-2.5s8.1,81.6-60.4,99.2c-41.3,10.6-66.4-18.1-77.9-36.9a112.6,112.6,0,0,0,37.8-3.4c113-29,99.7-139.7,99.7-139.7h4.2s-13.9,110.7,99.1,140.1A109.9,109.9,0,0,0,2156.6,1879.4Z" transform="translate(-685.4 -742.9)"/><path class="cls-2" d="M1879.2,1860.3a121.9,121.9,0,0,0,7.3,10.9,102.5,102.5,0,0,0,8.3,10.2,76.1,76.1,0,0,0,19.2,15.4,53.1,53.1,0,0,0,21.4,6.1c3.7-.3,7.4.1,11.3-1,1.9-.4,3.9-.6,5.8-1.1l5.8-1.9c15.4-5,27.1-15.8,35-30.6a95.7,95.7,0,0,0,8.9-24.2,120.2,120.2,0,0,0,2.6-13.3c.6-4.4,1.1-9.3,1.3-13.2v-.8a9.9,9.9,0,0,1,19.7-1.2,105.3,105.3,0,0,1,1.5,16.4,124.9,124.9,0,0,1-.8,16.1c-1.2,10.7-3.5,21.7-8.2,32.1-8.6,20.9-27.5,39.8-49.7,47.1l-8.2,2.8a85.7,85.7,0,0,1-8.8,1.8c-5.7,1.3-12,1-18,1a73.6,73.6,0,0,1-34.4-11.7,87.6,87.6,0,0,1-24.4-24.1,119.9,119.9,0,0,1-8.2-14.3,97.9,97.9,0,0,1-6-15.5,9.9,9.9,0,0,1,18-8Z" transform="translate(-685.4 -742.9)"/><path class="cls-2" d="M2173.6,1867.9a94.4,94.4,0,0,1-6.1,15.5,106.5,106.5,0,0,1-8.2,14.2,87.9,87.9,0,0,1-24.5,24.1,75.4,75.4,0,0,1-34.4,11.6c-6.1-.1-12.4.2-18.1-1.2a83.6,83.6,0,0,1-8.7-1.7l-8.2-2.9c-22.3-7.4-41.1-26.3-49.6-47.3a109.8,109.8,0,0,1-8.1-32.1,125.4,125.4,0,0,1-.6-16.2,105.1,105.1,0,0,1,1.5-16.3,9.9,9.9,0,0,1,11.4-8.1,10,10,0,0,1,8.3,9.4v.7c.2,4,.7,8.9,1.3,13.2a115.5,115.5,0,0,0,2.4,13.3,98.9,98.9,0,0,0,8.9,24.3c7.9,14.8,19.5,25.6,34.9,30.7l5.8,2c1.9.5,3.8.6,5.7,1.1,3.9,1.1,7.6.7,11.4,1a51.8,51.8,0,0,0,21.4-6,75.6,75.6,0,0,0,19.2-15.3,119.9,119.9,0,0,0,8.4-10.2c2.7-3.5,5.3-7.6,7.4-10.9l.6-.9a9.8,9.8,0,0,1,13.6-3.2A9.9,9.9,0,0,1,2173.6,1867.9Z" transform="translate(-685.4 -742.9)"/><path class="cls-2" d="M2099.7,1774c-.1,19.3-25.3,36.3-48.4,47.8a82.5,82.5,0,0,1-75.4-.1c-23.1-11.6-48.2-28.7-48.2-48C1927.8,1715.5,2099.8,1715.8,2099.7,1774Z" transform="translate(-685.4 -742.9)"/><g class="cls-5"><path class="cls-6" d="M2047.8,1762.5c0,5.6-10,10.5-19.2,13.8a43.9,43.9,0,0,1-29.9-.1c-9.1-3.3-19.1-8.3-19.1-13.8C1979.7,1745.6,2047.8,1745.7,2047.8,1762.5Z" transform="translate(-685.4 -742.9)"/></g><path class="cls-2" d="M1287.8,1822.3c-3.3-1.9-7.1-3.9-10.7-5.8s-7.4-3.8-11.2-5.6-7.5-3.6-11.4-5.2-7.6-3.5-11.4-5c-15.5-6.3-31.1-12.4-47-17.4-31.9-10.2-64.4-18.6-97.5-23.6-8.2-1.6-16.6-2.1-24.9-3.3l-12.4-1.6-12.6-.9c-8.3-.5-16.7-1-25.1-1.7l-25.2-.2c-16.8-.8-33.5,1.2-50.4,1.6l-6.3.3-6.3.7-12.6,1.4-25.2,2.6H897a8.7,8.7,0,0,1-2.4-17.3l25.6-4.7,12.8-2.2,6.5-1.1,6.4-.7,26-2.7c4.4-.3,8.7-.9,13.1-1l13-.4c8.7-.2,17.5-.6,26.2-.7l26.2,1c4.3.2,8.7.3,13.1.7l13,1.3c8.7,1,17.4,1.6,26,3.2l25.9,4.4c8.6,1.6,17.1,3.8,25.6,5.7s16.9,4.7,25.4,7,16.6,5.4,24.9,8.4c32.9,12.1,64.5,27.1,93.5,48.4a8.7,8.7,0,0,1-9.5,14.6Z" transform="translate(-685.4 -742.9)"/><path class="cls-2" d="M1309.9,1952.9c-14.2-1.7-29.3-2.8-44-3.4s-29.6-.9-44.3-.6c-29.5.8-58.9,3.1-87.7,8.8a362.8,362.8,0,0,0-42.6,10.5c-7,2-13.8,4.6-20.7,7s-13.7,5.2-20.2,8.4a317.2,317.2,0,0,0-74.2,46.1h-.1a8.6,8.6,0,0,1-12.3-1.2,8.7,8.7,0,0,1,.5-11.7,291,291,0,0,1,75.9-54.6,303.1,303.1,0,0,1,43.4-18,351.5,351.5,0,0,1,45.3-12.1,418.4,418.4,0,0,1,92.6-8.3c31.1.6,61.7,4,92.2,12a8.7,8.7,0,0,1-3.3,17.1Z" transform="translate(-685.4 -742.9)"/><path class="cls-2" d="M2742.2,1808c29.1-21.3,60.6-36.3,93.6-48.4,8.2-3,16.5-6,24.9-8.4s16.8-5.1,25.3-7,17-4.1,25.6-5.7l25.9-4.4c8.6-1.6,17.4-2.2,26.1-3.2l13-1.3c4.4-.4,8.7-.5,13.1-.7l26.2-1c8.7.1,17.4.5,26.1.7l13.1.4c4.4.1,8.7.7,13,1,8.7.8,17.4,1.7,26,2.7l6.5.7,6.4,1.1,12.9,2.2,25.6,4.7a8.7,8.7,0,0,1,7,10.1,8.8,8.8,0,0,1-9.4,7.2h-.7l-25.2-2.6-12.6-1.4-6.2-.7-6.4-.3c-16.8-.4-33.5-2.4-50.4-1.6l-25.2.2c-8.3.7-16.7,1.2-25.1,1.7-4.1.4-8.3.5-12.5.9l-12.5,1.6c-8.2,1.2-16.6,1.7-24.9,3.3-33.1,5-65.6,13.4-97.4,23.6-15.9,5-31.5,11.1-47,17.4-3.9,1.5-7.6,3.4-11.5,5s-7.6,3.4-11.3,5.2-7.6,3.7-11.2,5.6-7.4,3.9-10.7,5.8l-.6.3a8.7,8.7,0,0,1-11.9-3.2A8.8,8.8,0,0,1,2742.2,1808Z" transform="translate(-685.4 -742.9)"/><path class="cls-2" d="M2726.4,1935.9c30.5-8,61.1-11.4,92.1-12a419.3,419.3,0,0,1,92.7,8.3,360.4,360.4,0,0,1,45.3,12.1,302,302,0,0,1,43.3,18,289.3,289.3,0,0,1,75.9,54.6,8.8,8.8,0,0,1,0,12.4,8.6,8.6,0,0,1-11.7.5h-.1a317.2,317.2,0,0,0-74.2-46.1c-6.6-3.2-13.4-5.7-20.2-8.4s-13.7-5-20.7-7a367.8,367.8,0,0,0-42.6-10.5c-28.8-5.7-58.2-8-87.7-8.8-14.8-.3-29.6-.1-44.3.6s-29.8,1.7-44.1,3.4h-.4a8.7,8.7,0,0,1-3.3-17.1Z" transform="translate(-685.4 -742.9)"/><g class="cls-4"><path class="cls-2" d="M1224.7,2361.5c-10.6,128.9-99.4,238.1-139.4,281.3,37-76.2,70.2-152.1,76-223,2.8-33.7-.6-66.2-12.6-97.1a108.3,108.3,0,0,0-29.5-41.5c-21.7-19.2-50.4-29.8-77.8-28.6-54.6,2.3-104.1,51.7-84.2,174.8,28.1,173.1-160.1,227.2-229.2,78.8-3-6.6-5.8-13.6-8.3-20.8,34.7,26.1,121.6,70.9,169.8,17.4,67.7-75.4-24.6-201.2,64.4-293.8C1021.8,2138.4,1238.5,2194.3,1224.7,2361.5Z" transform="translate(-685.4 -742.9)"/></g><path class="cls-10" d="M1088.5,2191.6c-1.7,1.8-23.6-3.9-23-1.5,2.5,10.5,7.3,31.7,1.4,64.7h-.4a42.1,42.1,0,0,0-4.9-.9l-4.3-.6-3.5-.4-3.3-.2h-9.1c-54.6,2.3-104.1,51.7-84.2,174.8,28.1,173-160.1,227.2-229.2,78.8-3-6.6-5.8-13.5-8.4-20.8,34.8,26.1,121.7,70.9,169.9,17.4,67.7-75.4-24.6-201.2,64.4-293.9,28.3-29.4,82.5-36.8,135.1-23.3C1089.7,2188.3,1089.7,2190.4,1088.5,2191.6Z" transform="translate(-685.4 -742.9)"/><path class="cls-6" d="M1066.9,2254.8a100.4,100.4,0,0,0-25.5-2.2c-54.6,2.3-104.1,51.7-84.2,174.8,28.1,173-160.1,227.2-229.2,78.8-3-6.6-5.8-13.5-8.4-20.8-.8-2.5-1.7-5.1-2.5-7.7-43.1-138.1,9.1-377.3,222.6-427.5,9.7-2.3,19.9-4.2,30.4-5.7a390.9,390.9,0,0,1,42.5-3.6c14,8.9,49.3,43.1,59,79.1,1.2,4.4-21.3-4.2-19.5.5,5.9,15.9,43.8,63.4,36.4,71.1-1.6,1.8-23.6-3.9-23.1-1.5C1068,2200.6,1072.8,2221.8,1066.9,2254.8Z" transform="translate(-685.4 -742.9)"/><g class="cls-4"><path class="cls-2" d="M1088.5,2191.6c-1.7,1.8-23.6-3.9-23-1.5,2.5,10.5,7.3,31.7,1.4,64.7h-.4l-4.9-.9-4.3-.6-3.5-.4-3.3-.2h-9.1c-54.6,2.3-104.1,51.7-84.2,174.8,28.1,173-160.1,227.2-229.2,78.8-3-6.6-5.8-13.5-8.4-20.8,34.8,26.1,121.7,70.9,169.9,17.4,67.7-75.4-24.6-201.2,64.4-293.9,28.3-29.4,82.5-36.8,135.1-23.3C1089.7,2188.3,1089.7,2190.4,1088.5,2191.6Z" transform="translate(-685.4 -742.9)"/></g><path class="cls-2" d="M1323.7,3156.1c-85.5,0-165.5-29.4-227.2-87.3-99.8-93.7-123-238.3-59.1-368.4,4-8.2,8.1-16.4,12.2-24.6,60-121.2,122-246.6,82.8-346.7-16.1-41.2-65.7-67.7-106.2-56.7-45.8,12.6-65.1,69.5-51.7,152.3,16.1,99.7-34.2,162.1-91.3,179.6s-130.6-4.1-171-90.8c-42.3-90.8-33.8-224.2,20.5-324.3,34.6-63.7,103.5-143.4,235-161.9,116.3-16.4,224,20,295.4,99.7,77.1,86.2,102.1,211.2,68.4,343-8.7,33.8-24.7,75.9-41.7,120.5-40.1,105.1-90.1,235.8-57.4,303.7,10.1,21,38.3,38.3,71.8,44.3,54.4,9.6,111.6-10.3,157-54.6a17.4,17.4,0,1,1,24.3,25c-53.5,52.2-121.8,75.5-187.3,63.9-45-7.9-82.3-32.2-97.3-63.4-39.1-81.5,11.5-214.2,56.2-331.3,16.7-43.7,32.4-84.8,40.6-116.8,30.7-120.3,8.6-233.7-60.6-311-63.5-70.9-160-103.2-264.5-88.5-117.2,16.5-178.4,87.5-209.2,144.1-55.1,101.5-51.5,224.2-19.5,292.9s87.5,84.9,129,72.2c39.5-12.2,80.8-56.3,67.1-140.8-24.5-151.4,52.7-184.8,77-191.4,57.6-15.8,125.3,19.8,147.9,77.6,44.8,114.5-20.7,246.8-84,374.9-4.1,8.2-8.1,16.4-12.2,24.5-57.9,117.8-38.1,243.3,51.7,327.6,101.3,95,258.9,103.6,401.6,21.8a17.4,17.4,0,1,1,17.3,30.3C1468.6,3136,1394.3,3156.1,1323.7,3156.1Z" transform="translate(-685.4 -742.9)"/><path class="cls-3" d="M2901.4,3049.9c-.5,76.7-29.8,133.2-66.4,174-53.2,59.3-130.1,91.9-209.8,91.9H1414.9c-79.7,0-156.6-32.6-209.8-91.9-36.6-40.8-66-97.3-66.4-174-.1-5.2,0-10.3.2-15.2,6.1-150.1,113.8-160.4,180.4-116,2,1.2,3.9,2.6,5.8,4l5.5-8.7c44-72.6,100-83.6,151.8-70,80.7,21.1,151.5,102.1,151.5,102.1h772.3s65.2-74.6,141.9-99.3c54.4-17.6,114.6-10,161.3,67.2l5.5,8.7c3.7-2.7,7.4-5.2,11.4-7.6,67.1-40.2,169.7-26.3,174.9,121.2C2901.3,3040.7,2901.4,3045.3,2901.4,3049.9Z" transform="translate(-685.4 -742.9)"/><g class="cls-5"><path class="cls-6" d="M1362.2,2925.8c4.6-22.4,47.2-62.5,85.2-57.9,31.7,3.9,15.8,23.3-8.5,30C1402,2908.2,1357.6,2948.3,1362.2,2925.8Z" transform="translate(-685.4 -742.9)"/></g><g class="cls-5"><path class="cls-6" d="M2677.3,2925.8c-4.6-22.4-47.2-62.5-85.2-57.9-31.6,3.9-15.7,23.3,8.5,30C2637.6,2908.2,2682,2948.3,2677.3,2925.8Z" transform="translate(-685.4 -742.9)"/></g><g class="cls-4"><path class="cls-2" d="M2901.4,3049.9c-.5,76.7-29.8,133.2-66.4,174-53.2,59.3-130.1,91.9-209.8,91.9H1414.9c-79.7,0-156.6-32.6-209.8-91.9-36.6-40.8-66-97.3-66.4-174-.1-5.2,0-10.3.2-15.2l238.1-37.1s98.2,141.7,109.4,79.7c3.1-17.2-35.8-108.9-4-233.3a429,429,0,0,1,20.9-61.8c38.9-90.9,511.6,0,511.6,0s472.7-90.9,511.5,0a423,423,0,0,1,21.7,64.6c30.5,122.9-7.8,213.5-4.7,230.5,11.1,62,109.4-79.7,109.4-79.7l248.4,38.7C2901.3,3040.7,2901.4,3045.3,2901.4,3049.9Z" transform="translate(-685.4 -742.9)"/></g><path class="cls-6" d="M2901.4,3049.9c-.5,76.7-29.8,133.2-66.4,174-53.2,59.3-130.1,91.9-209.8,91.9H1414.9c-79.7,0-156.6-32.6-209.8-91.9-36.6-40.8-66-97.3-66.4-174-.8-164.5,111.8-177,180.6-131.2,71.9,65.3,71.6,142.4,109.8,178.4,108.7,102.5,248.3,32.4,265.5-151,2.6-27.5,2.4-57.5-1-90-26.8-250.5,327.2-133,327.2-133s354-117.5,327.2,133c-3.4,32.5-3.6,62.5-1,90,17.2,183.4,156.8,253.5,265.5,151,38.9-36.6,37.9-115.9,113.8-182C2795.4,2873.7,2902.2,2889.7,2901.4,3049.9Z" transform="translate(-685.4 -742.9)"/><path class="cls-6" d="M2901.4,3049.9c-.3,45.9-10.9,84.6-27.3,117.1a260,260,0,0,1-39.1,56.9c-53.2,59.3-130.1,91.9-209.8,91.9H1414.9c-79.7,0-156.6-32.6-209.8-91.9a273.7,273.7,0,0,1-30.7-41.5c-21.1-35.4-35.4-79.1-35.7-132.5-.8-164.5,111.8-177,180.6-131.2,71.9,65.3,71.6,142.4,109.8,178.4l5.6,5.2h.1c93.9,82.6,208.5,39.5,247.7-91.9a329.3,329.3,0,0,0,12.1-64.3c2.6-27.5,2.4-57.5-1-90-26.8-250.5,327.2-133,327.2-133s354-117.5,327.2,133c-3.4,32.5-3.6,62.5-1,90a329.3,329.3,0,0,0,12.1,64.3c37,123.7,140.6,169.1,230.9,105.3h0a196.6,196.6,0,0,0,22.5-18.5c38.9-36.6,37.9-115.9,113.8-182C2795.4,2873.7,2902.2,2889.7,2901.4,3049.9Z" transform="translate(-685.4 -742.9)"/><g class="cls-4"><path class="cls-2" d="M2874.1,3167a260,260,0,0,1-39.1,56.9c-53.2,59.3-130.1,91.9-209.8,91.9H1414.9c-79.7,0-156.6-32.6-209.8-91.9a273.7,273.7,0,0,1-30.7-41.5c62.3,51,158.8,108.5,245.8,70,78.4-34.6,13.3-150.9,13.3-150.9l1.2.8h.1c93.9,82.6,208.5,39.5,247.7-91.9,146.2-1,332.7,25.4,332.7,25.4s196.2-27.8,343.9-25.4c37,123.7,140.6,169.1,230.9,105.3-14.4,32-41.3,109.6,20.3,136.7C2706.2,3294.9,2813.6,3220.6,2874.1,3167Z" transform="translate(-685.4 -742.9)"/></g><path class="cls-2" d="M2605.2,3090.3c10.7-9.9,17.7-24.4,23.7-39.8s11.2-31.9,17.5-48.2a297.5,297.5,0,0,1,23-48.5A231.9,231.9,0,0,1,2703,2910a17.5,17.5,0,0,1,25.1,24.3l-1.1,1-.2.2a203.4,203.4,0,0,0-31.8,34.9c-9.4,13-17.3,27.2-24.6,42.3s-13.9,30.7-21.5,46.6c-4,7.9-8.1,15.9-13.4,23.6l-4.1,5.7-4.6,5.4-2.4,2.7-2.7,2.5-5.6,4.8a8.7,8.7,0,0,1-11.6-13Z" transform="translate(-685.4 -742.9)"/><path class="cls-2" d="M1423.6,3104l-5.5-4.8a32,32,0,0,1-2.7-2.5l-2.4-2.7-4.7-5.4-4-5.7c-5.3-7.7-9.4-15.7-13.4-23.6-7.7-15.9-14.2-31.6-21.6-46.6s-15.1-29.3-24.5-42.3a211.8,211.8,0,0,0-31.8-34.9l-.3-.2a17.5,17.5,0,0,1,23-26.3l1.1,1a240.5,240.5,0,0,1,33.6,43.8c9.4,15.6,16.7,32.1,23,48.5s11.5,32.7,17.5,48.2,13,29.9,23.6,39.8l.8.7a8.7,8.7,0,0,1-11.7,13Z" transform="translate(-685.4 -742.9)"/><path class="cls-2" d="M2625.2,3333.2H1414.9c-85.9,0-167.1-35.6-222.8-97.7-46.7-51.9-70.5-114.3-70.9-185.5-.5-101.2,39.2-142.6,72.7-159.6,37.3-18.9,85-15.5,125.9,8,30.1-46.7,68.3-72.5,113.5-76.4,93.5-8.2,185.1,82,208.3,106.7h756.9c23.1-24.7,114.7-114.9,208.3-106.7,45.1,3.9,83.2,29.6,113.5,76.4,40.8-23.5,88.6-26.9,125.9-8,33.4,17,73.2,58.4,72.6,159.6-.4,71.2-24.2,133.6-70.8,185.5C2792.3,3297.6,2711.1,3333.2,2625.2,3333.2ZM1246.6,2913.3c-13.3,0-25.9,2.7-36.9,8.3-35.4,17.9-53.9,62.3-53.5,128.2.3,62.4,21.1,117,61.8,162.4,49.2,54.7,120.9,86.1,196.9,86.1H2625.2c76,0,147.7-31.4,196.8-86.1,40.8-45.4,61.6-100,61.9-162.4.4-66-18.1-110.3-53.5-128.2-30-15.3-72.3-9.2-105.1,15.2l-15.2,11.2-15.5-24.7c-24.8-41.1-55.3-63.4-90.8-66.5-88.3-7.8-183.6,99.8-184.5,100.8l-5.2,6H1626l-5.2-6c-1-1-96.3-108.6-184.6-100.8-35.4,3.1-65.9,25.4-90.6,66.2l-15.9,24.8-15-11.1C1293.9,2921.3,1269.4,2913.3,1246.6,2913.3Zm1654.8,136.6Z" transform="translate(-685.4 -742.9)"/><path class="cls-3" d="M1575.6,2698.3c-278.4-5.3-350.5-189.7-357.9-343.5a607.5,607.5,0,0,1,11.3-149.4l325.2-51a187.9,187.9,0,0,0,13.9,31.9c59.4,109.4,217.9,171.8,217.9,171.8S1958.6,2705.7,1575.6,2698.3Z" transform="translate(-685.4 -742.9)"/><g class="cls-4"><path class="cls-2" d="M1575.6,2698.3c-233.9-4.4-322.2-135.3-348.8-268.2,51.7,76.7,142.5,134.2,296.1,137.1,228.1,4.4,259.2-117,247-216,10.1,4.6,16.1,6.9,16.1,6.9S1958.6,2705.7,1575.6,2698.3Z" transform="translate(-685.4 -742.9)"/></g><path class="cls-6" d="M1568.1,2186.3c-28.3,58.5-77.4,105-135.2,135.2-66.2,34.5-143.8,47.8-215.2,33.3a607.5,607.5,0,0,1,11.3-149.4l325.2-51a195.4,195.4,0,0,0,8.9,22.3C1564.7,2179.9,1566.3,2183.2,1568.1,2186.3Z" transform="translate(-685.4 -742.9)"/><g class="cls-4"><path class="cls-2" d="M1568.1,2186.3c-28.3,58.5-77.4,105-135.2,135.2l-.4.2c-38.9,17.3-101.5,17-118.9-19.6-13.5-28.5,167.1-96.2,249.5-125.4C1564.7,2179.9,1566.3,2183.2,1568.1,2186.3Z" transform="translate(-685.4 -742.9)"/></g><path class="cls-2" d="M1587.3,2715.9h-12.1c-132-2.5-231.4-44.5-295.5-124.8-112.1-140.4-76.2-348.8-67.8-389.1a17.5,17.5,0,0,1,34.2,7c-7.8,37.7-41.5,232.1,60.8,360.3,57.4,71.8,147.8,109.4,269,111.7,105.6,2.1,175.9-23.4,208.9-75.6,49.6-78.2,4.2-196.9-10.3-230.3-43.9-3.9-199.1-30.9-237.4-217.1a17.5,17.5,0,1,1,34.2-7c38.5,187.4,206.5,189.8,214.6,189.8h10.9l4.9,9.7c3.3,6.7,80.9,165.8,12.6,273.6C1775.7,2685,1699.3,2715.9,1587.3,2715.9Z" transform="translate(-685.4 -742.9)"/><path class="cls-6" d="M1599.4,2192.3c-35.2,26.6-88,27.8-125.7-37.9,9.7,35.7,4.8,147.5-143.9,148.1-5.2,0-10.6-.1-16.2-.4l-96.5,14.4c-6.8-264.3,173.9-359.9,326-279.7,25.9,13.6,50.7,44.9,63.6,76.7S1620.4,2176.5,1599.4,2192.3Z" transform="translate(-685.4 -742.9)"/><g class="cls-4"><path class="cls-2" d="M1599.4,2192.3c-35.2,26.6-88,27.8-125.7-37.9,9.7,35.7,4.8,147.5-143.9,148.1,25.4-11,73.9-36.8,101.7-82.9,20.8-34.7,23.2-70.8,29.3-74.4,13.4-8.1,129.9,41.1,145.9-31.7C1619.3,2144.8,1620.4,2176.5,1599.4,2192.3Z" transform="translate(-685.4 -742.9)"/></g><path class="cls-2" d="M1199.6,2317c-.9-37.5,1.8-75.3,9.5-112.6s21.2-73.8,42.1-106.7,49.4-61.8,84.5-80.5,75.3-27.4,114.6-24.8a239.1,239.1,0,0,1,57.7,10.8c4.6,1.6,9.3,3.1,13.9,4.8l13.5,5.6,13.1,6.4a68.3,68.3,0,0,1,6.9,3.7c2.4,1.3,4.5,2.8,6.8,4.3,17.4,12.2,30.7,27.5,41.9,43.9s20,34.6,25.3,54.7a115.4,115.4,0,0,1,3.7,32.1c-.6,11.3-3.3,24-11.1,34.9a52.3,52.3,0,0,1-6.4,7.7,39.5,39.5,0,0,1-3.7,3.3l-1.9,1.6-1.6,1.2-6.7,4.5-7.2,4A100.2,100.2,0,0,1,1563,2226c-22.5,3.2-46.5-3.5-63.8-16.4s-30.8-29.3-40.7-46.5l32-13.3h0a105.3,105.3,0,0,1,3.9,19,127.3,127.3,0,0,1,.8,18.5,137,137,0,0,1-5.8,36.4,124.4,124.4,0,0,1-16,34,121,121,0,0,1-25.7,27.7,139.3,139.3,0,0,1-32.1,18.5,151.3,151.3,0,0,1-34.4,9.3,186.6,186.6,0,0,1-68-2.4,8.8,8.8,0,0,1-6.7-10.5,8.9,8.9,0,0,1,7.4-6.9h.1c21.1-2.9,41.5-6,60.5-11.4s36.4-13.3,49.9-25.1a93.5,93.5,0,0,0,28.6-44.3,116,116,0,0,0,5-27c.6-9.1.4-18.8-1.2-26.6h0v-.7a17.4,17.4,0,0,1,32.1-12.6c8.2,14.3,18.4,26.9,30.4,35.3,2.9,2.4,6.1,3.7,9.2,5.6s6.4,2.8,9.7,3.4a51.4,51.4,0,0,0,20.3,1.4,65.6,65.6,0,0,0,20.1-6.5l4.8-2.7,4.5-3.1,1.2-.7.6-.7,1.5-1.2a21.5,21.5,0,0,0,2.3-2.8c2.9-3.9,4.4-9.8,4.8-16.5a77.9,77.9,0,0,0-2.6-21.9c-4-15.1-11.3-30.3-20.4-43.9s-20.4-26-32.8-34.7c-1.6-.9-3.1-2.1-4.7-3l-5.2-2.7-11.4-5.5-11.7-4.9c-3.9-1.5-8-2.7-11.9-4.1a204.3,204.3,0,0,0-49.3-9.3,178.4,178.4,0,0,0-95.9,20.7c-29.2,15.6-53.5,40-71.6,68.5s-30.2,61.4-37.4,95.2-9.6,69.2-8.8,104.5h0a17.5,17.5,0,1,1-34.9.9Z" transform="translate(-685.4 -742.9)"/><path class="cls-3" d="M2506.4,3105.3c53.8-136,12.1-374.5-24.3-629.2H1547.7c-36.4,254.7-78.1,493.2-24.4,629.2" transform="translate(-685.4 -742.9)"/><g class="cls-4"><path class="cls-2" d="M2500.3,3105.3c53.7-136,12.1-374.5-24.3-629.2H1541.5c-36.4,254.7-78,493.2-24.3,629.2" transform="translate(-685.4 -742.9)"/></g><path class="cls-2" d="M2498.3,3102.1c13.1-49.8,16.6-101.2,16.6-153.1l-.7-39c-.7-13-1.1-26-2-39s-1.8-26.1-3-39.2l-3.8-39.1c-5.4-52.2-12.5-104.5-19.6-156.8l-10.7-78.6c-3.5-26.2-7.1-52.4-10.3-78.8h0l17.3,15H1547.7l17.2-15h0c-3.1,26.4-6.7,52.6-10.3,78.8l-10.6,78.6c-7.2,52.3-14.3,104.5-19.8,156.8s-9.4,104.4-9.8,156.3,3.4,103.5,17,153.1l.2.6a8.7,8.7,0,0,1-6.1,10.8,8.9,8.9,0,0,1-10.3-5l-8.1-18.9c-1.2-3.2-2.7-6.3-3.8-9.6l-2.9-9.8c-2-6.5-4.1-13.1-5.8-19.7l-4.2-20-2-10.1-1.4-10.1-2.7-20.2c-1.3-13.4-2.2-26.9-3.1-40.4s-.6-27-.6-40.4.5-26.9,1.1-40.3,1.3-26.7,2.2-40,1.9-26.7,3.1-40c4.8-53.1,11.7-105.9,19.1-158.4q5.7-39.4,11.8-78.6c4.1-26.2,8.1-52.3,12.5-78.4h0l2.1-15h964.7l2.2,15h0c4.4,26.1,8.4,52.2,12.5,78.4s8.1,52.3,11.8,78.6c7.5,52.5,14.4,105.2,19.2,158.4l3.2,39.9c1,13.4,1.5,26.8,2.3,40.1s.7,26.9,1.1,40.3-.3,26.9-.5,40.4-1.6,27-3,40.5l-2.6,20.2-1.5,10.1-2,10c-1.4,6.7-2.8,13.4-4.3,20.1s-3.8,13.2-5.8,19.7l-3.1,9.8c-1,3.2-2.6,6.4-3.9,9.6-2.6,6.3-5.4,12.6-8.2,18.8a8.7,8.7,0,0,1-16.4-5.8Z" transform="translate(-685.4 -742.9)"/><path class="cls-3" d="M2485.9,2329.4s409.7,500.6-25.6,569.6Z" transform="translate(-685.4 -742.9)"/><path class="cls-2" d="M2441.9,2919.6l28.6-636.5,28.9,35.3c9.6,11.7,233.5,288.3,165.9,465.9-26.8,70.5-94.9,114.9-202.3,132Zm59.2-540.9-22.4,499.2c81.9-16.9,133.6-52.5,154-106C2679.6,2648.9,2558.9,2459.2,2501.1,2378.7Z" transform="translate(-685.4 -742.9)"/><path class="cls-11" d="M2176.3,3315.8H1854.1a280.6,280.6,0,0,1-276.4-232.6l-99.5-572.9-9.1-88.9c-9.4-92.4,63.1-172.8,156-172.8h779.6c93.1,0,165.7,80.8,155.9,173.4L2550,2522.4l-97.2,560.7A280.7,280.7,0,0,1,2176.3,3315.8Z" transform="translate(-685.4 -742.9)"/><g class="cls-12"><path class="cls-6" d="M2560.6,2422l-.4,3.6a156.7,156.7,0,0,0-155.6-136.9h-72.4a47.9,47.9,0,0,0-48,48v88.9H2141.5v-88.9a48,48,0,0,0-48-48H1801.6a49.4,49.4,0,0,0-49.5,49.5v87.4h-77.4v-87.4a49.5,49.5,0,0,0-49.6-49.5h0c-80.6,0-145.9,60.4-155.6,136.9l-.4-4.2c-9.4-92.5,63.1-172.7,156-172.7h779.5C2497.8,2248.7,2570.5,2329.4,2560.6,2422Z" transform="translate(-685.4 -742.9)"/></g><path class="cls-2" d="M2176.3,3333.2H1854.1a297.4,297.4,0,0,1-293.6-247L1461,2513.3a5,5,0,0,1-.2-1.2l-9.1-88.9a174.3,174.3,0,0,1,173.4-192h779.6A174.3,174.3,0,0,1,2578,2423.9l-10.7,100.4c0,.3-.1.7-.1,1.1L2470,3086.1A297.6,297.6,0,0,1,2176.3,3333.2ZM1495.5,2508l99.3,572.2a262.7,262.7,0,0,0,259.3,218.1h322.2a262.7,262.7,0,0,0,259.3-218.2l97.1-560.1,10.6-99.8a139.5,139.5,0,0,0-138.6-154.1H1625.1a139.4,139.4,0,0,0-138.7,153.5Z" transform="translate(-685.4 -742.9)"/><path class="cls-11" d="M2550,2522.4l-8,45.8-16,92.6-40,230.5-16.2,93.5-32.4,186.8a173.8,173.8,0,0,1-171.3,144.2H1764.4a173.8,173.8,0,0,1-171.3-144.2l-9.2-52.6-12.3-71.3-6.5-37.2-20.4-118-6.2-35.3-58-334.8c-15.1-77.9,44.6-150.2,123.9-150.2H2426a126.3,126.3,0,0,1,116.2,76.7,126.6,126.6,0,0,1,7.8,73.5Z" transform="translate(-685.4 -742.9)"/><g class="cls-4"><path class="cls-2" d="M2526,2660.8l-40,230.5-16.2,93.5-32.4,186.8a173.8,173.8,0,0,1-171.3,144.2H1764.4a173.8,173.8,0,0,1-171.3-144.2l-48.4-279.1c61.8,130.8,193,276.6,470.2,276.8h.3c210-.1,336.2-83.8,411.9-181.3-91-2.1-146.7-65.5-121.9-244.8C2319.5,2639.9,2478.7,2654.4,2526,2660.8Z" transform="translate(-685.4 -742.9)"/></g><g class="cls-12"><path class="cls-6" d="M2550,2522.4l-8,45.8L1583.9,3119l-12.3-71.3,979-569.9A124.1,124.1,0,0,1,2550,2522.4Z" transform="translate(-685.4 -742.9)"/></g><g class="cls-12"><path class="cls-6" d="M2542.2,2448.9l-977.1,561.6-20.4-118-6.2-35.3,833.1-485H2426A126.3,126.3,0,0,1,2542.2,2448.9Z" transform="translate(-685.4 -742.9)"/></g><path class="cls-2" d="M2266.1,3333.2H1764.4a190.9,190.9,0,0,1-188.5-158.6l-112.6-649.2a143.6,143.6,0,0,1,141.1-170.6H2426a143.6,143.6,0,0,1,141.1,170.9l-112.5,648.9A190.9,190.9,0,0,1,2266.1,3333.2Zm-661.7-943.5a108.7,108.7,0,0,0-106.8,129.4l112.6,649.5a156.2,156.2,0,0,0,154.2,129.7h501.7a156,156,0,0,0,154.1-129.7l112.6-649.2A108.8,108.8,0,0,0,2426,2389.7Z" transform="translate(-685.4 -742.9)"/><path class="cls-6" d="M2564.9,2822.8c-21.4,41-56.9,70.7-104.6,76.2-110.1,12.9-172.6-49.5-132.5-205.6,11-43,41.6-70.4,76.3-87.6,61.5-30.8,135.6-30.1,135.6-30.1C2596.8,2647.7,2601.8,2752.1,2564.9,2822.8Z" transform="translate(-685.4 -742.9)"/><g class="cls-4"><path class="cls-2" d="M2564.9,2822.8c-21.4,41-56.9,70.7-104.6,76.2-110.1,12.9-172.6-49.5-132.5-205.6,11-43,41.6-70.4,76.3-87.6-22.6,53.6-44.8,135.8-9.1,203.6C2426.9,2869.9,2511.6,2866.1,2564.9,2822.8Z" transform="translate(-685.4 -742.9)"/></g><path class="cls-2" d="M2539.5,2593.2c-50.1,1.7-103.9,12.7-144.7,39-20.2,13.2-36.2,31-44.7,52.3-1.1,2.7-2,5.4-2.9,8.1s-1.6,5.5-2.3,8.8c-1.6,6.3-3.1,12.6-4.3,19a309.8,309.8,0,0,0-5.7,37.9c-2.2,25.2-.9,50.4,7.3,71.8a78.3,78.3,0,0,0,17.7,27.7,80.8,80.8,0,0,0,27.6,17.7c21.3,8.1,46.8,9.6,71.8,7.4,5.5-.7,12.2-1.9,18.6-3.2l19.4-4c6.4-1.4,12.8-3,19.1-4.6l9.3-2.5,7.8-2.6,1.1-.4a13.9,13.9,0,0,1,11.3,25.4,95.5,95.5,0,0,1-11.1,4.8c-3.4,1.2-6.8,2.4-10.1,3.4-6.7,2.2-13.3,4.2-20,6s-13.3,3.7-20.1,5.3-13.4,3.2-21.2,4.4c-14.5,2.1-28.8,3.3-43.7,2.5a153.3,153.3,0,0,1-44.7-8.7,112.7,112.7,0,0,1-40.4-25.4,114.7,114.7,0,0,1-26-39.9c-11.4-29.4-12.5-59.6-10.3-88.1a368.1,368.1,0,0,1,6-42.3c1.4-6.9,2.9-13.7,4.6-20.5.8-3.3,1.9-7.2,3-10.9s2.5-7.3,3.9-11a143.4,143.4,0,0,1,24.4-39.5,166.6,166.6,0,0,1,34.5-29.6c25.1-16.4,52.7-26.4,80.4-33.1a375,375,0,0,1,41.9-7.4c7-.9,14-1.6,21.1-2s13.9-.8,21.7-.8a17.6,17.6,0,0,1,17.4,17.6,17.4,17.4,0,0,1-16.8,17.3Z" transform="translate(-685.4 -742.9)"/><path class="cls-2" d="M2423.9,2698.5a183.8,183.8,0,0,0-30.4,7.9,134.2,134.2,0,0,0-27.8,13.2,83.5,83.5,0,0,0-21.6,18.6,68.1,68.1,0,0,0-6.9,11.1,64.7,64.7,0,0,0-3.9,12h0a17.5,17.5,0,1,1-34.1-7.6,9,9,0,0,1,.6-2.2,91.6,91.6,0,0,1,9.1-18.6,92.6,92.6,0,0,1,12.8-15.6,112.5,112.5,0,0,1,31.8-21,165.2,165.2,0,0,1,34.1-11,204.1,204.1,0,0,1,35.1-4.3,8.7,8.7,0,0,1,1.7,17.3Z" transform="translate(-685.4 -742.9)"/><path class="cls-2" d="M2435.6,2847.5a161.5,161.5,0,0,1-34.7,7.4,131.4,131.4,0,0,1-36.4-1.1c-12.3-2.3-24.9-6.7-36-14.4s-20.4-18.1-27.2-29.6h0a17.5,17.5,0,1,1,30.2-17.7,18.6,18.6,0,0,1,1,2,57.4,57.4,0,0,0,14.5,21.1c6.4,5.9,14.6,10.2,23.7,13.3a107.7,107.7,0,0,0,29.4,4.7,148.2,148.2,0,0,0,30.6-2.3h.6a8.7,8.7,0,0,1,4.3,16.8Z" transform="translate(-685.4 -742.9)"/><path class="cls-2" d="M1557.4,2524.8l15.9,89.8a60.6,60.6,0,0,0,59.7,50h0a60.6,60.6,0,0,0,59.7-70.8l-15.4-89.8a60.6,60.6,0,0,0-59.7-50.4h-.5A60.6,60.6,0,0,0,1557.4,2524.8Z" transform="translate(-685.4 -742.9)"/><path class="cls-2" d="M1633,2682.1a77.9,77.9,0,0,1-76.9-64.5l-15.9-89.8h0a78,78,0,0,1,76.9-91.6h.5a77.8,77.8,0,0,1,76.9,64.8l15.4,89.8a78.2,78.2,0,0,1-76.9,91.3Zm-58.4-160.4,15.9,89.8a43.1,43.1,0,0,0,85-14.8l-15.4-89.8a43,43,0,0,0-42.5-35.8h-.5a43.1,43.1,0,0,0-42.5,50.6Z" transform="translate(-685.4 -742.9)"/><circle class="cls-2" cx="930.3" cy="1764.6" r="33.6"/><circle class="cls-2" cx="1615.8" cy="2507.5" r="9.3" transform="translate(-1881.3 2761) rotate(-76.7)"/><path class="cls-13" d="M1615.8,2549.9a42.4,42.4,0,1,1,42.3-42.4A42.4,42.4,0,0,1,1615.8,2549.9Zm0-67.3a24.9,24.9,0,1,0,24.8,24.9A24.9,24.9,0,0,0,1615.8,2482.6Z" transform="translate(-685.4 -742.9)"/><circle class="cls-2" cx="1633.2" cy="2605.6" r="33.6" transform="translate(-1885.7 3057.4) rotate(-80.8)"/><path class="cls-13" d="M1633.2,2647.9a42.4,42.4,0,1,1,42.4-42.3A42.4,42.4,0,0,1,1633.2,2647.9Zm0-67.2a24.9,24.9,0,1,0,24.9,24.9A24.9,24.9,0,0,0,1633.2,2580.7Z" transform="translate(-685.4 -742.9)"/><ellipse class="cls-2" cx="1674.4" cy="1693.9" rx="160.3" ry="118.2" transform="translate(-823 2496.8) rotate(-85.8)"/><ellipse class="cls-6" cx="1717" cy="1666.8" rx="63.7" ry="39.7" transform="matrix(0.07, -1, 1, 0.07, -756.56, 2514.13)"/><g class="cls-14"><ellipse class="cls-6" cx="1622.4" cy="1756.3" rx="19.8" ry="40.7" transform="translate(-1198.9 -61.2) rotate(-20.6)"/></g><ellipse class="cls-2" cx="2353" cy="1693.9" rx="118.2" ry="160.3" transform="translate(-803.2 -566) rotate(-4.2)"/><ellipse class="cls-6" cx="2310.4" cy="1666.8" rx="39.7" ry="63.7" transform="translate(-801.3 -569.2) rotate(-4.2)"/><g class="cls-14"><ellipse class="cls-6" cx="2405" cy="1756.3" rx="40.7" ry="19.8" transform="translate(-769.5 2648.3) rotate(-69.4)"/></g><ellipse class="cls-15" cx="1262.9" cy="3114.9" rx="50" ry="67.4" transform="translate(-1179.8 -493.2) rotate(-9.5)"/><ellipse class="cls-15" cx="1295" cy="3018.5" rx="22.5" ry="16.7" transform="translate(-2439.7 3496.2) rotate(-88.6)"/><ellipse class="cls-15" cx="1240.6" cy="3004.5" rx="23.4" ry="31.6" transform="translate(-946.3 -621.4) rotate(-5.1)"/><ellipse class="cls-15" cx="1200.4" cy="3044.7" rx="16.9" ry="22.8" transform="translate(-1475.9 -295.8) rotate(-16)"/><ellipse class="cls-15" cx="2776.1" cy="3114.9" rx="67.4" ry="50" transform="translate(-1437.9 4598.8) rotate(-80.5)"/><ellipse class="cls-15" cx="2744" cy="3018.5" rx="16.7" ry="22.5" transform="translate(-758.5 -674.8) rotate(-1.4)"/><ellipse class="cls-15" cx="2798.3" cy="3004.5" rx="31.6" ry="23.4" transform="matrix(0.09, -1, 1, 0.09, -1127.29, 4783.18)"/><ellipse class="cls-15" cx="2838.5" cy="3044.7" rx="22.8" ry="16.9" transform="translate(-1554.4 4194.4) rotate(-74)"/><path class="cls-6" d="M2980.2,1335.3a228.4,228.4,0,0,1-28.3-143.8c16.6-125.6,131.9-214,257.5-197.4s214,131.8,197.4,257.4-131.8,214-257.4,197.5a229.1,229.1,0,0,1-94.7-34.9l-106.8,20.7Z" transform="translate(-685.4 -742.9)"/><g class="cls-5"><path class="cls-6" d="M3203.6,1037.8c-117.3-15.5-225.6,60.7-252.9,173.2a226.4,226.4,0,0,1,1.9-24.5c16.6-125.6,131.8-214,257.4-197.4s214,131.8,197.5,257.4a235.1,235.1,0,0,1-4.5,24.2C3405.8,1155,3321,1053.3,3203.6,1037.8Z" transform="translate(-685.4 -742.9)"/></g><path class="cls-2" d="M3179.6,1468.7a237.7,237.7,0,0,1-32.5-2.2,244.4,244.4,0,0,1-95.9-33.6L2921.7,1458l39.3-120.9a244.5,244.5,0,0,1-26.6-147.9c17.8-135.1,142.2-230.5,277.3-212.7s230.5,142.2,212.7,277.3C3408,1378,3301.6,1468.7,3179.6,1468.7Zm-121.3-73.4,6,3.9a210.3,210.3,0,0,0,87.4,32.2c115.7,15.2,222.3-66.5,237.5-182.2s-66.4-222.3-182.1-237.5-222.3,66.4-237.6,182.1a210.4,210.4,0,0,0,26.1,132.7l3.9,6.8-25.4,78.4Z" transform="translate(-685.4 -742.9)"/><g class="cls-4"><path class="cls-2" d="M2979,1333.1c61.3,54.9,147.1,80.7,233.7,61.8a265,265,0,0,0,196-178.9,223.6,223.6,0,0,1-1.9,35.5c-16.5,125.6-131.8,214-257.4,197.5a229.1,229.1,0,0,1-94.7-34.9l-106.8,20.7,32.3-99.5Z" transform="translate(-685.4 -742.9)"/></g><path class="cls-16" d="M3105.9,1157.1h0c19.9-19.9,52.1-16.3,71.9,3.5l3.1,3.1,3.1-3.1c19.9-19.8,52-23.4,71.9-3.5h0a50.9,50.9,0,0,1,0,71.9l-3.1,3.1-62.4,62.4a13.5,13.5,0,0,1-19,0l-62.4-62.4-3.1-3.1A50.9,50.9,0,0,1,3105.9,1157.1Z" transform="translate(-685.4 -742.9)"/></svg>